<?xml version="1.0" standalone="no"?>
<!DOCTYPE svg PUBLIC "-//W3C//DTD SVG 20010904//EN"
 "http://www.w3.org/TR/2001/REC-SVG-20010904/DTD/svg10.dtd">
<svg version="1.0" xmlns="http://www.w3.org/2000/svg"
 width="225.000000pt" height="225.000000pt" viewBox="0 0 225.000000 225.000000"
 preserveAspectRatio="xMidYMid meet">
<metadata>
Created by potrace 1.16, written by Peter Selinger 2001-2019
</metadata>
<g transform="translate(0.000000,225.000000) scale(0.100000,-0.100000)"
fill="#000000" stroke="none">
<path d="M1184 2186 c-4 -10 1 -25 10 -35 16 -18 14 -21 -46 -58 -206 -129
-365 -209 -553 -277 -144 -52 -133 -46 -111 -62 12 -8 45 -14 80 -15 49 0 56
-2 37 -10 -20 -8 -21 -12 -10 -25 7 -9 33 -26 58 -39 25 -12 53 -31 62 -41 21
-24 73 -134 66 -140 -3 -3 -36 -10 -73 -15 -38 -5 -104 -18 -146 -29 -43 -11
-87 -20 -98 -20 -12 0 -38 18 -58 39 -36 38 -85 61 -99 47 -4 -4 1 -20 10 -35
24 -41 21 -99 -8 -178 -18 -47 -37 -77 -61 -98 -29 -25 -37 -39 -41 -77 -17
-145 65 -250 136 -174 26 28 51 104 51 157 0 20 9 66 20 101 11 34 20 85 20
112 0 48 0 48 28 42 68 -15 134 -18 197 -7 l68 12 29 -33 c16 -18 44 -64 62
-103 19 -42 48 -84 72 -104 106 -94 388 -176 692 -201 144 -13 187 -9 274 22
64 23 70 28 86 76 15 43 6 60 -48 92 -22 14 -58 37 -78 52 -20 16 -55 40 -76
54 -35 24 -38 28 -23 39 9 7 54 15 99 18 53 3 99 13 128 26 25 11 62 21 83 21
31 0 40 5 56 31 11 18 17 39 13 48 -11 31 -133 159 -164 172 -31 12 -104 9
-608 -28 l-75 -5 57 38 c31 22 93 65 138 98 45 32 100 69 123 81 37 19 42 26
40 54 0 17 -7 39 -14 47 -15 18 -85 55 -159 84 -44 17 -51 18 -56 5 -4 -8 4
-31 15 -51 18 -31 20 -39 9 -54 -97 -133 -213 -260 -237 -260 -4 0 -5 18 -3
39 3 29 -3 53 -23 88 -44 81 -59 94 -132 112 -66 17 -66 17 -37 29 200 78 304
113 379 127 88 17 125 35 125 62 0 26 -70 90 -132 121 -79 40 -145 52 -154 28z
m-280 -385 c11 -11 35 -32 52 -48 17 -15 44 -58 59 -96 23 -57 34 -71 67 -88
69 -35 42 -51 -107 -63 l-90 -7 -2 55 c-5 110 -42 151 -158 176 -46 10 -55 15
-40 20 87 34 181 68 189 69 4 1 18 -8 30 -18z m934 -348 c28 -7 28 -20 -3 -65
-22 -33 -131 -118 -151 -118 -4 0 -16 7 -26 17 -29 26 -31 10 -9 -69 12 -41
21 -90 21 -110 0 -32 -3 -36 -31 -42 -57 -11 -229 -6 -338 10 -131 19 -228 47
-304 86 -48 26 -62 40 -89 90 -21 41 -44 67 -74 86 -24 15 -43 30 -44 33 0 4
15 9 33 12 17 3 66 10 107 17 41 6 127 21 190 33 155 29 624 43 718 20z M1330
1432 c0 -11 90 -148 132 -202 29 -37 69 -60 105 -60 68 0 82 88 25 150 -50 54
-262 145 -262 112z M1057 1403 c-4 -3 -4 -36 -1 -72 12 -109 67 -171 154 -171
59 0 106 86 65 120 -8 7 -15 19 -15 27 0 12 -7 14 -31 9 -38 -7 -64 5 -110 55
-36 39 -49 45 -62 32z M550 1310 c0 -6 6 -26 14 -44 13 -32 12 -41 -26 -148
-46 -127 -53 -199 -24 -243 9 -14 24 -29 32 -32 39 -15 84 85 106 232 14 98 2
153 -44 209 -28 34 -58 48 -58 26z M892 998 c-16 -16 -15 -37 3 -44 21 -9 19
-23 -14 -72 -93 -140 -399 -439 -563 -551 -93 -63 -231 -147 -253 -154 -6 -2
-4 -11 5 -22 12 -14 26 -17 82 -13 95 7 204 62 341 172 60 47 121 93 135 101
28 15 155 135 230 218 24 26 50 47 57 47 17 0 131 -94 144 -119 9 -15 1 -28
-47 -73 -31 -30 -91 -77 -133 -106 -81 -54 -228 -132 -250 -132 -15 0 -142
-31 -148 -36 -2 -2 7 -12 20 -23 20 -17 39 -20 126 -21 96 0 110 3 210 41 143
54 145 55 257 153 57 50 103 83 109 79 7 -4 60 -44 120 -90 59 -46 144 -104
190 -129 45 -26 110 -62 144 -81 40 -22 81 -36 115 -40 67 -7 332 24 368 42
37 19 45 44 23 66 -34 33 -142 80 -217 94 -178 34 -355 79 -401 102 -77 38
-246 144 -252 158 -2 7 25 57 61 112 84 125 89 149 45 193 -58 57 -107 73
-207 65 -98 -7 -122 -12 -122 -26 0 -12 85 -54 138 -68 34 -10 42 -16 42 -34
0 -20 -57 -127 -80 -151 -4 -4 -28 6 -54 23 -25 17 -67 41 -93 52 -26 11 -49
22 -51 24 -3 2 13 32 35 67 47 74 57 100 48 129 -13 41 -134 76 -163 47z"/>
</g>
</svg>
