<?xml version="1.0" standalone="no"?>
<!DOCTYPE svg PUBLIC "-//W3C//DTD SVG 20010904//EN"
 "http://www.w3.org/TR/2001/REC-SVG-20010904/DTD/svg10.dtd">
<svg version="1.0" xmlns="http://www.w3.org/2000/svg"
 width="1600.000000pt" height="1300.000000pt" viewBox="0 0 1600.000000 1300.000000"
 preserveAspectRatio="xMidYMid meet">
<metadata>
Created by potrace 1.16, written by Peter Selinger 2001-2019
</metadata>
<g transform="translate(0.000000,1300.000000) scale(0.100000,-0.100000)"
fill="#000000" stroke="none">
<path d="M3010 10302 c0 -2093 2 -2233 36 -2567 160 -1586 876 -3171 2089
-4630 689 -828 1562 -1635 2455 -2267 163 -115 350 -238 364 -238 21 0 379
230 611 394 800 562 1619 1305 2250 2041 1209 1408 1931 2954 2120 4535 50
420 48 341 52 2658 l4 2172 -4991 0 -4990 0 0 -2098z m3764 455 c15 -11 18
-29 18 -108 0 -52 1 -231 2 -399 0 -168 0 -370 -1 -450 -1 -80 -3 -467 -5
-860 -2 -517 -6 -721 -15 -735 -20 -36 -47 -52 -118 -70 -60 -15 -110 -17
-340 -16 -151 1 -332 -3 -410 -10 -209 -19 -214 -19 -238 13 -20 27 -20 28 -2
119 12 63 15 112 11 158 -17 170 -25 1057 -14 1421 7 206 11 422 10 480 -5
207 27 317 103 355 37 18 67 21 380 26 365 7 417 13 513 63 54 28 80 32 106
13z m2566 -25 c62 -21 98 -26 210 -30 74 -2 200 1 280 6 171 11 271 3 309 -25
45 -34 63 -134 65 -358 2 -273 -14 -1687 -22 -1965 l-7 -235 -60 2 c-315 13
-519 17 -564 10 -70 -10 -306 9 -362 28 -92 33 -109 78 -88 240 9 78 9 199 0
579 -8 326 -9 682 -4 1106 9 733 2 685 106 674 34 -3 96 -18 137 -32z m2113
24 c13 -13 14 -139 12 -908 -2 -491 -6 -1064 -10 -1272 l-8 -380 -24 -22 c-48
-45 -99 -49 -528 -46 l-400 2 -77 -27 c-64 -23 -80 -25 -102 -15 -30 14 -31
20 -15 197 7 75 12 438 13 970 1 468 6 960 11 1094 8 238 9 244 33 272 53 64
52 63 452 70 381 6 441 12 556 57 61 25 69 25 87 8z m-6822 -40 c132 -43 180
-48 399 -41 391 11 359 12 423 -17 53 -25 60 -32 83 -85 l26 -57 1 -526 c1
-289 -3 -700 -9 -915 -11 -369 -4 -894 11 -941 4 -13 0 -29 -13 -43 l-18 -24
-85 17 c-133 26 -304 37 -577 37 -272 1 -321 7 -375 51 l-28 23 -6 510 c-10
821 -8 1955 4 1998 5 20 35 35 69 36 12 1 55 -10 95 -23z m4154 -10 c19 -8 35
-18 35 -22 0 -3 -17 -50 -37 -103 l-38 -96 0 -1275 c0 -1414 -5 -1305 67
-1363 l38 -30 527 -7 c344 -5 546 -12 580 -19 59 -14 88 -40 78 -70 -14 -46
-14 -46 -676 -44 -674 1 -656 0 -704 53 -18 20 -21 41 -26 214 -6 210 -9 224
-73 285 -35 34 -36 34 -155 41 -121 7 -156 18 -188 59 -23 29 -16 89 13 116
26 24 46 29 179 40 82 7 155 39 172 75 25 54 33 247 34 754 0 505 -1 518 -21
551 -30 49 -78 67 -205 76 -60 4 -118 8 -128 8 -10 1 -32 14 -48 30 -29 29
-37 68 -23 106 12 31 80 55 186 66 137 13 172 24 202 60 33 39 34 43 40 224 7
193 20 244 66 267 42 22 60 22 105 4z m-1537 -18 c28 -24 35 -66 42 -264 4
-113 12 -209 18 -221 16 -29 63 -43 146 -43 172 -1 241 -46 205 -131 -18 -44
-43 -53 -171 -59 -141 -6 -161 -18 -172 -103 -10 -76 -26 -676 -26 -943 1
-272 9 -346 42 -381 38 -41 56 -46 189 -52 144 -7 160 -15 181 -83 11 -37 10
-40 -20 -71 l-32 -32 -144 -5 c-126 -4 -148 -8 -172 -26 -15 -11 -31 -32 -35
-45 -3 -14 -12 -124 -19 -245 -7 -120 -16 -229 -21 -241 -5 -13 -23 -32 -40
-42 -42 -25 -150 -30 -1074 -43 -89 -2 -172 4 -202 14 -27 8 -33 15 -33 38 0
60 95 68 790 70 153 0 282 5 307 12 24 6 61 27 84 47 36 32 41 43 50 101 13
92 22 2029 10 2350 -6 174 -15 284 -25 320 -15 59 -11 74 29 91 24 10 73 3 93
-13z m-260 -21 c11 -12 33 -49 49 -82 l28 -60 -3 -1220 c-3 -1341 1 -1269 -60
-1233 -32 19 -72 75 -97 138 -17 43 -18 106 -16 1255 2 665 5 1213 8 1217 10
17 70 7 91 -15z m4934 12 c64 -17 73 -46 73 -244 0 -192 7 -216 70 -255 28
-17 61 -24 146 -31 60 -5 118 -13 129 -19 33 -17 50 -53 50 -101 0 -76 -46
-99 -202 -99 -114 0 -160 -15 -180 -57 -11 -22 -15 -112 -17 -423 -1 -217 -6
-445 -11 -506 -5 -66 -5 -151 0 -207 20 -213 33 -227 214 -237 164 -10 216
-33 216 -94 0 -45 -21 -79 -60 -98 -28 -15 -61 -18 -168 -18 l-134 0 -34 -34
c-32 -32 -34 -38 -34 -102 0 -38 -9 -145 -21 -239 -21 -169 -21 -170 -55 -205
l-34 -35 -662 3 c-471 2 -666 6 -675 14 -27 22 -11 62 32 82 47 23 156 26 425
13 91 -5 295 -6 453 -2 l288 7 34 32 c18 18 38 49 43 71 18 68 33 871 32 1744
l0 835 -26 73 c-14 41 -22 83 -19 94 15 48 53 59 127 38z m-260 -18 c14 -11
38 -48 53 -83 27 -58 30 -76 38 -243 4 -99 5 -349 1 -555 -4 -206 -8 -673 -8
-1038 -1 -575 -3 -664 -16 -672 -29 -19 -54 -9 -96 36 -82 87 -77 21 -69 1021
4 488 7 922 8 963 0 41 -1 184 -4 318 -4 232 -3 244 15 258 27 19 49 18 78 -5z
m-7541 -1 c25 -14 24 -37 -3 -102 -22 -53 -22 -55 -28 -1078 -6 -824 -4 -1081
7 -1310 17 -336 20 -346 99 -372 47 -16 359 -33 564 -31 36 0 183 1 327 3 284
3 316 -2 327 -46 9 -33 -8 -60 -41 -70 -16 -5 -314 -7 -663 -4 -586 5 -638 6
-663 23 -57 37 -60 50 -68 300 -6 206 -9 232 -25 244 -30 22 -85 33 -167 33
-109 0 -161 15 -197 57 -37 41 -38 72 -4 112 33 40 77 51 199 51 75 0 109 4
135 18 32 16 36 21 43 77 4 33 9 292 11 575 2 283 7 535 10 560 5 29 2 65 -8
102 -31 120 -36 123 -205 123 -125 0 -140 2 -186 25 -49 24 -50 26 -49 67 2
85 63 120 222 126 185 8 209 37 222 277 8 140 20 187 59 228 24 24 51 28 82
12z m234 -20 c3 -10 1 -29 -5 -41 -9 -16 -9 -37 0 -85 8 -43 10 -100 5 -172
-9 -137 -10 -2055 -1 -2071 11 -18 -12 -158 -33 -200 -25 -49 -77 -93 -105
-89 -17 2 -22 12 -26 48 -3 25 -4 585 -3 1245 2 1183 3 1201 23 1260 25 72 72
125 111 125 19 0 30 -6 34 -20z m4603 -2 c29 -37 34 -137 34 -756 0 -345 -4
-872 -8 -1172 l-7 -545 -28 -56 c-15 -31 -35 -59 -44 -63 -28 -10 -63 -7 -68
7 -3 8 -6 547 -6 1198 -2 1335 -4 1289 74 1372 29 30 38 33 53 15z m-2056
-2567 c28 -23 98 -132 98 -154 0 -9 -10 -23 -22 -31 -19 -13 -62 -16 -268 -16
-135 0 -384 -5 -554 -10 -269 -8 -312 -7 -338 6 -62 32 -63 100 -1 129 31 15
51 17 127 10 50 -4 111 -7 136 -7 476 16 586 27 696 70 64 26 96 26 126 3z
m2330 -17 c150 -24 186 -26 445 -25 396 2 453 -11 453 -101 0 -32 -4 -40 -26
-48 -37 -14 -91 -12 -181 6 -66 14 -140 16 -491 14 -483 -2 -479 -3 -473 75 2
19 84 105 101 105 5 0 82 -12 172 -26z m-4708 -15 c51 -30 168 -39 517 -39
330 0 386 -6 430 -46 22 -20 25 -62 6 -89 -13 -17 -21 -17 -123 -7 -68 7 -275
11 -549 9 -484 -2 -485 -2 -485 54 0 77 75 155 138 144 18 -3 48 -15 66 -26z
m7059 -2 c51 -39 91 -102 83 -132 l-6 -25 -615 0 -614 0 -16 31 c-28 52 -18
71 50 92 55 17 83 18 350 12 310 -7 445 1 575 35 94 24 150 20 193 -13z
m-1269 -171 c42 -18 94 -80 107 -131 13 -46 -3 -136 -27 -156 -8 -6 -46 -14
-84 -17 l-71 -5 -38 41 c-66 69 -65 175 3 247 36 38 59 42 110 21z m-4576 -52
c52 -40 72 -80 72 -144 0 -121 -73 -190 -170 -161 -23 7 -53 23 -66 36 -22 22
-24 32 -24 121 l0 97 45 45 c40 39 49 44 77 38 17 -3 47 -18 66 -32z m3836
-1517 c16 -12 16 -20 5 -102 -13 -101 -14 -144 -6 -1455 4 -660 3 -955 -5
-979 -8 -27 -21 -38 -72 -62 -120 -56 -152 -59 -718 -58 -490 0 -519 -1 -555
-19 -63 -32 -111 -44 -144 -37 l-32 7 8 87 c4 47 7 106 7 131 0 25 -1 99 -1
165 0 66 -5 243 -11 393 -15 352 -6 406 64 388 56 -14 110 -197 89 -298 -16
-74 -3 -83 129 -94 121 -10 155 -8 185 12 32 20 22 38 -67 124 l-78 75 -11 80
c-6 44 -27 125 -47 180 -19 55 -50 143 -69 196 -18 53 -39 124 -45 157 -6 34
-38 143 -72 244 l-62 183 0 267 -1 266 24 26 c27 29 56 38 181 56 71 10 125 9
330 -5 407 -29 692 -11 813 51 66 35 131 43 161 21z m-2949 -42 c128 -45 244
-53 532 -35 409 27 654 13 715 -38 55 -46 58 -68 52 -309 -7 -272 -24 -400
-75 -562 -23 -69 -74 -256 -114 -416 -94 -372 -97 -381 -163 -425 -80 -54 -79
-91 4 -111 49 -11 171 -1 188 17 8 7 15 48 19 96 8 130 72 288 117 288 11 0
21 -10 25 -27 4 -16 9 -264 10 -552 3 -623 16 -568 -129 -556 -50 4 -317 9
-594 11 -308 2 -528 8 -565 14 -76 14 -135 40 -165 72 l-22 24 -6 1205 c-3
662 -6 1227 -7 1255 0 28 2 58 6 67 10 26 61 21 172 -18z m3434 -20 c50 -25
60 -64 54 -202 -9 -187 20 -303 81 -323 18 -5 86 -16 153 -24 67 -8 131 -20
143 -26 28 -15 40 -49 31 -90 -10 -51 -46 -71 -148 -82 -183 -20 -175 -17
-214 -57 -33 -33 -38 -44 -44 -106 -5 -39 -5 -158 -1 -266 3 -108 1 -330 -4
-494 -12 -315 -4 -457 26 -503 24 -37 80 -54 207 -63 94 -7 127 -13 160 -31
38 -21 42 -27 45 -66 7 -91 -45 -122 -198 -122 -106 0 -151 -12 -182 -47 -22
-24 -55 -229 -65 -391 -7 -126 -15 -140 -92 -162 -47 -14 -1464 -34 -1625 -23
l-120 8 -19 32 c-23 40 -12 66 35 83 23 8 241 14 733 21 385 5 729 13 765 17
77 10 133 35 154 67 29 43 35 376 32 1552 l-3 1132 -32 49 c-37 58 -40 95 -9
116 28 20 100 21 137 1z m-3911 -27 c23 -23 13 -77 -27 -143 l-38 -64 -7 -153
c-3 -84 -2 -430 3 -768 5 -338 6 -664 2 -725 -10 -149 -6 -554 8 -810 11 -194
13 -211 34 -233 l22 -24 295 8 c351 11 495 11 943 -1 l339 -8 16 -34 c14 -30
14 -35 1 -48 -33 -33 -245 -47 -784 -50 -181 -2 -456 -6 -610 -10 -392 -11
-374 -25 -385 277 -8 223 -16 260 -67 296 -38 27 -95 39 -210 46 -99 6 -168
27 -183 57 -20 37 -12 73 24 97 48 32 85 41 230 52 71 5 135 15 143 22 8 6 22
25 31 42 15 28 17 89 17 661 0 620 0 631 -21 670 -35 67 -66 78 -210 76 -138
-2 -176 8 -213 55 -29 37 -22 79 18 116 32 28 38 30 223 46 173 16 208 49 208
201 0 103 17 275 30 307 17 43 137 73 168 42z m3635 -37 c64 -71 68 -86 78
-290 9 -209 10 -1764 0 -2111 -6 -222 -6 -225 -28 -228 -16 -2 -33 11 -67 55
-91 115 -84 -3 -82 1365 1 1168 2 1207 20 1227 27 29 39 27 79 -18z m-3464
-27 c22 -16 23 -21 17 -82 -4 -37 -6 -402 -4 -812 2 -410 3 -929 3 -1155 l0
-410 -24 -45 c-43 -82 -106 -132 -126 -100 -4 6 -7 563 -8 1238 -1 962 1 1233
11 1256 18 43 82 126 96 126 6 0 22 -7 35 -16z m1631 -970 c11 -12 11 -42 4
-144 -6 -71 -12 -131 -14 -133 -19 -17 -51 -16 -69 2 -30 30 -27 104 5 199 32
92 48 108 74 76z m134 -220 c20 -20 20 -48 1 -64 -24 -20 -45 -4 -45 33 0 49
16 60 44 31z m-1542 -1376 l93 -42 585 -6 c539 -5 588 -6 613 -23 36 -24 37
-68 1 -96 -26 -20 -37 -21 -433 -21 -223 1 -523 6 -666 12 -143 7 -304 11
-358 10 -108 -2 -116 2 -97 54 27 72 108 154 152 154 10 0 60 -19 110 -42z
m3115 27 c11 -8 37 -39 57 -69 20 -30 41 -58 46 -61 18 -11 10 -44 -13 -60
-21 -13 -120 -16 -781 -18 l-758 -2 -24 28 c-28 33 -30 50 -9 71 35 35 91 39
555 37 450 -2 577 4 723 34 38 8 80 23 95 34 32 24 79 27 109 6z m-1589 -220
c48 -40 65 -96 56 -180 -5 -38 -8 -78 -6 -87 3 -31 -45 -58 -104 -58 -66 0
-102 27 -134 101 -20 49 -21 57 -9 113 24 114 126 171 197 111z M6050 9990
c-166 -11 -209 -19 -221 -41 -14 -27 -4 -52 42 -106 l40 -46 -3 -406 -3 -406
-32 -59 c-66 -118 -61 -120 254 -142 138 -9 267 -14 287 -10 106 20 170 172
112 261 -28 42 -60 33 -94 -27 -16 -29 -39 -62 -51 -73 -27 -24 -167 -46 -218
-35 -62 14 -68 28 -83 168 -15 152 -11 233 15 287 27 54 64 58 139 16 65 -38
95 -39 126 -6 51 54 29 204 -30 197 -13 -1 -47 -18 -75 -37 -62 -43 -102 -45
-138 -9 -34 34 -41 74 -33 192 8 112 22 140 83 161 51 18 79 8 159 -60 32 -27
66 -49 76 -49 22 0 48 38 48 70 0 29 -54 138 -78 158 -17 13 -141 14 -322 2z
M9323 9997 c-36 -28 -29 -59 21 -100 68 -56 69 -63 62 -528 -2 -222 -5 -405
-5 -406 -1 -1 -19 -23 -41 -48 -42 -48 -48 -71 -27 -97 9 -13 40 -17 146 -21
146 -5 178 1 187 39 5 18 -6 39 -41 86 l-47 63 4 125 c3 69 9 133 13 143 16
38 47 14 109 -88 150 -246 211 -327 263 -354 49 -25 133 4 133 46 0 9 -22 39
-48 67 -26 28 -72 94 -101 146 -30 52 -69 116 -87 141 -25 34 -34 57 -34 86 0
36 5 43 74 100 40 34 92 90 116 125 l42 63 -5 101 c-6 120 -25 172 -85 226
-101 91 -175 109 -427 106 -174 -3 -201 -5 -222 -21z m459 -103 c34 -18 63
-59 94 -134 28 -70 30 -98 8 -169 -61 -208 -344 -233 -309 -27 4 22 10 101 14
174 8 146 13 158 72 172 39 9 82 4 121 -16z M10770 10010 c-63 -4 -123 -10
-132 -14 -31 -14 -27 -72 7 -130 24 -40 24 -46 31 -396 8 -438 2 -495 -56
-555 -51 -52 -60 -88 -28 -109 18 -11 57 -15 175 -15 145 0 153 1 168 22 21
30 20 37 -26 104 l-40 61 3 420 3 421 26 28 c43 47 59 76 59 109 0 56 -24 63
-190 54z M4632 9991 c-103 -10 -123 -61 -49 -123 27 -22 58 -64 82 -110 40
-75 141 -349 199 -538 18 -58 37 -114 43 -126 7 -11 19 -50 27 -87 28 -120 85
-197 145 -197 65 0 85 49 201 485 96 360 149 535 176 574 32 48 30 67 -8 91
-24 15 -51 20 -101 20 -59 0 -71 -3 -92 -25 -31 -30 -31 -38 0 -99 35 -70 33
-136 -9 -283 -19 -65 -44 -162 -55 -217 -12 -54 -26 -106 -30 -115 -15 -27
-49 -53 -61 -46 -16 10 -45 72 -68 145 -12 36 -33 94 -48 130 -15 36 -44 123
-65 193 l-37 129 29 56 c35 66 34 97 -4 126 -24 17 -44 21 -120 22 -51 1 -121
-1 -155 -5z M9101 5565 c-20 -9 -65 -15 -116 -15 -159 0 -234 -40 -292 -156
-33 -69 -37 -85 -38 -153 0 -55 5 -85 19 -110 34 -64 111 -134 236 -216 229
-150 288 -248 218 -363 -27 -43 -66 -62 -130 -62 -96 1 -169 51 -215 146 -32
66 -49 80 -86 70 -32 -8 -49 -37 -50 -85 -1 -88 6 -197 15 -213 9 -19 53 -25
63 -9 15 25 65 22 140 -8 92 -37 155 -40 250 -10 88 27 162 97 194 182 31 86
30 206 -4 274 -35 70 -110 137 -242 216 -127 76 -212 150 -238 203 -21 45 -13
97 20 130 27 27 79 31 164 13 43 -9 55 -17 91 -65 35 -46 45 -54 74 -54 18 0
38 6 44 13 34 41 18 245 -22 272 -26 19 -51 18 -95 0z M7415 5601 c-49 -25
-55 -26 -248 -27 -190 -1 -201 0 -245 22 -51 26 -104 31 -119 12 -22 -29 -65
-172 -66 -218 -1 -87 53 -111 97 -41 31 48 91 98 128 107 22 4 39 -1 70 -21
l41 -27 -8 -56 c-4 -32 -9 -223 -11 -427 -2 -203 -4 -372 -4 -375 0 -3 -18
-29 -40 -59 -44 -59 -52 -107 -22 -134 14 -13 42 -16 164 -14 128 2 149 4 167
21 30 27 27 71 -8 115 -28 35 -29 39 -35 196 -4 88 -9 286 -11 440 -4 237 -2
283 10 302 25 38 65 30 112 -22 31 -34 47 -45 70 -45 42 0 63 28 74 101 5 35
12 83 15 105 6 36 3 43 -17 58 -31 21 -54 19 -114 -13z"/>
</g>
</svg>
