<?xml version="1.0" standalone="no"?>
<!DOCTYPE svg PUBLIC "-//W3C//DTD SVG 20010904//EN"
 "http://www.w3.org/TR/2001/REC-SVG-20010904/DTD/svg10.dtd">
<svg version="1.0" xmlns="http://www.w3.org/2000/svg"
 width="92.000000pt" height="92.000000pt" viewBox="0 0 92.000000 92.000000"
 preserveAspectRatio="xMidYMid meet">
<metadata>
Created by potrace 1.16, written by Peter Selinger 2001-2019
</metadata>
<g transform="translate(0.000000,92.000000) scale(0.100000,-0.100000)"
fill="#000000" stroke="none">
<path d="M54 775 c-1 -42 2 -65 10 -65 7 0 11 24 11 65 0 37 -4 65 -10 65 -6
0 -11 -28 -11 -65z M150 794 c-11 -27 -25 -57 -30 -66 -8 -13 -7 -18 3 -18 8
0 14 6 14 13 0 6 8 30 18 52 l17 40 14 -35 c8 -19 17 -43 20 -52 4 -10 12 -18
20 -18 9 0 6 16 -12 58 -14 31 -30 61 -34 66 -6 6 -18 -11 -30 -40z M278 775
c-2 -54 0 -65 13 -65 12 0 14 7 11 30 -2 17 0 30 5 30 5 0 22 -13 36 -30 37
-41 54 -38 22 4 -22 29 -23 35 -10 40 23 8 15 50 -10 54 -15 2 -17 1 -7 -6 21
-14 10 -47 -16 -50 -19 -3 -22 1 -22 27 0 59 -18 30 -22 -34z M432 775 c18
-36 35 -61 39 -57 14 14 58 122 50 122 -5 0 -16 -20 -25 -45 -10 -25 -21 -45
-25 -45 -5 0 -16 20 -25 45 -10 25 -24 45 -32 45 -10 0 -5 -18 18 -65z M582
813 c-6 -16 -17 -45 -26 -65 -9 -21 -13 -38 -8 -38 4 0 16 23 26 51 l19 52 18
-38 c11 -21 19 -45 19 -52 0 -7 8 -13 18 -13 16 0 15 7 -13 65 -16 35 -33 65
-37 65 -3 0 -11 -12 -16 -27z M698 775 c-2 -54 0 -65 13 -65 12 0 14 7 11 30
-2 17 0 30 5 30 5 0 22 -13 38 -30 39 -41 53 -38 21 4 -21 29 -23 35 -10 40
22 8 14 50 -11 54 -15 2 -17 1 -7 -6 21 -14 10 -47 -16 -50 -19 -3 -22 1 -22
27 0 59 -18 30 -22 -34z M850 775 l0 -65 38 1 c30 2 32 3 10 6 -27 4 -28 7
-28 64 0 33 -4 59 -10 59 -6 0 -10 -28 -10 -65z M7 783 c7 -2 19 -2 26 0 6 3
1 5 -13 5 -14 0 -19 -2 -13 -5z M120 639 c0 -5 5 -7 10 -4 6 3 10 8 10 11 0 2
-4 4 -10 4 -5 0 -10 -5 -10 -11z M237 617 c15 -19 30 -33 32 -31 5 5 -43 63
-52 63 -5 1 4 -14 20 -32z M313 615 c0 -22 2 -30 4 -17 2 12 2 30 0 40 -3 9
-5 -1 -4 -23z M356 620 c21 -44 20 -44 28 -25 3 9 2 13 -4 10 -6 -3 -10 -2
-10 2 0 5 -7 18 -15 29 -13 15 -13 13 1 -16z M395 639 c-4 -6 -5 -12 -2 -15 2
-3 7 2 10 11 7 17 1 20 -8 4z M433 615 c0 -22 2 -30 4 -17 2 12 2 30 0 40 -3
9 -5 -1 -4 -23z M503 615 c0 -22 2 -30 4 -17 2 12 2 30 0 40 -3 9 -5 -1 -4
-23z M535 641 c4 -7 3 -16 -4 -20 -8 -5 -8 -12 2 -24 11 -15 12 -14 12 12 0
16 -4 33 -9 38 -5 5 -6 2 -1 -6z M574 638 c-4 -6 2 -17 12 -25 10 -8 18 -19
16 -24 -1 -6 2 -8 7 -4 13 8 3 32 -15 39 -9 3 -12 10 -9 16 3 5 4 10 1 10 -3
0 -8 -5 -12 -12z M643 615 c0 -22 2 -30 4 -17 2 12 2 30 0 40 -3 9 -5 -1 -4
-23z M701 613 c2 -35 2 -35 6 -8 3 16 10 33 16 37 8 5 6 8 -5 8 -14 0 -18 -8
-17 -37z M750 643 c0 -6 5 -15 10 -18 6 -3 11 -16 11 -28 1 -20 2 -20 6 -2 3
11 9 24 14 30 5 5 9 13 9 19 0 5 -6 1 -14 -9 -13 -18 -13 -18 -24 1 -6 10 -12
14 -12 7z M329 478 c-4 -95 3 -146 28 -197 25 -49 85 -111 107 -111 6 0 33 24
61 53 59 61 75 105 75 206 l0 71 -135 0 c-133 0 -135 0 -136 -22z m123 -53 c6
-49 -2 -57 -58 -53 -49 3 -49 3 -50 38 -1 49 1 50 55 50 48 0 49 0 53 -35z
m131 -5 c-1 -19 -2 -38 -2 -42 -1 -11 -101 -7 -102 3 0 5 -1 23 -1 39 0 17 1
32 1 36 1 3 25 4 54 2 l52 -3 -2 -35z m-55 -139 c-3 -44 -4 -46 -37 -49 -21
-2 -31 0 -26 7 3 6 1 11 -4 11 -6 0 -11 -4 -11 -10 0 -5 -11 -10 -25 -10 -26
0 -27 1 -27 50 0 17 1 34 1 39 1 5 30 9 67 9 l65 0 -3 -47z M258 103 c117 -2
306 -2 420 0 114 1 18 2 -213 2 -231 0 -324 -1 -207 -2z"/>
</g>
</svg>
