<?xml version="1.0" standalone="no"?>
<!DOCTYPE svg PUBLIC "-//W3C//DTD SVG 20010904//EN"
 "http://www.w3.org/TR/2001/REC-SVG-20010904/DTD/svg10.dtd">
<svg version="1.0" xmlns="http://www.w3.org/2000/svg"
 width="228.000000pt" height="221.000000pt" viewBox="0 0 228.000000 221.000000"
 preserveAspectRatio="xMidYMid meet">
<metadata>
Created by potrace 1.16, written by Peter Selinger 2001-2019
</metadata>
<g transform="translate(0.000000,221.000000) scale(0.100000,-0.100000)"
fill="#000000" stroke="none">
<path d="M1354 1931 c-8 -9 -6 -26 7 -64 10 -29 18 -81 19 -118 0 -79 -17
-256 -34 -348 l-12 -66 -60 -12 c-32 -7 -97 -16 -142 -19 -92 -8 -105 -18 -78
-60 40 -60 113 -78 196 -49 23 8 45 15 47 15 21 0 -81 -309 -142 -431 -81
-163 -202 -317 -365 -468 -55 -51 -100 -97 -100 -102 0 -30 158 28 256 94 265
176 440 451 556 877 l24 85 49 7 c93 12 179 9 203 -8 30 -21 29 -90 -3 -276
-60 -344 -146 -548 -231 -548 -16 0 -61 9 -99 20 -83 24 -75 23 -75 5 0 -8 4
-15 8 -15 13 0 81 -97 124 -177 22 -41 47 -77 54 -80 42 -16 153 56 213 139
83 112 136 302 181 646 21 166 24 173 81 246 22 27 39 52 39 57 0 38 -200 169
-258 169 -18 0 -50 -9 -70 -19 -47 -24 -181 -65 -189 -58 -12 13 57 303 87
363 36 73 36 77 8 104 -65 61 -264 122 -294 91z M880 1579 c-76 -32 -262 -71
-400 -85 -85 -9 -161 -18 -168 -20 -10 -3 -9 -11 5 -35 38 -64 91 -88 195 -89
54 0 69 -4 76 -17 5 -10 12 -113 16 -230 l6 -212 -53 -10 c-66 -13 -216 -38
-284 -46 -46 -6 -53 -10 -53 -29 0 -53 122 -196 167 -196 6 0 53 21 104 46 52
26 193 89 314 141 265 115 317 141 313 155 -11 31 -37 31 -187 1 -83 -17 -153
-27 -155 -24 -5 11 34 294 49 351 l14 55 -30 26 -31 27 44 7 c102 16 193 45
211 66 36 45 7 99 -64 119 -41 12 -56 12 -89 -1z"/>
</g>
</svg>
