<?xml version="1.0" standalone="no"?>
<!DOCTYPE svg PUBLIC "-//W3C//DTD SVG 20010904//EN"
 "http://www.w3.org/TR/2001/REC-SVG-20010904/DTD/svg10.dtd">
<svg version="1.0" xmlns="http://www.w3.org/2000/svg"
 width="425.000000pt" height="425.000000pt" viewBox="0 0 425.000000 425.000000"
 preserveAspectRatio="xMidYMid meet">
<metadata>
Created by potrace 1.16, written by Peter Selinger 2001-2019
</metadata>
<g transform="translate(0.000000,425.000000) scale(0.100000,-0.100000)"
fill="#000000" stroke="none">
<path d="M380 2120 l0 -930 190 0 190 0 0 930 0 930 -190 0 -190 0 0 -930z
M1020 2420 l0 -630 190 0 190 0 0 630 0 630 -190 0 -190 0 0 -630z M1660 2120
l0 -930 190 0 190 0 0 930 0 930 -190 0 -190 0 0 -930z M2300 2865 l0 -185
190 0 190 0 0 185 0 185 -190 0 -190 0 0 -185z M2950 2865 l0 -185 513 2 512
3 3 183 2 182 -515 0 -515 0 0 -185z M2300 1820 l0 -630 190 0 190 0 0 630 0
630 -190 0 -190 0 0 -630z M2950 1820 l0 -630 195 0 195 0 0 630 0 630 -195 0
-195 0 0 -630z"/>
</g>
</svg>
