<?xml version="1.0" standalone="no"?>
<!DOCTYPE svg PUBLIC "-//W3C//DTD SVG 20010904//EN"
 "http://www.w3.org/TR/2001/REC-SVG-20010904/DTD/svg10.dtd">
<svg version="1.0" xmlns="http://www.w3.org/2000/svg"
 width="400.000000pt" height="300.000000pt" viewBox="0 0 400.000000 300.000000"
 preserveAspectRatio="xMidYMid meet">
<metadata>
Created by potrace 1.16, written by Peter Selinger 2001-2019
</metadata>
<g transform="translate(0.000000,300.000000) scale(0.100000,-0.100000)"
fill="#000000" stroke="none">
<path d="M1 2503 c0 -346 4 -490 11 -470 11 31 19 33 53 11 18 -12 25 -25 25
-48 -1 -34 -30 -76 -53 -76 -7 0 -19 10 -25 23 -9 19 -11 14 -11 -33 -1 -52 1
-57 29 -73 42 -25 42 -78 0 -119 -38 -36 -41 -81 -7 -103 19 -12 23 -22 19
-48 -2 -17 -13 -42 -24 -54 -18 -19 -20 -33 -16 -110 3 -83 6 -91 41 -143 22
-32 37 -67 37 -85 1 -16 7 -41 15 -55 8 -14 14 -38 15 -53 0 -42 24 -28 28 16
2 26 10 42 28 53 14 10 24 26 24 39 0 13 7 25 15 28 17 7 55 -37 55 -63 0 -28
12 -31 36 -9 14 13 29 19 41 15 33 -11 112 -199 133 -318 7 -34 22 -83 35
-108 59 -117 77 -289 37 -367 -12 -23 -22 -56 -22 -72 0 -16 -4 -33 -10 -36
-13 -8 -58 84 -66 137 -4 24 -26 90 -49 148 -24 58 -49 125 -56 150 -7 25 -23
63 -36 85 l-22 39 2 -159 c2 -140 0 -160 -14 -163 -11 -2 -31 21 -62 74 -56
94 -65 128 -41 155 9 10 14 22 11 26 -4 3 -7 1 -7 -6 0 -8 -12 -11 -32 -9 -42
4 -56 42 -34 90 8 18 18 53 21 77 6 39 5 43 -10 38 -9 -4 -19 -7 -21 -7 -2 0
-4 -12 -4 -27 -1 -85 -34 -99 -44 -19 -5 34 -14 60 -27 72 -19 17 -19 15 -19
-138 0 -139 2 -158 19 -179 25 -31 36 -19 32 33 -3 55 8 98 24 98 9 0 15 -22
20 -73 10 -104 5 -131 -23 -135 -22 -3 -23 -7 -17 -39 9 -51 201 -363 222
-363 3 0 3 48 -1 106 -5 84 -4 105 6 102 14 -5 20 -16 98 -179 32 -67 50 -119
50 -142 l0 -37 581 0 c520 0 582 2 597 16 14 15 17 15 27 0 14 -19 75 -22 75
-3 0 9 2 9 8 -1 7 -10 204 -12 953 -10 l944 3 3 37 c2 20 -2 47 -8 58 -11 21
-12 21 -31 4 -17 -15 -23 -16 -40 -5 -16 9 -24 9 -35 0 -18 -15 -44 4 -44 32
0 12 -11 23 -26 29 -15 6 -25 17 -23 27 3 32 -1 41 -19 45 -22 6 -37 84 -23
120 5 13 15 43 22 68 16 53 21 58 63 55 17 -2 39 -3 49 -4 12 -1 17 -10 17
-33 0 -40 30 -91 67 -115 41 -26 44 -33 38 -88 -2 -27 -1 -66 3 -85 6 -28 13
-35 33 -36 41 -2 46 -10 41 -64 l-5 -50 31 0 c17 0 33 4 37 10 4 6 15 6 31 0
55 -21 110 -6 67 18 -10 6 -14 16 -10 26 9 22 24 20 38 -6 18 -34 40 -47 77
-48 l32 0 0 1500 0 1500 -48 0 -49 0 -7 -162 c-3 -90 -9 -269 -13 -398 -3
-129 -7 -237 -9 -239 -2 -2 -4 176 -4 397 l0 402 -35 0 -35 0 0 -69 c0 -51 -4
-70 -14 -74 -17 -7 -31 -53 -51 -170 -11 -62 -12 -96 -4 -146 7 -44 7 -67 -1
-75 -18 -18 -30 7 -40 94 -6 47 -15 123 -21 170 -5 47 -20 127 -31 178 -17 72
-25 92 -39 92 -20 0 -29 -19 -30 -68 0 -30 -2 -33 -9 -17 -5 11 -9 35 -9 53
-1 31 -2 32 -46 32 l-45 0 -1 -227 c-2 -461 -9 -667 -24 -681 -3 -3 -5 19 -5
49 0 30 -2 99 -4 154 -3 55 -8 236 -12 403 l-7 302 -42 0 -43 0 -7 -78 c-4
-44 -6 -94 -5 -113 4 -62 0 -152 -6 -147 -3 3 -7 48 -10 99 -9 204 -14 239
-33 239 -17 0 -18 -34 -25 -532 -4 -293 -10 -551 -14 -573 l-8 -40 -8 35 c-6
27 -18 795 -16 1058 0 44 -3 52 -19 52 -23 0 -28 -30 -37 -234 -4 -81 -11
-149 -15 -152 -5 -2 -8 8 -8 23 -1 26 -14 182 -27 311 l-5 52 -40 0 -39 0 0
-117 c-1 -278 -21 -991 -29 -1018 -7 -24 -9 -14 -10 50 -1 80 -13 329 -31 650
-5 94 -12 230 -16 303 l-6 132 -134 0 c-121 0 -134 -2 -135 -17 -1 -10 -3 -31
-4 -48 -2 -16 -4 -121 -5 -232 -1 -141 -5 -205 -13 -211 -12 -10 -141 -23
-132 -14 3 3 0 11 -5 18 -6 6 -10 16 -9 20 4 16 -13 44 -22 38 -5 -3 -6 2 -3
11 4 8 1 21 -5 29 -6 7 -9 15 -6 18 3 3 -2 11 -10 18 -14 12 -15 8 -9 -30 6
-34 4 -42 -7 -38 -8 3 -14 11 -14 19 0 8 -7 21 -16 29 -9 8 -14 21 -11 29 3 8
0 11 -7 7 -7 -4 -11 1 -11 13 0 23 -18 37 -31 24 -6 -6 2 -24 20 -47 16 -20
28 -43 25 -51 -3 -8 4 -16 16 -20 12 -4 19 -13 16 -20 -3 -9 2 -11 15 -8 12 3
19 0 20 -8 1 -23 6 -46 20 -86 7 -21 12 -42 11 -47 -2 -4 2 -14 8 -20 5 -7 8
-16 5 -19 -3 -4 -2 -4 3 -1 4 3 7 15 7 26 0 19 6 21 65 22 l65 1 0 -124 c0
-98 -3 -129 -16 -145 -17 -23 -55 -147 -65 -213 -6 -43 -6 -43 23 -43 34 0 58
-22 49 -45 -4 -11 -21 -15 -66 -15 -62 0 -79 8 -95 45 -8 19 -8 19 -12 1 -3
-10 0 -23 6 -29 14 -14 14 -30 1 -22 -6 3 -12 0 -14 -7 -10 -36 -51 -157 -64
-188 l-15 -35 -10 35 c-12 44 -13 79 -3 105 4 11 0 7 -10 -10 -9 -16 -23 -35
-30 -43 -16 -15 -32 -51 -69 -147 -37 -98 -58 -136 -72 -131 -7 3 -15 1 -18
-3 -9 -16 -76 -42 -118 -47 -130 -13 -149 -13 -185 4 -20 9 -38 20 -40 25 -4
9 -32 10 -32 1 0 -13 46 -46 90 -66 101 -45 96 -39 56 -63 -48 -27 -46 -37 4
-20 44 15 42 15 68 15 21 0 182 113 235 164 20 21 53 60 71 88 l35 51 11 -43
c6 -23 8 -56 5 -73 -9 -39 -62 -136 -129 -236 -74 -109 -108 -171 -161 -296
-69 -162 -85 -191 -96 -174 -5 8 -9 10 -9 5 0 -29 -29 35 -30 65 0 52 54 155
85 163 14 4 25 13 25 20 0 19 -80 126 -119 159 -18 15 -30 31 -26 36 3 5 0 13
-6 17 -8 4 -9 3 -5 -4 4 -6 -6 -18 -22 -26 -16 -8 -32 -22 -35 -31 -4 -8 -13
-15 -21 -15 -19 0 -58 -47 -106 -130 -22 -38 -40 -70 -40 -72 0 -15 80 8 92
26 5 7 8 4 8 -6 0 -10 6 -18 13 -18 7 -1 5 -6 -5 -14 -10 -7 -18 -19 -18 -26
0 -7 -14 -28 -31 -47 -17 -20 -37 -52 -46 -72 -9 -20 -25 -53 -35 -74 -13 -24
-18 -47 -14 -63 4 -13 2 -24 -3 -24 -6 0 -16 -18 -22 -41 -10 -33 -10 -42 0
-48 15 -10 11 -46 -6 -46 -21 0 -25 -13 -33 -107 -8 -93 -8 -93 -5 32 2 73 12
173 25 240 13 71 23 171 25 263 3 82 7 153 10 158 4 5 10 109 14 231 9 238 9
239 -49 454 l-22 81 -137 2 c-75 1 -144 4 -153 7 -27 8 -22 43 6 54 18 7 26
18 28 42 3 29 6 33 28 30 18 -2 21 0 11 6 -8 6 -11 17 -6 31 6 21 8 22 26 6
10 -10 18 -20 17 -24 -8 -64 12 -101 47 -87 14 5 14 8 1 28 -25 39 -48 157
-37 192 17 57 21 108 8 103 -7 -2 -15 -30 -18 -63 l-6 -59 -1 58 c-1 32 3 67
8 78 13 24 48 25 57 2 4 -10 19 -30 35 -45 15 -14 28 -34 28 -45 0 -10 5 -25
10 -33 6 -9 7 23 3 91 -4 71 -2 112 6 127 9 17 9 21 -1 17 -9 -4 -13 7 -12 37
1 54 20 102 36 92 7 -4 8 -3 4 5 -4 6 -3 18 4 26 6 7 10 19 9 27 -3 26 1 39
11 33 6 -4 8 -14 6 -23 -8 -24 6 -43 23 -33 9 6 12 21 9 45 -2 20 0 36 4 36 4
0 17 18 28 41 12 22 26 38 33 36 7 -2 19 2 28 10 9 8 29 16 45 19 16 2 34 6
41 9 6 2 34 -2 61 -9 27 -8 62 -11 77 -9 14 3 37 0 51 -7 18 -10 27 -11 35 -3
8 8 18 8 36 0 18 -8 29 -8 43 1 11 6 21 8 24 3 5 -8 101 -5 116 4 4 3 10 0 12
-7 6 -18 28 0 28 24 0 13 -5 18 -14 15 -11 -4 -13 0 -11 15 5 24 15 37 15 19
0 -7 14 -26 30 -43 17 -16 30 -25 30 -19 0 6 0 13 0 16 0 3 -2 4 -5 3 -10 -6
-33 38 -24 48 6 7 1 18 -13 30 -21 19 -21 19 -14 0 5 -15 4 -17 -8 -7 -8 7
-13 20 -11 29 3 20 -12 32 -42 32 -13 0 -23 5 -23 11 0 7 -9 9 -22 6 -15 -4
-30 0 -43 13 -24 23 -102 35 -121 19 -10 -8 -17 -7 -30 5 -16 16 -39 13 -29
-5 4 -5 -6 -9 -22 -8 -25 0 -26 1 -8 9 18 8 18 9 2 9 -10 1 -20 -5 -23 -13 -3
-8 -17 -18 -32 -22 -15 -4 -29 -8 -32 -9 -20 -6 -66 -31 -72 -40 -4 -5 -8 -7
-8 -3 0 4 -9 0 -19 -9 -11 -9 -17 -21 -15 -28 7 -18 -23 -38 -50 -33 -19 4
-25 -1 -35 -29 -7 -18 -17 -33 -22 -33 -6 0 -7 5 -3 12 5 7 2 9 -9 5 -12 -4
-14 -2 -10 11 3 11 -5 7 -21 -11 -15 -15 -24 -32 -20 -39 5 -7 3 -8 -5 -3 -19
11 -243 6 -258 -7 -23 -19 -28 0 -31 113 -2 60 -8 109 -13 109 -5 0 -10 -8
-10 -17 -1 -10 -5 0 -9 22 -5 27 -3 46 5 60 7 11 16 35 20 53 l7 32 -76 0 -76
0 1 -486 c0 -267 -2 -489 -5 -492 -3 -3 -8 -3 -10 -1 -2 2 -9 204 -16 449 -12
497 -15 530 -36 530 -12 0 -14 -33 -15 -197 -1 -456 -8 -753 -18 -770 -8 -13
-11 15 -11 102 0 66 -7 253 -15 415 -9 162 -16 330 -17 373 l-2 77 -48 0 c-47
0 -48 0 -49 -32 -1 -18 -4 -44 -8 -58 -7 -24 -7 -24 -14 9 -4 18 -7 44 -7 57
l0 24 -180 0 -180 0 -1 -32 c0 -18 -1 -132 0 -253 0 -259 -13 -251 -23 15 -3
102 -9 204 -12 228 l-6 42 -60 0 c-51 0 -61 -3 -65 -20 -3 -11 -14 -20 -24
-20 -12 0 -19 7 -19 20 0 16 -7 20 -30 20 -28 0 -30 -3 -30 -35 0 -25 6 -39
24 -50 13 -9 26 -25 29 -36 4 -13 10 -17 23 -12 11 4 22 0 30 -12 16 -21 19
-101 5 -109 -13 -9 -32 19 -25 37 8 23 -30 41 -46 22 -7 -8 -17 -13 -23 -12
-12 2 -28 -59 -20 -80 3 -7 16 -13 28 -13 13 0 27 -5 30 -10 4 -6 13 -7 23 -1
24 13 58 -17 71 -63 9 -35 8 -40 -16 -62 -35 -32 -52 -30 -60 6 -6 33 -15 37
-32 16 -6 -7 -25 -16 -42 -20 -26 -5 -29 -8 -19 -26 9 -16 8 -20 -5 -20 -8 0
-15 7 -15 15 0 9 -7 18 -15 21 -19 8 -22 120 -3 126 9 3 13 41 14 134 0 71 4
139 8 152 9 26 -20 44 -35 21 -6 -10 -9 -10 -9 -1 0 8 -16 12 -45 12 l-45 0 1
-497z m106 365 c-3 -8 -6 -5 -6 6 -1 11 2 17 5 13 3 -3 4 -12 1 -19z m1987
-35 c11 -13 16 -23 13 -23 -10 0 -37 31 -37 42 0 6 1 9 3 7 1 -2 11 -14 21
-26z m1706 -3 c0 -5 -4 -10 -10 -10 -5 0 -10 5 -10 10 0 6 5 10 10 10 6 0 10
-4 10 -10z m-1969 -14 c5 3 9 0 9 -6 0 -7 7 -10 15 -6 22 8 18 -2 -6 -15 -12
-6 -19 -7 -15 -1 3 5 -4 12 -15 15 -14 4 -18 10 -13 18 6 10 9 10 12 1 2 -7 8
-10 13 -6z m350 -26 c10 -6 19 -16 19 -22 0 -6 -3 -8 -6 -5 -4 3 -16 1 -28 -5
-17 -9 -19 -8 -8 3 14 16 16 33 2 24 -5 -3 -10 -1 -10 4 0 14 6 14 31 1z
m-380 -27 c13 -15 12 -15 -6 -6 -11 6 -27 13 -35 16 -10 4 -8 6 6 6 12 1 28
-6 35 -16z m-61 -8 c0 -8 -7 -15 -15 -15 -9 0 -12 6 -9 15 4 8 10 15 15 15 5
0 9 -7 9 -15z m474 -26 c-4 -6 -11 -6 -20 2 -21 17 -17 31 6 19 11 -6 18 -15
14 -21z m-444 17 c0 -3 -4 -8 -10 -11 -5 -3 -10 -1 -10 4 0 6 5 11 10 11 6 0
10 -2 10 -4z m-306 -159 c18 -13 18 -15 0 -42 l-18 -27 -18 22 c-13 17 -15 26
-8 41 13 23 20 23 44 6z m-110 -63 c-16 -34 -16 -37 -1 -46 30 -16 18 -47 -35
-98 -56 -53 -56 -55 0 -105 22 -19 23 -55 1 -55 -14 0 -10 -26 6 -40 27 -22
19 -60 -15 -73 -18 -7 -30 -19 -30 -30 0 -27 -18 -57 -35 -57 -14 0 -15 5 -15
310 0 163 5 200 26 200 8 0 17 7 20 15 4 10 20 15 45 15 24 0 39 5 40 13 0 9
2 9 5 0 3 -7 -2 -29 -12 -49z m-1130 -53 c6 -5 27 -11 46 -13 34 -3 35 -4 38
-49 3 -44 1 -47 -27 -57 -25 -9 -31 -8 -43 10 l-14 21 -32 -23 c-38 -28 -45
-45 -32 -71 8 -14 17 -18 35 -13 18 4 27 1 31 -10 4 -9 19 -23 35 -32 24 -12
28 -19 23 -41 -5 -19 -3 -24 6 -21 14 4 25 20 34 51 14 44 56 -3 56 -63 0 -41
-20 -80 -42 -80 -12 0 -18 7 -18 25 0 30 -26 46 -57 34 -24 -9 -53 -3 -53 12
0 5 -6 9 -13 9 -13 0 -43 -40 -39 -53 1 -5 -2 -6 -8 -2 -12 8 -13 3 -1 -29 6
-14 19 -26 32 -28 19 -3 23 -10 25 -50 3 -41 0 -48 -19 -54 -29 -9 -37 -22
-37 -66 0 -28 5 -38 20 -43 28 -9 29 -89 1 -105 -11 -5 -23 -19 -26 -30 -18
-56 -24 11 -19 214 3 180 2 226 -9 235 -11 8 -18 6 -32 -9 -25 -27 -31 -25
-51 15 -14 30 -14 40 -4 68 19 46 24 49 54 36 35 -16 43 -6 48 59 5 53 -4 66
-27 35 -17 -23 -32 -9 -40 35 -9 57 7 90 47 94 45 5 99 0 112 -11z m2276 -21
c0 -5 -5 -10 -11 -10 -5 0 -7 -6 -3 -12 5 -10 4 -10 -6 -1 -7 6 -9 16 -6 22 9
14 26 14 26 1z m-1037 -75 c-6 -17 -23 -20 -23 -5 0 6 5 10 11 10 5 0 7 5 3
12 -4 7 -3 8 4 4 6 -4 9 -13 5 -21z m2273 -350 c4 -8 14 -15 24 -15 23 0 36
-17 43 -57 7 -35 -4 -49 -31 -38 -36 15 -77 11 -93 -8 -23 -28 -45 -16 -52 29
-7 43 5 64 33 57 14 -4 23 2 31 21 13 29 36 34 45 11z m-3379 -14 c13 -11 24
-35 28 -65 7 -43 5 -48 -14 -53 -11 -3 -21 -9 -21 -14 0 -5 -8 -9 -19 -9 -31
0 -46 115 -19 148 14 16 19 15 45 -7z m-105 -23 c-15 -15 -26 -4 -18 18 5 13
9 15 18 6 9 -9 9 -15 0 -24z m8 -38 c0 -14 -28 -19 -33 -5 -3 7 -3 15 0 18 7
7 33 -3 33 -13z m3334 -53 c13 -21 -3 -71 -25 -75 -20 -4 -30 44 -17 78 9 24
26 23 42 -3z m-69 -107 c0 -8 -8 -16 -17 -18 -13 -2 -18 3 -18 18 0 15 5 20
18 18 9 -2 17 -10 17 -18z m-3154 -40 c8 -52 -3 -70 -46 -73 -23 -2 -29 3 -36
28 -5 17 -6 45 -3 63 6 31 9 33 43 30 34 -3 36 -5 42 -48z m1067 -27 c3 -22
-27 -58 -57 -66 -14 -3 -18 2 -19 26 -1 46 15 69 46 65 19 -2 28 -10 30 -25z
m102 -11 c0 -12 -29 -24 -41 -16 -12 7 -11 28 2 41 9 9 15 8 25 -2 8 -7 14
-18 14 -23z m1944 22 c8 -20 8 -69 0 -77 -13 -12 -44 19 -44 43 0 41 32 65 44
34z m-3051 -32 c8 -32 7 -72 -2 -72 -18 0 -49 66 -39 83 10 19 36 12 41 -11z
m-296 -54 c-3 -8 -6 -5 -6 6 -1 11 2 17 5 13 3 -3 4 -12 1 -19z m3288 -25 c8
-32 -15 -85 -35 -80 -15 3 -17 42 -5 94 7 29 31 20 40 -14z m-3260 -60 c2 -35
2 -63 0 -63 -19 0 -57 28 -61 46 -7 28 22 86 42 82 11 -2 16 -20 19 -65z
m1215 2 c0 -29 -13 -38 -40 -30 -25 8 -26 33 -3 50 23 17 43 8 43 -20z m90
-17 c0 -27 -30 -35 -46 -13 -12 16 -11 21 3 37 19 21 43 8 43 -24z m2234 -64
c9 -45 16 -104 16 -132 0 -50 8 -64 40 -68 34 -4 103 -23 110 -31 5 -4 27 -42
49 -84 46 -87 61 -159 61 -291 0 -97 -14 -127 -51 -108 -23 13 -24 33 -3 55
13 13 14 21 6 38 -10 21 -11 21 -11 2 -1 -12 -19 -38 -40 -59 -52 -51 -109
-172 -92 -197 8 -15 8 -24 -1 -40 -11 -17 -10 -22 5 -33 32 -25 21 -39 -28
-34 -43 5 -45 5 -45 -21 0 -15 -7 -36 -15 -47 -8 -10 -15 -27 -15 -36 0 -21
-2 -21 -34 -7 -22 10 -28 9 -45 -12 -16 -20 -22 -22 -33 -11 -18 18 9 66 40
70 26 4 28 11 5 27 -14 11 -20 9 -35 -11 -11 -13 -25 -21 -33 -17 -25 9 -17
48 21 91 20 24 34 49 31 59 -3 14 -8 11 -23 -14 -21 -36 -38 -42 -48 -17 -7
17 5 44 42 93 25 34 51 150 52 233 0 20 5 40 11 44 6 4 35 1 65 -6 43 -11 56
-11 69 0 26 22 17 30 -27 24 -55 -7 -98 9 -98 36 0 12 -5 30 -10 41 -7 13 -8
31 -1 54 5 19 5 35 0 37 -5 2 -2 26 7 53 8 28 20 79 25 115 11 65 12 257 3
295 -4 16 -3 17 4 5 5 -8 17 -51 26 -96z m-3456 74 l11 -23 7 23 c5 18 12 22
28 18 11 -3 29 -6 40 -6 15 0 17 -5 13 -28 -3 -15 -2 -34 3 -42 11 -18 -6 -41
-25 -34 -7 3 -16 1 -20 -5 -11 -18 -25 -12 -35 15 -6 14 -15 22 -21 19 -15
-10 -49 24 -49 50 0 41 30 49 48 13z m194 0 c26 -40 30 -90 9 -115 -27 -32
-44 -29 -63 12 -13 28 -13 41 -4 68 22 63 35 71 58 35z m3443 -14 c17 -42 19
-80 5 -89 -6 -4 -29 4 -52 17 -73 40 -74 108 -2 108 29 0 36 -5 49 -36z
m-1288 -56 c-3 -7 -5 -2 -5 12 0 14 2 19 5 13 2 -7 2 -19 0 -25z m-2349 -93
c11 -14 30 -29 43 -33 18 -7 23 -17 25 -54 l3 -46 -45 -7 c-50 -7 -74 5 -74
37 0 18 -5 19 -42 13 -24 -4 -48 -11 -54 -16 -17 -14 -24 0 -24 47 0 35 5 47
25 60 34 22 59 12 51 -21 -4 -14 -2 -25 3 -25 24 0 41 14 41 34 0 43 20 47 48
11z m3616 -39 c15 -13 26 -31 26 -40 0 -24 -30 -33 -42 -13 -5 10 -18 17 -28
17 -24 0 -33 15 -25 40 9 27 38 25 69 -4z m-2476 -18 c10 -37 3 -52 -24 -46
-17 3 -38 61 -26 73 16 16 42 2 50 -27z m-894 -64 c15 -113 -2 -197 -24 -113
-6 24 -17 60 -24 79 -16 42 -5 80 22 80 15 0 21 -10 26 -46z m856 -24 c0 -33
-21 -44 -46 -26 -17 13 -17 15 -1 39 21 33 47 25 47 -13z m2571 17 c-10 -9
-11 -8 -5 6 3 10 9 15 12 12 3 -3 0 -11 -7 -18z m-2483 -36 c10 -6 7 -12 -12
-24 -14 -10 -28 -17 -31 -17 -10 0 -5 26 7 38 14 14 19 15 36 3z m332 -160 c0
-6 -4 -13 -10 -16 -5 -3 -10 1 -10 9 0 9 5 16 10 16 6 0 10 -4 10 -9z m33 -26
c1 -5 -6 -11 -15 -13 -11 -2 -18 3 -18 13 0 17 30 18 33 0z m57 -51 c0 -16
-16 -19 -25 -4 -8 13 4 32 16 25 5 -4 9 -13 9 -21z m-50 -45 c0 -12 -29 -24
-37 -16 -3 4 -3 13 0 21 6 16 37 11 37 -5z m1780 -68 c0 -69 -11 -79 -28 -23
-9 28 -10 30 -8 8 4 -35 -11 -96 -24 -96 -6 0 -10 34 -10 76 0 65 3 80 22 99
32 33 48 12 48 -64z m-154 -13 c-1 -30 -5 -52 -11 -50 -10 2 -10 10 -7 72 3
52 19 32 18 -22z m-1609 -10 c-3 -8 -6 -5 -6 6 -1 11 2 17 5 13 3 -3 4 -12 1
-19z m-71 -34 c-3 -9 -6 -18 -6 -20 0 -2 -7 -4 -15 -4 -18 0 -19 12 -3 28 17
17 31 15 24 -4z m124 -15 c0 -5 -4 -9 -10 -9 -5 0 -10 7 -10 16 0 8 5 12 10 9
6 -3 10 -10 10 -16z m1561 -147 c1 -62 -1 -115 -4 -118 -10 -11 -42 -11 -55
-1 -10 8 -12 31 -7 96 4 47 11 91 15 96 4 6 10 23 14 39 6 25 9 27 21 15 10
-10 15 -45 16 -127z m-1751 108 c0 -5 -5 -10 -11 -10 -5 0 -7 5 -4 10 3 6 8
10 11 10 2 0 4 -4 4 -10z m156 -27 c-6 -14 -9 -15 -16 -4 -11 19 -1 46 13 32
5 -5 7 -18 3 -28z m2133 -44 c-5 -11 -16 -19 -24 -19 -18 0 -20 41 -3 58 19
19 41 -14 27 -39z m-1638 19 c-9 -25 -52 -35 -98 -23 -20 5 -22 9 -13 25 9 16
21 20 65 20 52 0 54 -1 46 -22z m-628 -2 c3 -8 -1 -17 -10 -20 -20 -8 -27 -1
-20 19 8 19 23 20 30 1z m2194 -2 c3 -8 -2 -23 -11 -32 -15 -15 -17 -15 -32 0
-21 21 -11 48 16 48 11 0 23 -7 27 -16z m-2013 -23 c-4 -3 -9 0 -11 7 -3 6
-10 9 -15 6 -7 -4 -8 -2 -4 5 6 9 11 9 22 0 8 -6 12 -15 8 -18z m-94 0 c0 -6
-4 -13 -10 -16 -5 -3 -10 1 -10 9 0 9 5 16 10 16 6 0 10 -4 10 -9z m-142 -38
c-2 -9 -8 -18 -15 -20 -9 -3 -11 11 -4 35 1 1 6 2 12 2 6 0 9 -8 7 -17z m192
-8 c0 -17 -17 -28 -30 -20 -7 4 -7 13 0 26 12 21 30 17 30 -6z m2130 -11 c0
-7 -13 -27 -30 -44 -43 -44 -54 -107 -21 -118 9 -3 12 0 9 9 -3 8 -9 25 -13
39 -7 22 -6 23 9 11 9 -7 16 -20 16 -28 0 -7 7 -16 15 -19 16 -7 19 -31 8 -61
-6 -16 -8 -15 -13 6 -3 14 -11 26 -18 29 -10 3 -10 -2 -1 -22 10 -21 9 -30 -7
-53 l-18 -28 -9 35 c-22 89 -31 116 -45 127 -24 20 -5 64 45 110 36 33 50 40
60 32 7 -7 13 -17 13 -25z m-2230 -8 c-14 -14 -24 0 -16 21 6 15 8 15 16 3 6
-9 5 -19 0 -24z m2100 -2 c0 -17 -22 -14 -28 4 -2 7 3 12 12 12 9 0 16 -7 16
-16z m-2165 -43 c-14 -14 -17 -14 -25 -1 -13 21 8 44 27 28 12 -10 12 -14 -2
-27z m115 4 c0 -16 -27 -32 -37 -22 -3 4 -3 13 0 22 8 20 37 20 37 0z m80 6
c0 -6 -4 -12 -8 -15 -5 -3 -9 1 -9 9 0 8 4 15 9 15 4 0 8 -4 8 -9z m-242 -53
c-4 -27 -28 -36 -28 -10 0 20 8 32 22 32 5 0 8 -10 6 -22z m102 -14 c0 -14
-21 -19 -33 -7 -9 9 13 34 24 27 5 -3 9 -12 9 -20z m100 7 c0 -11 -5 -23 -11
-27 -15 -9 -33 12 -26 30 9 23 37 20 37 -3z m-163 -47 c8 -21 -13 -42 -28 -27
-13 13 -5 43 11 43 6 0 13 -7 17 -16z m101 -31 c-13 -12 -16 -12 -27 0 -9 12
-8 18 5 32 16 16 18 16 27 0 6 -12 5 -21 -5 -32z m-151 -29 c8 -21 -13 -42
-28 -27 -13 13 -5 43 11 43 6 0 13 -7 17 -16z m100 0 c8 -21 -13 -42 -28 -27
-13 13 -5 43 11 43 6 0 13 -7 17 -16z m103 -8 c0 -8 -5 -18 -11 -22 -14 -8
-33 11 -25 25 10 16 36 13 36 -3z m2052 -47 c-12 -31 -26 -7 -17 29 6 23 8 24
16 10 5 -9 5 -26 1 -39z m-2308 -22 c-3 -9 -10 -17 -15 -17 -11 0 -12 34 -2
43 11 12 24 -8 17 -26z m96 14 c0 -11 -5 -23 -11 -27 -15 -9 -33 12 -26 30 9
23 37 20 37 -3z m106 -8 c-3 -8 -6 -17 -6 -19 0 -2 -6 -4 -14 -4 -21 0 -30 19
-16 35 14 17 43 8 36 -12z m-161 -43 c7 -12 -12 -40 -26 -40 -5 0 -9 11 -9 25
0 25 23 35 35 15z m102 -6 c1 -5 -2 -16 -7 -24 -12 -20 -35 2 -26 25 6 17 27
16 33 -1z m84 -21 c-9 -17 -10 -17 -17 1 -4 11 -2 21 7 27 18 11 24 -5 10 -28z
m-141 -42 c0 -21 -26 -36 -36 -20 -9 15 3 39 21 39 8 0 15 -9 15 -19z m97 3
c8 -20 -13 -42 -27 -28 -12 12 -3 44 11 44 5 0 12 -7 16 -16z m-153 -43 c9
-14 -4 -41 -20 -41 -8 0 -14 8 -14 18 0 29 22 43 34 23z m101 -11 c4 -6 1 -17
-5 -26 -10 -11 -16 -12 -26 -3 -11 9 -11 15 -3 25 14 17 25 18 34 4z m-55 -71
c0 -12 -7 -19 -20 -19 -22 0 -29 35 -7 43 18 6 27 -2 27 -24z m2160 17 c0 -16
-18 -31 -27 -22 -8 8 5 36 17 36 5 0 10 -6 10 -14z m-2066 -12 c8 -21 1 -28
-18 -21 -9 4 -13 13 -10 22 8 20 20 19 28 -1z m2208 0 c3 -2 5 -23 5 -47 -2
-35 -5 -42 -22 -42 -16 0 -19 6 -17 32 3 31 2 32 -31 26 -41 -6 -58 12 -31 32
17 13 72 12 96 -1z m-2359 -48 c3 -8 -1 -20 -9 -26 -12 -10 -14 -8 -14 14 0
28 14 35 23 12z m105 -13 c-5 -26 -38 -29 -38 -4 0 15 6 21 21 21 14 0 19 -5
17 -17z M1250 2110 c0 -5 5 -10 11 -10 5 0 7 5 4 10 -3 6 -8 10 -11 10 -2 0
-4 -4 -4 -10z M3750 1950 c0 -5 5 -10 10 -10 6 0 10 5 10 10 0 6 -4 10 -10 10
-5 0 -10 -4 -10 -10z M3768 1144 c-3 -3 -1 -18 5 -33 17 -45 4 -63 -38 -55
-22 4 -35 2 -35 -4 0 -15 34 -24 62 -17 16 4 29 1 37 -9 8 -9 19 -16 26 -16 7
0 25 -10 40 -22 l27 -21 -7 24 c-14 44 -47 104 -73 132 -26 27 -34 31 -44 21z
M3695 1130 c-3 -5 1 -10 9 -10 9 0 16 5 16 10 0 6 -4 10 -9 10 -6 0 -13 -4
-16 -10z M3735 990 c4 -6 11 -8 16 -5 14 9 11 15 -7 15 -8 0 -12 -5 -9 -10z
M3730 2986 c0 -24 22 -81 38 -96 13 -13 14 -13 8 3 -3 10 -6 39 -6 63 0 37 -3
44 -20 44 -11 0 -20 -6 -20 -14z M2110 2850 c0 -5 5 -10 10 -10 6 0 10 5 10
10 0 6 -4 10 -10 10 -5 0 -10 -4 -10 -10z M1260 2775 c0 -15 37 -35 66 -35 8
0 14 7 14 15 0 10 -10 15 -30 15 -16 0 -30 5 -30 10 0 6 -4 10 -10 10 -5 0
-10 -7 -10 -15z M1500 2750 c0 -5 5 -10 11 -10 5 0 7 5 4 10 -3 6 -8 10 -11
10 -2 0 -4 -4 -4 -10z M1570 2709 c0 -5 5 -7 10 -4 6 3 10 8 10 11 0 2 -4 4
-10 4 -5 0 -10 -5 -10 -11z M231 2654 c0 -11 3 -14 6 -6 3 7 2 16 -1 19 -3 4
-6 -2 -5 -13z M2360 2470 c0 -11 4 -20 9 -20 5 0 7 9 4 20 -3 11 -7 20 -9 20
-2 0 -4 -9 -4 -20z M1553 2445 c0 -8 4 -12 9 -9 4 3 8 9 8 15 0 5 -4 9 -8 9
-5 0 -9 -7 -9 -15z M2452 2268 c-13 -25 -13 -176 0 -156 4 7 8 21 8 30 0 10 9
23 20 30 13 9 20 23 19 43 0 29 -1 29 -10 7 -9 -24 -29 -22 -29 4 0 8 5 12 10
9 11 -7 12 11 1 38 -6 17 -8 17 -19 -5z M2089 2259 c-12 -10 -25 -19 -29 -19
-13 0 -21 -33 -11 -43 5 -5 7 -26 4 -47 -5 -37 2 -49 37 -58 18 -5 178 -5 242
0 40 3 45 5 37 21 -5 9 -6 17 -2 18 4 0 -1 4 -12 9 -16 7 -17 9 -3 9 26 1 5
52 -39 91 -32 30 -41 32 -118 36 -71 2 -86 0 -106 -17z m171 -59 c11 -7 -1
-10 -40 -10 -39 0 -51 3 -40 10 8 5 26 10 40 10 14 0 32 -5 40 -10z m25 -91
c-29 -11 -101 -11 -89 0 13 13 44 17 79 12 26 -3 27 -5 10 -12z M1712 2261
c-26 -5 -54 -18 -72 -36 -55 -53 -34 -65 53 -31 37 15 54 17 80 9 l32 -10 -52
-8 c-55 -8 -113 -37 -113 -56 0 -14 73 -4 78 11 2 5 8 10 14 10 6 0 8 -6 5
-14 -6 -16 12 -26 46 -26 21 -1 21 -1 -3 -15 l-25 -14 25 -1 c37 0 100 19 100
32 0 5 7 7 16 4 14 -6 16 0 12 39 -3 25 -2 48 3 51 17 10 9 34 -13 43 -36 13
-139 20 -186 12z M2520 2250 c0 -6 7 -10 15 -10 8 0 15 2 15 4 0 2 -7 6 -15
10 -8 3 -15 1 -15 -4z M2535 2180 c-4 -12 -1 -27 5 -35 8 -9 10 -33 6 -67 -7
-53 -6 -53 8 -21 10 22 13 49 9 88 -6 57 -17 70 -28 35z M2454 2076 c-9 -23
10 -129 24 -134 7 -2 12 5 12 17 0 11 4 22 8 25 12 7 -10 95 -26 101 -7 2 -15
-1 -18 -9z M1450 2065 c-7 -8 -9 -15 -6 -15 4 0 0 -10 -8 -22 -22 -31 -20 -43
11 -75 19 -21 24 -23 19 -9 -4 11 -1 42 5 68 14 53 3 82 -21 53z M2100 1980
c0 -5 6 -10 13 -10 23 0 86 -80 107 -136 10 -25 9 -26 -20 -22 -16 3 -30 1
-30 -4 0 -4 -8 -8 -17 -9 -11 0 -13 -3 -5 -6 30 -12 5 -21 -85 -30 -54 -6
-132 -11 -173 -12 -41 -1 -92 -4 -114 -7 -27 -4 -41 -2 -47 7 -7 11 -9 9 -9
-6 1 -20 32 -65 46 -65 4 0 20 -11 34 -25 24 -23 28 -24 40 -10 11 13 10 18
-8 31 -57 40 -5 69 93 54 28 -4 82 -5 120 -1 39 4 78 6 88 3 28 -7 16 -35 -25
-55 -37 -18 -37 -19 -22 -43 9 -13 21 -24 27 -24 5 0 33 24 61 53 l51 52 3
-37 c2 -21 -4 -52 -12 -70 -27 -58 -46 -119 -34 -112 13 8 62 117 72 159 14
60 38 113 50 109 11 -4 36 47 36 73 0 6 -14 13 -30 17 -17 3 -46 23 -68 47
-54 59 -142 108 -142 79z M1743 1894 c-45 -48 -80 -91 -77 -96 5 -8 35 -113
48 -172 4 -15 9 -26 12 -23 3 3 -2 44 -12 91 -15 72 -16 88 -5 98 11 10 12 10
7 1 -4 -7 -2 -13 3 -13 6 0 11 6 11 13 0 8 11 24 25 37 14 13 25 29 25 36 0 6
15 35 34 63 19 28 29 51 23 51 -7 0 -49 -39 -94 -86z M2500 1930 c-9 -6 -10
-10 -3 -10 6 0 15 5 18 10 8 12 4 12 -15 0z M2002 1873 c-49 -21 -55 -22 -75
-8 -24 17 -92 21 -82 5 3 -5 20 -10 36 -10 17 0 37 -7 45 -15 9 -8 31 -15 49
-15 19 0 37 -5 40 -11 5 -6 11 -4 19 7 9 12 23 15 49 12 19 -2 33 0 30 5 -3 4
3 14 13 22 24 17 19 21 -31 27 -28 4 -55 -2 -93 -19z M1491 1863 c-16 -34 -8
-40 13 -9 8 14 12 27 7 30 -4 3 -13 -6 -20 -21z M1980 1561 c-33 -8 -36 -27
-5 -35 16 -4 35 0 51 11 24 15 25 17 8 24 -22 9 -21 9 -54 0z M179 1085 c-3
-2 -2 -34 2 -70 5 -51 11 -69 30 -85 13 -10 28 -19 32 -20 4 0 7 30 5 68 -3
57 -5 67 -21 64 -11 -2 -21 6 -27 23 -10 25 -13 29 -21 20z M0 148 l0 -148 51
0 c28 0 49 4 47 8 -1 5 -15 33 -30 63 -18 35 -30 78 -33 121 -4 36 -13 74 -20
85 -13 16 -14 -1 -15 -129z"/>
</g>
</svg>
