<?xml version="1.0" standalone="no"?>
<!DOCTYPE svg PUBLIC "-//W3C//DTD SVG 20010904//EN"
 "http://www.w3.org/TR/2001/REC-SVG-20010904/DTD/svg10.dtd">
<svg version="1.0" xmlns="http://www.w3.org/2000/svg"
 width="200.000000pt" height="200.000000pt" viewBox="0 0 200.000000 200.000000"
 preserveAspectRatio="xMidYMid meet">
<metadata>
Created by potrace 1.16, written by Peter Selinger 2001-2019
</metadata>
<g transform="translate(0.000000,200.000000) scale(0.100000,-0.100000)"
fill="#000000" stroke="none">
<path d="M970 1651 c-50 -16 -90 -42 -114 -74 -29 -38 -56 -107 -56 -143 0
-23 3 -24 73 -24 l72 0 16 39 c21 50 58 74 122 78 92 7 140 -44 158 -170 9
-68 0 -397 -11 -397 -4 0 -13 13 -20 30 -19 46 -101 117 -151 130 -24 7 -76
10 -116 8 -270 -18 -426 -339 -297 -614 81 -172 292 -224 487 -121 125 66 199
194 244 422 25 130 25 444 -1 535 -54 194 -162 298 -316 306 -36 2 -76 0 -90
-5z m98 -595 c84 -44 118 -148 101 -305 -18 -164 -83 -302 -159 -341 -48 -25
-73 -25 -126 -1 -52 24 -101 83 -119 145 -28 93 -12 274 31 357 58 114 193
186 272 145z"/>
</g>
</svg>
