<?xml version="1.0" standalone="no"?>
<!DOCTYPE svg PUBLIC "-//W3C//DTD SVG 20010904//EN"
 "http://www.w3.org/TR/2001/REC-SVG-20010904/DTD/svg10.dtd">
<svg version="1.0" xmlns="http://www.w3.org/2000/svg"
 width="1000.000000pt" height="1000.000000pt" viewBox="0 0 1000.000000 1000.000000"
 preserveAspectRatio="xMidYMid meet">
<metadata>
Created by potrace 1.16, written by Peter Selinger 2001-2019
</metadata>
<g transform="translate(0.000000,1000.000000) scale(0.100000,-0.100000)"
fill="#000000" stroke="none">
<path d="M5144 9519 c-608 -55 -1236 -312 -1731 -706 -338 -271 -567 -591
-717 -1007 -94 -259 -161 -602 -168 -866 l-2 -85 -68 -74 c-125 -135 -184
-299 -196 -550 -10 -200 1 -507 20 -552 19 -44 59 -76 104 -85 19 -3 34 -8 34
-10 0 -2 -26 -66 -59 -141 -95 -224 -126 -331 -202 -703 -100 -492 -208 -815
-339 -1020 -33 -51 -67 -112 -76 -136 -36 -94 12 -193 121 -249 52 -27 68 -30
144 -29 60 1 103 7 144 22 l57 21 0 -122 c0 -321 62 -618 172 -830 117 -225
329 -318 471 -206 l37 30 0 -79 c0 -154 40 -321 111 -466 82 -166 186 -279
315 -343 64 -31 88 -37 158 -41 70 -4 91 -1 143 20 l60 24 28 -49 c88 -156
281 -365 467 -505 217 -163 530 -334 688 -376 334 -90 618 35 1127 497 105 95
169 162 369 386 l31 34 43 -17 c61 -24 187 -23 267 2 152 48 293 173 373 332
56 110 107 318 125 508 4 39 9 72 12 72 2 0 22 -9 44 -21 56 -28 145 -28 204
1 91 44 177 171 234 348 59 182 111 476 127 725 4 59 7 107 8 107 1 0 26 -10
56 -22 39 -15 78 -22 135 -22 72 -1 88 3 147 32 75 36 122 86 140 145 20 65
-2 133 -118 367 -59 118 -117 245 -130 282 -30 89 -66 274 -104 538 -70 478
-140 708 -281 927 l-41 62 31 63 c19 40 34 93 42 147 34 246 -60 748 -167 888
l-25 34 41 85 c85 176 261 294 375 250 22 -8 73 -27 113 -42 58 -21 72 -30 66
-43 -94 -223 -88 -455 17 -667 89 -180 246 -309 440 -361 88 -23 252 -23 344
1 206 53 392 202 486 388 78 154 96 350 46 501 -77 237 -279 430 -519 497
-146 41 -275 36 -422 -15 -39 -13 -71 -23 -72 -22 -1 1 -9 40 -19 87 -20 102
-57 193 -127 318 -234 412 -680 888 -1108 1181 -433 297 -969 492 -1490 540
-121 11 -418 11 -536 0z m3742 -2220 c181 -54 336 -194 409 -369 36 -85 45
-215 21 -309 -47 -182 -159 -318 -331 -401 -171 -82 -335 -82 -501 0 -145 71
-262 224 -305 400 -17 68 -17 250 0 309 23 82 222 296 315 340 118 55 272 67
392 30z m-3101 -169 c515 -26 928 -78 1169 -147 234 -67 402 -169 479 -290 33
-52 79 -201 108 -348 19 -98 24 -152 24 -300 0 -168 -2 -183 -23 -227 -13 -26
-32 -50 -43 -53 -30 -10 -89 3 -218 46 -64 22 -170 49 -236 60 -118 20 -122
21 -217 85 -118 78 -291 169 -417 219 -270 107 -620 143 -754 79 -34 -16 -44
-16 -174 -1 -172 21 -932 24 -1048 4 -54 -9 -80 -9 -115 0 -102 26 -321 8
-518 -43 -172 -45 -419 -151 -616 -266 -54 -32 -93 -45 -185 -64 -64 -13 -170
-39 -236 -59 -251 -73 -347 -97 -356 -88 -16 16 -23 446 -10 553 34 271 118
410 301 498 154 74 445 156 715 201 261 44 963 120 1280 139 210 13 862 14
1090 2z m-366 -971 c64 -7 117 -13 119 -14 1 -1 -4 -42 -13 -90 -17 -98 -19
-210 -5 -269 5 -23 23 -54 44 -75 l36 -36 198 -7 c108 -3 206 -8 217 -11 11
-3 54 -13 95 -23 41 -9 113 -29 160 -45 299 -99 391 -145 502 -247 78 -72 161
-122 204 -122 11 0 43 11 70 25 27 14 52 25 56 25 12 0 -1 -225 -23 -412 -19
-161 -28 -204 -83 -383 -14 -44 -31 -104 -38 -134 -8 -33 -19 -55 -28 -57 -8
-2 -42 -14 -75 -28 -33 -14 -102 -37 -154 -52 -193 -55 -371 -15 -606 135 -22
14 -71 41 -110 60 -65 32 -77 34 -162 34 -80 0 -93 2 -93 16 0 31 -49 117 -93
162 -88 92 -206 148 -410 193 -94 21 -140 26 -259 26 -135 0 -151 -2 -231 -30
-124 -43 -207 -92 -297 -176 -78 -74 -130 -154 -130 -200 0 -20 -6 -22 -88
-26 -76 -3 -99 -9 -165 -40 -42 -21 -109 -57 -147 -82 -138 -90 -238 -126
-350 -126 -94 0 -226 37 -338 95 l-108 55 -17 52 c-9 29 -19 60 -22 68 -2 8
-21 62 -40 120 -32 92 -63 217 -96 385 -10 52 -15 332 -6 341 2 3 20 -4 38
-15 64 -39 116 -23 209 64 149 141 381 254 661 321 101 25 138 28 321 32 l208
4 43 48 c28 31 49 67 58 97 13 47 19 252 9 303 l-5 25 293 7 c162 3 296 9 299
12 10 10 230 7 352 -5z m-1108 -30 c63 -16 74 -80 39 -227 -11 -46 -20 -91
-20 -101 0 -17 -15 -19 -177 -23 -264 -8 -483 -59 -719 -168 -108 -50 -270
-156 -341 -223 l-55 -52 -62 65 c-33 36 -69 81 -78 100 -16 32 -16 36 0 63 56
96 306 265 586 398 226 106 406 156 656 183 43 4 123 -3 171 -15z m1789 -4
c263 -51 510 -167 795 -371 134 -96 189 -146 210 -190 16 -34 16 -40 2 -70
-19 -38 -81 -110 -109 -125 -29 -16 -52 -3 -150 82 -118 102 -218 153 -459
233 -255 85 -329 99 -556 100 -117 1 -187 6 -194 13 -22 22 -30 94 -19 170 15
109 28 128 103 152 78 25 266 28 377 6z m1107 -409 c107 -51 209 -86 253 -86
36 0 43 -5 75 -47 124 -170 210 -428 265 -803 48 -321 84 -520 111 -615 20
-66 68 -176 140 -322 60 -122 113 -237 116 -256 7 -46 -8 -71 -60 -96 -80 -39
-174 -23 -274 45 -61 42 -90 41 -122 -5 -17 -24 -22 -49 -26 -147 -18 -415
-107 -816 -219 -982 -34 -50 -87 -92 -118 -92 -41 0 -89 34 -131 92 -70 99
-112 142 -131 135 -14 -6 -16 -20 -10 -129 7 -125 6 -131 -42 -418 -9 -52 -30
-137 -46 -187 -67 -214 -232 -371 -407 -390 -71 -7 -119 8 -155 47 -50 57
-101 30 -204 -109 -114 -155 -413 -440 -637 -608 -244 -183 -424 -248 -612
-222 -97 13 -176 43 -333 126 -366 192 -644 421 -797 654 -34 52 -77 112 -97
134 l-35 40 -68 -25 c-215 -79 -396 28 -534 315 -82 170 -108 309 -109 565 -1
138 -17 241 -38 248 -17 5 -42 -17 -42 -37 0 -34 -50 -144 -85 -187 -83 -101
-163 -97 -267 14 -112 120 -206 418 -237 757 -12 125 -7 299 9 343 15 42 6 77
-25 98 -35 23 -68 11 -129 -46 -62 -58 -111 -81 -175 -81 -79 -1 -141 36 -141
84 0 13 23 59 52 103 152 233 263 563 373 1104 74 364 97 442 223 734 l68 159
115 33 c62 19 117 34 121 34 4 0 -7 -22 -23 -49 -40 -63 -47 -115 -23 -166 16
-35 18 -71 19 -300 1 -226 4 -275 23 -375 29 -149 66 -277 103 -358 33 -73 35
-82 16 -82 -8 0 -22 -9 -32 -20 -29 -32 -17 -182 23 -285 89 -228 333 -525
548 -668 231 -153 430 -214 668 -204 156 6 226 24 376 98 96 47 115 62 215
163 120 121 188 222 230 342 20 58 28 69 49 72 20 3 31 -5 51 -35 181 -267
260 -360 378 -441 147 -102 299 -151 492 -159 333 -14 618 88 844 301 81 77
164 188 254 340 96 163 137 263 144 352 8 95 0 123 -38 136 -21 7 -29 16 -26
27 3 9 16 54 30 101 63 215 92 554 69 803 -10 98 -9 112 9 150 39 87 17 177
-67 267 -26 28 -40 50 -33 50 8 0 47 -15 86 -34z m-2151 -1017 c281 -28 494
-125 540 -245 51 -135 -57 -317 -240 -403 -130 -62 -193 -76 -336 -75 -109 0
-136 4 -210 28 -241 79 -370 201 -370 351 0 54 4 67 34 110 70 97 212 187 356
225 90 23 89 23 226 9z m-769 -397 c7 -4 19 -27 27 -50 36 -102 125 -191 270
-270 85 -47 226 -102 260 -102 33 0 24 -25 -56 -150 -170 -269 -320 -384 -553
-427 -213 -39 -504 44 -721 205 -160 119 -341 332 -429 507 -41 81 -80 193
-71 203 2 2 62 -29 133 -67 176 -97 279 -124 448 -119 151 5 195 22 368 142
70 48 151 98 179 111 52 24 121 32 145 17z m1614 -15 c24 -8 90 -42 147 -76
200 -122 300 -155 467 -154 134 0 210 19 401 99 75 31 137 54 139 52 15 -15
-156 -343 -234 -448 -112 -152 -217 -242 -366 -316 -163 -80 -289 -108 -475
-108 -119 0 -160 4 -228 22 -240 65 -386 184 -565 459 -15 24 -27 45 -27 47 0
2 19 7 42 11 61 11 170 49 240 86 93 49 216 175 253 261 16 37 36 69 45 72 34
9 119 5 161 -7z M4192 5364 c-55 -28 -119 -92 -146 -146 -47 -93 -28 -221 47
-321 40 -53 124 -97 184 -97 86 0 184 64 229 151 23 45 26 65 26 160 0 95 -17
142 -71 196 -67 68 -193 94 -269 57z m60 -181 c36 -32 14 -103 -32 -103 -25 0
-70 36 -70 55 0 22 41 65 62 65 12 0 30 -7 40 -17z M5646 5360 c-44 -13 -119
-68 -144 -105 -31 -45 -55 -141 -48 -194 12 -88 26 -120 82 -180 123 -133 273
-120 372 32 25 39 27 49 27 152 0 103 -2 113 -29 160 -42 72 -65 95 -121 121
-52 25 -90 28 -139 14z m36 -187 c25 -22 23 -49 -7 -78 -41 -42 -87 -26 -87
30 0 54 56 83 94 48z"/>
</g>
</svg>
