<?xml version="1.0" standalone="no"?>
<!DOCTYPE svg PUBLIC "-//W3C//DTD SVG 20010904//EN"
 "http://www.w3.org/TR/2001/REC-SVG-20010904/DTD/svg10.dtd">
<svg version="1.0" xmlns="http://www.w3.org/2000/svg"
 width="200.000000pt" height="200.000000pt" viewBox="0 0 200.000000 200.000000"
 preserveAspectRatio="xMidYMid meet">
<metadata>
Created by potrace 1.16, written by Peter Selinger 2001-2019
</metadata>
<g transform="translate(0.000000,200.000000) scale(0.100000,-0.100000)"
fill="#000000" stroke="none">
<path d="M1230 1831 c-55 -18 -108 -52 -145 -92 -41 -46 -95 -156 -114 -234
-21 -83 -26 -92 -64 -98 -58 -9 -146 -58 -201 -112 -95 -94 -141 -234 -117
-361 15 -85 58 -170 114 -226 45 -44 151 -108 181 -108 20 0 20 -16 0 -120
-32 -172 -80 -250 -152 -250 -35 0 -46 6 -83 45 -46 49 -62 53 -97 29 -29 -20
-28 -45 5 -79 46 -46 107 -68 167 -61 151 19 251 130 306 339 22 85 23 85 59
91 58 9 157 63 206 113 93 93 139 235 116 359 -15 85 -58 170 -114 226 -45 44
-151 108 -181 108 -20 0 -20 16 0 120 32 172 80 250 152 250 35 0 46 -6 83
-45 47 -50 65 -54 100 -26 20 16 22 23 14 47 -17 47 -85 87 -152 91 -32 1 -69
-1 -83 -6z m-296 -512 c-3 -6 -10 -150 -14 -320 -4 -170 -10 -312 -13 -315
-13 -13 -81 21 -130 66 -190 174 -134 472 108 567 39 15 58 16 49 2z m211 -13
c19 -8 57 -35 83 -61 173 -161 130 -444 -83 -546 -33 -16 -65 -29 -70 -29 -7
0 -8 27 -3 78 3 42 7 158 7 257 1 200 9 315 23 315 5 0 24 -6 43 -14z"/>
</g>
</svg>
