<?xml version="1.0" standalone="no"?>
<!DOCTYPE svg PUBLIC "-//W3C//DTD SVG 20010904//EN"
 "http://www.w3.org/TR/2001/REC-SVG-20010904/DTD/svg10.dtd">
<svg version="1.0" xmlns="http://www.w3.org/2000/svg"
 width="1800.000000pt" height="600.000000pt" viewBox="0 0 1800.000000 600.000000"
 preserveAspectRatio="xMidYMid meet">
<metadata>
Created by potrace 1.16, written by Peter Selinger 2001-2019
</metadata>
<g transform="translate(0.000000,600.000000) scale(0.100000,-0.100000)"
fill="#000000" stroke="none">
<path d="M0 3000 l0 -3000 9000 0 9000 0 0 3000 0 3000 -9000 0 -9000 0 0
-3000z m2713 1395 c317 -30 593 -101 865 -222 98 -43 103 -45 127 -29 22 15
25 24 25 76 l0 60 175 0 175 0 0 -425 0 -425 -154 0 -154 0 -22 66 c-30 89
-110 206 -179 260 -159 125 -460 230 -761 264 -122 14 -423 14 -536 0 -305
-38 -493 -120 -556 -244 -27 -53 -22 -138 11 -184 61 -86 158 -105 931 -187
394 -42 796 -111 961 -166 343 -113 525 -277 611 -549 19 -63 23 -95 22 -200
0 -107 -4 -136 -27 -206 -92 -279 -360 -466 -837 -583 -221 -54 -326 -65 -625
-65 -286 -1 -303 1 -580 60 -201 43 -413 108 -551 169 -69 30 -109 32 -124 6
-5 -11 -10 -51 -10 -90 l0 -71 -195 0 -195 0 0 490 0 490 175 0 175 0 0 -26
c0 -41 29 -143 55 -194 50 -98 185 -219 320 -287 148 -75 406 -143 675 -179
222 -29 527 -10 725 46 253 71 351 159 349 316 -1 118 -72 192 -221 232 -121
33 -226 48 -668 97 -936 104 -1179 163 -1404 341 -91 72 -146 141 -190 234
-139 299 -63 611 197 807 209 158 552 276 907 313 225 23 311 24 508 5z m4376
-10 c460 -58 819 -215 1098 -479 163 -154 268 -318 331 -516 44 -139 56 -228
56 -390 -1 -157 -21 -275 -71 -415 -137 -381 -456 -672 -914 -836 -487 -173
-1083 -193 -1584 -53 -486 136 -852 400 -1028 741 -96 187 -132 340 -132 568
0 174 11 247 56 388 103 319 342 582 681 753 246 124 556 214 833 243 55 6
116 13 135 15 72 9 419 -4 539 -19z m3953 -905 c689 -622 854 -766 856 -749 2
11 -1 263 -7 560 -11 583 -12 590 -67 626 -24 16 -55 18 -231 21 l-203 3 0
155 0 154 730 0 730 0 0 -155 0 -155 -185 0 c-203 0 -240 -7 -271 -55 -16 -25
-17 -71 -11 -723 4 -383 10 -856 14 -1049 l6 -353 -254 0 -254 1 -975 870
c-536 479 -978 873 -983 876 -4 2 -6 -306 -5 -686 l3 -691 28 -27 27 -28 218
-5 217 -5 3 -152 3 -153 -721 0 -720 0 0 155 0 155 190 0 190 0 31 28 c26 23
32 37 39 97 12 93 12 1502 0 1584 -10 72 -31 106 -81 136 -30 18 -56 20 -216
23 l-183 4 0 154 0 154 615 0 614 0 853 -770z m3828 615 l0 -155 -111 0 c-217
0 -219 7 151 -436 165 -197 303 -359 308 -359 13 0 589 672 611 714 11 20 10
27 -7 50 -19 25 -23 26 -141 29 l-121 3 0 154 0 155 705 0 705 0 0 -154 0
-155 -207 -3 c-191 -3 -211 -5 -248 -25 -54 -29 -69 -45 -599 -651 l-466 -533
0 -297 c0 -266 2 -299 18 -318 32 -40 53 -44 261 -44 l201 0 0 -155 0 -155
-855 0 -855 0 0 154 0 155 205 3 c192 3 206 4 225 24 34 33 40 84 40 349 0
227 -2 253 -19 280 -39 62 -965 1102 -1017 1142 -82 63 -127 73 -331 73 l-173
0 0 155 0 155 860 0 860 0 0 -155z M6505 4025 c-276 -43 -516 -180 -667 -379
-237 -314 -274 -756 -93 -1121 63 -127 131 -214 234 -301 271 -227 679 -308
1049 -209 432 116 708 435 752 872 34 333 -74 651 -291 859 -87 83 -136 117
-244 172 -213 106 -491 147 -740 107z"/>
</g>
</svg>
