<?xml version="1.0" standalone="no"?>
<!DOCTYPE svg PUBLIC "-//W3C//DTD SVG 20010904//EN"
 "http://www.w3.org/TR/2001/REC-SVG-20010904/DTD/svg10.dtd">
<svg version="1.0" xmlns="http://www.w3.org/2000/svg"
 width="225.000000pt" height="225.000000pt" viewBox="0 0 225.000000 225.000000"
 preserveAspectRatio="xMidYMid meet">
<metadata>
Created by potrace 1.16, written by Peter Selinger 2001-2019
</metadata>
<g transform="translate(0.000000,225.000000) scale(0.100000,-0.100000)"
fill="#000000" stroke="none">
<path d="M1418 2185 l-37 -25 -356 0 c-353 0 -356 0 -345 -20 10 -19 21 -20
190 -20 l180 0 0 -25 0 -25 -205 0 c-176 0 -205 2 -205 15 0 27 -37 17 -48
-12 -5 -16 -26 -48 -46 -71 -56 -68 -47 -102 28 -102 44 0 65 26 73 89 l6 51
198 0 199 0 0 -105 0 -105 55 0 55 0 0 105 0 105 206 0 207 0 -7 -39 c-8 -54
7 -60 60 -22 24 17 55 33 69 37 14 3 25 9 25 13 0 10 -38 44 -72 66 -26 16
-28 16 -57 -4 -27 -20 -42 -21 -230 -21 l-201 0 0 25 0 25 197 2 c216 3 233 9
163 53 -60 38 -61 38 -102 10z M900 2000 c-20 -16 -41 -20 -112 -20 -74 0 -86
-2 -82 -15 5 -12 31 -15 149 -15 79 0 146 4 149 9 7 11 -50 61 -67 61 -7 0
-23 -9 -37 -20z M1420 2000 c-21 -16 -41 -20 -117 -20 -78 0 -91 -2 -87 -15 9
-22 304 -22 304 -1 0 16 -46 56 -64 56 -6 0 -22 -9 -36 -20z M897 1910 c-22
-17 -40 -20 -136 -20 -61 0 -111 -2 -111 -4 0 -29 14 -31 177 -29 91 1 170 6
175 11 6 6 -4 20 -28 36 -46 31 -45 31 -77 6z M1467 1910 c-22 -17 -40 -20
-137 -20 -96 0 -111 -2 -108 -16 4 -22 341 -23 346 -1 2 8 -12 24 -31 36 -42
26 -39 26 -70 1z M1338 1815 l-37 -25 -285 0 c-248 0 -286 -2 -286 -15 0 -13
48 -15 374 -15 409 0 420 2 340 53 -54 33 -60 33 -106 2z M1520 1740 l-35 -29
-458 -1 c-431 0 -458 -1 -455 -17 3 -16 20 -18 156 -21 83 -1 152 -4 152 -7 0
-2 -5 -16 -12 -30 -11 -25 -13 -25 -121 -25 l-109 0 7 -27 c15 -64 54 -92 74
-55 9 16 34 20 207 31 108 7 255 19 327 26 l131 14 44 -37 c66 -56 85 -66 115
-59 41 11 45 46 9 78 -27 24 -158 75 -210 81 -9 1 59 5 152 8 118 3 171 9 173
17 4 12 -83 83 -102 82 -5 0 -26 -13 -45 -29z m-258 -77 c2 -5 19 -15 38 -24
35 -16 34 -16 -100 -24 -74 -3 -168 -5 -209 -3 l-75 3 40 27 c37 26 45 27 171
27 72 1 133 -2 135 -6z M957 1500 c-18 -14 -41 -20 -77 -20 -37 0 -50 -4 -48
-12 5 -15 196 -24 210 -10 5 5 -6 20 -26 35 l-34 26 -25 -19z M597 1490 c-23
-18 -40 -20 -222 -20 -153 0 -196 -3 -193 -12 3 -9 35 -14 101 -16 96 -3 97
-3 97 -27 0 -25 -1 -25 -91 -25 -50 0 -99 5 -109 10 -17 9 -21 5 -30 -29 -6
-22 -22 -53 -35 -69 -14 -17 -25 -35 -25 -41 0 -15 36 -32 55 -25 22 9 45 57
45 94 l0 30 95 0 95 0 0 -95 0 -95 40 0 39 0 3 93 3 92 103 3 c80 2 102 0 102
-11 0 -24 -21 -37 -42 -26 -14 8 -26 6 -43 -5 -14 -9 -41 -16 -60 -16 -25 0
-35 -4 -33 -12 7 -19 178 -24 178 -6 0 14 46 41 88 53 30 9 28 15 -16 58 -38
37 -38 37 -57 17 -16 -18 -30 -20 -122 -20 -103 0 -103 0 -103 25 0 24 0 24
117 27 66 2 118 7 120 13 2 9 -55 55 -69 55 -3 0 -17 -9 -31 -20z M1985 1490
c-17 -19 -31 -20 -217 -20 -169 0 -198 -2 -198 -15 0 -12 18 -15 100 -15 l100
0 0 -26 0 -26 -115 3 c-90 3 -115 1 -115 -9 0 -19 -29 -73 -54 -100 -21 -23
-21 -24 -2 -38 11 -8 26 -14 33 -14 23 0 52 43 59 86 l6 44 94 0 94 0 0 -95 0
-95 40 0 39 0 3 93 3 92 94 3 c52 1 98 -1 103 -6 4 -4 2 -16 -5 -26 -12 -16
-16 -17 -35 -5 -18 11 -24 11 -40 -4 -10 -9 -35 -17 -55 -17 -26 0 -37 -4 -37
-15 0 -12 16 -15 83 -15 75 0 84 3 106 26 13 14 37 28 53 31 38 7 46 28 22 54
-32 35 -54 43 -73 25 -14 -12 -41 -16 -119 -16 l-102 0 0 25 0 25 115 0 c126
0 142 9 86 49 -36 26 -43 26 -66 1z M1130 1400 l0 -100 40 0 c22 0 40 5 40 10
0 6 27 10 60 10 58 0 60 -1 60 -26 l0 -27 -77 6 c-43 3 -88 9 -100 12 l-23 7
0 -201 c0 -183 2 -202 18 -209 30 -13 285 -8 310 6 26 15 29 47 5 60 -9 6 -19
28 -22 53 -8 56 -31 65 -31 12 0 -59 -16 -74 -85 -80 -71 -6 -115 8 -115 37 0
19 6 20 95 20 52 0 95 4 95 8 0 5 -13 21 -30 37 l-30 29 -23 -22 c-16 -15 -36
-22 -65 -22 -38 0 -42 2 -42 25 0 24 2 24 92 27 52 2 93 7 95 13 2 6 -10 21
-26 33 l-29 21 -26 -20 c-18 -14 -37 -19 -63 -17 -33 3 -38 6 -38 28 0 25 1
25 93 28 50 1 92 6 92 9 0 4 -12 17 -27 30 l-28 22 33 1 c31 0 32 2 32 40 0
22 5 49 12 60 10 16 9 23 -12 45 -28 30 -33 31 -69 4 -21 -15 -39 -19 -77 -17
-45 3 -49 5 -49 28 l0 25 118 3 c65 1 117 7 117 12 0 5 -18 22 -40 36 l-39 26
-31 -26 c-23 -19 -43 -26 -74 -26 -52 0 -61 8 -40 31 16 17 15 19 -10 29 -15
5 -41 10 -57 10 l-29 0 0 -100z m195 -170 c13 -22 -17 -40 -66 -40 -41 0 -49
3 -49 18 0 10 3 22 7 25 10 11 101 8 108 -3z M1005 1420 c-16 -17 -31 -20
-117 -20 -80 0 -98 -3 -98 -15 0 -8 9 -15 20 -15 21 0 40 -34 40 -71 0 -16 -7
-19 -45 -19 -35 0 -43 -3 -39 -15 5 -13 34 -15 174 -15 186 0 201 6 151 54
l-27 26 -24 -25 c-13 -14 -31 -25 -39 -25 -11 0 -5 11 18 32 33 29 33 31 16
44 -17 13 -16 14 17 14 50 0 55 14 15 44 -41 31 -39 31 -62 6z m-43 -75 c-7
-53 -13 -65 -32 -65 -16 0 -19 5 -14 24 4 17 -1 30 -18 46 l-23 21 45 -3 c38
-3 45 -6 42 -23z M290 1325 c-7 -9 -29 -15 -52 -15 -32 0 -39 -3 -36 -17 3
-15 16 -18 81 -21 87 -3 100 10 48 47 -25 18 -30 19 -41 6z M1675 1324 c-10
-8 -34 -14 -52 -14 -27 0 -33 -4 -33 -20 0 -19 5 -21 77 -18 85 3 99 15 56 46
-25 18 -31 18 -48 6z M280 1235 c-8 -9 -30 -15 -57 -15 -31 0 -43 -4 -41 -12
7 -19 178 -24 178 -5 0 18 -32 47 -52 47 -9 0 -21 -7 -28 -15z M596 1235 c-11
-8 -39 -15 -63 -15 -34 0 -41 -3 -37 -15 5 -12 25 -15 94 -15 97 0 118 11 79
41 -29 22 -48 23 -73 4z M1666 1235 c-11 -8 -39 -15 -63 -15 -34 0 -41 -3 -37
-15 5 -12 25 -15 89 -15 92 0 113 11 75 42 -27 22 -39 22 -64 3z M1986 1235
c-11 -8 -40 -15 -64 -15 -30 0 -42 -4 -39 -12 5 -16 189 -18 194 -3 3 10 -47
45 -64 45 -4 0 -17 -7 -27 -15z M1026 1224 c-5 -13 -19 -15 -89 -11 -45 2 -92
8 -104 12 l-23 7 0 -186 0 -186 40 0 40 0 0 75 0 75 50 0 c38 0 52 -4 57 -16
10 -27 -12 -49 -46 -48 -24 2 -31 -2 -31 -17 0 -12 7 -19 19 -19 11 0 28 -11
39 -25 25 -32 46 -32 77 0 24 23 25 30 25 145 0 71 5 130 11 143 10 18 8 24
-17 44 -34 27 -40 28 -48 7z m-36 -79 c0 -23 -3 -25 -50 -25 -47 0 -50 2 -50
25 0 23 3 25 50 25 47 0 50 -2 50 -25z m0 -80 c0 -23 -3 -25 -50 -25 -47 0
-50 2 -50 25 0 23 3 25 50 25 47 0 50 -2 50 -25z M551 1159 c-28 -17 -51 -19
-191 -19 -136 0 -160 -2 -160 -15 0 -13 32 -15 229 -15 180 0 230 3 234 13 5
14 -16 31 -57 47 -17 6 -32 3 -55 -11z M1935 1159 c-26 -17 -49 -19 -192 -19
-140 0 -162 -2 -157 -15 9 -22 464 -23 464 0 0 11 -69 57 -82 54 -2 0 -16 -9
-33 -20z M2010 1075 c-34 -25 -36 -25 -272 -25 -207 0 -237 -2 -232 -15 5 -12
27 -15 110 -15 l104 0 -18 -47 -18 -48 -77 -3 c-60 -2 -77 -6 -77 -18 0 -16
27 -84 33 -84 2 0 16 11 31 25 22 20 38 25 84 26 31 0 118 6 192 14 l135 13
20 -22 c24 -28 51 -38 76 -31 31 10 23 51 -16 82 -32 26 -134 71 -162 72 -20
1 -15 -27 6 -34 10 -3 26 -14 36 -25 18 -20 17 -20 -109 -20 l-127 0 43 50 43
50 158 0 c145 0 157 1 157 18 0 15 -65 64 -81 62 -2 -1 -20 -12 -39 -25z M615
1069 c-27 -17 -50 -19 -262 -19 -200 0 -233 -2 -233 -15 0 -12 18 -15 106 -15
117 0 115 2 77 -72 -13 -27 -17 -28 -88 -28 -41 0 -75 -3 -75 -7 0 -5 5 -25
11 -45 11 -41 40 -52 57 -22 7 13 34 19 123 26 63 4 152 12 199 17 l84 9 34
-29 c37 -33 66 -37 80 -12 22 38 -31 88 -132 123 -79 28 -107 11 -41 -24 19
-11 35 -23 35 -28 0 -4 -57 -8 -127 -8 l-127 0 49 50 49 50 152 0 c123 0 153
3 157 14 7 17 -50 56 -79 55 -11 0 -32 -9 -49 -20z M530 810 c-20 -16 -41 -20
-103 -20 -58 0 -78 -3 -74 -12 5 -17 278 -19 284 -2 3 8 -65 55 -78 54 -2 0
-15 -9 -29 -20z M1397 810 c-20 -16 -40 -20 -106 -20 -67 0 -79 -2 -75 -15 9
-22 284 -22 284 -1 0 12 -57 56 -72 56 -3 0 -17 -9 -31 -20z M720 721 l0 -101
50 0 c28 0 50 5 50 10 0 6 35 10 85 10 l85 0 0 -30 0 -30 -77 0 c-43 0 -103 7
-133 15 -30 8 -56 15 -57 15 -2 0 -3 -87 -3 -193 0 -139 4 -198 13 -210 15
-21 190 -34 310 -23 67 7 80 11 94 32 15 24 15 26 -5 40 -13 9 -24 31 -28 55
-9 53 -22 58 -29 12 -3 -21 -10 -45 -14 -53 -11 -20 -114 -34 -185 -26 -51 7
-56 10 -56 32 l0 24 120 0 c72 0 120 4 120 10 0 5 -18 21 -40 36 l-39 26 -30
-21 c-20 -15 -44 -21 -80 -21 -50 0 -51 1 -51 30 l0 30 120 0 c66 0 120 4 120
9 0 5 -16 19 -36 32 -34 21 -37 21 -70 5 -19 -9 -57 -16 -84 -16 -47 0 -50 2
-50 25 l0 25 121 0 c132 0 144 7 74 47 -37 21 -38 21 -69 2 -19 -12 -50 -19
-78 -19 -45 0 -48 2 -48 27 l0 26 130 -6 130 -7 0 44 c0 30 5 46 15 50 24 9
18 23 -22 50 -37 26 -37 26 -58 6 -18 -17 -35 -20 -108 -20 -86 0 -87 0 -87
25 l0 25 139 0 c77 0 142 4 146 9 6 10 -61 61 -81 61 -6 0 -19 -9 -29 -20 -15
-17 -31 -20 -97 -20 -79 0 -95 9 -66 38 18 18 4 25 -57 30 l-55 4 0 -101z
M1590 721 l0 -101 44 0 c25 0 48 5 51 10 3 6 44 10 91 10 l84 0 0 -30 0 -30
-77 0 c-43 0 -103 7 -133 15 -30 8 -56 15 -57 15 -2 0 -3 -89 -3 -199 0 -172
2 -200 17 -212 22 -19 347 -20 381 -1 27 16 29 48 3 62 -14 7 -21 23 -23 52
-4 49 -28 66 -28 19 0 -65 -13 -79 -84 -86 -35 -4 -87 -4 -114 0 -42 6 -51 10
-55 31 l-4 24 118 0 c65 0 120 4 124 10 3 5 -13 21 -36 36 l-42 26 -28 -21
c-20 -15 -43 -21 -79 -21 -49 0 -50 1 -50 30 l0 30 120 0 c72 0 120 4 120 10
0 5 -19 19 -42 31 -39 20 -43 20 -69 5 -15 -9 -49 -16 -78 -16 -48 0 -51 2
-51 25 l0 25 114 0 c63 0 117 4 121 9 3 5 -14 21 -37 35 l-42 25 -32 -19 c-19
-12 -49 -20 -77 -20 -40 0 -45 2 -50 26 l-5 27 134 -6 134 -7 0 44 c0 30 5 46
15 50 24 9 18 23 -22 50 -37 26 -37 26 -58 6 -18 -17 -35 -20 -108 -20 -86 0
-87 0 -87 25 l0 25 139 0 c77 0 142 4 146 9 6 10 -61 61 -81 61 -6 0 -19 -9
-29 -20 -15 -17 -31 -20 -97 -20 -79 0 -95 9 -66 38 18 18 4 25 -57 30 l-55 4
0 -101z M608 729 c-25 -18 -40 -20 -168 -17 -120 3 -140 1 -138 -12 2 -8 16
-17 33 -20 20 -4 31 -13 36 -30 13 -48 11 -50 -42 -50 -43 0 -50 -3 -45 -16 3
-9 6 -18 6 -20 0 -3 93 -4 206 -3 173 1 206 3 211 16 4 9 -5 24 -23 38 l-29
23 -22 -20 c-11 -11 -29 -18 -38 -16 -15 2 -13 8 11 31 23 23 25 30 14 38 -11
6 -3 9 26 9 53 0 62 20 24 49 -35 25 -29 25 -62 0z m-74 -76 c-11 -50 -13 -53
-48 -53 -27 0 -34 3 -30 15 4 8 -1 26 -10 40 l-16 25 55 0 c55 0 55 0 49 -27z
M1471 730 c-21 -18 -39 -20 -167 -20 -123 0 -143 -2 -138 -15 4 -8 18 -15 34
-15 20 0 29 -6 34 -22 14 -52 9 -58 -44 -58 -48 0 -50 -1 -40 -20 11 -20 20
-21 211 -19 222 1 237 6 185 57 l-28 27 -15 -22 c-10 -14 -25 -23 -42 -23
l-26 1 32 29 c29 26 31 30 15 39 -13 8 -8 10 25 11 52 0 62 14 32 46 -27 29
-37 29 -68 4z m-71 -67 c-1 -49 -11 -63 -50 -63 -34 0 -37 2 -33 23 3 14 -2
31 -12 40 -15 16 -13 17 39 17 47 0 56 -3 56 -17z M601 539 c-38 -23 -131 -25
-208 -5 l-53 14 0 -189 0 -189 45 0 45 0 0 75 0 75 75 0 c71 0 75 -1 75 -22 0
-40 -14 -51 -59 -46 -33 3 -41 0 -41 -13 0 -11 11 -19 34 -23 19 -4 45 -15 59
-26 32 -25 48 -25 75 0 21 19 22 30 22 155 0 78 4 136 10 140 18 11 11 31 -19
52 -28 21 -28 21 -60 2z m-21 -74 c0 -24 -2 -25 -75 -25 -73 0 -75 1 -75 25 0
24 2 25 75 25 73 0 75 -1 75 -25z m0 -90 c0 -24 -2 -25 -75 -25 -73 0 -75 1
-75 25 0 24 2 25 75 25 73 0 75 -1 75 -25z M1465 539 c-32 -20 -143 -26 -187
-10 -13 4 -35 11 -50 15 l-28 6 0 -190 0 -190 48 0 47 0 0 72 0 73 73 3 73 3
-3 -33 c-3 -32 -4 -33 -51 -33 -37 0 -47 -4 -47 -16 0 -11 12 -18 40 -23 22
-3 49 -15 60 -26 26 -26 46 -25 75 5 24 23 25 29 25 153 0 85 4 132 12 140 9
9 7 16 -8 33 -31 34 -47 38 -79 18z m-25 -74 c0 -24 -2 -25 -75 -25 -66 0 -75
2 -75 18 0 29 8 32 82 32 66 0 68 -1 68 -25z m0 -90 c0 -24 -2 -25 -75 -25
-73 0 -75 1 -75 25 0 24 2 25 75 25 73 0 75 -1 75 -25z"/>
</g>
</svg>
