<?xml version="1.0" standalone="no"?>
<!DOCTYPE svg PUBLIC "-//W3C//DTD SVG 20010904//EN"
 "http://www.w3.org/TR/2001/REC-SVG-20010904/DTD/svg10.dtd">
<svg version="1.0" xmlns="http://www.w3.org/2000/svg"
 width="3840.000000pt" height="2159.000000pt" viewBox="0 0 3840.000000 2159.000000"
 preserveAspectRatio="xMidYMid meet">
<metadata>
Created by potrace 1.16, written by Peter Selinger 2001-2019
</metadata>
<g transform="translate(0.000000,2159.000000) scale(0.100000,-0.100000)"
fill="#000000" stroke="none">
<path d="M17995 20424 c-640 -12 -1485 -54 -2025 -100 -509 -44 -917 -89
-1445 -160 -60 -8 -141 -19 -180 -24 -285 -38 -1063 -167 -1270 -210 -27 -6
-131 -26 -230 -45 -195 -38 -331 -67 -580 -122 -88 -19 -187 -41 -220 -48
-206 -45 -827 -200 -1085 -272 -268 -74 -275 -76 -350 -96 -129 -35 -182 -51
-595 -178 -183 -56 -751 -242 -819 -269 l-29 -11 387 -385 c300 -299 390 -384
404 -379 137 55 819 282 1022 340 25 7 86 25 135 40 130 39 302 87 440 125 66
18 158 43 205 55 128 35 514 130 716 175 99 22 211 48 249 56 39 9 99 22 135
29 36 7 144 28 240 48 326 66 634 122 925 167 72 11 157 25 190 30 60 10 394
57 600 85 61 8 171 22 245 30 74 9 169 20 210 25 41 5 122 14 180 20 58 5 173
16 255 25 152 15 448 40 585 50 745 52 1136 68 2080 86 1148 22 2736 -10 3555
-71 72 -5 225 -17 340 -25 289 -22 916 -84 1145 -114 41 -6 131 -18 200 -26
879 -112 1810 -286 2680 -500 361 -89 672 -173 1033 -281 26 -8 68 -20 95 -28
224 -65 886 -286 1024 -341 13 -5 106 82 404 379 l387 385 -29 12 c-209 80
-1060 347 -1484 465 -30 9 -66 19 -80 24 -14 4 -52 15 -85 24 -33 9 -103 28
-155 42 -256 70 -573 149 -1010 253 -221 52 -820 179 -945 201 -27 5 -111 20
-185 34 -273 53 -626 114 -810 141 -52 7 -158 23 -235 34 -252 38 -338 50
-465 66 -69 8 -156 20 -195 25 -38 6 -110 14 -160 20 -49 5 -128 14 -175 19
-345 41 -792 81 -1160 105 -896 59 -1188 67 -2630 70 -696 2 -1341 1 -1435 0z
M15860 18158 c-1322 -20 -2531 -134 -3500 -328 -137 -28 -173 -35 -345 -74
-84 -18 -400 -99 -470 -120 -376 -110 -825 -270 -825 -293 0 -22 61 -114 136
-208 214 -266 497 -499 946 -780 308 -192 753 -401 1082 -506 154 -49 142 -51
149 28 8 102 35 198 82 299 54 117 109 197 199 292 418 440 1263 721 2521 837
222 20 796 47 935 43 l115 -3 27 -185 c15 -102 32 -221 38 -265 6 -44 28 -201
50 -350 63 -438 122 -853 154 -1080 8 -60 27 -189 41 -285 14 -96 37 -256 51
-355 26 -190 64 -452 89 -620 8 -55 31 -210 50 -345 19 -135 37 -261 40 -280
3 -19 25 -177 50 -350 24 -173 49 -349 54 -390 12 -83 78 -546 110 -765 11
-77 25 -174 30 -215 6 -41 25 -169 42 -285 16 -115 36 -255 44 -310 8 -55 25
-179 40 -275 14 -96 34 -242 46 -325 11 -82 31 -222 44 -310 13 -88 31 -212
39 -275 9 -63 29 -207 45 -320 16 -113 34 -236 40 -275 5 -38 55 -387 111
-775 56 -388 108 -750 115 -805 12 -85 53 -372 70 -485 3 -19 28 -195 55 -390
27 -195 52 -371 55 -390 3 -19 34 -240 70 -490 36 -250 69 -482 75 -515 5 -33
19 -130 30 -215 12 -85 25 -180 30 -210 9 -52 65 -442 95 -665 8 -55 26 -179
40 -275 14 -96 35 -240 45 -320 11 -80 31 -221 45 -315 14 -93 30 -204 36
-245 5 -41 26 -185 45 -320 20 -135 64 -447 99 -695 36 -247 69 -481 75 -520
9 -60 69 -476 87 -603 8 -59 19 -61 26 -4 6 50 69 488 87 607 6 39 47 322 90
630 44 308 105 733 136 945 30 212 63 446 74 520 10 74 32 230 48 345 17 116
36 244 41 285 6 41 22 154 36 250 14 96 32 222 40 280 26 185 71 502 145 1010
40 272 78 540 85 595 12 89 86 615 100 705 3 19 21 148 40 285 19 138 40 277
45 310 6 33 37 251 70 485 33 234 64 452 70 485 5 33 19 130 30 215 12 85 25
180 30 210 6 30 26 168 45 305 19 138 37 266 40 285 3 19 28 195 55 390 27
195 52 371 55 390 7 45 194 1349 246 1710 47 332 49 344 104 740 25 173 47
331 50 350 3 19 21 145 40 280 19 135 37 261 40 280 3 19 33 224 66 455 33
231 65 449 70 485 10 64 58 404 84 590 41 296 177 1244 185 1295 5 33 19 128
30 210 11 83 23 156 25 163 6 17 179 16 565 -3 343 -17 500 -29 855 -70 396
-45 859 -144 1195 -255 761 -251 1182 -634 1238 -1125 9 -83 4 -82 152 -34
563 183 1198 533 1655 912 98 81 287 268 355 352 67 82 150 208 150 227 0 27
-569 226 -900 314 -300 80 -689 167 -985 220 -49 8 -124 22 -165 29 -114 21
-370 58 -615 89 -108 14 -184 23 -475 56 -47 5 -128 12 -180 15 -52 3 -129 10
-170 16 -144 18 -825 55 -1280 69 -419 14 -1561 14 -2025 1 -354 -11 -908 -31
-912 -34 -1 -1 -172 -172 -381 -379 -208 -208 -385 -378 -393 -378 -7 0 -185
171 -394 379 l-380 380 -275 11 c-770 29 -1566 39 -2290 28z"/>
</g>
</svg>
