<?xml version="1.0" standalone="no"?>
<!DOCTYPE svg PUBLIC "-//W3C//DTD SVG 20010904//EN"
 "http://www.w3.org/TR/2001/REC-SVG-20010904/DTD/svg10.dtd">
<svg version="1.0" xmlns="http://www.w3.org/2000/svg"
 width="612.000000pt" height="612.000000pt" viewBox="0 0 612.000000 612.000000"
 preserveAspectRatio="xMidYMid meet">
<metadata>
Created by potrace 1.16, written by Peter Selinger 2001-2019
</metadata>
<g transform="translate(0.000000,612.000000) scale(0.100000,-0.100000)"
fill="#000000" stroke="none">
<path d="M2880 5235 c-456 -92 -833 -523 -1024 -1170 -153 -520 -186 -1244
-80 -1775 54 -270 118 -462 225 -668 201 -390 469 -637 784 -722 114 -31 320
-38 438 -16 225 43 402 142 584 328 99 100 128 136 206 253 131 198 253 493
312 758 135 613 99 1416 -90 1957 -183 524 -502 905 -855 1023 -140 47 -358
61 -500 32z m266 -196 c299 -54 515 -403 613 -989 28 -168 48 -365 55 -545 4
-83 9 -194 12 -247 l5 -98 -771 0 -770 0 0 44 c0 74 20 392 35 576 51 587 146
903 326 1090 136 142 314 202 495 169z m674 -2121 c0 -63 -20 -414 -30 -528
-46 -521 -139 -871 -285 -1070 -87 -118 -221 -212 -344 -240 -160 -37 -375 47
-515 202 -133 147 -237 433 -290 798 -32 217 -66 633 -66 797 l0 73 765 0 765
0 0 -32z"/>
</g>
</svg>
