<?xml version="1.0" standalone="no"?>
<!DOCTYPE svg PUBLIC "-//W3C//DTD SVG 20010904//EN"
 "http://www.w3.org/TR/2001/REC-SVG-20010904/DTD/svg10.dtd">
<svg version="1.0" xmlns="http://www.w3.org/2000/svg"
 width="900.000000pt" height="900.000000pt" viewBox="0 0 900.000000 900.000000"
 preserveAspectRatio="xMidYMid meet">
<metadata>
Created by potrace 1.16, written by Peter Selinger 2001-2019
</metadata>
<g transform="translate(0.000000,900.000000) scale(0.100000,-0.100000)"
fill="#000000" stroke="none">
<path d="M4630 7773 c-25 -2 -91 -10 -146 -18 -56 -8 -127 -15 -158 -15 -31 0
-89 -6 -129 -14 -40 -8 -121 -22 -182 -31 -60 -9 -135 -22 -165 -30 -66 -17
-165 -41 -240 -59 -30 -7 -77 -20 -105 -30 -27 -9 -117 -38 -200 -65 -82 -28
-188 -66 -235 -86 -47 -20 -101 -43 -121 -50 -20 -7 -45 -18 -55 -23 -11 -6
-46 -22 -79 -37 -33 -14 -71 -32 -85 -40 -14 -8 -43 -24 -65 -35 -22 -11 -58
-31 -80 -43 -22 -13 -70 -40 -106 -60 -69 -38 -270 -170 -374 -247 -192 -141
-582 -504 -572 -533 6 -16 73 -11 167 13 41 10 107 24 145 30 39 6 144 24 235
41 91 16 212 36 270 44 58 8 125 20 150 25 25 6 91 15 148 20 56 5 139 16 185
24 45 9 132 20 192 25 61 6 148 15 195 20 47 5 155 14 240 21 85 6 207 15 270
21 288 24 440 30 945 36 555 6 929 -3 1285 -32 102 -8 275 -22 385 -30 270
-21 593 -56 890 -96 225 -31 343 -48 471 -69 77 -13 152 -20 166 -17 34 9 38
27 38 176 0 102 -4 137 -22 190 -43 128 -131 232 -251 295 -37 20 -75 40 -85
45 -18 11 -177 85 -254 120 -27 11 -67 30 -90 40 -24 11 -61 26 -83 34 -22 8
-76 29 -120 47 -44 17 -93 36 -110 41 -16 5 -43 15 -60 23 -27 13 -111 40
-305 96 -36 11 -87 27 -115 35 -27 9 -77 22 -110 29 -33 7 -76 18 -95 24 -85
26 -341 72 -570 102 -283 37 -485 50 -720 48 -135 -1 -265 -3 -290 -5z M3650
5200 c-41 -5 -99 -13 -129 -19 -29 -6 -75 -11 -100 -11 -26 0 -81 -9 -122 -19
-41 -10 -101 -22 -134 -26 -33 -3 -78 -11 -99 -16 -22 -6 -73 -17 -115 -24
-212 -37 -420 -81 -541 -115 -36 -11 -83 -22 -105 -25 -22 -4 -56 -12 -75 -20
-19 -7 -64 -20 -100 -29 -155 -38 -384 -105 -510 -150 -61 -22 -163 -57 -210
-71 -74 -22 -162 -55 -218 -81 -47 -22 -53 -28 -47 -47 4 -12 13 -47 20 -77
12 -50 49 -160 88 -266 16 -42 105 -226 135 -279 45 -79 213 -327 293 -432
148 -196 485 -553 739 -784 178 -162 413 -363 524 -448 39 -30 96 -76 127
-103 64 -54 101 -62 120 -25 7 12 50 81 97 152 47 72 96 148 110 170 14 22 33
52 44 67 10 15 18 30 18 32 0 3 21 38 46 77 25 40 48 79 52 88 3 8 22 40 42
71 21 30 53 84 72 120 19 36 50 92 68 125 18 33 68 129 112 213 43 84 82 161
87 170 9 15 22 45 91 197 10 22 30 65 44 95 14 30 26 60 26 65 0 6 9 28 19 50
11 22 28 63 39 90 47 118 95 242 104 270 6 17 18 53 28 80 122 347 148 538 94
685 -45 119 -138 195 -289 235 -71 19 -332 28 -445 15z M6950 5170 c-85 -9
-129 -20 -270 -68 -251 -86 -463 -282 -707 -652 -19 -30 -44 -67 -54 -82 -11
-15 -19 -30 -19 -33 0 -3 -8 -18 -18 -33 -11 -15 -30 -45 -44 -67 -14 -22 -42
-67 -64 -100 -40 -63 -77 -124 -216 -363 -46 -78 -115 -198 -155 -265 -39 -67
-108 -187 -153 -267 -46 -80 -111 -193 -146 -251 -35 -58 -64 -110 -64 -114 0
-5 -6 -16 -14 -24 -7 -9 -29 -45 -48 -81 -19 -36 -41 -76 -50 -90 -8 -14 -42
-71 -74 -128 -33 -57 -69 -120 -80 -140 -12 -20 -32 -57 -46 -82 -14 -25 -35
-63 -48 -85 -21 -37 -34 -61 -92 -165 -11 -19 -29 -51 -41 -72 -27 -45 -144
-249 -173 -303 -12 -22 -54 -96 -93 -164 -39 -68 -71 -130 -71 -137 0 -6 10
-18 23 -26 57 -35 301 -118 351 -118 17 -1 49 -8 71 -17 30 -12 93 -17 258
-20 192 -5 228 -3 310 15 50 11 115 25 142 30 120 24 335 94 455 149 65 30
167 80 218 108 137 74 280 202 357 320 41 63 146 246 197 345 21 41 43 82 48
90 5 8 16 31 25 50 8 19 19 42 25 50 5 8 28 56 51 105 23 50 51 113 64 140 13
28 37 84 55 125 17 41 40 93 50 116 11 23 20 46 20 51 0 10 33 90 65 158 15
31 30 72 60 160 10 28 23 64 31 80 7 17 18 47 24 68 7 22 18 51 26 65 8 15 14
35 14 45 0 11 7 33 15 50 20 43 63 171 77 227 6 25 16 54 24 65 7 11 16 38 19
60 4 22 14 51 22 64 9 13 21 49 28 80 7 31 21 79 30 106 18 57 54 177 83 280
11 39 32 111 46 160 28 100 80 296 97 365 6 25 17 65 25 90 33 96 29 108 -37
121 -63 13 -529 19 -629 9z"/>
</g>
</svg>
