<?xml version="1.0" standalone="no"?>
<!DOCTYPE svg PUBLIC "-//W3C//DTD SVG 20010904//EN"
 "http://www.w3.org/TR/2001/REC-SVG-20010904/DTD/svg10.dtd">
<svg version="1.0" xmlns="http://www.w3.org/2000/svg"
 width="750.000000pt" height="1000.000000pt" viewBox="0 0 750.000000 1000.000000"
 preserveAspectRatio="xMidYMid meet">
<metadata>
Created by potrace 1.16, written by Peter Selinger 2001-2019
</metadata>
<g transform="translate(0.000000,1000.000000) scale(0.100000,-0.100000)"
fill="#000000" stroke="none">
<path d="M2348 8308 c-2 -150 -2 -276 0 -280 2 -5 262 -8 578 -8 l574 0 -2
-1292 -3 -1292 -155 -124 c-85 -68 -211 -170 -280 -225 -68 -56 -128 -103
-132 -105 -5 -2 -8 552 -8 1232 l0 1236 -284 0 -283 0 -6 -82 c-8 -107 -6
-3598 2 -3598 14 0 100 66 411 314 179 143 375 300 436 347 60 47 188 148 284
224 96 76 202 160 235 186 l61 47 103 -74 c56 -41 252 -192 434 -337 470 -372
907 -710 912 -705 3 3 5 832 5 1844 l0 1839 -290 3 -290 2 -2 -1240 -3 -1240
-240 197 c-132 108 -259 213 -282 233 l-43 38 0 1286 0 1286 575 0 575 0 0
280 0 280 -1439 0 -1440 0 -3 -272z"/>
</g>
</svg>
