<?xml version="1.0" standalone="no"?>
<!DOCTYPE svg PUBLIC "-//W3C//DTD SVG 20010904//EN"
 "http://www.w3.org/TR/2001/REC-SVG-20010904/DTD/svg10.dtd">
<svg version="1.0" xmlns="http://www.w3.org/2000/svg"
 width="480.000000pt" height="480.000000pt" viewBox="0 0 480.000000 480.000000"
 preserveAspectRatio="xMidYMid meet">
<metadata>
Created by potrace 1.16, written by Peter Selinger 2001-2019
</metadata>
<g transform="translate(0.000000,480.000000) scale(0.100000,-0.100000)"
fill="#000000" stroke="none">
<path d="M2215 4734 c-604 -63 -1093 -295 -1495 -710 -347 -358 -559 -790
-637 -1294 -25 -162 -24 -500 1 -664 77 -500 291 -933 636 -1290 364 -375 822
-612 1340 -691 387 -59 830 -8 1195 137 316 126 584 306 825 555 345 355 559
790 637 1293 24 160 24 500 0 660 -104 674 -469 1249 -1030 1624 -271 181
-615 312 -947 361 -110 16 -437 28 -525 19z m365 -69 c104 -17 240 -60 322
-101 218 -109 413 -304 522 -522 68 -135 116 -344 116 -502 0 -158 -48 -367
-116 -502 -108 -216 -306 -414 -522 -522 -136 -69 -343 -116 -507 -116 -293 0
-590 -125 -800 -335 -170 -170 -281 -386 -320 -625 -29 -180 -13 -368 45 -542
127 -380 449 -667 841 -753 88 -19 31 -19 -99 1 -480 71 -923 295 -1272 644
-352 352 -569 784 -647 1282 -24 158 -24 500 0 656 79 501 295 930 647 1282
240 240 509 413 824 530 310 115 709 166 966 125z m-46 -3139 c105 -51 161
-144 161 -266 0 -123 -56 -214 -163 -267 -47 -23 -70 -28 -132 -28 -62 0 -85
5 -132 28 -160 79 -215 278 -118 430 80 126 246 170 384 103z M2303 3822
c-251 -90 -272 -432 -35 -549 81 -40 183 -40 264 0 107 53 163 144 163 267 0
85 -21 142 -74 203 -72 81 -213 117 -318 79z"/>
</g>
</svg>
