<?xml version="1.0" standalone="no"?>
<!DOCTYPE svg PUBLIC "-//W3C//DTD SVG 20010904//EN"
 "http://www.w3.org/TR/2001/REC-SVG-20010904/DTD/svg10.dtd">
<svg version="1.0" xmlns="http://www.w3.org/2000/svg"
 width="240.000000pt" height="210.000000pt" viewBox="0 0 240.000000 210.000000"
 preserveAspectRatio="xMidYMid meet">
<metadata>
Created by potrace 1.16, written by Peter Selinger 2001-2019
</metadata>
<g transform="translate(0.000000,210.000000) scale(0.100000,-0.100000)"
fill="#000000" stroke="none">
<path d="M735 1949 c-60 -34 -118 -69 -127 -77 -16 -14 -18 -40 -18 -281 -1
-263 -1 -267 -30 -370 l-29 -103 85 -169 c46 -93 84 -173 84 -179 0 -17 -340
-12 -370 5 -34 19 -38 19 -42 -7 -2 -19 -11 -24 -48 -28 -41 -5 -47 -9 -68
-49 -12 -24 -21 -46 -18 -48 2 -2 24 6 48 18 65 33 158 37 233 8 79 -30 155
-105 179 -177 10 -30 22 -49 28 -46 12 8 38 67 38 88 0 8 -25 42 -56 75 l-56
61 35 0 c28 0 40 -7 67 -40 18 -22 36 -40 41 -40 4 0 16 16 25 35 9 19 19 35
23 34 3 0 35 -59 70 -131 l64 -132 -42 -83 c-40 -81 -42 -83 -76 -83 -20 0
-49 7 -65 15 -27 14 -29 14 -32 -8 -3 -19 -11 -23 -53 -27 -45 -5 -51 -8 -72
-45 -30 -54 -29 -58 13 -40 25 10 71 15 145 15 61 0 110 4 114 10 10 16 186
12 215 -5 38 -22 41 -18 21 26 -24 53 -34 59 -98 59 l-53 0 32 64 c27 55 39
69 99 106 38 24 66 46 64 50 -2 4 -25 15 -50 24 -25 10 -45 21 -45 25 0 4 16
15 35 24 19 9 35 20 35 25 0 5 -15 16 -32 25 l-33 16 40 0 40 1 88 -173 c48
-94 87 -175 87 -179 0 -5 -20 -8 -44 -8 -24 0 -52 -3 -61 -6 -17 -7 -60 -82
-52 -91 3 -2 19 3 36 11 34 18 196 23 206 6 4 -6 55 -10 121 -10 84 0 123 -4
144 -15 26 -14 30 -14 30 -1 0 8 -9 31 -21 50 -19 33 -24 36 -70 36 -46 0 -49
2 -49 25 0 25 0 25 -31 10 -16 -9 -47 -15 -67 -13 -33 3 -39 8 -63 53 -46 88
-46 89 11 124 27 17 50 33 50 36 0 2 -23 17 -52 31 l-52 26 44 23 44 23 -34
21 -35 21 32 0 c28 0 45 -14 143 -124 61 -68 118 -127 126 -130 26 -10 84 -7
84 5 0 5 -69 87 -152 180 -84 94 -153 173 -153 177 0 3 13 6 29 7 25 1 45 -17
150 -135 204 -229 216 -240 264 -240 24 0 42 5 42 11 0 8 -209 250 -250 289
-3 3 -40 44 -83 93 l-79 87 39 -1 c37 0 44 -6 228 -215 105 -119 203 -227 218
-240 23 -19 40 -24 83 -24 30 0 54 3 54 6 0 7 -34 46 -307 351 -95 106 -173
197 -173 203 0 6 42 10 111 10 l111 0 -72 80 -72 80 -117 0 c-110 0 -119 2
-139 23 -12 13 -22 26 -22 30 0 4 60 7 133 7 72 0 137 4 143 8 13 8 114 147
114 156 0 3 -110 7 -245 8 l-245 3 15 23 c16 22 18 22 263 22 136 0 252 4 257
8 13 9 115 147 115 156 0 3 -115 6 -256 6 l-256 0 14 23 c15 22 20 22 279 27
145 3 265 7 266 8 11 10 113 150 113 155 0 4 -117 7 -260 7 -143 0 -260 3
-260 8 0 4 7 18 16 30 15 22 18 22 283 22 265 0 268 0 288 23 28 31 123 165
130 183 4 12 -46 14 -356 14 -342 0 -363 -1 -417 -21 -90 -34 -96 -42 -369
-472 -20 -32 -44 -61 -53 -64 -11 -5 -36 15 -85 68 -77 83 -92 111 -77 140 6
11 95 61 201 115 115 57 189 100 186 107 -2 7 -18 22 -37 35 -29 20 -45 22
-146 22 -97 0 -118 3 -149 21 -29 17 -38 19 -50 9 -13 -11 -24 -8 -64 14 -27
14 -53 26 -57 26 -5 0 -58 -28 -119 -61z m199 -75 c30 -30 13 -74 -29 -74 -60
0 -59 88 2 90 6 0 19 -7 27 -16z m166 11 c0 -6 -87 -45 -101 -45 -5 0 -9 7 -9
15 0 14 14 19 70 28 14 3 28 5 33 6 4 0 7 -1 7 -4z M891 1860 c-17 -10 -7 -40
13 -40 7 0 16 6 19 14 8 19 -15 37 -32 26z M237 636 c-217 -78 -239 -380 -36
-490 65 -36 159 -41 231 -13 91 35 168 152 168 253 0 56 -39 144 -84 189 -69
68 -186 94 -279 61z"/>
</g>
</svg>
