<?xml version="1.0" standalone="no"?>
<!DOCTYPE svg PUBLIC "-//W3C//DTD SVG 20010904//EN"
 "http://www.w3.org/TR/2001/REC-SVG-20010904/DTD/svg10.dtd">
<svg version="1.0" xmlns="http://www.w3.org/2000/svg"
 width="860.000000pt" height="932.000000pt" viewBox="0 0 860.000000 932.000000"
 preserveAspectRatio="xMidYMid meet">
<metadata>
Created by potrace 1.16, written by Peter Selinger 2001-2019
</metadata>
<g transform="translate(0.000000,932.000000) scale(0.100000,-0.100000)"
fill="#000000" stroke="none">
<path d="M4510 8900 c-843 -79 -1407 -489 -1541 -1120 -30 -141 -33 -425 -5
-575 83 -455 355 -868 917 -1392 98 -93 179 -170 179 -173 0 -3 -56 -22 -125
-43 -367 -108 -773 -315 -1040 -527 -193 -153 -403 -383 -530 -580 -238 -367
-370 -753 -427 -1245 -16 -142 -16 -625 0 -775 68 -624 272 -1100 624 -1450
358 -357 853 -560 1487 -609 708 -56 1324 108 1761 469 469 387 754 1002 842
1815 20 187 17 747 -5 905 -48 335 -129 601 -273 890 -153 308 -348 572 -649
879 -212 217 -378 367 -679 614 -458 377 -652 550 -809 722 -329 361 -450 643
-417 969 41 407 276 660 687 743 120 24 465 24 603 0 134 -23 261 -61 357
-107 86 -40 186 -104 215 -136 9 -11 70 -158 136 -329 l119 -310 141 -3 142
-3 0 600 0 599 -212 41 c-282 54 -550 97 -728 116 -172 19 -636 27 -770 15z
m30 -3662 c147 -118 430 -401 544 -543 304 -382 473 -776 543 -1265 15 -101
18 -192 18 -480 -1 -348 -7 -453 -41 -690 -50 -349 -161 -668 -309 -890 -72
-109 -242 -275 -345 -338 -211 -130 -468 -185 -748 -162 -243 20 -412 76 -595
197 -362 239 -575 661 -654 1293 -14 115 -18 216 -17 485 0 344 11 508 49 732
67 394 214 773 399 1029 181 253 370 413 667 565 116 59 342 157 364 158 6 1
62 -41 125 -91z"/>
</g>
</svg>
