<?xml version="1.0" standalone="no"?>
<!DOCTYPE svg PUBLIC "-//W3C//DTD SVG 20010904//EN"
 "http://www.w3.org/TR/2001/REC-SVG-20010904/DTD/svg10.dtd">
<svg version="1.0" xmlns="http://www.w3.org/2000/svg"
 width="225.000000pt" height="225.000000pt" viewBox="0 0 225.000000 225.000000"
 preserveAspectRatio="xMidYMid meet">
<metadata>
Created by potrace 1.16, written by Peter Selinger 2001-2019
</metadata>
<g transform="translate(0.000000,225.000000) scale(0.100000,-0.100000)"
fill="#000000" stroke="none">
<path d="M1111 2139 c-165 -19 -309 -77 -382 -154 -58 -59 -155 -192 -185
-253 -26 -52 -27 -54 -22 -235 l5 -183 -25 1 c-50 0 -52 -88 -5 -245 14 -47
34 -95 46 -107 16 -18 22 -48 34 -165 13 -138 33 -231 57 -264 10 -13 6 -27
-16 -72 -35 -68 -97 -122 -188 -163 -36 -17 -92 -48 -126 -69 -33 -22 -66 -40
-73 -40 -7 0 -62 -16 -122 -36 l-109 -36 0 -59 0 -59 360 0 360 0 -5 23 c-26
122 -65 353 -65 388 0 74 13 78 52 18 73 -114 250 -242 354 -256 35 -4 49 1
133 57 149 98 231 186 276 295 l17 40 -63 -64 c-102 -102 -180 -147 -301 -176
l-57 -13 -25 53 c-33 73 -64 89 -160 80 -111 -11 -156 19 -156 104 0 56 23 61
106 22 75 -35 151 -41 211 -16 35 15 35 16 18 35 -17 19 -17 20 26 40 24 11
57 20 72 20 48 0 25 24 -29 31 -27 4 -70 16 -95 27 -39 17 -49 18 -70 7 -20
-12 -28 -11 -48 2 -17 11 -37 14 -70 9 l-46 -6 45 21 c39 18 50 19 78 9 42
-15 54 -5 61 52 6 42 7 43 45 43 42 0 64 20 53 49 -4 9 -28 26 -54 38 -45 20
-49 20 -76 4 -46 -26 -97 -19 -97 15 0 10 17 51 37 91 26 51 38 90 41 131 4
55 3 59 -31 91 -21 20 -66 45 -112 61 -129 48 -171 123 -102 188 38 36 143 86
247 118 61 19 99 23 200 24 69 0 157 -4 196 -9 65 -8 75 -7 113 15 l41 23 28
-21 c57 -42 66 -101 28 -178 l-25 -48 25 -42 c13 -23 24 -51 24 -63 0 -17 6
-22 25 -22 30 0 30 2 4 -137 -25 -136 -19 -172 17 -97 13 28 46 72 73 97 61
58 90 129 98 242 11 174 -66 380 -173 460 -38 28 -40 33 -36 71 4 38 0 46 -38
88 -50 55 -124 91 -211 105 -72 12 -102 12 -208 0z m-401 -938 c0 -43 55 -54
75 -14 9 18 13 19 29 7 49 -35 -52 -61 -114 -29 -33 17 -36 25 -18 43 17 17
28 15 28 -7z m70 -1 c0 -5 -4 -10 -10 -10 -5 0 -10 5 -10 10 0 6 5 10 10 10 6
0 10 -4 10 -10z M1231 1319 c-90 -17 -151 -40 -161 -59 -15 -27 -13 -30 18
-30 23 -1 24 -2 10 -11 -26 -15 -22 -44 8 -68 30 -24 59 -28 51 -7 -5 13 10
36 24 36 4 0 9 -10 11 -22 4 -31 51 -37 70 -9 14 19 16 20 39 4 13 -10 30 -23
37 -30 15 -15 51 -17 71 -4 12 8 8 16 -18 46 -39 45 -39 79 1 83 15 2 37 -2
48 -8 30 -16 35 -6 15 28 -35 59 -104 75 -224 51z m29 -159 c0 -5 -4 -10 -10
-10 -5 0 -10 5 -10 10 0 6 5 10 10 10 6 0 10 -4 10 -10z M1732 1154 c-27 -19
-28 -34 -3 -34 27 0 34 -30 26 -103 -7 -57 -6 -61 9 -47 54 44 74 156 34 184
-12 9 -27 16 -33 16 -6 0 -21 -7 -33 -16z M1634 1045 c-18 -13 -18 -14 5 -38
l23 -25 -28 -4 c-23 -2 -30 -9 -32 -31 -2 -16 -10 -31 -18 -34 -8 -3 -14 -9
-14 -14 0 -11 25 -12 48 -1 9 5 35 17 57 28 46 22 56 51 31 89 -24 36 -49 47
-72 30z M1488 588 c-3 -7 -1 -26 5 -41 22 -64 3 -184 -55 -352 -30 -88 -59
-168 -63 -177 -7 -17 18 -18 434 -18 l441 0 0 85 0 85 -101 50 c-137 69 -402
179 -450 186 -63 10 -124 58 -165 128 -43 73 -41 70 -46 54z M966 128 l-26
-33 26 -3 c25 -3 26 -6 20 -48 l-6 -44 43 0 c36 0 47 5 65 30 13 16 34 37 48
47 31 20 44 7 44 -44 0 -28 3 -33 25 -33 14 0 25 3 25 6 0 11 -43 69 -83 111
-32 34 -44 40 -58 33 -24 -13 -72 -13 -86 1 -7 7 -18 1 -37 -23z"/>
</g>
</svg>
