<?xml version="1.0" standalone="no"?>
<!DOCTYPE svg PUBLIC "-//W3C//DTD SVG 20010904//EN"
 "http://www.w3.org/TR/2001/REC-SVG-20010904/DTD/svg10.dtd">
<svg version="1.0" xmlns="http://www.w3.org/2000/svg"
 width="755.000000pt" height="900.000000pt" viewBox="0 0 755.000000 900.000000"
 preserveAspectRatio="xMidYMid meet">
<metadata>
Created by potrace 1.16, written by Peter Selinger 2001-2019
</metadata>
<g transform="translate(0.000000,900.000000) scale(0.100000,-0.100000)"
fill="#000000" stroke="none">
<path d="M2850 8776 c-19 -8 -87 -41 -151 -74 -87 -45 -130 -62 -175 -67 -32
-4 -79 -10 -104 -15 -35 -7 -28 -7 30 -3 111 7 142 17 288 90 123 62 137 67
200 67 56 1 77 -4 128 -31 103 -53 156 -65 260 -57 123 9 148 -1 253 -100 66
-62 114 -97 203 -145 64 -35 145 -86 180 -114 35 -27 54 -40 43 -27 -30 34
-128 101 -235 160 -67 38 -120 78 -180 136 -47 45 -98 88 -115 95 -18 7 -84
13 -165 13 l-135 2 -80 39 c-64 32 -93 40 -145 42 -38 2 -80 -3 -100 -11z
M3653 8757 c10 -6 21 -26 26 -42 7 -21 10 -24 10 -10 1 24 -25 65 -41 65 -7 0
-4 -6 5 -13z M3681 8653 c-3 -93 54 -148 229 -218 184 -73 261 -121 314 -195
45 -62 55 -95 66 -229 11 -131 21 -204 26 -198 2 1 -3 78 -11 170 -15 181 -28
225 -84 289 -50 58 -130 105 -278 164 -76 30 -152 64 -170 75 -45 28 -73 71
-83 127 -6 38 -8 41 -9 15z M3790 8630 c0 -21 30 -64 64 -91 15 -12 74 -39
130 -59 120 -44 173 -75 238 -142 55 -56 88 -116 113 -203 15 -49 17 -86 12
-215 l-5 -155 13 140 c15 168 8 234 -36 323 -60 123 -186 219 -356 272 -79 25
-138 67 -159 114 -7 17 -13 24 -14 16z M2880 8615 c-105 -23 -197 -64 -305
-136 -56 -37 -108 -75 -115 -84 -8 -10 24 11 70 44 98 71 218 133 305 156 152
41 392 27 564 -32 215 -73 483 -248 675 -439 91 -90 141 -165 176 -262 13 -34
25 -61 27 -59 7 8 -48 142 -80 192 -41 66 -151 180 -262 273 -218 183 -456
304 -679 347 -96 18 -288 18 -376 0z M2325 8598 c-29 -15 -83 -68 -107 -103
-12 -16 1 -6 28 24 26 30 66 62 88 72 23 10 34 19 26 18 -8 0 -24 -5 -35 -11z
M4507 8584 c49 -29 88 -90 97 -149 6 -48 -14 -111 -34 -107 -40 9 -120 7 -160
-4 -44 -13 -42 -13 36 -8 67 4 85 2 98 -11 9 -9 16 -22 16 -28 0 -22 -17 -40
-30 -32 -9 6 -10 3 -3 -10 7 -11 6 -35 -2 -70 -7 -29 -15 -99 -18 -156 -6
-110 0 -89 23 84 16 118 35 103 35 -26 -1 -88 -3 -98 -53 -220 -62 -152 -92
-256 -91 -312 1 -31 4 -23 15 38 8 43 35 128 60 190 84 203 103 312 69 406
-11 32 -12 48 -3 69 l11 27 24 -53 c51 -110 40 -249 -31 -390 -48 -95 -75
-183 -80 -261 l-5 -66 9 60 c13 77 35 145 76 226 89 179 99 314 31 457 -25 55
-14 71 34 47 19 -10 48 -29 64 -44 27 -23 26 -22 -4 11 -18 20 -47 42 -63 49
-23 9 -28 17 -24 33 24 85 15 143 -31 204 -25 33 -78 72 -98 72 -5 0 9 -12 32
-26z M4018 8575 c24 -36 88 -97 157 -151 141 -109 194 -173 227 -272 19 -60
22 -88 22 -267 0 -138 2 -177 7 -125 12 140 10 303 -6 363 -32 122 -73 175
-242 309 -61 49 -128 108 -148 131 -21 23 -28 29 -17 12z M4909 8462 c-115
-60 -147 -165 -91 -304 17 -41 33 -93 36 -114 3 -26 2 -32 -3 -19 -5 11 -25
60 -46 110 -47 111 -52 149 -31 213 17 49 81 122 108 122 6 0 8 3 5 6 -4 4
-25 -5 -46 -21 -78 -53 -110 -164 -76 -260 17 -47 13 -56 -10 -21 -10 14 -24
26 -32 26 -9 0 -3 -10 15 -25 16 -13 39 -48 52 -77 31 -72 24 -120 -29 -198
-44 -67 -53 -87 -21 -49 14 17 20 20 20 9 1 -9 12 -2 30 19 29 34 66 51 57 28
-3 -7 -10 -11 -16 -9 -7 1 -10 -2 -6 -7 5 -9 -49 -45 -59 -39 -2 2 -16 -8 -30
-21 -14 -14 -26 -20 -26 -15 0 5 -11 -4 -25 -21 -14 -16 -3 7 24 53 57 95 75
161 60 216 -5 20 -11 36 -12 36 -1 0 -2 -33 -2 -73 0 -67 -3 -79 -34 -128
-105 -167 -201 -347 -201 -376 0 -4 18 28 39 72 62 126 176 229 306 277 91 33
238 36 340 9 43 -12 80 -20 82 -18 2 3 -33 15 -79 27 -87 24 -203 31 -273 17
l-40 -9 31 34 c16 18 56 68 87 110 88 119 155 160 262 160 75 0 136 -24 175
-68 16 -19 30 -31 30 -26 0 23 -74 91 -122 112 -143 61 -316 -20 -426 -200
-19 -30 -30 -46 -26 -35 4 11 8 65 9 121 0 107 6 125 64 188 22 24 23 27 5 18
-11 -6 -34 -30 -50 -53 -27 -39 -29 -51 -34 -155 -3 -62 -7 -115 -10 -117 -3
-3 -6 48 -8 113 -3 140 10 187 67 226 19 13 30 24 24 24 -19 0 -72 -50 -90
-84 -10 -19 -16 -58 -17 -103 l-1 -72 -21 47 c-38 87 -49 146 -35 193 18 60
75 117 141 139 30 11 45 19 34 20 -12 0 -46 -13 -75 -28z m436 -247 l30 -14
-30 7 c-54 13 -139 6 -186 -15 -66 -29 -124 -86 -184 -178 -49 -76 -104 -135
-127 -135 -6 0 5 17 25 39 19 21 58 72 86 114 65 97 144 161 231 188 41 12
123 9 155 -6z m-528 -282 c-8 -15 -24 -37 -36 -47 -17 -16 -15 -7 11 45 20 38
34 57 36 47 2 -9 -3 -29 -11 -45z m45 1 c-8 -14 -10 -14 -15 5 -3 11 -1 21 4
21 5 0 10 10 10 23 2 18 3 17 6 -5 2 -15 0 -35 -5 -44z M2895 8470 c-167 -14
-286 -54 -452 -151 -65 -38 -148 -81 -186 -96 -37 -14 -65 -28 -63 -30 2 -2
16 1 31 7 15 6 30 9 32 7 7 -8 -123 -59 -182 -72 -48 -11 -53 -13 -25 -14 19
0 58 8 87 18 29 10 50 14 47 9 -12 -19 15 -4 130 70 121 79 180 113 161 94 -5
-5 -80 -56 -165 -113 -185 -123 -301 -182 -407 -208 -43 -11 -69 -20 -58 -20
40 -2 141 30 230 73 49 23 176 100 280 171 271 183 370 225 582 245 52 5 98
11 101 14 6 7 -18 6 -143 -4z M3093 8463 c15 -2 37 -2 50 0 12 2 0 4 -28 4
-27 0 -38 -2 -22 -4z M4480 8376 c0 -2 8 -10 18 -17 15 -13 16 -12 3 4 -13 16
-21 21 -21 13z M4998 8353 c6 -2 18 -2 25 0 6 3 1 5 -13 5 -14 0 -19 -2 -12
-5z M2735 8340 c-25 -11 1 -11 35 0 20 6 21 8 5 8 -11 0 -29 -3 -40 -8z M2595
8296 c-122 -44 -235 -104 -380 -202 -67 -45 -145 -94 -174 -109 -54 -29 -67
-41 -28 -26 29 11 118 66 247 150 116 77 223 132 355 182 55 21 93 38 85 38
-8 0 -56 -15 -105 -33z M5861 8245 c-43 -49 -61 -88 -68 -145 -9 -80 3 -114
67 -191 85 -102 102 -190 50 -261 -12 -16 -20 -32 -17 -34 3 -3 15 12 28 33
16 25 25 57 27 99 5 72 -9 105 -74 174 -49 53 -74 104 -74 153 0 52 27 120 66
166 20 22 33 41 31 41 -3 0 -19 -16 -36 -35z M3040 8259 c-243 -29 -408 -93
-712 -275 -176 -106 -265 -150 -353 -175 -33 -10 -52 -18 -42 -18 55 -2 222
74 413 190 322 194 529 262 799 263 153 1 231 -20 318 -85 87 -66 109 -103
157 -268 18 -62 29 -81 71 -122 28 -28 82 -64 123 -84 103 -49 108 -43 7 9
-132 70 -165 110 -201 241 -39 145 -101 226 -215 280 -94 44 -230 61 -365 44z
M2930 8195 c-89 -17 -231 -65 -313 -106 -31 -16 -137 -77 -235 -135 -210 -124
-315 -176 -425 -209 -45 -13 -75 -24 -66 -24 30 -1 153 41 244 83 50 24 162
86 250 138 306 182 427 229 640 248 179 16 332 -16 414 -86 51 -44 74 -87 95
-183 9 -40 23 -88 30 -106 18 -41 80 -111 126 -140 38 -24 143 -65 163 -64 7
0 -11 8 -38 18 -80 29 -128 56 -172 100 -53 51 -66 77 -88 176 -37 164 -85
225 -213 273 -57 21 -88 25 -202 28 -89 2 -161 -1 -210 -11z M3723 8130 c18
-36 47 -101 65 -146 54 -136 117 -193 299 -270 108 -47 167 -79 214 -118 14
-11 7 -4 -15 17 -22 21 -79 57 -126 79 -188 89 -217 105 -262 149 -35 35 -64
82 -112 180 -35 74 -71 143 -80 154 -9 11 -1 -9 17 -45z M2128 8173 c7 -3 16
-2 19 1 4 3 -2 6 -13 5 -11 0 -14 -3 -6 -6z M1820 8164 c0 -6 65 -34 77 -34 4
0 -1 6 -12 13 -21 15 -65 28 -65 21z M2088 8163 c7 -3 16 -2 19 1 4 3 -2 6
-13 5 -11 0 -14 -3 -6 -6z M1908 8153 c7 -3 16 -2 19 1 4 3 -2 6 -13 5 -11 0
-14 -3 -6 -6z M1988 8153 c12 -2 32 -2 45 0 12 2 2 4 -23 4 -25 0 -35 -2 -22
-4z M5767 8153 c-3 -5 -10 -28 -17 -52 -18 -69 0 -124 70 -210 55 -66 80 -118
80 -164 0 -26 -28 -88 -53 -117 l-22 -25 29 25 c38 33 56 78 56 138 0 55 -21
94 -95 172 -55 60 -72 124 -51 193 13 43 14 58 3 40z M2370 8128 c-19 -12 -84
-53 -145 -91 -140 -90 -247 -143 -321 -161 -32 -8 -50 -15 -38 -15 32 -1 123
28 189 61 53 27 325 197 350 219 16 15 1 10 -35 -13z M2135 8122 c-48 -29
-135 -61 -205 -76 -36 -8 -54 -15 -40 -15 56 -2 290 82 290 104 0 9 -15 5 -45
-13z M1923 8123 c9 -2 23 -2 30 0 6 3 -1 5 -18 5 -16 0 -22 -2 -12 -5z M1988
8113 c7 -3 16 -2 19 1 4 3 -2 6 -13 5 -11 0 -14 -3 -6 -6z M2425 8079 c-44
-23 -138 -73 -209 -112 -155 -85 -227 -115 -303 -126 -55 -8 -56 -9 -15 -10
69 -2 154 33 390 161 191 103 234 128 220 128 -2 0 -39 -19 -83 -41z M1813
8023 c9 -2 25 -2 35 0 9 3 1 5 -18 5 -19 0 -27 -2 -17 -5z M1733 8013 c9 -2
23 -2 30 0 6 3 -1 5 -18 5 -16 0 -22 -2 -12 -5z M2662 7970 c-90 -24 -171 -62
-287 -136 -49 -31 -110 -68 -135 -82 -25 -13 -50 -29 -56 -33 -6 -5 -13 -6
-16 -3 -3 3 -21 -1 -40 -9 -19 -8 -77 -25 -129 -38 -83 -20 -120 -23 -314 -24
-149 -1 -226 -5 -240 -13 -24 -14 -15 -14 45 -2 25 4 94 5 157 0 140 -11 273
1 383 35 47 14 94 28 105 31 18 5 18 4 2 -6 -9 -6 -14 -16 -11 -22 5 -7 2 -9
-8 -6 -8 4 -34 -2 -57 -13 -23 -10 -60 -23 -83 -29 -22 -6 -38 -13 -36 -16 3
-2 40 5 82 16 86 23 210 82 299 142 32 22 88 54 124 70 56 27 77 31 147 31
168 0 295 -80 447 -278 77 -102 106 -130 43 -42 -117 163 -201 242 -314 296
-71 34 -81 36 -175 36 -82 0 -109 -4 -150 -22 -61 -28 -32 -3 40 34 219 112
408 115 553 6 18 -13 74 -79 124 -146 99 -131 147 -180 220 -228 51 -33 170
-79 203 -78 11 0 -7 8 -40 18 -149 43 -237 113 -362 289 -124 174 -213 231
-368 238 -58 3 -100 -1 -153 -16z m-302 -164 c0 -14 -218 -142 -227 -133 -2 3
5 8 18 12 17 6 19 9 8 17 -11 8 -10 9 3 4 11 -3 51 16 105 49 90 56 93 58 93
51z M1738 7963 c18 -2 45 -2 60 0 15 2 0 4 -33 4 -33 0 -45 -2 -27 -4z M1460
7950 c-9 -6 -10 -10 -3 -10 6 0 15 5 18 10 8 12 4 12 -15 0z M1568 7953 c12
-2 30 -2 40 0 9 3 -1 5 -23 4 -22 0 -30 -2 -17 -4z M1930 7935 c-19 -7 -28
-14 -20 -14 8 0 29 6 45 14 39 17 21 18 -25 0z M1848 7913 c6 -2 18 -2 25 0 6
3 1 5 -13 5 -14 0 -19 -2 -12 -5z M4492 7880 c0 -14 2 -19 5 -12 2 6 2 18 0
25 -3 6 -5 1 -5 -13z M1718 7863 c7 -3 16 -2 19 1 4 3 -2 6 -13 5 -11 0 -14
-3 -6 -6z M3375 7850 c29 -95 79 -178 128 -211 25 -17 22 -12 -15 25 -32 33
-57 72 -79 125 -32 78 -47 105 -34 61z M5591 7847 c-13 -21 -12 -21 5 -5 10
10 16 20 13 22 -3 3 -11 -5 -18 -17z M1788 7853 c12 -2 30 -2 40 0 9 3 -1 5
-23 4 -22 0 -30 -2 -17 -4z M5005 7854 c-127 -27 -228 -78 -299 -150 -49 -51
-108 -137 -121 -179 -4 -11 9 7 28 40 133 227 379 323 652 255 22 -5 54 -9 70
-8 27 1 27 1 5 5 -14 2 -68 13 -122 24 -90 18 -166 22 -213 13z M1658 7833
c23 -2 59 -2 80 0 20 2 1 4 -43 4 -44 0 -61 -2 -37 -4z M5536 7795 c-57 -34
-130 -41 -247 -21 -248 41 -401 3 -540 -134 -36 -36 -71 -76 -78 -88 -7 -13
19 10 58 51 80 84 169 135 281 161 83 20 137 20 258 0 124 -20 209 -14 268 21
24 14 44 28 44 30 0 7 -2 6 -44 -20z M2568 7803 c12 -2 30 -2 40 0 9 3 -1 5
-23 4 -22 0 -30 -2 -17 -4z M1568 7793 c6 -2 18 -2 25 0 6 3 1 5 -13 5 -14 0
-19 -2 -12 -5z M2498 7793 c7 -3 16 -2 19 1 4 3 -2 6 -13 5 -11 0 -14 -3 -6
-6z M1688 7783 c6 -2 18 -2 25 0 6 3 1 5 -13 5 -14 0 -19 -2 -12 -5z M1873
7783 c9 -2 23 -2 30 0 6 3 -1 5 -18 5 -16 0 -22 -2 -12 -5z M1384 7764 c-18
-14 -18 -14 6 -3 31 14 36 19 24 19 -6 0 -19 -7 -30 -16z M2425 7770 c-3 -6 1
-7 9 -4 18 7 21 14 7 14 -6 0 -13 -4 -16 -10z M2323 7710 c-82 -53 -146 -77
-273 -105 -58 -13 -96 -24 -85 -24 27 -1 180 34 235 54 56 20 214 117 188 115
-2 0 -31 -18 -65 -40z M1289 7703 c-13 -16 -12 -17 4 -4 9 7 17 15 17 17 0 8
-8 3 -21 -13z M1638 7713 c7 -3 16 -2 19 1 4 3 -2 6 -13 5 -11 0 -14 -3 -6 -6z
M1823 7713 c9 -2 25 -2 35 0 9 3 1 5 -18 5 -19 0 -27 -2 -17 -5z M5235 7714
c-105 -21 -137 -30 -185 -51 -68 -30 -183 -117 -231 -175 -58 -70 -51 -67 34
17 90 88 200 152 312 180 76 19 206 19 319 -1 48 -8 96 -14 105 -12 9 2 -45
13 -119 26 -128 21 -189 25 -235 16z M1748 7703 c6 -2 18 -2 25 0 6 3 1 5 -13
5 -14 0 -19 -2 -12 -5z M5729 7693 c-13 -16 -12 -17 4 -4 9 7 17 15 17 17 0 8
-8 3 -21 -13z M5782 7669 c-7 -11 -27 -27 -45 -34 -18 -8 -25 -14 -15 -15 19
0 86 55 78 64 -3 3 -11 -4 -18 -15z M5195 7666 c-138 -32 -252 -95 -345 -193
l-55 -57 56 51 c190 174 425 232 673 168 53 -14 115 -24 139 -24 41 2 40 2
-13 9 -30 4 -89 17 -130 29 -95 28 -244 36 -325 17z M5633 7663 c9 -2 25 -2
35 0 9 3 1 5 -18 5 -19 0 -27 -2 -17 -5z M5809 7644 c-51 -56 -121 -66 -251
-38 -237 52 -479 -12 -668 -176 -51 -44 -30 -36 26 10 66 55 184 114 280 142
65 19 102 23 209 22 80 0 140 -5 155 -12 23 -12 22 -12 -13 -8 -53 7 -198 -11
-287 -35 -87 -23 -240 -97 -290 -140 -29 -25 -24 -23 28 10 160 101 304 140
552 151 166 7 261 22 245 38 -3 3 7 18 22 34 15 15 24 28 22 28 -3 0 -16 -12
-30 -26z M5829 7633 l-24 -28 28 24 c15 14 27 26 27 28 0 8 -8 1 -31 -24z
M3978 7623 c7 -3 16 -2 19 1 4 3 -2 6 -13 5 -11 0 -14 -3 -6 -6z M1363 7583
c-21 -21 -28 -29 -14 -17 14 11 37 28 51 37 13 10 20 17 14 17 -7 0 -29 -17
-51 -37z M3554 7606 c11 -9 24 -16 30 -16 12 0 7 5 -24 19 -24 11 -24 11 -6
-3z M4018 7613 c7 -3 16 -2 19 1 4 3 -2 6 -13 5 -11 0 -14 -3 -6 -6z M3878
7603 c7 -3 16 -2 19 1 4 3 -2 6 -13 5 -11 0 -14 -3 -6 -6z M5859 7593 c-13
-16 -12 -17 4 -4 9 7 17 15 17 17 0 8 -8 3 -21 -13z M1868 7593 c7 -3 16 -2
19 1 4 3 -2 6 -13 5 -11 0 -14 -3 -6 -6z M3928 7593 c7 -3 16 -2 19 1 4 3 -2
6 -13 5 -11 0 -14 -3 -6 -6z M3610 7580 c8 -5 20 -10 25 -10 6 0 3 5 -5 10 -8
5 -19 10 -25 10 -5 0 -3 -5 5 -10z M3978 7583 c6 -2 18 -2 25 0 6 3 1 5 -13 5
-14 0 -19 -2 -12 -5z M1908 7573 c6 -2 18 -2 25 0 6 3 1 5 -13 5 -14 0 -19 -2
-12 -5z M2370 7539 c-130 -46 -174 -50 -395 -36 -107 7 -138 6 -175 -7 -35
-12 -37 -14 -10 -8 45 9 151 8 315 -2 l130 -9 125 44 c114 40 133 44 215 42
172 -2 330 -56 501 -170 104 -69 114 -76 114 -70 0 2 -47 36 -105 76 -183 126
-339 181 -509 181 -81 0 -104 -5 -206 -41z M1868 7563 c7 -3 16 -2 19 1 4 3
-2 6 -13 5 -11 0 -14 -3 -6 -6z M5465 7544 c-105 -18 -308 -86 -383 -130 -30
-17 -23 -15 102 33 148 57 229 75 371 80 99 4 146 1 199 -11 136 -32 249 -106
295 -193 11 -21 20 -33 21 -27 0 21 -58 101 -96 131 -96 75 -213 112 -369 118
-60 2 -123 1 -140 -1z M2460 7520 c-67 -12 -278 -69 -257 -70 10 0 73 14 140
31 66 17 162 35 211 39 90 7 90 7 21 7 -38 1 -90 -3 -115 -7z M2668 7513 c6
-2 18 -2 25 0 6 3 1 5 -13 5 -14 0 -19 -2 -12 -5z M4645 7509 c-4 -6 -5 -12
-2 -15 2 -3 7 2 10 11 7 17 1 20 -8 4z M2738 7503 c7 -3 16 -2 19 1 4 3 -2 6
-13 5 -11 0 -14 -3 -6 -6z M5930 7493 c93 -67 169 -168 196 -259 8 -29 18
-104 23 -166 9 -134 28 -183 99 -253 52 -51 166 -111 227 -120 32 -4 27 -1
-20 13 -88 27 -142 58 -197 113 -73 73 -91 121 -95 256 -2 64 -10 130 -18 154
-20 54 -19 56 8 32 30 -29 89 -63 106 -63 8 0 -8 11 -36 25 -51 26 -79 53
-182 178 -29 35 -72 74 -95 86 -28 15 -33 16 -16 4z M1688 7446 c-24 -19 -52
-47 -62 -63 -14 -22 -11 -20 16 9 18 20 51 48 72 62 21 14 34 26 29 26 -6 0
-30 -15 -55 -34z M1762 7455 c-31 -14 -78 -50 -110 -82 -31 -32 -53 -49 -49
-39 8 20 8 20 -14 0 -11 -10 -30 -32 -42 -49 -20 -29 -20 -29 16 4 40 38 48
35 19 -7 -26 -37 -34 -52 -29 -52 3 0 19 22 36 49 27 41 84 101 143 147 37 29
70 39 153 45 l90 6 -80 1 c-66 2 -89 -2 -133 -23z M3140 7450 c11 -16 26 -33
32 -36 7 -4 -1 9 -16 29 -34 44 -46 50 -16 7z M5274 7456 c-51 -13 -105 -32
-120 -41 -16 -9 -20 -13 -9 -9 108 39 207 56 330 57 186 0 323 -38 459 -128
66 -43 98 -87 132 -177 30 -81 31 -63 2 21 -42 118 -143 199 -328 262 -86 30
-108 33 -235 36 -123 3 -151 0 -231 -21z M2013 7463 c9 -2 23 -2 30 0 6 3 -1
5 -18 5 -16 0 -22 -2 -12 -5z M2020 7440 l-105 -6 95 -1 c52 -1 113 2 135 6
47 10 34 10 -125 1z M3633 7433 c9 -2 25 -2 35 0 9 3 1 5 -18 5 -19 0 -27 -2
-17 -5z M6030 7436 c0 -2 8 -10 18 -17 15 -13 16 -12 3 4 -13 16 -21 21 -21
13z M3657 7403 c18 -2 50 -2 70 0 21 2 7 4 -32 4 -38 0 -55 -2 -38 -4z M5325
7395 c-45 -8 -92 -19 -105 -25 -28 -12 -41 -13 105 11 95 16 333 6 405 -16
111 -34 202 -97 275 -190 15 -19 16 -19 4 5 -38 77 -180 173 -304 205 -86 22
-282 28 -380 10z M6100 7376 c68 -76 185 -144 227 -133 13 3 10 5 -7 6 -42 2
-104 36 -176 97 -38 31 -58 45 -44 30z M4909 7363 c-13 -16 -12 -17 4 -4 9 7
17 15 17 17 0 8 -8 3 -21 -13z M1685 7333 c-20 -20 -51 -69 -70 -108 -18 -39
-40 -77 -49 -84 -8 -7 -13 -18 -10 -24 7 -18 -74 -92 -131 -121 -28 -14 -81
-30 -118 -36 -71 -11 -102 -21 -128 -42 -22 -18 -69 -88 -69 -102 1 -6 8 3 17
19 19 36 51 73 76 86 10 6 54 16 98 24 109 19 191 65 246 136 82 105 91 114
147 148 67 40 159 75 253 95 37 8 57 15 43 15 -69 2 -229 -56 -316 -114 -56
-38 -64 -41 -58 -22 13 42 36 80 76 123 49 53 43 59 -7 7z M3488 7353 c6 -2
18 -2 25 0 6 3 1 5 -13 5 -14 0 -19 -2 -12 -5z M5461 7350 c169 -13 284 -48
401 -123 96 -61 149 -123 243 -282 66 -114 120 -180 173 -215 45 -30 157 -71
191 -69 9 0 -18 10 -59 22 -147 44 -184 80 -323 318 -72 122 -120 176 -212
238 -119 79 -278 122 -445 119 -72 -1 -71 -1 31 -8z M2048 7343 c12 -2 32 -2
45 0 12 2 2 4 -23 4 -25 0 -35 -2 -22 -4z M2195 7330 c-171 -39 -262 -84 -405
-200 -52 -42 -147 -112 -210 -155 -129 -87 -146 -101 -78 -62 67 38 70 33 13
-20 l-50 -46 50 39 c28 21 97 79 155 129 206 180 305 241 462 285 104 30 297
38 419 17 162 -28 172 -28 254 -12 44 9 118 20 165 24 l85 8 -70 1 c-38 1 -99
-5 -135 -13 -89 -20 -168 -18 -280 5 -120 25 -266 25 -375 0z m-595 -365 c-13
-14 -28 -25 -34 -25 -6 1 3 12 19 25 39 32 45 32 15 0z M3541 7346 c2 -2 31
-6 64 -9 39 -4 50 -3 30 2 -31 9 -102 14 -94 7z M5298 7343 c6 -2 18 -2 25 0
6 3 1 5 -13 5 -14 0 -19 -2 -12 -5z M3073 7323 c9 -2 23 -2 30 0 6 3 -1 5 -18
5 -16 0 -22 -2 -12 -5z M5445 7320 c117 -13 190 -32 267 -71 119 -60 230 -162
319 -291 45 -65 44 -65 23 -65 -9 0 -19 10 -24 21 -15 37 -104 139 -165 189
-58 47 -194 120 -245 131 l-25 6 25 -11 c174 -78 270 -149 350 -257 65 -88
104 -184 130 -318 71 -372 109 -445 283 -546 40 -22 98 -56 131 -75 32 -18 61
-32 63 -29 3 2 -17 17 -44 32 -323 184 -344 213 -409 584 -14 83 -43 190 -69
255 -8 20 -8 20 13 1 33 -29 113 -150 191 -290 40 -71 84 -145 99 -165 l26
-36 -31 28 c-17 16 -35 29 -40 28 -4 -1 -42 29 -83 65 -41 37 -16 9 56 -62
118 -117 135 -138 179 -224 26 -52 59 -111 72 -130 19 -27 14 -24 -21 13 -27
29 -63 85 -87 135 -48 103 -59 116 -164 194 -80 60 -67 44 38 -45 45 -38 67
-68 109 -149 36 -70 71 -123 116 -170 35 -37 62 -68 59 -68 -2 0 30 -35 72
-77 50 -51 89 -102 111 -145 19 -37 36 -65 38 -63 7 7 -50 107 -97 169 l-51
66 78 -56 c42 -31 101 -80 131 -108 44 -42 50 -45 31 -17 -13 18 -67 68 -121
110 -54 42 -108 84 -121 94 -13 10 13 0 57 -23 74 -39 175 -107 175 -120 1 -3
12 -18 26 -35 l26 -30 -15 30 c-24 49 -106 118 -202 171 -126 68 -189 134
-241 251 l-42 91 74 -60 c43 -34 79 -56 85 -52 7 4 9 3 6 -3 -4 -6 32 -39 81
-74 48 -35 107 -82 132 -104 26 -23 34 -27 20 -11 -14 15 -52 49 -85 74 -33
26 -66 52 -73 59 -8 8 -27 20 -44 29 -35 18 -32 29 3 15 30 -11 170 -33 176
-27 2 2 -29 9 -69 16 -201 34 -293 115 -467 409 -50 84 -91 155 -91 158 0 3
13 -6 29 -20 28 -23 256 -105 266 -95 3 2 -42 18 -98 35 -165 51 -185 69 -335
294 -91 136 -213 254 -315 303 -95 47 -171 66 -287 71 l-95 4 90 -9z M3212
7304 c9 -9 21 -15 27 -13 6 2 -2 10 -17 17 -25 11 -25 11 -10 -4z M3593 7293
c15 -2 39 -2 55 0 15 2 2 4 -28 4 -30 0 -43 -2 -27 -4z M2270 7276 c-173 -39
-324 -123 -595 -331 -203 -155 -314 -224 -430 -266 -27 -10 -44 -18 -37 -18
18 -1 139 47 177 71 47 28 50 21 12 -21 -20 -22 -59 -75 -87 -118 -28 -43 -66
-91 -83 -106 l-32 -29 32 21 c17 12 53 54 80 94 26 39 67 96 91 125 23 28 39
52 35 52 -5 0 2 6 13 13 41 23 150 101 269 192 372 283 539 346 835 313 l65
-7 -75 14 c-92 17 -197 17 -270 1z M3538 7283 c7 -3 16 -2 19 1 4 3 -2 6 -13
5 -11 0 -14 -3 -6 -6z M6070 7275 c0 -5 5 -17 10 -25 5 -8 10 -10 10 -5 0 6
-5 17 -10 25 -5 8 -10 11 -10 5z M2768 7263 c6 -2 18 -2 25 0 6 3 1 5 -13 5
-14 0 -19 -2 -12 -5z M5478 7263 c7 -3 16 -2 19 1 4 3 -2 6 -13 5 -11 0 -14
-3 -6 -6z M2658 7253 c18 -2 45 -2 60 0 15 2 0 4 -33 4 -33 0 -45 -2 -27 -4z
M5528 7253 c7 -3 16 -2 19 1 4 3 -2 6 -13 5 -11 0 -14 -3 -6 -6z M5568 7243
c7 -3 16 -2 19 1 4 3 -2 6 -13 5 -11 0 -14 -3 -6 -6z M5090 7214 c19 -15 66
-60 105 -98 38 -39 60 -57 48 -41 -29 40 -110 117 -153 144 l-35 22 35 -27z
M6368 7233 c7 -3 16 -2 19 1 4 3 -2 6 -13 5 -11 0 -14 -3 -6 -6z M1495 7149
c-27 -39 -57 -76 -67 -82 -10 -7 -18 -16 -18 -21 0 -16 41 27 85 89 47 67 58
85 52 85 -2 0 -25 -32 -52 -71z M2673 7203 c9 -2 25 -2 35 0 9 3 1 5 -18 5
-19 0 -27 -2 -17 -5z M3134 7174 c-61 -36 -127 -94 -119 -103 3 -2 -3 -14 -12
-25 -10 -11 0 -6 22 11 22 17 67 47 100 67 33 20 55 36 48 36 -6 0 -42 -20
-79 -45 -37 -25 -69 -43 -71 -41 -8 7 78 73 135 104 31 17 52 32 46 32 -5 0
-37 -16 -70 -36z M6450 7206 c0 -2 8 -10 18 -17 15 -13 16 -12 3 4 -13 16 -21
21 -21 13z M2270 7184 c-169 -36 -336 -112 -540 -245 -193 -127 -289 -212
-343 -304 l-18 -30 23 30 c120 160 450 385 702 480 129 49 225 67 381 75 l150
7 -145 1 c-90 0 -170 -5 -210 -14z M5210 7190 c-18 -12 -2 -12 25 0 13 6 15 9
5 9 -8 0 -22 -4 -30 -9z M2772 7153 c-64 -26 -111 -38 -200 -48 -64 -8 -133
-17 -152 -21 -84 -17 -159 -85 -262 -239 -84 -126 -123 -153 -343 -229 -210
-73 -287 -137 -418 -346 -66 -105 -107 -155 -162 -198 -38 -30 -10 -16 32 15
37 28 90 98 156 205 102 164 213 252 389 308 214 68 267 104 370 250 96 135
127 169 176 194 55 28 71 31 219 50 101 13 219 49 282 86 33 19 -6 7 -87 -27z
M6195 7142 c17 -19 57 -49 90 -69 33 -19 73 -47 90 -61 l30 -27 -25 28 c-14
16 -52 45 -85 64 -33 20 -76 50 -95 67 l-35 31 30 -33z M2348 7123 c17 -2 47
-2 65 0 17 2 3 4 -33 4 -36 0 -50 -2 -32 -4z M2231 7109 c-53 -16 -31 -19 29
-4 30 7 44 13 30 13 -14 0 -40 -4 -59 -9z M5460 7101 c187 -50 335 -191 472
-448 69 -130 77 -130 12 0 -127 253 -254 383 -433 444 -36 12 -77 22 -91 22
-14 0 4 -8 40 -18z M5684 7075 c166 -100 236 -207 345 -528 79 -232 95 -270
147 -354 65 -104 131 -158 291 -238 148 -73 204 -119 247 -202 14 -26 25 -43
25 -38 1 24 -62 116 -105 154 -27 23 -104 69 -173 103 -221 107 -287 196 -405
544 -35 104 -77 219 -94 255 -62 138 -154 244 -266 309 -74 42 -83 38 -12 -5z
M6209 7078 c13 -15 44 -37 70 -48 25 -12 64 -36 86 -53 35 -26 37 -27 17 -5
-13 15 -51 41 -85 58 -34 18 -73 42 -87 54 l-25 21 24 -27z M2135 7064 c-21
-14 -68 -57 -104 -96 -77 -82 -114 -103 -241 -135 -52 -13 -119 -35 -148 -50
-70 -35 -164 -122 -267 -247 -79 -97 -170 -189 -245 -249 l-35 -28 35 22 c72
46 145 116 258 246 63 73 116 133 117 133 1 0 -26 -57 -61 -128 -66 -132 -101
-177 -169 -212 -23 -12 -30 -18 -15 -14 40 10 88 43 114 77 13 18 47 78 75
135 86 172 134 208 316 237 153 25 224 58 278 129 45 58 102 107 161 136 33
17 53 30 46 30 -36 0 -136 -69 -193 -132 -76 -86 -144 -121 -277 -144 -52 -9
-120 -24 -150 -35 -44 -15 -51 -15 -35 -3 42 33 103 58 208 85 125 33 168 59
246 149 30 35 75 76 100 91 25 16 40 29 34 29 -5 0 -27 -12 -48 -26z M2870
7043 c-100 -47 -256 -100 -349 -117 -95 -18 -119 -27 -157 -59 -29 -24 -121
-147 -110 -147 3 0 19 20 36 45 36 52 85 101 120 119 14 7 68 21 120 30 124
22 218 55 338 115 112 57 113 66 2 14z M5481 7026 c126 -35 251 -136 343 -279
29 -45 99 -172 154 -282 56 -110 113 -213 127 -230 17 -20 14 -11 -11 29 -20
32 -76 141 -125 242 -133 279 -202 374 -323 453 -64 42 -160 82 -193 80 -10 0
3 -6 28 -13z M5378 6993 c12 -2 30 -2 40 0 9 3 -1 5 -23 4 -22 0 -30 -2 -17
-4z M2904 6958 l-19 -23 23 19 c21 18 27 26 19 26 -2 0 -12 -10 -23 -22z
M3728 6963 c7 -3 16 -2 19 1 4 3 -2 6 -13 5 -11 0 -14 -3 -6 -6z M3612 6935
c-158 -54 -296 -140 -397 -246 l-50 -53 50 45 c117 105 277 200 417 249 46 16
76 29 68 29 -8 0 -48 -11 -88 -24z M5600 6893 c61 -42 165 -154 206 -218 24
-39 77 -143 118 -232 108 -235 190 -350 297 -415 46 -28 319 -158 319 -152 0
3 -64 36 -142 73 -269 129 -315 181 -474 534 -29 65 -78 156 -109 202 -57 85
-156 185 -210 211 l-30 14 25 -17z M4100 6850 c-90 -5 -171 -11 -179 -12 -8
-2 181 -3 420 -3 239 0 414 3 389 7 -76 13 -456 17 -630 8z M1439 6833 c-13
-16 -12 -17 4 -4 16 13 21 21 13 21 -2 0 -10 -8 -17 -17z M3853 6823 c9 -2 23
-2 30 0 6 3 -1 5 -18 5 -16 0 -22 -2 -12 -5z M4798 6823 c6 -2 18 -2 25 0 6 3
1 5 -13 5 -14 0 -19 -2 -12 -5z M5360 6816 c0 -1 23 -17 51 -35 53 -35 60 -48
15 -32 -14 6 -26 9 -26 8 0 -2 29 -23 65 -46 36 -24 63 -46 61 -50 -3 -4 10
-15 27 -25 l32 -18 -33 34 c-18 19 -29 37 -26 41 10 10 -39 47 -54 42 -7 -3
-10 -1 -7 5 3 5 -6 17 -20 26 -13 9 -22 21 -18 28 3 6 3 8 -2 4 -4 -4 -13 -4
-19 1 -12 9 -46 22 -46 17z m146 -111 c10 -8 15 -14 9 -14 -5 0 -19 6 -29 14
-11 8 -15 15 -10 15 6 0 19 -7 30 -15z M2442 6780 c-18 -17 -29 -30 -24 -30 5
0 21 14 37 30 37 38 30 38 -13 0z M5465 6773 c17 -8 37 -21 46 -27 8 -6 2 1
-15 17 -17 15 -37 27 -46 27 -8 -1 -1 -8 15 -17z M2444 6718 l-29 -33 33 29
c30 28 37 36 29 36 -2 0 -16 -15 -33 -32z M2354 6707 c-23 -18 -50 -38 -60
-45 -11 -7 -6 -6 11 2 33 15 113 76 99 75 -5 0 -27 -15 -50 -32z M2575 6698
c-102 -64 -241 -114 -426 -153 -198 -42 -264 -76 -329 -170 -40 -58 -39 -70 2
-14 70 98 131 129 334 170 80 16 175 41 210 54 74 28 207 96 244 125 37 29 22
24 -35 -12z M2800 6695 c-14 -8 -20 -14 -14 -15 5 0 19 7 30 15 24 18 16 19
-16 0z M2700 6670 c-45 -30 -66 -38 -56 -21 3 5 -29 -6 -72 -25 -42 -18 -175
-63 -296 -99 -260 -79 -311 -102 -370 -165 -40 -43 -87 -117 -86 -137 1 -4 12
14 26 40 33 63 97 127 156 155 25 13 131 48 234 78 104 31 232 73 284 95 118
50 133 55 95 33 -57 -33 -219 -94 -329 -125 -148 -41 -228 -67 -246 -80 -12
-9 -11 -9 5 -3 11 4 67 20 125 37 245 69 340 102 431 149 82 43 165 97 149 98
-3 0 -25 -14 -50 -30z M5454 6686 c11 -9 24 -16 30 -16 12 0 7 5 -24 19 -24
11 -24 11 -6 -3z M2209 6673 c-13 -16 -12 -17 4 -4 9 7 17 15 17 17 0 8 -8 3
-21 -13z M2335 6649 c-41 -22 -118 -51 -185 -69 -63 -16 -149 -39 -190 -50
-178 -48 -273 -116 -398 -285 -114 -155 -281 -281 -377 -286 -24 -1 -26 -3 -7
-6 32 -6 87 14 159 58 100 60 160 116 247 234 150 199 194 225 543 319 121 32
263 91 278 116 8 12 14 15 -70 -31z M2795 6665 c-25 -12 -26 -14 -5 -9 28 7
60 23 45 23 -5 0 -23 -6 -40 -14z M3796 6669 c-139 -16 -282 -57 -389 -110
-56 -28 -165 -109 -202 -150 -24 -27 -22 -26 15 7 162 143 337 210 657 249 87
10 96 13 48 13 -33 -1 -91 -4 -129 -9z M5648 6640 c16 -25 66 -117 110 -205
44 -88 98 -180 119 -204 20 -24 75 -69 121 -98 136 -88 227 -184 312 -329 22
-38 40 -65 40 -60 0 11 -40 82 -85 151 -53 80 -163 187 -260 251 -111 74 -141
112 -245 314 -44 86 -94 171 -111 190 l-30 35 29 -45z M6344 6601 c36 -41 100
-122 140 -180 102 -147 186 -221 251 -221 50 0 102 40 139 105 17 30 17 30 0
5 -113 -157 -206 -127 -381 126 -34 49 -97 123 -139 164 l-78 75 68 -74z
M6505 6650 c27 -12 43 -12 25 0 -8 5 -22 9 -30 9 -10 0 -8 -3 5 -9z M2235
6641 c-11 -5 -89 -23 -173 -40 -179 -37 -289 -75 -366 -126 -67 -44 -112 -94
-208 -229 -126 -176 -206 -238 -332 -256 l-61 -9 63 4 c125 7 224 82 361 274
93 131 152 189 237 233 82 43 130 58 331 103 84 18 160 38 170 44 21 12 7 13
-22 2z M2790 6640 c-18 -12 -2 -12 25 0 13 6 15 9 5 9 -8 0 -22 -4 -30 -9z
M4298 6620 c45 -5 140 -18 210 -29 119 -18 309 -36 287 -26 -22 9 -389 55
-482 59 l-98 5 83 -9z M4974 6611 c163 -40 251 -82 320 -155 21 -23 34 -31 28
-20 -19 37 -102 103 -166 133 -64 30 -128 47 -211 56 -41 4 -35 1 29 -14z
M6550 6596 c0 -2 7 -7 16 -10 8 -3 12 -2 9 4 -6 10 -25 14 -25 6z M1325 6544
c-9 -15 -12 -23 -6 -20 11 7 35 46 28 46 -3 0 -12 -12 -22 -26z M2710 6560
c-9 -6 -10 -10 -3 -10 6 0 15 5 18 10 8 12 4 12 -15 0z M5595 6540 c10 -11 20
-20 23 -20 3 0 -3 9 -13 20 -10 11 -20 20 -23 20 -3 0 3 -9 13 -20z M2623
6516 c-68 -39 -117 -83 -187 -166 -75 -90 -114 -113 -243 -141 -57 -12 -70
-17 -38 -13 155 15 199 39 323 173 51 55 115 114 142 132 43 28 57 39 48 39
-2 0 -22 -11 -45 -24z M5990 6531 c0 -6 4 -13 10 -16 6 -3 7 1 4 9 -7 18 -14
21 -14 7z M5505 6510 c5 -23 45 -79 59 -79 5 -1 1 8 -9 19 -17 19 -17 20 0 20
18 0 18 1 0 14 -11 8 -23 12 -27 10 -4 -2 -10 1 -14 7 -5 8 -3 9 6 4 8 -5 11
-3 8 5 -7 23 -27 23 -23 0z M1284 6488 l-19 -23 23 19 c21 18 27 26 19 26 -2
0 -12 -10 -23 -22z M5677 6403 c72 -140 118 -201 195 -259 35 -26 69 -54 76
-63 7 -9 18 -16 25 -16 7 0 12 -7 12 -15 0 -8 27 -56 60 -107 72 -109 87 -131
82 -118 -9 23 -83 143 -110 178 -16 21 -27 41 -24 44 9 8 95 -59 159 -124 31
-32 82 -98 112 -147 68 -109 74 -104 9 6 -68 113 -135 183 -286 297 -187 140
-206 163 -331 384 -48 84 -36 50 21 -60z M2332 6450 c-71 -55 -91 -63 -220
-85 -125 -20 -194 -57 -243 -127 -18 -26 -13 -23 22 12 61 62 118 88 225 101
106 13 169 40 239 103 27 26 47 46 45 46 -3 0 -33 -23 -68 -50z M2361 6431
c-64 -73 -109 -96 -232 -116 -53 -8 -112 -20 -130 -26 -55 -19 -123 -74 -151
-124 -6 -11 8 2 32 28 64 72 117 93 280 112 99 12 150 44 230 145 48 60 29 48
-29 -19z M1239 6443 c-13 -16 -12 -17 4 -4 16 13 21 21 13 21 -2 0 -10 -8 -17
-17z M5492 6440 c0 -14 2 -19 5 -12 2 6 2 18 0 25 -3 6 -5 1 -5 -13z M2723
6387 c-57 -60 -83 -106 -107 -186 -25 -85 -18 -94 10 -13 38 113 85 179 160
229 18 12 18 12 0 6 -13 -4 -17 -3 -12 5 15 25 -3 10 -51 -41z M2750 6353
c-80 -91 -132 -223 -144 -370 l-6 -68 15 80 c31 167 88 294 162 361 27 24 41
44 35 48 -6 3 -33 -20 -62 -51z M5502 6385 c0 -16 2 -22 5 -12 2 9 2 23 0 30
-3 6 -5 -1 -5 -18z M1969 6379 l-24 -20 28 17 c15 9 27 18 27 20 0 8 -8 4 -31
-17z M4368 6215 c-6 -238 -17 -275 -109 -355 -68 -60 -72 -78 -6 -30 80 57
111 116 127 243 12 94 12 234 1 292 -5 27 -9 -21 -13 -150z M6899 6353 c-13
-16 -12 -17 4 -4 9 7 17 15 17 17 0 8 -8 3 -21 -13z M1683 6313 c-21 -27 -69
-86 -105 -133 -133 -173 -254 -236 -508 -265 l-125 -14 106 5 c223 11 347 59
466 181 l72 73 -32 -56 c-50 -88 -111 -150 -181 -184 -64 -32 -100 -39 -354
-74 -62 -8 -120 -20 -130 -26 -15 -10 -15 -11 3 -5 11 4 76 13 145 21 196 23
286 41 343 67 51 24 105 70 135 115 26 40 25 15 -2 -30 -34 -58 -108 -129
-179 -171 -64 -39 -147 -62 -282 -77 -115 -14 -124 -23 -15 -15 201 15 303 55
404 158 68 69 140 194 129 223 -5 13 -3 15 8 9 8 -4 11 -5 7 0 -10 10 51 126
102 193 50 65 45 68 -7 5z m-127 -250 c-8 -15 -15 -25 -16 -21 0 12 23 58 27
54 3 -2 -2 -17 -11 -33z M1914 6338 l-19 -23 23 19 c21 18 27 26 19 26 -2 0
-12 -10 -23 -22z M2559 6343 c-13 -16 -12 -17 4 -4 9 7 17 15 17 17 0 8 -8 3
-21 -13z M3636 6344 c-136 -30 -229 -100 -295 -223 -18 -34 -30 -61 -27 -61 3
0 13 15 22 33 31 61 95 135 147 170 81 55 170 78 332 87 l140 7 -125 1 c-76 0
-152 -5 -194 -14z M4951 6345 c132 -11 166 -17 217 -40 33 -15 71 -38 83 -51
12 -13 27 -24 32 -24 12 0 -70 68 -104 86 -55 28 -153 44 -269 43 l-115 -2
156 -12z M5516 6295 c2 -33 9 -109 15 -170 14 -147 14 -499 0 -605 -6 -47 -13
-110 -16 -140 -11 -113 -37 -325 -40 -328 -2 -2 -6 10 -10 26 -10 46 -71 110
-136 143 -70 35 -78 32 -13 -6 72 -42 121 -92 140 -140 14 -37 15 -63 9 -157
-4 -62 -9 -117 -13 -122 -3 -5 -11 15 -19 45 -14 54 -67 179 -77 179 -3 0 6
-24 19 -52 42 -92 57 -167 62 -308 8 -215 -36 -476 -124 -740 -69 -207 -120
-298 -225 -404 -49 -49 -91 -87 -93 -84 -2 2 10 43 26 92 17 48 28 90 26 93
-3 2 -12 -17 -21 -44 -53 -157 -189 -319 -326 -385 -114 -55 -208 -72 -385
-72 -128 1 -164 5 -246 27 -246 65 -433 176 -600 355 -63 67 -68 71 -39 28 51
-76 157 -184 245 -248 247 -183 585 -258 864 -193 73 18 88 14 39 -10 -70 -34
-154 -112 -196 -182 -65 -108 -85 -172 -88 -288 -2 -87 -1 -92 5 -35 18 159
85 273 270 463 36 37 69 67 74 67 10 0 4 -91 -19 -270 -23 -182 -101 -392
-162 -437 l-31 -23 -36 33 c-19 18 -104 68 -188 111 -234 122 -539 303 -772
459 -277 186 -538 543 -709 968 -68 171 -106 292 -151 489 -48 210 -77 294
-137 392 -129 210 -149 275 -110 350 19 36 19 40 4 80 -11 29 -16 75 -16 143
0 94 2 104 32 160 l32 60 -7 -45 c-19 -110 -1 -422 22 -398 3 2 0 20 -6 39
-15 51 -23 240 -11 269 l11 25 0 -26 c1 -33 29 -127 40 -133 5 -3 2 13 -5 35
-8 22 -19 86 -25 142 -10 100 -10 103 15 157 l26 55 -6 -80 c-3 -44 -9 -84
-13 -90 -4 -5 -8 -26 -9 -45 -1 -31 0 -32 7 -10 8 22 9 19 11 -20 1 -25 8 -67
16 -95 7 -27 11 -36 8 -20 -2 17 -7 80 -9 140 l-6 110 24 -75 c12 -41 29 -84
36 -95 l13 -20 -8 20 c-38 104 -60 299 -41 365 l7 25 -11 -25 c-6 -14 -41 -88
-80 -165 -76 -154 -96 -233 -80 -306 9 -39 7 -45 -20 -79 -71 -88 -65 -240 14
-356 47 -70 67 -69 28 2 l-33 59 54 -56 c87 -90 146 -221 202 -447 20 -79 20
-92 -2 -117 -71 -84 -179 -70 -238 31 -14 24 -32 67 -40 96 -16 61 -19 159 -4
174 13 13 -30 104 -79 169 -104 138 -132 214 -132 355 0 101 30 256 56 296 8
12 48 42 90 68 l76 45 -5 -27 c-16 -83 -18 -114 -7 -108 6 4 11 20 11 35 0 40
29 132 52 164 11 15 21 34 22 41 4 25 58 96 69 89 6 -3 7 -1 3 6 -4 6 -12 9
-17 6 -14 -9 -11 -3 21 56 16 30 30 59 30 64 0 6 -14 -14 -30 -43 -17 -29 -35
-50 -40 -47 -5 3 -12 0 -16 -6 -5 -8 -3 -9 6 -4 8 5 11 3 9 -4 -3 -7 -8 -12
-12 -11 -5 1 -35 -24 -68 -55 -33 -30 -74 -62 -90 -70 -16 -9 -29 -18 -29 -21
0 -2 9 0 21 6 11 7 23 9 26 6 11 -11 -142 -76 -179 -76 -42 0 -47 12 -23 46
13 20 11 34 -6 34 -17 0 -69 -129 -80 -197 -9 -54 -9 -94 -1 -158 l12 -87 -52
-196 c-44 -170 -51 -212 -54 -307 l-2 -110 8 105 c5 58 13 119 19 135 l11 30
-5 -30 c-3 -16 -7 -68 -9 -115 -3 -66 -2 -72 3 -30 l8 55 1 -46 c2 -52 27
-133 47 -149 7 -6 3 9 -8 32 -24 48 -28 161 -8 232 15 58 5 57 -13 0 -25 -84
-17 -32 19 118 18 80 31 154 28 166 -3 12 -2 39 2 59 l7 38 24 -73 c14 -40 65
-168 115 -285 87 -204 90 -215 94 -298 2 -48 6 -102 10 -120 3 -19 1 -54 -4
-79 l-9 -45 -1 65 c-2 90 -23 173 -77 298 -25 59 -52 132 -60 162 -14 54 -14
54 -9 10 l5 -45 -17 30 c-9 17 -23 48 -30 70 l-13 40 4 -36 c2 -19 27 -85 54
-145 67 -147 83 -201 92 -319 l8 -100 -2 115 c-3 110 -2 113 11 70 17 -58 33
-230 23 -250 -5 -8 -11 -23 -14 -32 -4 -12 -16 -18 -38 -19 l-33 -2 35 -6 35
-7 -34 -7 c-18 -4 -45 -7 -58 -7 -22 0 -24 2 -13 15 22 26 6 25 -17 -1 l-21
-24 61 0 c42 0 57 -3 47 -10 -28 -18 -4 -18 48 -1 l54 18 -6 -22 c-12 -47 -12
-49 2 -17 15 33 36 46 25 15 -4 -12 -3 -15 4 -8 13 13 33 72 26 78 -2 3 -26
-8 -51 -24 -25 -16 -53 -29 -61 -29 -9 1 1 10 22 21 22 11 37 23 34 26 -3 2
-14 0 -25 -6 -37 -20 -37 -11 0 19 19 16 39 42 43 57 7 27 8 26 36 -30 l30
-57 -100 -133 c-130 -174 -385 -433 -481 -488 -64 -37 -103 -103 -108 -185
l-4 -63 -77 -49 c-42 -27 -155 -96 -251 -153 -222 -131 -407 -255 -606 -404
-145 -109 -174 -126 -398 -233 -306 -146 -321 -157 -81 -62 204 81 334 143
490 235 174 102 339 182 533 259 139 55 412 146 438 146 7 0 29 -30 48 -67
121 -240 335 -453 826 -818 446 -332 873 -591 1368 -833 262 -127 320 -150
404 -159 31 -3 60 -8 66 -12 5 -3 29 -55 53 -115 111 -280 341 -684 594 -1043
l30 -42 103 -1 c71 0 101 3 97 11 -4 6 -66 90 -137 187 -423 576 -569 874
-634 1287 -14 92 -17 171 -15 477 1 248 -1 368 -8 373 -6 3 -11 10 -11 14 0
14 130 78 195 96 33 10 95 31 138 47 l79 30 24 -23 c13 -12 24 -26 24 -30 0
-15 -147 -105 -208 -128 -76 -29 -77 -38 -1 -12 67 23 154 66 195 96 l30 23
54 -65 c104 -124 174 -179 579 -453 341 -230 352 -235 381 -173 12 25 20 31
35 27 11 -4 24 -7 29 -8 17 -2 28 70 24 159 -7 127 -39 199 -250 570 -253 443
-438 724 -604 919 l-61 72 37 43 38 44 118 -51 c164 -69 264 -107 514 -197
968 -347 1176 -431 1560 -629 90 -47 166 -84 168 -81 6 6 -102 73 -238 147
-220 120 -587 269 -1192 482 -194 68 -409 145 -478 171 -155 58 -434 166 -438
170 -2 2 9 23 25 47 35 51 69 124 109 230 l29 77 10 -67 11 -67 0 90 c1 72 7
113 34 200 18 61 34 117 35 125 2 8 4 17 5 20 1 3 3 10 4 15 0 6 8 21 15 35 8
14 23 52 32 85 13 45 18 52 18 30 0 -16 -7 -48 -15 -70 -9 -22 -17 -49 -17
-61 -1 -11 -9 -29 -17 -40 -14 -18 -14 -18 3 -5 22 18 22 6 -2 -27 -44 -64
-72 -215 -54 -296 7 -32 9 -21 9 55 0 78 4 102 23 137 12 24 20 46 17 49 -3 3
4 23 15 44 10 21 18 42 17 46 -1 5 11 28 27 51 16 24 37 74 47 110 l18 67 -6
-70 c-5 -73 -49 -219 -84 -283 -12 -20 -19 -29 -16 -19 8 24 -4 44 -15 26 -4
-7 -4 -20 0 -28 9 -17 8 -28 -2 -96 l-7 -40 11 35 c6 19 15 40 20 46 5 6 4 16
-4 24 -8 9 -8 11 0 6 6 -3 14 0 17 6 3 7 3 1 1 -13 -3 -23 3 -30 45 -53 26
-14 54 -26 61 -26 8 1 1 7 -16 15 -21 9 -24 14 -12 14 10 1 15 6 12 12 -4 6
-9 8 -12 5 -9 -9 -61 33 -68 53 -3 10 13 63 37 122 42 101 43 107 43 219 0
109 -2 119 -32 183 -18 37 -35 67 -38 67 -3 0 4 -18 15 -40 31 -60 24 -59 -19
3 l-39 55 5 94 c3 51 7 94 8 96 1 1 12 -24 23 -55 12 -32 49 -107 82 -167 34
-61 73 -144 87 -185 22 -66 25 -89 21 -183 -2 -69 0 -100 6 -85 4 12 9 63 9
112 1 132 -31 226 -138 400 -24 39 -54 100 -66 136 l-23 66 28 299 c45 477 45
754 1 1039 -10 64 -13 72 -9 30z m-3170 -527 c-16 -24 -100 -98 -112 -98 -6 0
116 118 124 120 1 0 -4 -10 -12 -22z m35 3 c-6 -10 -45 -52 -88 -92 -81 -77
-81 -78 2 -14 l50 39 -40 -43 c-84 -91 -189 -134 -273 -112 -56 16 -53 29 6
24 71 -7 191 56 280 147 37 38 68 69 70 69 1 1 -2 -7 -7 -18z m-377 -229 c2
-4 -2 -32 -11 -62 -18 -69 -12 -181 16 -270 12 -36 20 -81 20 -100 0 -34 -1
-33 -20 19 -45 129 -60 269 -38 371 10 46 21 61 33 42z m-67 -454 c-3 -8 -6
-5 -6 6 -1 11 2 17 5 13 3 -3 4 -12 1 -19z m-50 -190 c-3 -8 -6 -5 -6 6 -1 11
2 17 5 13 3 -3 4 -12 1 -19z m323 -159 c17 -32 18 -47 11 -115 -5 -44 -9 -69
-10 -57 0 12 -5 25 -11 28 -5 3 -10 12 -10 18 0 7 4 6 11 -3 22 -32 -4 55 -47
159 -24 57 -44 106 -44 109 0 10 82 -103 100 -139z m22 -303 c-3 -5 0 -6 6 -2
10 6 39 -59 34 -77 -1 -5 2 -6 7 -3 5 3 20 -9 33 -27 25 -33 92 -167 86 -172
-2 -2 -28 39 -58 90 -30 52 -56 93 -58 91 -4 -5 41 -96 85 -169 22 -37 36 -73
38 -101 1 -24 6 -50 10 -56 4 -7 11 -49 15 -94 l7 -81 2 93 c1 115 -20 229
-59 305 l-29 57 27 -6 c37 -9 38 -9 57 -99 50 -229 125 -385 277 -572 74 -91
372 -402 452 -471 151 -131 753 -510 1036 -652 l119 -60 -16 -31 c-23 -46 -33
-340 -23 -664 4 -148 7 -272 5 -274 -2 -2 -28 11 -57 29 -29 18 -294 175 -588
348 -840 493 -952 568 -1390 923 -318 258 -456 410 -516 573 -13 34 -23 56
-23 49 -2 -28 43 -127 89 -197 90 -138 293 -329 615 -580 302 -235 482 -351
1169 -756 204 -120 446 -263 539 -319 92 -55 172 -101 179 -101 8 0 9 40 4
148 -22 499 -16 796 17 829 14 15 20 12 63 -33 l48 -49 -2 -290 c-1 -160 -5
-362 -8 -450 -6 -186 -30 -345 -52 -345 -8 0 -80 41 -161 92 -258 162 -569
346 -848 504 -393 221 -564 330 -828 528 -477 357 -777 648 -851 822 -63 148
-58 279 13 352 l35 37 -6 -30 c-5 -26 -5 -27 5 -10 34 60 68 100 132 155 183
157 377 372 431 478 9 17 18 32 21 32 2 0 22 -30 45 -67 23 -38 38 -57 35 -44
-4 13 -35 69 -68 125 -34 55 -69 124 -79 151 -15 44 -17 46 -18 20 0 -37 -22
-102 -40 -118 -10 -10 -12 -8 -6 8 4 11 10 32 13 47 3 15 9 25 14 22 5 -3 10
37 10 88 1 74 3 85 9 53 4 -22 5 -44 2 -49z m3248 -63 c-6 -30 -14 -52 -17
-49 -3 3 0 34 7 68 8 34 16 56 18 49 3 -8 -1 -38 -8 -68z m-2970 -94 c0 -20
179 -375 253 -499 40 -69 95 -163 121 -210 62 -109 181 -279 248 -355 103
-115 -6 -17 -167 151 -347 363 -427 489 -505 801 -26 105 -26 111 8 116 15 2
30 5 35 6 4 0 7 -4 7 -10z m3046 -244 c10 -8 15 -14 9 -14 -5 0 -19 6 -29 14
-11 8 -15 15 -10 15 6 0 19 -7 30 -15z m-410 -630 c248 -304 372 -503 514
-830 28 -66 92 -197 141 -291 49 -94 96 -190 104 -213 l14 -41 -107 98 c-125
113 -429 360 -518 420 -188 128 -348 152 -497 73 l-52 -27 3 70 c4 82 -11 223
-39 351 -10 49 -19 94 -19 100 0 5 24 26 53 45 74 49 151 124 188 182 29 44
135 140 151 135 3 -1 32 -33 64 -72z m-3516 -178 c11 -43 22 -83 23 -89 1 -6
-9 -14 -23 -18 -255 -80 -394 -133 -568 -215 -104 -50 -327 -169 -379 -203
-13 -8 -23 -12 -23 -9 0 9 307 228 440 314 164 105 501 304 507 299 1 -1 11
-36 23 -79z m4072 -647 c143 -249 244 -447 267 -524 26 -83 30 -246 7 -246 -7
0 -42 30 -76 68 -92 99 -230 222 -365 325 -66 50 -154 119 -195 153 -158 129
-295 204 -384 212 -42 3 -67 -3 -140 -33 -48 -20 -90 -34 -93 -31 -3 3 3 22
13 43 15 29 33 45 78 68 55 28 68 30 165 30 104 0 108 -1 191 -41 104 -50 190
-113 457 -337 225 -189 286 -248 311 -305 10 -25 17 -32 19 -21 6 27 -83 240
-176 424 -48 94 -102 204 -121 245 -18 41 -42 93 -53 115 -38 79 3 17 95 -145z
M2805 6300 c-29 -31 -51 -40 -40 -17 4 6 -5 -1 -19 -18 -34 -39 -70 -132 -91
-231 -21 -98 -30 -293 -17 -354 9 -38 9 -32 5 37 -7 96 10 243 42 369 25 97
64 183 81 177 5 -2 25 13 44 32 19 19 32 35 29 35 -3 0 -18 -13 -34 -30z
M2496 6262 c-91 -119 -144 -150 -322 -187 -61 -13 -132 -33 -157 -45 -91 -43
-134 -123 -142 -265 -2 -38 -2 -59 1 -45 2 14 9 52 15 85 5 33 21 83 35 112
36 76 86 104 244 142 192 45 251 81 342 209 51 70 40 66 -16 -6z M2581 6238
c-16 -35 -35 -88 -42 -118 -19 -77 -17 -289 5 -430 10 -63 19 -120 19 -127 0
-7 4 -10 8 -8 3 3 12 -9 19 -25 7 -17 14 -29 16 -27 2 1 -7 30 -20 62 -67 167
-58 554 15 697 11 21 17 38 14 38 -4 0 -19 -28 -34 -62z M3691 6255 c-1 -39 6
-62 30 -103 17 -30 32 -52 35 -49 2 2 -8 25 -22 51 -14 26 -30 70 -34 99 l-8
52 -1 -50z M1155 6272 c-16 -11 -37 -27 -45 -38 -12 -16 -10 -15 10 2 14 12
39 29 55 37 17 9 26 16 20 17 -5 0 -23 -8 -40 -18z M2800 6238 c-37 -38 -97
-157 -105 -208 -5 -28 -2 -24 14 17 23 63 73 152 108 193 33 40 22 38 -17 -2z
M3561 6236 c19 -20 53 -67 74 -106 21 -38 40 -68 42 -67 1 2 -11 32 -28 68
-32 66 -69 113 -104 131 -11 6 -4 -6 16 -26z M3686 6157 c35 -57 79 -114 97
-127 l32 -23 -22 25 c-13 13 -23 27 -23 30 0 14 32 0 46 -20 18 -26 51 -45 57
-34 3 4 -12 36 -34 72 -21 36 -39 62 -39 58 0 -10 31 -79 45 -99 5 -8 -1 -3
-15 13 -15 15 -43 56 -63 90 -38 64 -51 73 -20 15 17 -33 26 -90 12 -82 -4 3
-32 43 -63 89 -79 121 -86 115 -10 -7z m104 -78 c0 -6 -4 -7 -10 -4 -5 3 -10
11 -10 16 0 6 5 7 10 4 6 -3 10 -11 10 -16z M5766 6200 c134 -144 188 -256
295 -609 60 -197 102 -290 164 -359 47 -52 122 -105 165 -116 14 -4 2 5 -27
19 -69 34 -151 117 -190 190 -17 33 -45 102 -62 154 -33 98 -37 137 -6 54 31
-82 96 -186 154 -244 67 -66 143 -100 224 -98 l52 2 -65 7 c-136 14 -234 99
-319 275 -57 117 -184 433 -184 455 1 28 -126 205 -194 270 l-67 65 60 -65z
M4641 6209 c-1 -60 25 -211 44 -252 9 -18 12 -23 9 -12 -3 11 -15 79 -25 150
-24 161 -26 171 -28 114z M3649 6162 c40 -79 85 -142 102 -142 5 0 -7 20 -26
45 -19 25 -51 75 -71 110 -19 36 -38 65 -40 65 -2 0 14 -35 35 -78z M1670
6216 c0 -9 -4 -14 -10 -11 -5 3 -7 0 -4 -8 8 -23 -43 -215 -73 -269 -65 -119
-199 -213 -398 -278 -136 -45 -234 -92 -270 -131 l-30 -33 38 33 c49 40 105
65 283 125 78 26 168 62 200 81 71 42 155 130 189 198 28 57 32 47 11 -30 -26
-96 -86 -204 -151 -268 -47 -48 -89 -76 -193 -129 -144 -74 -216 -131 -268
-212 -38 -59 -75 -161 -73 -201 1 -18 5 -10 11 22 15 82 71 185 134 248 44 44
88 73 206 133 178 91 228 135 286 250 48 96 65 156 87 299 9 61 21 127 26 149
6 21 8 41 5 44 -3 3 -6 -2 -6 -12z M3538 6199 c2 -16 -1 -36 -8 -44 -6 -8 -9
-19 -6 -24 4 -5 -3 -34 -14 -63 -11 -29 -19 -66 -19 -83 1 -28 2 -27 9 8 9 49
20 59 20 17 0 -50 9 -31 15 31 3 30 8 82 11 115 4 34 2 64 -3 67 -5 3 -7 -7
-5 -24z M1751 6204 c0 -11 3 -14 6 -6 3 7 2 16 -1 19 -3 4 -6 -2 -5 -13z
M3928 6190 c11 -19 26 -57 33 -84 12 -48 48 -147 49 -135 0 6 -36 151 -46 183
-4 13 -2 16 6 11 20 -12 51 -93 66 -169 l14 -71 -5 64 c-7 88 -23 135 -58 171
-16 17 -32 28 -35 26 -2 -3 -13 5 -24 17 -19 21 -19 21 0 -13z M1811 6194 c0
-11 3 -14 6 -6 3 7 2 16 -1 19 -3 4 -6 -2 -5 -13z M3872 6183 c16 -16 39 -60
52 -99 28 -78 34 -66 10 17 -17 57 -35 84 -69 101 -15 8 -13 3 7 -19z M2468
6150 c-60 -61 -147 -104 -267 -130 -107 -23 -166 -53 -209 -107 -40 -53 -55
-82 -59 -123 l-3 -35 18 40 c45 95 95 130 246 169 85 22 176 59 176 71 0 2
-19 -5 -42 -15 -24 -10 -77 -26 -118 -34 -41 -9 -106 -31 -144 -51 -66 -33
-68 -34 -45 -9 37 40 85 60 198 83 61 12 123 32 147 46 24 14 49 24 56 23 6
-2 12 2 13 7 0 6 15 26 33 45 29 31 58 71 50 69 -2 0 -24 -22 -50 -49z m-468
-257 c-1 -5 -12 -21 -26 -38 -23 -27 -24 -27 -14 -5 20 40 41 62 40 43z M2789
6158 c-49 -67 -77 -135 -94 -232 -17 -101 -20 -236 -5 -236 6 0 10 -6 10 -14
0 -8 9 -24 20 -37 l21 -24 -14 30 c-62 135 -30 297 86 440 l40 50 -37 -35
c-20 -19 -47 -50 -59 -69 -11 -19 -22 -30 -24 -24 -5 15 43 121 73 160 14 18
23 33 20 33 -3 0 -20 -19 -37 -42z M3590 6151 c17 -47 64 -131 74 -131 1 0
-10 25 -26 56 -15 31 -28 62 -28 68 0 6 -9 22 -20 36 -19 25 -19 25 0 -29z
M3822 6176 c15 -16 34 -51 42 -80 9 -29 25 -61 37 -72 l21 -19 -20 35 c-11 19
-23 51 -27 70 -8 38 -28 66 -60 82 -15 8 -13 4 7 -16z M6130 6196 c0 -2 8 -10
18 -17 15 -13 16 -12 3 4 -13 16 -21 21 -21 13z M2078 6183 c7 -3 16 -2 19 1
4 3 -2 6 -13 5 -11 0 -14 -3 -6 -6z M2008 6164 c-16 -8 -28 -17 -28 -20 0 -2
12 2 28 9 15 8 34 17 42 20 13 5 13 5 0 6 -8 0 -27 -7 -42 -15z M3459 6136
c-9 -17 -27 -51 -41 -76 -41 -71 -43 -102 -4 -35 44 73 68 124 64 135 -2 4
-10 -7 -19 -24z M1606 6091 c-37 -94 -91 -176 -158 -236 -101 -93 -192 -127
-408 -154 l-75 -9 90 5 c180 10 272 41 390 131 39 30 51 36 35 18 -37 -41
-146 -110 -223 -140 -54 -22 -94 -29 -201 -36 -83 -5 -146 -15 -167 -25 -19
-8 -25 -12 -14 -9 11 4 70 11 130 16 188 15 234 24 320 67 56 28 99 59 143
103 63 64 106 118 82 103 -8 -5 -11 -3 -8 6 3 8 10 13 15 12 5 -1 9 6 10 15 1
9 18 57 38 105 20 49 35 91 32 93 -2 2 -16 -27 -31 -65z m-76 -190 c-11 -21
-30 -37 -30 -25 0 8 30 44 37 44 2 0 -1 -9 -7 -19z M1681 6144 c0 -11 3 -14 6
-6 3 7 2 16 -1 19 -3 4 -6 -2 -5 -13z M4030 6149 c0 -4 10 -28 21 -55 12 -26
25 -71 30 -98 l8 -51 -2 65 c-2 52 -8 73 -30 105 -15 22 -27 37 -27 34z M6170
6146 c0 -2 8 -10 18 -17 15 -13 16 -12 3 4 -13 16 -21 21 -21 13z M6830 6147
c0 -3 15 -10 32 -16 18 -6 28 -7 23 -2 -12 10 -55 25 -55 18z M3443 6042 c-22
-48 -58 -109 -78 -137 -36 -49 -36 -48 29 16 62 63 66 65 67 40 1 -14 5 -2 10
27 5 29 18 70 29 92 26 50 25 62 -1 30 -20 -24 -20 -24 -14 -2 11 39 1 23 -42
-66z m8 -35 c-10 -9 -11 -8 -5 6 3 10 9 15 12 12 3 -3 0 -11 -7 -18z M3555
6068 c-4 -36 -5 -72 -2 -80 2 -7 8 17 12 54 4 36 5 72 2 80 -2 7 -8 -17 -12
-54z M5087 6083 c-27 -31 -27 -43 -1 -25 12 8 38 52 32 56 -2 2 -16 -12 -31
-31z M5757 6080 c45 -69 85 -167 152 -378 101 -316 170 -451 286 -566 65 -63
162 -116 226 -122 l44 -3 -45 9 c-110 24 -225 110 -300 223 -66 100 -105 191
-185 434 -77 231 -148 395 -186 429 -16 14 -14 7 8 -26z M6816 6096 c39 -12
76 -26 84 -31 9 -5 11 -4 6 3 -7 11 -128 53 -150 51 -6 0 21 -11 60 -23z
M6900 6117 c0 -2 15 -14 33 -27 20 -15 27 -17 18 -6 -13 16 -51 41 -51 33z
M1670 6093 c0 -10 -5 -84 -10 -165 -22 -338 -65 -405 -353 -547 -103 -51 -179
-96 -209 -123 -44 -40 -118 -148 -118 -172 0 -6 14 14 31 44 56 103 106 142
303 240 l179 88 -121 -115 c-103 -96 -127 -125 -157 -186 -40 -83 -56 -152
-54 -246 2 -62 2 -60 9 29 14 172 56 249 220 400 63 58 128 119 144 135 88 91
141 223 156 390 14 147 9 198 -6 70 l-13 -110 5 143 c3 78 2 142 -1 142 -3 0
-5 -8 -5 -17z M5880 6106 c0 -2 8 -10 18 -17 15 -13 16 -12 3 4 -13 16 -21 21
-21 13z M3586 6060 c-4 -25 -6 -61 -3 -80 3 -30 4 -28 5 13 2 51 10 58 30 27
7 -11 17 -20 24 -20 6 0 0 12 -14 28 -15 15 -28 38 -30 52 -3 19 -6 14 -12
-20z M4100 6075 c13 -34 13 -106 0 -142 -9 -26 -9 -26 5 -9 21 28 30 101 15
136 -16 38 -34 51 -20 15z M3382 6051 c-12 -21 -22 -47 -22 -57 0 -11 11 5 25
35 30 64 28 77 -3 22z M4989 6064 c-13 -14 -45 -41 -70 -60 -26 -19 -50 -41
-53 -50 -8 -21 111 74 136 108 24 35 19 36 -13 2z M5191 6060 c-18 -15 -59
-38 -91 -50 -36 -13 -72 -37 -96 -62 l-39 -40 50 35 c28 19 75 47 106 62 31
14 69 39 84 56 36 37 30 37 -14 -1z M2393 5987 c-57 -85 -147 -184 -217 -238
-15 -12 -53 -33 -85 -46 -44 -19 -48 -22 -21 -17 118 22 235 135 369 357 43
70 15 37 -46 -56z M5027 6057 c-8 -13 -34 -41 -57 -63 -23 -21 -51 -52 -62
-69 l-21 -30 34 33 c37 34 63 44 37 15 -42 -49 -24 -41 38 17 75 70 87 90 28
45 -39 -30 -38 -23 4 33 14 18 23 35 20 38 -3 2 -12 -6 -21 -19z M960 6066 c0
-2 7 -7 16 -10 8 -3 12 -2 9 4 -6 10 -25 14 -25 6z M1742 6050 c0 -14 2 -19 5
-12 2 6 2 18 0 25 -3 6 -5 1 -5 -13z M2456 6033 c-55 -116 -177 -264 -253
-310 -60 -35 -54 -40 8 -6 75 40 169 147 224 254 26 50 45 92 43 95 -3 2 -12
-13 -22 -33z M5987 5953 c41 -65 86 -139 99 -165 13 -27 27 -48 30 -48 3 0
-11 30 -31 68 -41 74 -162 262 -169 262 -3 0 29 -53 71 -117z M2347 5981 c-78
-94 -157 -164 -235 -209 -31 -18 -46 -30 -32 -27 44 12 113 57 169 109 48 46
179 206 167 206 -2 0 -34 -35 -69 -79z M5206 6031 c-15 -16 -53 -39 -84 -50
-32 -12 -72 -35 -91 -51 -30 -26 -21 -23 64 20 108 55 121 64 136 92 14 25 7
23 -25 -11z M4882 6018 c-41 -34 -72 -76 -72 -99 0 -8 15 9 34 37 19 28 47 61
63 72 15 12 25 22 22 22 -4 0 -25 -15 -47 -32z M6955 6030 c10 -11 20 -20 23
-20 3 0 -3 9 -13 20 -10 11 -20 20 -23 20 -3 0 3 -9 13 -20z M2806 5998 c-56
-65 -79 -122 -84 -207 -2 -42 1 -87 6 -101 7 -19 8 -8 5 41 -8 99 16 167 103
287 27 37 8 25 -30 -20z M4149 6013 c0 -16 -8 -58 -18 -95 -9 -38 -16 -68 -14
-68 1 0 10 14 18 30 16 31 33 160 21 160 -3 0 -6 -12 -7 -27z M4827 6022 c-20
-22 -37 -67 -36 -95 1 -20 1 -20 8 3 5 14 18 44 30 68 23 46 23 52 -2 24z
M5265 6014 c-31 -21 -37 -22 -31 -7 3 10 -4 5 -16 -11 -12 -16 -49 -41 -83
-57 -34 -15 -68 -36 -76 -46 -12 -16 -12 -17 1 -7 8 6 31 17 50 24 19 7 52 26
73 42 20 16 37 24 37 19 0 -6 -19 -24 -42 -41 -22 -16 -37 -30 -32 -30 6 0 14
4 20 9 5 4 22 11 37 15 l28 7 -6 -48 c-5 -35 -4 -44 4 -33 6 8 11 31 11 50 0
30 7 41 42 68 52 40 83 49 106 31 15 -13 16 -12 3 4 -23 29 -64 21 -117 -23
-27 -22 -53 -40 -58 -40 -16 0 27 42 73 72 25 15 38 28 29 28 -8 0 -32 -12
-53 -26z M1128 6023 c7 -3 16 -2 19 1 4 3 -2 6 -13 5 -11 0 -14 -3 -6 -6z
M3318 5955 c-13 -41 -23 -75 -21 -75 8 0 42 80 48 113 12 60 -1 42 -27 -38z
M1755 5890 c0 -114 -3 -145 -23 -200 -39 -115 -71 -155 -220 -283 -56 -49
-120 -112 -142 -141 -80 -106 -121 -232 -118 -366 l1 -85 7 105 c14 213 79
327 280 490 140 113 185 177 215 302 15 66 19 205 7 273 -4 24 -7 -13 -7 -95z
M5767 5912 c28 -59 81 -196 117 -306 103 -310 171 -437 297 -550 46 -41 109
-83 109 -73 0 2 -26 21 -57 43 -74 51 -163 164 -218 277 -24 51 -69 168 -100
261 -70 210 -107 304 -151 383 -55 99 -54 81 3 -35z M2833 5958 c-58 -60 -83
-119 -81 -193 1 -42 2 -48 5 -20 7 84 15 106 68 179 30 42 53 76 52 76 -2 0
-22 -19 -44 -42z M1088 5953 c7 -3 16 -2 19 1 4 3 -2 6 -13 5 -11 0 -14 -3 -6
-6z M3492 5930 c0 -14 2 -19 5 -12 2 6 2 18 0 25 -3 6 -5 1 -5 -13z M6890
5946 c0 -2 8 -10 18 -17 15 -13 16 -12 3 4 -13 16 -21 21 -21 13z M4152 5884
c-13 -31 -20 -59 -18 -62 8 -8 48 86 44 104 -2 8 -13 -11 -26 -42z M4610 5911
c19 -17 48 -46 63 -64 28 -31 28 -31 9 -2 -21 31 -52 61 -87 84 -11 7 -4 -1
15 -18z M4760 5918 c0 -7 5 -20 10 -28 8 -12 10 -9 10 13 0 15 -4 27 -10 27
-5 0 -10 -6 -10 -12z M5250 5888 c0 -26 -5 -59 -10 -75 -9 -25 -9 -26 4 -10
20 26 30 92 17 114 -8 14 -10 9 -11 -29z M5285 5865 c0 -35 3 -58 7 -52 10 16
10 104 1 110 -5 3 -8 -23 -8 -58z M6087 5692 c72 -149 137 -268 168 -309 49
-65 124 -133 148 -133 7 0 -2 8 -18 19 -79 47 -137 132 -262 383 -67 133 -129
252 -137 263 -9 11 37 -89 101 -223z M5202 5898 c-5 -7 -13 -24 -17 -37 -11
-35 11 -18 23 19 12 32 10 37 -6 18z M5365 5858 c-4 -29 -14 -70 -21 -92 -20
-55 -16 -59 8 -6 19 43 37 150 25 150 -3 0 -8 -24 -12 -52z M908 5893 c6 -2
18 -2 25 0 6 3 1 5 -13 5 -14 0 -19 -2 -12 -5z M858 5883 c7 -3 16 -2 19 1 4
3 -2 6 -13 5 -11 0 -14 -3 -6 -6z M6300 5885 c0 -15 155 -158 208 -192 56 -36
182 -96 189 -90 2 2 -28 18 -67 35 -71 31 -184 101 -177 109 3 2 36 -12 75
-31 38 -20 73 -36 78 -36 8 1 -156 90 -164 90 -2 0 0 -5 4 -12 4 -7 3 -8 -5
-4 -6 4 -9 11 -6 16 3 5 -4 14 -17 21 -12 6 -43 32 -70 57 -26 24 -48 41 -48
37z M2491 5783 c-1 -108 15 -210 48 -308 22 -63 22 -60 -9 76 -11 48 -24 142
-28 210 l-9 124 -2 -102z M3665 5868 c-92 -34 -159 -106 -236 -249 -62 -116
-99 -152 -173 -170 -71 -16 -90 -28 -46 -28 85 -1 167 67 239 196 63 112 103
158 165 188 143 70 285 26 403 -125 66 -85 71 -90 96 -89 l22 1 -23 7 c-14 3
-54 46 -95 100 -46 59 -93 109 -130 135 -52 36 -64 41 -125 43 -37 1 -80 -3
-97 -9z M5318 5857 c-5 -10 -8 -35 -7 -55 0 -35 1 -35 10 -12 6 13 9 38 7 55
-2 24 -4 26 -10 12z M6550 5866 c0 -2 8 -10 18 -17 15 -13 16 -12 3 4 -13 16
-21 21 -21 13z M3507 5811 c-25 -26 -55 -68 -67 -92 -13 -24 -31 -57 -42 -74
l-20 -30 22 25 c12 14 33 47 47 74 14 27 45 71 70 97 25 27 43 49 41 49 -3 0
-26 -22 -51 -49z M4782 5831 c-13 -3 40 -6 118 -6 78 0 131 3 118 6 -12 4 -66
7 -118 7 -52 0 -106 -3 -118 -7z M5363 5752 c-17 -48 -30 -88 -29 -90 2 -1 17
18 34 43 18 27 32 41 35 33 3 -7 6 1 6 19 1 17 4 39 8 49 4 11 3 15 -5 11 -6
-4 -12 -1 -14 7 -2 8 -17 -24 -35 -72z m34 36 c-3 -8 -6 -5 -6 6 -1 11 2 17 5
13 3 -3 4 -12 1 -19z M6610 5815 c13 -14 26 -25 28 -25 3 0 -5 11 -18 25 -13
14 -26 25 -28 25 -3 0 5 -11 18 -25z M818 5789 c-21 -11 -38 -22 -38 -24 0 -5
79 32 89 41 12 11 -18 1 -51 -17z M1500 5769 c-53 -48 -180 -111 -340 -170
-129 -47 -180 -71 -227 -106 -34 -26 -78 -104 -70 -125 2 -7 7 1 11 18 10 46
66 106 127 136 30 14 115 47 189 73 160 55 240 98 312 165 29 27 51 49 48 49
-3 0 -25 -18 -50 -40z M4940 5799 c-44 -8 -194 -78 -186 -86 2 -2 36 12 75 31
83 42 108 46 66 11 l-30 -25 49 25 c38 19 64 25 114 25 133 0 209 -68 291
-260 10 -24 10 -24 5 5 -20 101 -103 217 -178 250 -60 27 -143 37 -206 24z
M5756 5797 c3 -10 9 -15 12 -12 3 3 0 11 -7 18 -10 9 -11 8 -5 -6z M6147 5775
c9 -19 18 -33 21 -31 4 5 -26 66 -33 66 -3 0 3 -16 12 -35z M6360 5780 c0 -3
13 -40 30 -82 27 -73 55 -188 63 -268 4 -35 4 -35 5 5 4 88 -37 255 -79 320
-10 17 -19 28 -19 25z M4681 5765 c0 -12 48 -69 54 -63 3 2 -9 20 -25 39 -16
19 -29 30 -29 24z M5450 5746 c-5 -15 -22 -44 -38 -64 -15 -20 -21 -33 -14
-28 26 16 10 -14 -20 -38 -44 -34 -26 -33 21 1 30 21 41 39 55 86 18 60 15 92
-4 43z M5776 5755 c4 -11 19 -54 34 -95 39 -106 68 -248 81 -392 11 -130 8
-207 -18 -432 -25 -223 -9 -441 37 -514 10 -15 11 -15 5 3 -4 11 -14 40 -22
65 -27 83 -28 247 -3 460 37 319 21 550 -55 775 -14 42 -35 93 -46 113 -11 21
-17 28 -13 17z M739 5733 l-24 -28 28 24 c25 23 32 31 24 31 -2 0 -14 -12 -28
-27z M2361 5693 c-17 -31 -29 -58 -27 -61 3 -2 19 23 35 57 39 77 33 80 -8 4z
M3594 5705 c-53 -26 -79 -50 -110 -100 -14 -21 -3 -14 38 25 32 30 77 65 100
77 24 12 38 23 32 23 -5 0 -33 -11 -60 -25z M6350 5725 c0 -5 5 -17 10 -25 5
-8 10 -10 10 -5 0 6 -5 17 -10 25 -5 8 -10 11 -10 5z M928 5713 c7 -3 16 -2
19 1 4 3 -2 6 -13 5 -11 0 -14 -3 -6 -6z M5745 5697 c36 -179 38 -227 40 -677
2 -376 5 -470 18 -542 9 -47 21 -98 27 -113 27 -72 42 -171 38 -254 -3 -47 -8
-95 -12 -106 -3 -11 1 -4 11 15 12 25 17 62 17 126 1 88 2 90 17 65 9 -14 34
-42 55 -61 35 -31 34 -30 -7 15 -51 56 -91 135 -114 221 -32 124 -38 223 -32
568 3 186 1 384 -4 440 -11 119 -37 281 -50 310 -8 17 -8 16 -4 -7z M3642
5680 c-86 -44 -201 -170 -154 -170 4 0 25 23 47 52 l38 52 11 -38 c14 -51 52
-79 105 -78 78 1 131 55 131 131 0 23 2 41 5 41 12 0 69 -33 115 -66 26 -19
57 -34 69 -34 26 0 40 -28 20 -41 -8 -5 -30 -9 -51 -9 -20 0 -60 -11 -90 -25
-45 -21 -69 -25 -158 -26 l-105 -2 75 -8 c81 -8 152 1 202 27 17 9 52 17 77
19 62 3 81 13 81 41 0 24 -26 45 -48 37 -7 -3 -37 18 -67 45 -95 88 -196 105
-303 52z m153 -34 c14 -56 -16 -106 -73 -125 -34 -10 -49 -11 -72 -1 -32 13
-65 72 -55 98 6 14 9 11 16 -13 15 -52 59 -68 114 -43 33 15 57 58 44 79 -8
12 -10 12 -19 -1 -8 -12 -10 -9 -10 12 0 25 14 39 35 34 6 -1 14 -20 20 -40z
m-105 -1 c10 -12 10 -18 0 -30 -16 -20 -36 -19 -44 1 -6 16 9 44 24 44 4 0 13
-7 20 -15z M4640 5671 l-12 -29 -35 24 c-20 13 -43 24 -51 24 -9 0 5 -13 30
-29 l45 -29 -4 -68 c-3 -38 -1 -79 4 -91 5 -15 9 2 10 55 1 42 9 97 18 121 17
50 14 67 -5 22z M4790 5679 c-19 -11 -48 -19 -65 -20 -16 0 -39 -5 -50 -10
-15 -7 -10 -8 23 -6 23 1 42 -1 42 -5 0 -5 -3 -8 -7 -8 -5 -1 -21 -12 -38 -26
l-30 -26 42 23 c43 23 143 100 127 98 -5 -1 -25 -10 -44 -20z M5084 5681 c63
-31 121 -86 152 -144 36 -71 44 -67 9 5 -43 84 -98 133 -175 152 -14 3 -8 -2
14 -13z M6746 5681 c4 -14 1 -27 -7 -32 -11 -7 -10 -9 3 -9 9 0 19 -8 21 -17
4 -15 5 -15 5 2 1 11 -5 34 -13 50 -11 22 -13 24 -9 6z M883 5670 c-24 -10
-43 -22 -43 -25 0 -3 10 0 23 6 12 7 40 18 62 25 22 7 31 13 20 13 -11 0 -39
-8 -62 -19z M2120 5680 c-8 -5 -10 -10 -5 -10 6 0 17 5 25 10 8 5 11 10 5 10
-5 0 -17 -5 -25 -10z M2584 5655 c6 -44 35 -149 41 -143 1 1 -8 44 -21 93 -14
50 -22 72 -20 50z M4855 5656 c-102 -51 -166 -126 -132 -154 11 -9 13 -6 9 17
-3 23 3 34 34 60 21 17 42 31 45 31 4 0 10 -13 14 -30 7 -33 63 -87 100 -96
71 -18 144 33 155 108 l7 43 65 -69 c38 -40 70 -66 77 -62 15 10 -1 38 -49 86
-53 53 -131 91 -199 97 -49 4 -64 1 -126 -31z m183 -8 c13 -13 16 -75 6 -103
-9 -23 -57 -45 -98 -45 -44 0 -92 40 -105 88 -8 27 -7 34 9 42 24 13 33 13 25
0 -3 -5 3 -10 14 -10 11 0 22 -4 25 -8 8 -13 -11 -35 -24 -27 -9 6 -9 3 0 -14
26 -50 102 -51 126 -2 17 33 7 52 -22 45 -28 -7 -31 2 -7 28 19 21 34 23 51 6z
M5681 5685 c-1 -5 6 -44 14 -86 19 -103 35 -327 36 -534 1 -93 4 -210 8 -260
4 -49 6 54 4 230 -4 344 -13 467 -42 585 -10 41 -19 71 -20 65z M4250 5670
c-11 -7 5 -10 52 -10 37 0 70 5 73 10 8 13 -105 13 -125 0z M6370 5675 c0 -5
5 -17 10 -25 5 -8 10 -10 10 -5 0 6 -5 17 -10 25 -5 8 -10 11 -10 5z M6630
5671 c8 -5 33 -12 55 -15 28 -4 33 -3 15 2 -46 16 -86 23 -70 13z M4168 5650
c-3 -8 -11 -49 -17 -90 -8 -50 -23 -96 -47 -140 -19 -36 -26 -54 -14 -40 48
60 97 204 88 260 -3 17 -6 20 -10 10z M6330 5655 c0 -5 5 -17 10 -25 5 -8 10
-10 10 -5 0 6 -5 17 -10 25 -5 8 -10 11 -10 5z M819 5635 c-1 -3 -2 -10 -3
-15 0 -6 -8 -15 -16 -20 -8 -5 -10 -10 -5 -10 6 0 21 9 35 20 18 15 20 18 6
13 -13 -4 -17 -3 -12 5 4 7 5 12 2 12 -3 0 -7 -2 -7 -5z M1871 5624 c0 -11 3
-14 6 -6 3 7 2 16 -1 19 -3 4 -6 -2 -5 -13z M2682 5615 c0 -16 2 -22 5 -12 2
9 2 23 0 30 -3 6 -5 -1 -5 -18z M6820 5633 c0 -4 5 -15 10 -23 8 -13 10 -13
10 2 0 9 -4 20 -10 23 -5 3 -10 3 -10 -2z M2316 5605 c-9 -26 -7 -32 5 -12 6
10 9 21 6 23 -2 3 -7 -2 -11 -11z M2703 5545 c0 -38 2 -53 4 -32 2 20 2 52 0
70 -2 17 -4 1 -4 -38z M6768 5583 c-3 -13 -2 -26 3 -29 5 -3 9 -15 10 -27 0
-21 1 -21 8 -2 5 11 5 25 1 30 -4 6 -10 19 -12 30 -4 19 -4 19 -10 -2z M763
5568 c-15 -20 -25 -38 -20 -38 3 0 12 11 21 25 17 26 16 35 -1 13z M4257 5471
c-9 -57 -15 -106 -13 -108 8 -8 37 145 34 178 -2 23 -9 1 -21 -70z M3157 5549
c24 -10 141 -11 146 -1 3 4 -33 7 -80 7 -46 1 -76 -2 -66 -6z M3920 5540 c-6
-11 -8 -20 -6 -20 3 0 10 9 16 20 6 11 8 20 6 20 -3 0 -10 -9 -16 -20z M5285
5488 c7 -104 58 -164 133 -155 24 3 49 10 55 16 9 10 5 10 -16 2 -78 -30 -127
7 -156 119 l-20 75 4 -57z M3416 5502 c-23 -44 -107 -117 -159 -137 -38 -14
-66 -17 -135 -13 -48 3 -73 2 -57 -2 17 -4 64 -8 106 -9 118 -2 197 47 253
157 9 17 14 32 12 32 -3 0 -12 -13 -20 -28z M2585 5485 c9 -22 21 -44 26 -50
6 -5 3 8 -6 30 -9 22 -21 45 -26 50 -6 6 -3 -8 6 -30z M6840 5511 c0 -6 4 -13
10 -16 6 -3 7 1 4 9 -7 18 -14 21 -14 7z M5110 5489 c-12 -8 -9 -9 10 -5 17 4
14 1 -10 -10 -27 -13 -57 -15 -139 -12 -76 4 -98 2 -80 -5 13 -6 62 -10 109
-11 65 -1 94 3 123 18 28 14 35 21 25 27 -17 11 -20 11 -38 -2z M6791 5484 c0
-11 3 -14 6 -6 3 7 2 16 -1 19 -3 4 -6 -2 -5 -13z M1757 5448 c-14 -24 -77
-105 -140 -181 -161 -193 -222 -316 -234 -469 -7 -89 8 -176 42 -255 33 -74
38 -67 7 10 -21 49 -27 83 -30 167 -7 195 43 316 226 543 106 132 172 227 159
227 -3 0 -16 -19 -30 -42z M2334 5400 c0 -52 1 -74 3 -47 2 26 2 68 0 95 -2
26 -3 4 -3 -48z M875 5469 c-4 -6 -5 -12 -2 -15 2 -3 7 2 10 11 7 17 1 20 -8
4z M3598 5473 c7 -3 16 -2 19 1 4 3 -2 6 -13 5 -11 0 -14 -3 -6 -6z M3450
5437 c0 -29 57 -82 106 -99 62 -22 154 -34 154 -21 0 6 -28 13 -62 17 -79 8
-146 41 -175 85 -14 20 -23 27 -23 18z M3557 5443 c-18 -30 172 -56 243 -34
31 9 29 10 -22 5 -61 -7 -199 12 -209 28 -4 7 -9 7 -12 1z M5148 5425 c-11
-11 -55 -18 -120 -19 -36 0 -61 -4 -55 -8 22 -14 137 -9 167 7 30 15 38 25 22
25 -5 0 -11 -2 -14 -5z M1871 5404 c0 -11 3 -14 6 -6 3 7 2 16 -1 19 -3 4 -6
-2 -5 -13z M2620 5416 c0 -2 8 -10 18 -17 15 -13 16 -12 3 4 -13 16 -21 21
-21 13z M5912 5390 c44 -211 61 -305 83 -462 14 -103 30 -198 35 -210 10 -23
10 -22 6 2 -5 27 -16 113 -42 315 -14 117 -68 362 -81 375 -3 3 -3 -6 -1 -20z
M1861 5354 c0 -11 3 -14 6 -6 3 7 2 16 -1 19 -3 4 -6 -2 -5 -13z M1862 5163
c-72 -404 -83 -528 -51 -573 9 -13 10 -13 6 1 -20 64 -17 116 27 379 53 324
60 370 54 370 -3 0 -19 -80 -36 -177z M5591 5338 c-1 -4 8 -40 19 -80 18 -69
43 -232 71 -472 7 -60 15 -104 17 -98 7 22 -39 418 -58 497 -18 76 -48 168
-49 153z M1798 5147 c-74 -236 -98 -337 -98 -418 0 -81 30 -183 66 -224 l26
-30 -20 30 c-33 50 -62 150 -62 212 0 69 26 184 80 348 44 139 72 243 68 256
-2 5 -29 -73 -60 -174z M4815 5315 c41 -33 117 -66 222 -94 59 -16 120 -34
136 -40 45 -17 31 -2 -18 19 -25 11 -91 31 -146 44 -56 14 -126 39 -157 56
-32 17 -48 24 -37 15z M3910 5310 c-9 -6 -10 -10 -3 -10 6 0 15 5 18 10 8 12
4 12 -15 0z M3465 5281 c76 -37 138 -46 233 -33 86 12 198 39 190 47 -2 2 -26
-3 -53 -11 -80 -24 -249 -30 -317 -10 -32 9 -65 19 -75 21 -10 3 0 -3 22 -14z
M3067 5274 c-32 -8 -66 -19 -75 -24 -15 -10 -14 -10 3 -6 11 3 56 12 99 21 43
8 81 17 84 20 10 9 -52 3 -111 -11z M3180 5251 c-25 -9 -69 -34 -97 -55 -55
-39 -74 -63 -25 -30 15 10 63 38 107 61 84 45 90 54 15 24z M3455 5226 c-93
-30 -219 -120 -280 -202 -20 -28 -10 -21 38 26 73 71 171 135 257 168 60 23
49 28 -15 8z M5384 5226 c11 -9 25 -16 31 -16 7 0 24 -11 39 -25 14 -13 26
-20 26 -15 0 10 -58 60 -70 60 -5 0 -17 3 -27 6 -16 5 -16 4 1 -10z M6463
5233 c9 -2 23 -2 30 0 6 3 -1 5 -18 5 -16 0 -22 -2 -12 -5z M1662 5153 c-115
-176 -147 -278 -139 -438 9 -175 59 -259 186 -310 107 -44 127 -63 142 -135
l7 -35 1 31 c2 53 -36 95 -131 144 -48 25 -97 54 -109 65 -68 63 -103 244 -75
386 17 88 56 180 118 276 58 89 60 93 55 93 -3 0 -27 -35 -55 -77z M3200 5204
c-51 -29 -102 -75 -132 -119 -15 -21 -5 -14 33 21 30 28 75 66 102 84 41 29
54 40 45 40 -2 0 -23 -12 -48 -26z M6016 5130 c15 -214 63 -514 80 -497 2 2 0
16 -5 30 -10 25 -37 226 -38 277 -1 14 -4 43 -7 65 -5 30 1 20 21 -35 82 -218
216 -353 378 -378 86 -14 224 0 194 19 -17 11 -32 12 -25 1 6 -10 -153 -4
-188 8 -15 5 -32 7 -37 5 -4 -3 -27 4 -50 15 -132 68 -256 264 -310 490 l-18
75 5 -75z M1119 5133 c-72 -167 -63 -317 27 -470 30 -53 117 -149 149 -165 11
-6 -5 11 -35 39 -165 152 -216 395 -127 606 9 20 14 37 11 37 -3 0 -14 -21
-25 -47z M6428 5103 c7 -3 16 -2 19 1 4 3 -2 6 -13 5 -11 0 -14 -3 -6 -6z
M6558 5103 c7 -3 16 -2 19 1 4 3 -2 6 -13 5 -11 0 -14 -3 -6 -6z M6075 5060
c11 -40 67 -160 102 -222 55 -94 189 -225 209 -205 3 3 -7 12 -24 21 -70 36
-187 197 -252 348 -35 78 -47 99 -35 58z M6100 5076 c0 -10 100 -206 105 -206
5 0 -92 199 -101 209 -2 2 -4 1 -4 -3z M971 5054 c0 -11 3 -14 6 -6 3 7 2 16
-1 19 -3 4 -6 -2 -5 -13z M5942 5040 c0 -14 2 -19 5 -12 2 6 2 18 0 25 -3 6
-5 1 -5 -13z M913 5005 c0 -27 2 -38 4 -22 2 15 2 37 0 50 -2 12 -4 0 -4 -28z
M4731 5031 c6 -13 30 -53 54 -90 109 -171 99 -297 -32 -405 -19 -16 -60 -40
-91 -53 -32 -13 -43 -21 -27 -18 17 3 57 19 90 34 33 15 71 33 85 39 l25 11
-24 0 -25 1 26 28 c45 48 61 91 62 170 1 41 -2 76 -6 78 -4 3 -16 24 -27 47
-10 23 -36 65 -57 94 -22 28 -45 59 -52 70 -11 15 -11 15 -1 -6z M6185 5000
c11 -14 58 -65 105 -115 47 -49 112 -119 145 -155 32 -36 49 -51 38 -35 -20
28 -239 266 -286 310 l-21 20 19 -25z M5956 4955 c7 -90 33 -222 55 -289 22
-65 74 -150 110 -181 13 -11 7 0 -14 26 -49 61 -82 138 -101 234 -47 234 -56
272 -50 210z M1931 4975 c-1 -40 29 -144 68 -233 56 -127 81 -216 90 -319 l8
-88 2 71 c1 91 -33 227 -89 354 -23 52 -50 127 -60 165 -10 39 -19 61 -19 50z
M1971 4964 c0 -11 3 -14 6 -6 3 7 2 16 -1 19 -3 4 -6 -2 -5 -13z M6293 4967
c-3 -6 -1 -7 5 -3 6 3 13 2 17 -4 8 -13 139 -53 159 -48 8 2 -28 17 -80 34
-57 18 -98 26 -101 21z M4280 4949 c-20 -37 -24 -139 -8 -179 15 -34 15 -33
10 40 -2 41 1 93 7 114 12 46 8 58 -9 25z M5530 4967 c0 -26 133 -317 145
-317 6 0 -2 20 -80 190 -56 122 -65 140 -65 127z M6219 4918 c52 -71 154 -188
159 -183 3 3 -17 28 -44 57 -28 29 -69 79 -93 111 -24 31 -46 57 -48 57 -3 0
9 -19 26 -42z M922 4920 c0 -14 2 -19 5 -12 2 6 2 18 0 25 -3 6 -5 1 -5 -13z
M6065 4910 c3 -14 22 -58 42 -99 65 -135 209 -245 335 -256 l53 -5 -62 14
c-35 8 -86 27 -114 43 -73 39 -172 150 -220 247 -22 45 -38 70 -34 56z M6395
4896 c29 -10 87 -14 205 -14 l165 1 -180 8 c-99 4 -191 10 -205 13 -14 3 -7
-1 15 -8z M6523 4903 c15 -2 39 -2 55 0 15 2 2 4 -28 4 -30 0 -43 -2 -27 -4z
M6683 4903 c9 -2 25 -2 35 0 9 3 1 5 -18 5 -19 0 -27 -2 -17 -5z M4131 4865
c-73 -83 -100 -198 -63 -264 10 -19 30 -41 43 -50 l24 -15 -23 23 c-68 67 -53
208 32 309 37 43 26 41 -13 -3z M6220 4840 c6 -11 13 -20 16 -20 2 0 0 9 -6
20 -6 11 -13 20 -16 20 -2 0 0 -9 6 -20z M6555 4856 c6 -3 36 -12 67 -20 31
-9 78 -33 105 -52 37 -28 42 -31 24 -10 -31 33 -113 73 -166 80 -22 4 -35 4
-30 2z M2075 4808 c2 -26 27 -100 54 -165 57 -134 69 -137 17 -5 -19 48 -42
112 -51 142 -24 78 -26 81 -20 28z M3996 4739 c-54 -60 -115 -131 -135 -157
-58 -74 -116 -159 -94 -137 18 19 276 329 316 381 38 49 9 20 -87 -87z M6458
4843 c7 -3 16 -2 19 1 4 3 -2 6 -13 5 -11 0 -14 -3 -6 -6z M1172 4820 c0 -14
2 -19 5 -12 2 6 2 18 0 25 -3 6 -5 1 -5 -13z M6560 4821 c41 -11 77 -18 78
-16 6 5 -67 24 -113 30 -22 3 -6 -3 35 -14z M4901 4750 c10 -28 19 -71 19 -96
0 -40 -5 -51 -47 -96 -27 -28 -38 -46 -27 -40 28 15 80 75 89 103 6 19 10 16
35 -30 29 -52 98 -151 106 -151 3 0 -8 19 -24 43 -38 56 -113 200 -136 259
-10 26 -21 50 -26 53 -4 3 0 -18 11 -45z M1180 4783 c0 -16 31 -95 36 -90 2 2
-5 25 -16 53 -10 27 -19 43 -20 37z M6675 4784 c6 -5 23 -20 40 -34 29 -24 29
-24 10 -2 -11 13 -29 28 -40 34 -11 6 -15 6 -10 2z M6785 4720 c10 -11 20 -20
23 -20 3 0 -3 9 -13 20 -10 11 -20 20 -23 20 -3 0 3 -9 13 -20z M6390 4723 c0
-6 8 -17 18 -24 16 -13 16 -13 2 6 -8 11 -16 22 -17 24 -2 2 -3 0 -3 -6z
M5574 4657 c51 -78 92 -197 101 -288 9 -82 -14 -191 -54 -265 -16 -30 -25 -51
-20 -48 16 10 59 102 74 161 18 68 19 162 4 235 -15 69 -71 182 -114 233 -32
37 -31 34 9 -28z M5752 4670 c0 -19 2 -27 5 -17 2 9 2 25 0 35 -3 9 -5 1 -5
-18z M6749 4671 c-20 -14 -45 -31 -55 -38 -15 -10 -12 -10 11 0 37 14 92 54
85 60 -3 2 -21 -7 -41 -22z M6041 4680 c0 -8 4 -22 9 -30 12 -18 12 -2 0 25
-6 13 -9 15 -9 5z M1230 4660 c6 -11 13 -20 16 -20 2 0 0 9 -6 20 -6 11 -13
20 -16 20 -2 0 0 -9 6 -20z M6820 4676 c0 -2 8 -10 18 -17 15 -13 16 -12 3 4
-13 16 -21 21 -21 13z M5701 4654 c0 -11 3 -14 6 -6 3 7 2 16 -1 19 -3 4 -6
-2 -5 -13z M1871 4624 c0 -11 3 -14 6 -6 3 7 2 16 -1 19 -3 4 -6 -2 -5 -13z
M1265 4610 c10 -11 20 -20 23 -20 3 0 -3 9 -13 20 -10 11 -20 20 -23 20 -3 0
3 -9 13 -20z M6100 4614 c0 -6 7 -19 16 -30 14 -18 14 -18 3 6 -14 31 -19 36
-19 24z M5761 4594 c0 -11 3 -14 6 -6 3 7 2 16 -1 19 -3 4 -6 -2 -5 -13z
M4280 4576 c36 -6 85 -22 109 -34 24 -13 45 -21 48 -19 2 3 -24 19 -58 36 -47
23 -75 31 -113 30 l-51 -1 65 -12z M5892 4565 c-3 -66 52 -233 90 -270 5 -5
-4 17 -21 51 -28 55 -53 142 -64 219 l-4 30 -1 -30z M6529 4551 c12 -8 51 -4
51 5 0 2 -15 4 -32 4 -23 0 -29 -3 -19 -9z M1840 4526 c0 -2 8 -10 18 -17 15
-13 16 -12 3 4 -13 16 -21 21 -21 13z M4312 4503 c-18 -8 -52 -34 -75 -56
l-42 -39 45 34 c25 19 60 43 78 52 17 9 32 19 32 21 0 7 -1 7 -38 -12z M4095
4493 c-43 -23 -73 -48 -97 -80 -18 -23 -14 -21 18 8 21 20 59 48 84 63 48 28
44 36 -5 9z M4347 4461 c-39 -43 -61 -80 -54 -88 3 -2 11 6 18 19 6 12 27 42
46 66 43 53 37 55 -10 3z M5941 4489 c-1 -20 70 -165 103 -208 14 -19 26 -31
26 -27 0 4 -11 22 -24 39 -26 36 -72 123 -92 177 -7 19 -13 28 -13 19z M1327
4479 c7 -7 15 -10 18 -7 3 3 -2 9 -12 12 -14 6 -15 5 -6 -5z M6450 4467 c40
-46 194 -158 176 -128 -6 9 -5 12 5 9 8 -3 14 -10 14 -16 0 -5 4 -14 9 -19 6
-5 6 -2 1 6 -6 11 -4 13 11 8 13 -5 12 -1 -6 11 -13 9 -63 46 -110 81 -47 35
-76 54 -66 43 27 -31 8 -27 -28 6 l-31 27 25 -28z m122 -76 c26 -19 46 -37 43
-39 -5 -5 -115 75 -115 84 0 6 11 -1 72 -45z M1460 4476 c0 -2 8 -10 18 -17
15 -13 16 -12 3 4 -13 16 -21 21 -21 13z M3975 4460 c-44 -23 -70 -43 -100
-80 -13 -17 -8 -14 15 7 19 18 60 46 90 62 61 34 57 42 -5 11z M4890 4470 c74
-7 100 -19 129 -56 31 -40 25 -51 -8 -15 -29 31 -69 51 -99 51 -9 -1 0 -7 21
-15 53 -18 83 -49 107 -109 l20 -51 -5 55 c-11 106 -62 151 -170 149 l-60 -2
65 -7z M4737 4445 c18 -14 44 -40 59 -58 28 -34 23 -20 -8 26 -11 15 -34 34
-51 43 l-32 15 32 -26z M4401 4444 c0 -11 3 -14 6 -6 3 7 2 16 -1 19 -3 4 -6
-2 -5 -13z M4811 4431 c50 -32 78 -60 108 -111 11 -19 21 -30 21 -24 0 26 -64
107 -107 134 -26 17 -51 30 -57 30 -5 0 10 -13 35 -29z M1490 4436 c0 -2 8
-10 18 -17 15 -13 16 -12 3 4 -13 16 -21 21 -21 13z M4441 4424 c0 -11 3 -14
6 -6 3 7 2 16 -1 19 -3 4 -6 -2 -5 -13z M4636 4408 c15 -20 30 -35 33 -32 3 2
-10 19 -28 37 l-34 32 29 -37z M5750 4433 c0 -5 3 -13 7 -16 11 -11 3 -148
-13 -216 -8 -35 -26 -87 -39 -115 -14 -28 -18 -42 -9 -31 48 59 87 205 79 295
-5 54 -5 54 9 25 49 -100 57 -260 18 -348 -12 -26 -17 -45 -12 -42 5 3 18 31
30 63 29 76 25 221 -9 296 -22 49 -61 106 -61 89z M4391 4413 c-1 -6 -4 -20
-7 -30 -5 -17 -5 -17 6 0 6 10 9 23 6 30 -3 9 -5 9 -5 0z M4562 4400 c0 -14 2
-19 5 -12 2 6 2 18 0 25 -3 6 -5 1 -5 -13z M4532 4390 c0 -14 2 -19 5 -12 2 6
2 18 0 25 -3 6 -5 1 -5 -13z M4930 4385 c13 -14 26 -23 28 -20 7 7 -29 45 -41
45 -6 0 0 -11 13 -25z M3247 4353 c-40 -103 -51 -293 -23 -403 l15 -55 -7 50
c-13 97 -5 286 16 365 22 84 22 100 -1 43z M4472 4360 c0 -19 2 -27 5 -17 2 9
2 25 0 35 -3 9 -5 1 -5 -18z M5152 4343 c69 -65 108 -147 109 -233 1 -54 2
-59 9 -32 19 80 -30 204 -107 271 -64 57 -73 51 -11 -6z M4646 4323 c26 -51
33 -155 13 -196 -10 -21 -9 -21 10 1 23 26 41 83 40 122 -1 16 -6 6 -14 -25
l-13 -50 -1 51 c-1 55 -21 113 -44 132 -8 7 -4 -8 9 -35z M5142 4324 c74 -77
90 -123 85 -247 -3 -61 -11 -117 -20 -139 -20 -47 -14 -50 10 -5 23 45 34 208
17 265 -16 56 -57 114 -103 148 -33 25 -32 23 11 -22z M4431 4344 c0 -11 3
-14 6 -6 3 7 2 16 -1 19 -3 4 -6 -2 -5 -13z M3671 4321 c-38 -35 -61 -88 -60
-133 1 -21 3 -25 6 -13 18 76 28 101 60 136 42 46 38 51 -6 10z M3569 4306
c-41 -31 -65 -61 -112 -138 -10 -15 -17 -33 -17 -40 1 -7 8 -2 16 12 l15 25
-6 -25 c-15 -67 -14 -79 4 -26 11 32 24 63 30 69 15 15 14 30 -1 21 -8 -4 -10
-3 -5 2 5 5 12 9 16 9 4 0 22 17 40 38 18 20 30 37 26 37 -4 0 -2 7 5 15 15
18 35 20 24 3 -4 -7 -3 -8 5 -4 6 4 9 11 6 16 -3 4 1 11 7 13 8 3 8 6 2 6 -6
1 -31 -14 -55 -33z m1 -19 c0 -2 -10 -12 -22 -23 l-23 -19 19 23 c18 21 26 27
26 19z m-87 -112 c-3 -9 -8 -14 -10 -11 -3 3 -2 9 2 15 9 16 15 13 8 -4z
M2081 4314 c0 -11 3 -14 6 -6 3 7 2 16 -1 19 -3 4 -6 -2 -5 -13z M3682 4298
c-24 -27 -42 -70 -41 -101 0 -14 5 -6 13 20 8 22 23 55 35 72 26 36 23 40 -7
9z M4092 4238 c-70 -120 -94 -184 -97 -253 -2 -56 -2 -57 5 -15 l7 45 2 -50
c2 -27 5 -45 7 -38 4 9 12 9 32 2 48 -19 266 -59 312 -57 36 1 39 2 13 5 -24
3 -33 9 -33 22 0 11 -7 32 -15 47 -17 33 -20 161 -5 213 16 57 4 46 -19 -16
-18 -52 -20 -68 -12 -153 4 -52 6 -97 4 -99 -12 -16 -18 28 -18 145 0 92 -3
125 -9 107 -5 -16 -15 -35 -22 -43 -21 -25 -44 -87 -45 -122 0 -30 -1 -31 -10
-10 -9 23 -1 78 21 138 9 27 9 28 -5 10 -8 -11 -18 -36 -21 -55 -11 -63 -26
-71 -20 -11 4 40 3 49 -4 32 -13 -32 -17 -122 -6 -152 7 -21 6 -23 -5 -14 -8
6 -22 10 -31 9 -10 -2 -20 1 -24 6 -3 5 -9 7 -14 4 -10 -6 -25 34 -16 42 3 4
6 -2 6 -13 0 -29 19 4 21 36 0 20 4 16 16 -18 19 -54 26 -50 11 7 -10 41 -6
82 16 146 4 11 -3 2 -15 -20 -12 -22 -28 -60 -36 -85 l-13 -45 5 49 c3 27 18
74 35 105 27 51 27 53 5 26 -14 -16 -30 -46 -36 -65 -20 -62 -27 -54 -14 15 7
37 28 98 48 136 19 38 34 69 31 69 -2 0 -25 -37 -52 -82z m-48 -177 c-4 -23
-9 -40 -11 -37 -3 3 -2 23 2 46 4 23 9 39 11 37 3 -2 2 -23 -2 -46z m206 -58
c-7 -104 -19 -138 -15 -41 2 56 2 58 -5 18 l-7 -45 -1 48 c-2 41 22 128 31
116 2 -2 1 -45 -3 -96z M3881 4255 c-34 -53 -67 -213 -58 -279 4 -28 3 -35 -3
-21 -12 28 -12 158 0 191 17 43 2 41 -16 -2 -10 -21 -19 -77 -22 -124 -6 -98
-19 -78 -22 35 l-1 70 -15 -40 c-8 -22 -18 -69 -23 -105 l-8 -65 -1 65 c-1 36
5 81 12 100 26 68 27 75 7 40 -31 -54 -44 -127 -33 -179 6 -24 6 -39 1 -34
-11 11 -28 98 -23 121 11 58 13 85 7 79 -3 -4 -12 -35 -20 -70 l-13 -62 5 59
c2 37 11 70 23 85 31 43 35 58 7 26 -40 -46 -78 -114 -91 -164 -11 -39 -13
-42 -13 -16 -1 34 45 137 86 193 l27 37 -27 -25 c-35 -31 -97 -153 -98 -194 0
-30 -1 -30 -11 -8 -8 17 -7 43 5 106 9 46 20 92 23 103 5 16 4 16 -5 2 -14
-21 -41 -135 -41 -172 0 -34 41 -127 66 -147 16 -14 16 -13 4 9 -14 27 -15
103 -2 128 6 11 11 -8 14 -59 3 -41 10 -83 17 -93 11 -18 11 -18 5 5 l-6 25
28 -25 c25 -21 26 -22 10 -2 -20 23 -10 31 14 10 8 -7 5 -2 -6 12 -12 14 -27
35 -33 47 -16 31 -13 53 3 24 7 -13 15 -20 18 -15 3 5 3 3 1 -4 -2 -8 17 -34
42 -58 25 -24 42 -36 37 -26 -5 9 -10 37 -9 62 0 36 1 41 8 22 5 -13 13 -20
19 -17 6 3 13 0 16 -9 3 -8 16 -21 28 -29 l22 -15 -23 46 c-14 27 -23 61 -22
86 l1 41 9 -43 c10 -50 17 -64 30 -57 5 3 6 0 3 -8 -3 -9 4 -22 18 -31 31 -22
42 -20 18 4 -32 32 -23 68 9 38 8 -7 5 0 -5 16 -26 42 -32 179 -9 248 9 29 26
65 37 80 10 16 17 28 13 28 -3 0 -18 -20 -34 -45z m-44 -247 c-3 -8 -6 -5 -6
6 -1 11 2 17 5 13 3 -3 4 -12 1 -19z m-170 -60 c-3 -8 -6 -5 -6 6 -1 11 2 17
5 13 3 -3 4 -12 1 -19z M5920 4294 c0 -12 78 -124 86 -124 3 0 -10 21 -29 48
-19 26 -39 56 -45 67 -6 11 -12 15 -12 9z M6005 4260 c10 -11 20 -20 23 -20 3
0 -3 9 -13 20 -10 11 -20 20 -23 20 -3 0 3 -9 13 -20z M4016 4245 c-3 -9 -6
-22 -5 -28 0 -7 5 -1 10 12 5 13 8 26 5 28 -2 2 -6 -3 -10 -12z M3543 4194
c-24 -50 -28 -72 -28 -146 0 -56 4 -91 12 -99 10 -10 11 -6 3 22 -20 68 -2
186 37 247 8 13 12 26 9 29 -3 4 -18 -21 -33 -53z M4537 4225 c19 -76 -5 -234
-35 -228 -6 2 -19 -13 -28 -32 -8 -19 -23 -40 -32 -47 -9 -7 -6 1 7 20 13 18
24 50 26 70 2 20 6 69 9 107 l6 70 -15 -81 c-17 -95 -30 -134 -46 -134 -6 0
-9 6 -6 13 10 27 29 129 24 133 -3 3 -10 -18 -16 -46 -6 -29 -17 -60 -24 -70
-10 -14 -12 -1 -10 76 1 51 4 103 7 116 3 13 -6 0 -19 -29 -17 -34 -27 -74
-30 -120 l-4 -68 10 62 c5 34 14 72 19 85 17 38 3 -141 -14 -190 -11 -30 -12
-41 -3 -35 7 4 16 8 21 8 5 0 11 7 13 15 4 13 3 13 -6 0 -7 -9 -11 -10 -11 -3
0 21 20 25 28 6 5 -14 18 -18 55 -18 l47 0 23 55 c18 44 22 75 22 155 0 63 -5
107 -13 120 -11 18 -12 17 -5 -10z M4604 4150 c1 -52 -2 -113 -6 -135 l-7 -40
14 40 c14 43 17 150 5 200 -4 18 -6 -7 -6 -65z M4856 4217 c3 -10 9 -15 12
-12 3 3 0 11 -7 18 -10 9 -11 8 -5 -6z M5171 4230 c-1 -3 6 -27 14 -54 17 -56
20 -120 5 -111 -5 3 -10 16 -10 28 0 36 -49 132 -61 120 -7 -7 -7 -22 0 -49
24 -85 7 -187 -44 -267 l-26 -42 26 30 c44 52 67 130 62 210 -3 39 -8 81 -11
95 -3 14 5 3 19 -25 36 -73 35 -154 -5 -231 -22 -43 -25 -52 -9 -34 11 14 32
50 47 80 33 67 37 175 10 225 -10 17 -17 28 -17 25z M6050 4216 c0 -2 8 -10
18 -17 15 -13 16 -12 3 4 -13 16 -21 21 -21 13z M2881 4175 c-2 -54 29 -204
60 -293 67 -192 176 -359 344 -527 157 -157 332 -271 509 -331 105 -36 104
-28 0 10 -124 45 -216 96 -339 189 -296 221 -507 561 -560 902 -7 44 -13 67
-14 50z M3977 4151 c-15 -27 -32 -71 -39 -98 l-12 -48 -7 35 -6 35 -2 -34 c-2
-52 -13 -29 -21 41 l-7 63 -2 -55 c-1 -58 30 -142 62 -169 15 -12 16 -10 6 18
-14 41 -4 124 22 176 10 22 16 31 13 20 -4 -11 -8 -67 -9 -125 l-4 -105 9 95
c4 52 13 117 19 144 7 27 10 50 8 53 -3 2 -16 -18 -30 -46z M4896 4170 c7 -40
7 -35 5 -80 -1 -23 -4 -31 -10 -22 -5 9 -11 0 -16 -30 l-8 -43 -8 73 c-8 70
-27 127 -30 92 0 -8 -5 -4 -9 10 -4 14 -5 -6 -2 -47 3 -40 2 -73 -1 -73 -3 0
-11 26 -17 58 -17 78 -25 90 -25 33 0 -37 -10 -67 -41 -127 -22 -44 -46 -78
-53 -76 -7 1 -10 -2 -7 -7 4 -5 -2 -12 -11 -14 -15 -4 -15 -5 2 -5 11 -1 38 6
60 14 22 8 45 16 50 18 6 1 24 10 42 19 46 24 66 22 58 -5 -6 -22 -5 -22 6 -3
7 11 18 43 25 70 l12 50 1 -45 c0 -25 -8 -65 -19 -90 -27 -62 3 -23 36 45 17
36 23 66 23 105 l-2 55 -7 -63 c-4 -34 -9 -65 -12 -67 -3 -3 -8 23 -10 57 -3
35 -13 79 -22 98 l-16 35 6 -35z m-59 -97 c-2 -16 -4 -5 -4 22 0 28 2 40 4 28
2 -13 2 -35 0 -50z m-66 -72 c-32 -61 -41 -57 -15 7 13 31 24 66 25 77 1 11 4
6 6 -12 3 -19 -4 -47 -16 -72z M4876 4160 c8 -43 14 -51 14 -19 0 13 -5 31
-10 39 -7 11 -8 5 -4 -20z M5057 4128 c9 -33 12 -75 9 -111 -4 -43 -3 -56 6
-51 8 5 9 2 5 -9 -17 -42 -15 -48 3 -10 11 23 22 70 25 105 4 57 4 60 -6 28
l-12 -35 -14 60 c-7 33 -17 63 -22 68 -5 5 -2 -16 6 -45z M5682 4143 c-15 -48
-8 -55 8 -8 7 20 10 38 8 41 -3 2 -10 -13 -16 -33z M4736 4139 c-11 -37 -25
-76 -32 -93 -5 -14 -4 -17 4 -12 16 10 15 1 -7 -45 -21 -43 -9 -44 13 0 16 30
40 150 32 158 -3 3 -7 0 -10 -8z M5014 4077 c-1 -40 -6 -83 -11 -97 -7 -18 -9
-2 -7 60 4 88 -1 85 -26 -12 -7 -26 -28 -71 -47 -100 -29 -44 -31 -49 -10 -30
14 13 31 37 37 53 7 16 16 29 21 29 13 0 11 -6 -12 -51 -11 -23 -18 -43 -16
-45 6 -6 46 43 72 87 l19 34 4 -27 c2 -14 -6 -45 -18 -68 -27 -53 -22 -60 9
-14 25 36 27 55 21 189 -2 39 -3 39 -10 10 -7 -28 -8 -29 -10 -5 -4 61 -15 53
-16 -13z m-33 -140 c-10 -9 -11 -8 -5 6 3 10 9 15 12 12 3 -3 0 -11 -7 -18z
M4503 4088 c-7 -24 -14 -52 -18 -63 -4 -13 -1 -12 8 5 15 25 33 100 25 100 -2
0 -9 -19 -15 -42z M3431 4094 c0 -11 3 -14 6 -6 3 7 2 16 -1 19 -3 4 -6 -2 -5
-13z M4326 4063 c-3 -27 -2 -66 3 -88 7 -34 9 -27 10 48 0 48 -1 87 -3 87 -2
0 -7 -21 -10 -47z M6300 4089 c-22 -18 -22 -19 -3 -10 12 6 25 16 28 21 9 15
3 12 -25 -11z M4576 4063 c-3 -21 -17 -63 -29 -94 -20 -47 -21 -56 -8 -56 21
0 40 27 33 46 -3 8 -1 12 4 9 5 -4 10 24 12 63 3 76 -2 89 -12 32z M4686 4056
c-4 -24 -21 -65 -38 -92 -24 -39 -26 -45 -8 -29 33 29 54 74 57 123 4 55 -3
54 -11 -2z M3471 4047 c-2 -75 44 -157 88 -157 10 0 6 5 -8 13 -35 17 -63 70
-71 135 l-7 57 -2 -48z M4643 4060 c-4 -14 -23 -58 -43 -98 l-37 -73 38 37
c29 29 41 50 50 91 11 54 4 90 -8 43z M6034 4049 c10 -6 48 -13 85 -15 l66 -3
-60 8 c-33 4 -71 11 -85 15 -22 6 -23 6 -6 -5z M6198 4043 c7 -3 16 -2 19 1 4
3 -2 6 -13 5 -11 0 -14 -3 -6 -6z M5208 4025 c-3 -11 -9 -29 -13 -40 -3 -11 1
-7 10 8 9 16 15 33 12 40 -2 6 -6 3 -9 -8z M5659 4013 c-13 -16 -12 -17 4 -4
9 7 17 15 17 17 0 8 -8 3 -21 -13z M3876 3990 c8 -30 56 -99 68 -100 5 0 2 8
-7 18 -8 9 -27 37 -42 62 -15 26 -23 34 -19 20z M5515 3990 c18 -30 171 -38
198 -11 7 7 0 8 -24 1 -48 -14 -104 -12 -145 5 -19 8 -32 10 -29 5z M4090
3965 c0 -5 5 -17 10 -25 5 -8 10 -10 10 -5 0 6 -5 17 -10 25 -5 8 -10 11 -10
5z M5759 3953 c-13 -16 -12 -17 4 -4 16 13 21 21 13 21 -2 0 -10 -8 -17 -17z
M5452 3930 c0 -19 2 -27 5 -17 2 9 2 25 0 35 -3 9 -5 1 -5 -18z M3770 3891 c0
-7 -5 -9 -11 -5 -21 13 -3 -19 18 -33 28 -19 36 -3 12 26 -10 13 -19 18 -19
12z m21 -28 c13 -16 12 -17 -3 -4 -17 13 -22 21 -14 21 2 0 10 -8 17 -17z
M4465 3798 c-77 -4 -174 -12 -215 -17 l-75 -8 125 -2 c73 -2 117 -6 105 -10
-38 -15 37 -23 111 -11 86 14 98 24 19 16 -59 -5 -58 -5 15 9 41 8 93 19 115
24 l40 9 -50 -1 c-27 0 -113 -4 -190 -9z m52 -14 c-3 -3 -12 -4 -19 -1 -8 3
-5 6 6 6 11 1 17 -2 13 -5z M4138 3783 c6 -2 18 -2 25 0 6 3 1 5 -13 5 -14 0
-19 -2 -12 -5z M4390 3620 c-25 -5 -63 -16 -85 -24 -22 -9 -29 -14 -15 -11 43
9 223 34 270 38 25 2 7 4 -40 4 -47 0 -105 -3 -130 -7z M4623 3613 c9 -2 25
-2 35 0 9 3 1 5 -18 5 -19 0 -27 -2 -17 -5z M3515 3055 c43 -34 217 -116 301
-141 79 -24 108 -27 254 -29 l165 -3 -150 7 c-197 10 -296 38 -508 141 -45 23
-73 34 -62 25z M3898 2993 c6 -2 18 -2 25 0 6 3 1 5 -13 5 -14 0 -19 -2 -12
-5z M3958 2983 c7 -3 16 -2 19 1 4 3 -2 6 -13 5 -11 0 -14 -3 -6 -6z M4038
2973 c7 -3 16 -2 19 1 4 3 -2 6 -13 5 -11 0 -14 -3 -6 -6z M3705 2880 c3 -5
42 -23 87 -40 103 -40 234 -57 333 -43 l70 9 -110 1 c-121 1 -238 22 -328 58
-31 13 -55 20 -52 15z M4208 2813 c6 -2 18 -2 25 0 6 3 1 5 -13 5 -14 0 -19
-2 -12 -5z M4527 2299 c-35 -21 -46 -68 -40 -172 3 -54 11 -100 16 -104 7 -4
8 26 4 88 -8 117 -1 149 41 170 17 9 29 19 25 23 -9 9 -25 7 -46 -5z M4570
1997 c-34 -16 -70 -91 -70 -144 0 -87 55 -196 117 -230 96 -52 165 95 113 239
-28 77 -53 114 -90 133 -35 18 -38 18 -70 2z m82 -37 c58 -45 95 -209 65 -282
-29 -70 -97 -60 -149 22 -37 58 -51 112 -46 177 8 90 71 130 130 83z M4572
1925 c-17 -36 -15 -129 3 -172 23 -54 63 -103 86 -103 27 0 24 17 -6 24 -56
14 -103 160 -76 237 14 39 9 49 -7 14z M4646 1430 c15 -110 113 -359 205 -523
184 -327 381 -597 593 -811 102 -103 73 -42 -36 76 -357 387 -630 832 -739
1203 -17 59 -27 82 -23 55z"/>
</g>
</svg>
