<?xml version="1.0" standalone="no"?>
<!DOCTYPE svg PUBLIC "-//W3C//DTD SVG 20010904//EN"
 "http://www.w3.org/TR/2001/REC-SVG-20010904/DTD/svg10.dtd">
<svg version="1.0" xmlns="http://www.w3.org/2000/svg"
 width="220.000000pt" height="400.000000pt" viewBox="0 0 220.000000 400.000000"
 preserveAspectRatio="xMidYMid meet">
<metadata>
Created by potrace 1.16, written by Peter Selinger 2001-2019
</metadata>
<g transform="translate(0.000000,400.000000) scale(0.100000,-0.100000)"
fill="#000000" stroke="none">
<path d="M479 2995 c-115 -37 -195 -124 -243 -265 -32 -95 -44 -164 -52 -301
l-7 -109 35 0 35 0 11 78 c21 147 72 240 155 285 59 30 175 31 233 0 49 -26
96 -77 128 -141 84 -166 171 -534 281 -1181 l26 -154 -55 -127 c-120 -278
-170 -476 -171 -670 0 -108 3 -131 22 -172 54 -118 188 -118 259 0 66 108 90
295 80 612 -4 118 -11 251 -15 295 l-8 80 417 880 417 880 -210 3 c-115 1
-212 0 -215 -2 -2 -3 -100 -333 -216 -733 l-211 -729 -38 266 c-118 824 -208
1091 -404 1186 -68 34 -182 42 -254 19z"/>
</g>
</svg>
