<?xml version="1.0" standalone="no"?>
<!DOCTYPE svg PUBLIC "-//W3C//DTD SVG 20010904//EN"
 "http://www.w3.org/TR/2001/REC-SVG-20010904/DTD/svg10.dtd">
<svg version="1.0" xmlns="http://www.w3.org/2000/svg"
 width="225.000000pt" height="225.000000pt" viewBox="0 0 225.000000 225.000000"
 preserveAspectRatio="xMidYMid meet">
<metadata>
Created by potrace 1.16, written by Peter Selinger 2001-2019
</metadata>
<g transform="translate(0.000000,225.000000) scale(0.100000,-0.100000)"
fill="#000000" stroke="none">
<path d="M1802 2045 c-28 -20 -256 -68 -437 -92 -150 -19 -159 -19 -203 -9
-52 12 -40 -17 26 -64 54 -39 60 -41 107 -36 62 8 175 29 321 62 143 31 172
31 178 2 11 -58 26 -285 26 -400 l0 -127 -62 -73 c-220 -258 -445 -498 -468
-498 -9 0 -44 9 -79 21 -34 12 -65 18 -68 15 -4 -4 -1 -21 5 -39 7 -19 12 -45
12 -59 0 -14 7 -31 15 -38 9 -7 27 -37 41 -66 21 -45 31 -55 62 -64 20 -5 44
-10 53 -10 29 0 56 33 79 94 11 33 38 80 59 105 21 25 56 73 79 106 23 33 50
71 61 85 44 59 145 225 174 288 l32 67 3 -305 c3 -294 -10 -586 -28 -603 -4
-5 -90 -4 -190 3 -100 7 -184 9 -187 6 -3 -3 11 -13 33 -21 84 -33 111 -54
198 -153 72 -82 98 -104 128 -113 22 -5 48 -7 58 -4 32 10 119 113 128 153 5
20 10 228 11 462 1 234 6 486 11 560 6 74 10 216 10 316 0 188 8 237 41 255
65 34 -55 167 -166 184 -29 5 -46 2 -63 -10z M852 2008 c-6 -6 -53 -17 -104
-24 -51 -7 -180 -28 -285 -48 -106 -20 -218 -39 -248 -42 -30 -4 -55 -10 -55
-13 0 -10 175 -91 196 -91 9 0 40 7 68 15 101 28 312 74 373 80 53 5 62 3 67
-12 10 -37 9 -578 -2 -818 -20 -410 -30 -535 -50 -575 l-17 -35 -155 3 -155 4
32 -31 c18 -17 58 -46 90 -65 32 -19 85 -59 118 -89 65 -59 119 -82 151 -64
36 19 66 52 92 102 l25 50 3 530 c4 642 10 845 27 877 6 13 24 39 40 59 15 20
27 41 27 47 0 17 -116 131 -145 142 -35 13 -78 13 -93 -2z M1190 1612 c0 -4
25 -32 56 -62 31 -30 80 -91 109 -135 63 -95 99 -131 141 -139 37 -8 59 13 66
64 8 56 -15 116 -65 164 -57 57 -111 84 -204 102 -86 16 -103 17 -103 6z M250
1522 c0 -5 39 -41 88 -80 48 -39 121 -105 162 -146 82 -84 101 -90 158 -56 69
43 58 118 -27 171 -106 68 -381 147 -381 111z M798 1212 c-41 -41 -51 -50
-184 -167 -50 -44 -142 -126 -204 -182 -68 -62 -121 -103 -134 -103 -12 0 -36
9 -54 20 -59 36 -66 30 -58 -52 7 -68 10 -75 57 -127 27 -30 49 -58 49 -62 0
-12 86 -41 111 -37 18 2 25 11 30 38 11 61 55 143 121 225 35 44 96 123 135
175 40 53 87 111 106 130 51 51 77 100 77 143 0 20 -3 37 -7 37 -5 0 -25 -17
-45 -38z"/>
</g>
</svg>
