<?xml version="1.0" standalone="no"?>
<!DOCTYPE svg PUBLIC "-//W3C//DTD SVG 20010904//EN"
 "http://www.w3.org/TR/2001/REC-SVG-20010904/DTD/svg10.dtd">
<svg version="1.0" xmlns="http://www.w3.org/2000/svg"
 width="778.000000pt" height="341.000000pt" viewBox="0 0 778.000000 341.000000"
 preserveAspectRatio="xMidYMid meet">
<metadata>
Created by potrace 1.16, written by Peter Selinger 2001-2019
</metadata>
<g transform="translate(0.000000,341.000000) scale(0.100000,-0.100000)"
fill="#000000" stroke="none">
<path d="M86 3275 c-30 -30 -32 -118 -4 -152 14 -18 63 -16 78 2 8 9 9 15 2
15 -6 0 -14 -4 -17 -10 -9 -15 -31 -12 -49 6 -21 21 -22 107 -1 124 9 8 27 10
46 6 27 -5 30 -4 19 9 -16 19 -54 19 -74 0z M4150 3270 c-27 -27 -28 -119 -2
-143 28 -25 69 -21 88 8 22 34 15 122 -12 142 -25 19 -51 16 -74 -7z m74 -16
c3 -9 6 -38 6 -65 0 -43 -3 -51 -25 -61 -39 -17 -55 3 -55 72 0 31 3 60 7 63
13 13 61 7 67 -9z M4500 3269 c0 -5 5 -7 10 -4 6 3 10 8 10 11 0 2 -4 4 -10 4
-5 0 -10 -5 -10 -11z M981 3253 c0 -13 -6 -23 -13 -23 -9 0 -9 -3 0 -12 7 -7
12 -28 12 -48 0 -37 14 -60 37 -60 20 0 15 17 -7 23 -27 7 -28 71 -2 86 15 9
16 10 0 11 -9 0 -19 10 -21 23 l-4 22 -2 -22z M1321 3253 c0 -13 -6 -23 -13
-23 -9 0 -9 -3 0 -12 7 -7 12 -28 12 -48 0 -37 14 -60 37 -60 20 0 15 17 -7
23 -27 7 -28 71 -2 86 15 9 16 10 0 11 -9 0 -19 10 -21 23 l-4 22 -2 -22z
M4421 3253 c0 -13 -6 -23 -13 -23 -9 0 -9 -3 0 -12 7 -7 12 -28 12 -48 0 -37
14 -60 37 -60 20 0 15 17 -7 23 -27 7 -28 71 -2 86 15 9 16 10 0 11 -9 0 -19
10 -21 23 l-4 22 -2 -22z M198 3205 c-22 -49 21 -113 60 -89 26 17 38 59 24
89 -9 19 -19 25 -42 25 -23 0 -33 -6 -42 -25z m67 -30 c0 -36 -2 -40 -25 -40
-20 0 -26 6 -28 28 -5 42 5 59 30 55 20 -3 23 -9 23 -43z M327 3175 c6 -69 11
-79 12 -24 1 48 11 63 46 72 11 2 2 4 -21 4 l-41 -1 4 -51z M421 3211 c-16
-29 -13 -56 7 -81 15 -19 24 -22 48 -15 l29 9 -35 5 c-22 4 -36 12 -38 24 -3
14 4 17 33 17 34 0 36 2 33 28 -2 22 -8 28 -35 30 -23 2 -34 -2 -42 -17z m67
-13 c3 -14 -3 -18 -27 -18 -29 0 -41 17 -24 34 13 13 48 1 51 -16z M616 3214
c-3 -9 -6 -31 -6 -50 0 -27 5 -37 25 -46 19 -9 28 -9 37 0 9 9 6 12 -15 12
-20 0 -28 6 -33 27 -8 32 5 55 37 64 22 6 21 7 -7 8 -21 1 -34 -5 -38 -15z
M722 3218 c-28 -28 -5 -108 32 -108 31 0 47 26 44 70 -3 42 -5 45 -33 48 -17
2 -36 -3 -43 -10z m64 -22 c10 -41 1 -61 -29 -64 -25 -3 -27 -1 -27 36 0 43 5
52 31 52 11 0 21 -10 25 -24z M838 3183 c5 -73 15 -84 22 -23 5 51 7 55 30 55
23 0 25 -4 28 -55 2 -30 6 -49 10 -43 4 6 5 34 4 62 l-4 51 -47 0 -46 0 3 -47z
M1061 3211 c-16 -29 -13 -56 7 -81 15 -19 24 -22 48 -15 l29 9 -35 5 c-22 4
-36 12 -38 24 -3 14 4 17 33 17 34 0 36 2 33 28 -2 22 -8 28 -35 30 -23 2 -34
-2 -42 -17z m67 -13 c3 -14 -3 -18 -27 -18 -29 0 -41 17 -24 34 13 13 48 1 51
-16z M1178 3174 c5 -67 20 -71 24 -6 3 40 6 47 25 50 24 3 29 -7 36 -78 3 -19
4 -8 3 25 l-1 60 -45 1 -45 2 3 -54z M4288 3150 c2 -46 8 -78 13 -75 5 4 9 14
9 25 0 13 5 17 19 13 25 -6 51 22 51 57 0 50 -9 60 -54 60 l-41 0 3 -80z m70
22 c3 -39 1 -42 -22 -42 -23 0 -26 4 -26 38 0 43 7 54 30 50 10 -2 16 -17 18
-46z M4503 3170 c0 -36 2 -50 4 -32 2 17 2 47 0 65 -2 17 -4 3 -4 -33z M4562
3218 c-28 -28 -5 -108 32 -108 31 0 47 26 44 70 -3 42 -5 45 -33 48 -17 2 -36
-3 -43 -10z m64 -22 c10 -41 1 -61 -29 -64 -25 -3 -27 -1 -27 36 0 43 5 52 31
52 11 0 21 -10 25 -24z M4678 3183 c5 -73 15 -84 22 -23 5 51 7 55 30 55 23 0
25 -4 28 -55 2 -30 6 -49 10 -43 4 6 5 34 4 62 l-4 51 -47 0 -46 0 3 -47z
M4817 3223 c-16 -15 -5 -40 24 -54 42 -18 42 -33 1 -37 -36 -4 -34 -22 2 -22
51 0 63 52 16 69 -38 13 -39 38 -2 44 26 4 26 4 -4 6 -17 0 -34 -2 -37 -6z
M77 2966 c-15 -11 -15 -15 -3 -19 9 -4 16 -23 19 -49 3 -35 4 -31 5 20 1 34 1
62 0 62 -2 0 -11 -7 -21 -14z M412 2918 l1 -63 7 55 c4 30 7 49 8 41 1 -8 4
-12 7 -9 8 7 -5 38 -16 38 -5 0 -8 -28 -7 -62z M504 2969 c-3 -6 -2 -14 4 -18
6 -3 12 -27 15 -51 3 -38 4 -36 5 18 2 58 -7 77 -24 51z M1829 2958 c-4 -72
-3 -90 4 -95 4 -2 7 23 7 56 0 58 -9 87 -11 39z M2782 2955 c-15 -32 -15 -62
1 -98 11 -26 12 -21 12 47 0 42 0 76 -1 76 0 0 -6 -11 -12 -25z M3267 2966
c-15 -11 -15 -15 -3 -19 9 -4 16 -23 19 -49 3 -35 4 -31 5 20 1 34 1 62 0 62
-2 0 -11 -7 -21 -14z M3351 2966 c-7 -8 -11 -34 -9 -58 3 -40 5 -43 33 -43 23
0 32 6 39 28 20 56 -29 114 -63 73z m47 -41 c4 -45 -10 -64 -33 -45 -18 15
-20 61 -3 78 20 20 33 8 36 -33z M3435 2905 c0 -63 2 -71 12 -52 7 12 12 36
12 52 0 17 -5 40 -12 52 -10 19 -12 11 -12 -52z M4127 2973 c-4 -3 -7 -19 -7
-34 0 -28 28 -47 50 -34 5 3 10 -1 10 -10 0 -22 -27 -30 -47 -14 -14 12 -16
12 -11 -1 3 -9 17 -15 33 -15 24 0 31 6 38 30 12 43 -6 85 -36 85 -13 0 -27
-3 -30 -7z m53 -27 c0 -22 -22 -37 -37 -25 -16 14 -17 36 0 42 17 6 37 -3 37
-17z M4507 2974 c-11 -11 -8 -24 4 -21 6 1 15 -8 20 -20 7 -21 5 -23 -20 -23
-17 0 -31 -6 -35 -16 -9 -24 -7 -31 5 -11 14 24 53 21 73 -5 12 -17 11 -9 -5
32 -22 60 -32 74 -42 64z M5576 2971 c-4 -6 -3 -11 3 -11 5 0 13 -9 16 -21 4
-11 9 -18 12 -16 2 3 -2 18 -10 33 -9 17 -17 23 -21 15z M5723 2920 c0 -36 2
-50 4 -32 2 17 2 47 0 65 -2 17 -4 3 -4 -33z M6023 2920 c0 -36 2 -50 4 -32 2
17 2 47 0 65 -2 17 -4 3 -4 -33z M6303 2920 c0 -36 2 -50 4 -32 2 17 2 47 0
65 -2 17 -4 3 -4 -33z M6523 2968 c-20 -25 -23 -68 -9 -103 20 -46 26 -44 13
4 -8 28 -8 50 0 75 12 39 11 43 -4 24z M7002 2940 l-34 -45 31 -3 c18 -2 32
-10 34 -20 4 -15 5 -15 6 1 0 9 7 17 14 17 9 0 9 2 0 8 -6 4 -13 25 -15 47
l-3 40 -33 -45z m25 -37 c-3 -3 -13 -3 -21 -1 -15 3 -15 6 1 28 l18 25 3 -23
c2 -13 1 -26 -1 -29z M7078 2950 c-4 -24 -1 -30 11 -29 32 3 41 -1 41 -20 0
-26 -17 -36 -36 -20 -17 14 -33 4 -17 -12 15 -15 54 -7 67 14 14 22 -3 51 -33
55 -28 4 -22 24 10 33 22 6 21 7 -7 8 -28 1 -32 -3 -36 -29z M7167 2960 c4
-14 8 -38 8 -55 0 -16 -4 -41 -8 -55 -8 -24 -7 -24 7 -6 9 11 16 38 16 61 0
23 -7 50 -16 61 -14 18 -15 18 -7 -6z M1401 2960 c-4 -21 0 -94 5 -99 8 -9 9
5 3 59 -3 30 -7 48 -8 40z M1921 2960 c-4 -21 0 -94 5 -99 8 -9 9 5 3 59 -3
30 -7 48 -8 40z M4670 2925 c0 -27 2 -46 5 -44 7 8 9 78 2 85 -4 4 -7 -14 -7
-41z M581 2947 c2 -1 13 -9 24 -17 19 -14 19 -14 6 3 -7 9 -18 17 -24 17 -6 0
-8 -1 -6 -3z M683 2944 c11 -4 17 -16 17 -35 0 -32 -24 -49 -42 -31 -8 8 -5
14 13 21 15 6 18 10 8 10 -21 1 -40 -21 -30 -37 4 -6 20 -11 37 -9 29 2 29 3
24 42 -4 30 -10 40 -25 42 -16 1 -16 1 -2 -3z M747 2943 c-3 -5 5 -8 18 -8 13
0 21 3 18 8 -2 4 -10 7 -18 7 -8 0 -16 -3 -18 -7z M1013 2939 c25 -15 21 -29
-9 -29 -20 0 -25 4 -20 16 3 8 2 12 -4 9 -14 -9 -13 -48 2 -63 7 -7 19 -12 27
-11 10 0 7 4 -6 9 -33 13 -28 30 7 30 18 0 30 5 30 13 0 16 -20 37 -34 37 -6
0 -3 -5 7 -11z M1106 2936 c10 -8 21 -12 24 -10 5 6 -21 24 -34 24 -6 0 -1 -6
10 -14z M1158 2938 c6 -7 12 -29 15 -48 4 -34 4 -34 5 6 2 31 -2 44 -14 48
-13 5 -14 3 -6 -6z M1219 2933 c-13 -17 -13 -17 6 -3 11 8 22 16 24 17 2 2 0
3 -6 3 -6 0 -17 -8 -24 -17z M1330 2946 c0 -2 7 -7 16 -10 8 -3 12 -2 9 4 -6
10 -25 14 -25 6z M1450 2935 c-15 -18 -15 -17 28 -38 18 -8 30 -11 26 -6 -3 6
-18 15 -32 20 -26 10 -26 11 -8 25 11 8 15 14 9 14 -6 0 -16 -7 -23 -15z
M1613 2944 c11 -4 17 -16 17 -35 0 -32 -24 -49 -42 -31 -8 8 -5 14 13 21 15 6
18 10 8 10 -21 1 -40 -21 -30 -37 4 -6 20 -11 37 -9 29 2 29 3 24 42 -4 30
-10 40 -25 42 -16 1 -16 1 -2 -3z M1700 2946 c0 -2 7 -7 16 -10 8 -3 12 -2 9
4 -6 10 -25 14 -25 6z M2007 2943 c6 -4 13 -26 16 -48 4 -40 4 -40 3 4 -1 30
-6 46 -16 48 -10 3 -11 2 -3 -4z M2069 2933 c-13 -17 -13 -17 6 -3 11 8 22 16
24 17 2 2 0 3 -6 3 -6 0 -17 -8 -24 -17z M2333 2939 c25 -15 21 -29 -9 -29
-20 0 -25 4 -20 16 3 8 2 12 -4 9 -14 -9 -13 -48 2 -63 7 -7 19 -12 28 -11 9
0 6 4 -7 9 -33 13 -28 30 7 30 18 0 30 5 30 13 0 16 -20 37 -34 37 -6 0 -3 -5
7 -11z M2405 2940 c-4 -6 -11 -8 -16 -5 -5 4 -8 -12 -8 -37 2 -34 3 -37 6 -13
3 17 12 38 20 48 9 9 13 17 10 17 -3 0 -9 -5 -12 -10z M2502 2938 c-16 -16
-15 -53 3 -68 18 -15 47 -10 53 10 5 13 3 13 -11 1 -23 -19 -47 -7 -47 24 0
30 24 43 45 25 9 -7 15 -8 15 -2 0 9 -22 22 -39 22 -4 0 -12 -5 -19 -12z
M2650 2935 c-15 -18 -15 -17 28 -38 18 -8 30 -11 26 -6 -3 6 -18 15 -32 20
-26 10 -26 11 -8 25 11 8 15 14 9 14 -6 0 -16 -7 -23 -15z M2821 2885 c1 -33
3 -52 6 -42 3 10 14 17 27 17 28 0 46 18 46 46 0 28 -21 45 -54 42 -25 -2 -26
-4 -25 -63z m58 36 c7 -13 6 -24 -3 -37 -12 -15 -16 -16 -30 -5 -19 16 -20 33
-4 49 17 17 26 15 37 -7z M2927 2943 c-14 -13 -7 -25 8 -13 8 6 19 9 25 5 16
-10 12 -25 -9 -25 -22 0 -45 -25 -36 -40 3 -5 23 -10 45 -10 31 0 37 3 35 18
-14 69 -16 72 -39 72 -12 0 -26 -3 -29 -7z m43 -53 c0 -12 -28 -25 -36 -17 -9
9 6 27 22 27 8 0 14 -5 14 -10z M3020 2935 c-6 -8 -10 -26 -8 -42 2 -23 8 -28
31 -28 17 1 27 -4 27 -13 0 -11 -8 -13 -32 -8 -31 5 -32 5 -14 -9 25 -19 31
-19 50 1 10 10 16 33 16 63 0 46 -1 48 -29 49 -16 0 -35 -6 -41 -13z m45 -31
c0 -32 -21 -39 -38 -12 -8 12 -7 21 3 32 19 24 35 14 35 -20z M3116 2934 c-19
-19 -20 -35 -3 -58 15 -21 58 -18 65 4 5 13 3 13 -11 1 -18 -14 -47 -9 -47 9
0 5 14 10 30 10 31 0 39 17 18 38 -16 16 -33 15 -52 -4z m35 -22 c-28 -4 -40
6 -21 18 9 6 20 4 29 -3 12 -10 11 -13 -8 -15z M4590 2935 c-15 -18 -15 -17
28 -38 18 -8 30 -11 26 -6 -3 6 -18 15 -32 20 -26 10 -26 11 -8 25 11 8 15 14
9 14 -6 0 -16 -7 -23 -15z M4745 2940 c-4 -6 -11 -8 -16 -5 -5 4 -8 -12 -8
-37 2 -34 3 -37 6 -13 3 17 12 38 20 48 9 9 13 17 10 17 -3 0 -9 -5 -12 -10z
M4792 2942 c-8 -6 -2 -9 18 -9 20 0 26 3 18 9 -7 4 -15 8 -18 8 -3 0 -11 -4
-18 -8z M5017 2943 c6 -4 13 -26 16 -48 4 -40 4 -40 3 4 -1 30 -6 46 -16 48
-10 3 -11 2 -3 -4z M5180 2940 c8 -5 20 -10 25 -10 6 0 3 5 -5 10 -8 5 -19 10
-25 10 -5 0 -3 -5 5 -10z M5316 2936 c10 -8 21 -12 24 -10 5 6 -21 24 -34 24
-6 0 -1 -6 10 -14z M5370 2935 c-15 -18 -15 -17 28 -38 18 -8 30 -11 26 -6 -3
6 -18 15 -32 20 -26 10 -26 11 -8 25 11 8 15 14 9 14 -6 0 -16 -7 -23 -15z
M5501 2934 c0 -11 3 -14 6 -6 3 7 2 16 -1 19 -3 4 -6 -2 -5 -13z M5781 2947
c2 -1 13 -9 24 -17 19 -14 19 -14 6 3 -7 9 -18 17 -24 17 -6 0 -8 -1 -6 -3z
M5973 2939 c25 -15 21 -29 -9 -29 -20 0 -25 4 -20 16 3 8 2 12 -4 9 -14 -9
-13 -48 2 -63 7 -7 19 -12 28 -11 9 0 6 4 -7 9 -33 13 -28 30 7 30 18 0 30 5
30 13 0 16 -20 37 -34 37 -6 0 -3 -5 7 -11z M6123 2943 c-7 -2 -13 -9 -13 -15
0 -6 6 -6 15 2 23 19 47 4 43 -27 -3 -31 -34 -44 -50 -21 -8 10 -9 10 -5 -2
10 -37 67 -16 67 24 0 36 -25 53 -57 39z M6223 2943 c-7 -2 -13 -10 -13 -16 0
-8 4 -7 12 1 22 22 37 13 41 -28 l4 -40 -1 42 c-1 43 -13 54 -43 41z M6555
2942 c-9 -10 -5 -112 5 -112 6 0 10 7 10 15 0 9 9 15 24 15 34 0 52 25 40 58
-8 21 -16 27 -42 28 -17 1 -34 -1 -37 -4z m63 -41 c-4 -35 -41 -37 -46 -2 -4
26 13 42 35 34 8 -3 13 -16 11 -32z M6660 2935 c-15 -18 0 -21 18 -3 9 9 15 9
24 0 9 -9 7 -13 -5 -17 -9 -3 -24 -7 -33 -10 -8 -3 -14 -13 -12 -22 2 -13 14
-18 39 -19 l35 -2 -5 42 c-5 32 -11 42 -27 44 -11 2 -27 -4 -34 -13z m48 -47
c-7 -19 -38 -22 -38 -4 0 10 9 16 21 16 12 0 19 -5 17 -12z M6752 2938 c-27
-27 -7 -78 30 -78 10 0 18 -5 18 -11 0 -7 -11 -9 -30 -5 -35 6 -39 1 -10 -14
14 -8 26 -8 40 0 16 9 20 21 20 63 0 51 -1 53 -28 55 -15 1 -33 -3 -40 -10z
m47 -17 c7 -13 6 -23 -3 -36 -16 -22 -36 -12 -36 19 0 39 22 49 39 17z M6851
2936 c-7 -8 -11 -27 -9 -43 2 -24 8 -28 32 -28 17 0 31 6 34 15 5 13 3 13 -11
1 -18 -14 -47 -9 -47 9 0 5 16 10 35 10 38 0 40 2 25 31 -13 22 -43 25 -59 5z
m49 -17 c0 -5 -12 -9 -26 -9 -22 0 -24 2 -14 14 12 15 40 11 40 -5z M878 2908
c-2 -27 -7 -33 -25 -32 -12 0 -20 -3 -17 -8 3 -4 16 -7 29 -6 22 2 25 7 25 40
0 47 -8 50 -12 6z M923 2900 c0 -25 2 -35 4 -22 2 12 2 32 0 45 -2 12 -4 2 -4
-23z M1060 2900 c0 -22 2 -40 4 -40 2 0 6 18 8 40 2 22 0 40 -4 40 -5 0 -8
-18 -8 -40z M1300 2900 c0 -22 2 -40 4 -40 2 0 6 18 8 40 2 22 0 40 -4 40 -5
0 -8 -18 -8 -40z M1670 2900 c0 -22 2 -40 4 -40 2 0 6 18 8 40 2 22 0 40 -4
40 -5 0 -8 -18 -8 -40z M1767 2933 c-22 -21 2 -74 33 -72 9 0 5 4 -9 10 -19 7
-22 15 -19 39 5 32 5 33 -5 23z M1970 2929 c0 -5 5 -7 10 -4 6 3 10 8 10 11 0
2 -4 4 -10 4 -5 0 -10 -5 -10 -11z M2153 2900 c0 -25 2 -35 4 -22 2 12 2 32 0
45 -2 12 -4 2 -4 -23z M2193 2900 c0 -25 2 -35 4 -22 2 12 2 32 0 45 -2 12 -4
2 -4 -23z M2443 2900 c0 -25 2 -35 4 -22 2 12 2 32 0 45 -2 12 -4 2 -4 -23z
M2593 2900 c0 -25 2 -35 4 -22 2 12 2 32 0 45 -2 12 -4 2 -4 -23z M4870 2895
l0 -45 -207 0 c-113 0 -204 -2 -201 -5 4 -4 1208 -7 1942 -5 27 0 46 3 42 7
-4 4 -23 6 -43 5 -26 -2 -34 1 -30 10 2 7 -2 19 -10 26 -12 12 -13 10 -7 -12
l6 -26 -632 0 c-503 0 -631 3 -627 13 2 6 -2 18 -10 25 -12 12 -13 10 -7 -12
l6 -26 -105 0 -106 0 2 45 c1 25 -1 45 -5 45 -5 0 -8 -20 -8 -45z M4980 2929
c0 -5 5 -7 10 -4 6 3 10 8 10 11 0 2 -4 4 -10 4 -5 0 -10 -5 -10 -11z M5066
2927 c3 -10 9 -15 12 -12 3 3 0 11 -7 18 -10 9 -11 8 -5 -6z M5151 2924 c0
-11 3 -14 6 -6 3 7 2 16 -1 19 -3 4 -6 -2 -5 -13z M5243 2900 c0 -25 2 -35 4
-22 2 12 2 32 0 45 -2 12 -4 2 -4 -23z M6336 2927 c3 -10 9 -15 12 -12 3 3 0
11 -7 18 -10 9 -11 8 -5 -6z M6433 2905 c0 -22 2 -30 4 -17 2 12 2 30 0 40 -3
9 -5 -1 -4 -23z M440 2925 c0 -5 5 -17 10 -25 5 -8 10 -10 10 -5 0 6 -5 17
-10 25 -5 8 -10 11 -10 5z M550 2900 c0 -31 49 -55 64 -32 2 4 -7 8 -21 7 -39
0 -40 23 -1 27 l33 3 -37 6 c-30 4 -38 2 -38 -11z M748 2908 c5 -5 16 -8 23
-6 8 3 3 7 -10 11 -17 4 -21 3 -13 -5z M1235 2910 l-40 -7 43 -2 c23 0 42 4
42 9 0 6 -1 9 -2 9 -2 -1 -21 -5 -43 -9z M2085 2910 l-40 -7 43 -2 c23 0 42 4
42 9 0 6 -1 9 -2 9 -2 -1 -21 -5 -43 -9z M4773 2901 c1 -13 10 -29 20 -35 23
-15 51 3 54 35 2 24 2 24 -5 -1 -6 -18 -15 -25 -32 -25 -17 0 -26 7 -32 25 -7
25 -7 25 -5 1z M4941 2902 c-1 -13 -10 -26 -23 -32 -16 -6 -18 -9 -7 -9 22 -1
42 24 36 46 -4 14 -5 13 -6 -5z M5271 2904 c-2 -40 56 -61 66 -24 4 12 3 12
-5 2 -14 -21 -45 -10 -53 18 -6 22 -7 23 -8 4z M5541 2888 c-6 -18 -7 -26 -1
-23 6 4 10 13 10 21 0 9 11 14 30 14 22 0 33 -6 40 -22 5 -13 9 -16 9 -8 1 25
-12 37 -46 42 -28 4 -34 1 -42 -24z M5750 2900 c0 -31 49 -55 64 -32 2 4 -7 8
-21 7 -39 0 -40 23 -1 27 l33 3 -37 6 c-30 4 -38 2 -38 -11z M5170 2906 c0 -2
9 -6 20 -9 11 -3 18 -1 14 4 -5 9 -34 13 -34 5z M5658 2903 c6 -2 18 -2 25 0
6 3 1 5 -13 5 -14 0 -19 -2 -12 -5z M790 2886 c0 -14 -6 -17 -25 -14 -13 3
-22 1 -19 -3 9 -15 44 -10 51 6 3 9 3 19 -1 22 -3 4 -6 -2 -6 -11z M5502 2880
c0 -14 2 -19 5 -12 2 6 2 18 0 25 -3 6 -5 1 -5 -13z M5860 2893 c0 -15 18 -35
23 -27 3 5 -1 15 -9 22 -8 7 -14 9 -14 5z M467 2883 c-4 -3 -7 -11 -7 -17 0
-6 5 -5 12 2 6 6 9 14 7 17 -3 3 -9 2 -12 -2z M1213 2880 c5 -18 35 -26 50
-11 7 7 3 8 -13 4 -13 -4 -26 0 -32 8 -8 12 -9 11 -5 -1z M2063 2880 c5 -18
35 -26 50 -11 7 7 3 8 -13 4 -13 -4 -26 0 -32 8 -8 12 -9 11 -5 -1z M1448
2868 c6 -6 18 -8 28 -6 14 3 12 5 -9 10 -19 3 -25 2 -19 -4z M2648 2868 c6 -6
18 -8 28 -6 14 3 12 5 -9 10 -19 3 -25 2 -19 -4z M4588 2868 c6 -6 18 -8 28
-6 14 3 12 5 -9 10 -19 3 -25 2 -19 -4z M5157 2868 c2 -5 13 -8 23 -8 10 0 21
3 23 8 3 4 -8 7 -23 7 -15 0 -26 -3 -23 -7z M5368 2868 c6 -6 18 -8 28 -6 14
3 12 5 -9 10 -19 3 -25 2 -19 -4z M978 2843 c321 -2 843 -2 1160 0 317 1 55 2
-583 2 -638 0 -898 -1 -577 -2z M60 2635 c-7 -8 -10 -18 -6 -22 3 -4 12 2 20
12 14 19 36 13 36 -10 0 -7 -13 -23 -30 -35 -44 -32 -39 -50 13 -48 36 1 38 2
10 5 -18 2 -33 7 -33 10 0 4 15 19 33 34 27 23 30 31 21 46 -14 24 -47 28 -64
8z M411 2588 c1 -35 4 -51 6 -36 3 22 10 27 35 30 17 2 33 10 36 18 4 12 2 13
-9 3 -7 -7 -23 -13 -36 -13 -18 0 -23 6 -23 25 0 21 5 25 29 25 16 0 32 -5 34
-10 3 -6 4 -5 3 2 -1 7 -19 14 -39 16 l-37 3 1 -63z M853 2590 c0 -36 2 -50 4
-32 2 17 2 47 0 65 -2 17 -4 3 -4 -33z M1359 2628 c-4 -72 -3 -90 4 -95 4 -2
7 23 7 56 0 58 -9 87 -11 39z M2152 2625 c-15 -32 -15 -62 1 -98 11 -26 12
-21 12 47 0 42 0 76 -1 76 0 0 -6 -11 -12 -25z M2650 2641 c0 -5 -8 -12 -17
-14 -17 -4 -17 -5 0 -6 13 -1 17 -10 17 -46 0 -25 5 -45 10 -45 6 0 10 27 10
60 0 33 -4 60 -10 60 -5 0 -10 -4 -10 -9z M2723 2644 c-7 -3 -13 -13 -13 -21
0 -14 2 -15 18 -1 9 9 23 13 30 11 20 -8 14 -31 -13 -49 -14 -9 -30 -25 -36
-35 -9 -17 -6 -19 33 -18 l43 2 -35 6 -35 6 33 24 c25 18 32 29 30 50 -3 26
-27 37 -55 25z M2805 2575 c0 -63 2 -71 12 -52 7 12 12 36 12 52 0 17 -5 40
-12 52 -10 19 -12 11 -12 -52z M4147 2636 c-15 -11 -15 -15 -3 -19 9 -4 16
-23 19 -49 3 -35 4 -31 5 20 1 34 1 62 0 62 -2 0 -11 -7 -21 -14z M4221 2636
c-7 -8 -11 -31 -9 -52 6 -72 70 -72 76 0 4 41 -11 66 -38 66 -10 0 -23 -6 -29
-14z m44 -47 c0 -32 -4 -44 -15 -44 -16 0 -26 54 -16 82 12 30 31 6 31 -38z
M4482 2588 l1 -63 7 50 c4 28 8 44 8 36 1 -8 4 -12 7 -10 7 8 -6 49 -16 49 -5
0 -8 -28 -7 -62z M4567 2628 c-4 -12 -4 -24 -2 -27 3 -2 6 2 7 10 0 8 4 -8 8
-36 l7 -50 1 63 c2 61 -10 83 -21 40z M5220 2590 c0 -35 2 -61 5 -58 8 7 9
108 1 115 -3 3 -6 -22 -6 -57z M5816 2634 c-9 -23 -7 -31 4 -14 10 17 15 14
24 -17 6 -19 3 -23 -13 -23 -12 0 -21 6 -22 13 0 6 -7 -3 -15 -22 -8 -18 -13
-35 -10 -38 2 -2 7 5 11 16 4 15 15 21 35 21 20 0 31 -6 35 -21 4 -11 8 -19
11 -17 5 6 -38 118 -46 118 -4 0 -11 -7 -14 -16z M6273 2590 c0 -36 2 -50 4
-32 2 17 2 47 0 65 -2 17 -4 3 -4 -33z M6762 2625 c-15 -32 -15 -62 1 -98 11
-26 12 -21 12 47 0 42 0 76 -1 76 0 0 -6 -11 -12 -25z M7248 2615 c-34 -49
-35 -55 -3 -55 17 0 25 -6 25 -17 0 -15 2 -14 14 3 8 10 11 23 6 29 -5 6 -10
26 -12 45 l-3 35 -27 -40z m22 -20 c0 -18 -5 -25 -20 -25 -20 0 -20 1 -4 25 9
14 18 25 20 25 2 0 4 -11 4 -25z M7327 2643 c-4 -3 -7 -19 -7 -34 0 -28 28
-47 50 -34 5 3 10 -1 10 -10 0 -22 -27 -30 -47 -14 -14 12 -16 12 -11 -1 3 -9
17 -15 33 -15 24 0 31 6 38 30 12 43 -6 85 -36 85 -13 0 -27 -3 -30 -7z m53
-27 c0 -22 -22 -37 -37 -25 -16 14 -17 36 0 42 17 6 37 -3 37 -17z M7415 2575
c0 -63 2 -71 12 -52 7 12 12 36 12 52 0 17 -5 40 -12 52 -10 19 -12 11 -12
-52z M668 2629 c-8 -25 7 -92 22 -96 12 -4 12 -2 2 5 -8 5 -12 25 -11 50 3 41
-5 65 -13 41z M1820 2595 c0 -27 2 -46 5 -44 7 8 9 78 2 85 -4 4 -7 -14 -7
-41z M553 2614 c11 -4 17 -16 17 -35 0 -32 -24 -49 -42 -31 -8 8 -5 14 13 21
15 6 18 10 8 10 -21 1 -40 -21 -30 -37 4 -6 20 -11 37 -9 29 2 29 3 24 42 -4
30 -10 40 -25 42 -16 1 -16 1 -2 -3z M770 2610 c-8 -5 -12 -11 -10 -14 3 -2
14 2 24 10 22 15 10 19 -14 4z M911 2617 c2 -1 13 -9 24 -17 19 -14 19 -14 6
3 -7 9 -18 17 -24 17 -6 0 -8 -1 -6 -3z M987 2613 c-3 -5 5 -8 18 -8 13 0 21
3 18 8 -2 4 -10 7 -18 7 -8 0 -16 -3 -18 -7z M1143 2614 c11 -4 17 -16 17 -35
0 -32 -24 -49 -42 -31 -8 8 -5 14 13 21 15 6 18 10 8 10 -21 1 -40 -21 -30
-37 4 -6 20 -11 37 -9 29 2 29 3 24 42 -4 30 -10 40 -25 42 -16 1 -16 1 -2 -3z
M1243 2609 c11 -6 18 -24 19 -47 l1 -37 4 33 c4 34 -10 62 -31 62 -6 0 -3 -5
7 -11z M1465 2610 c-4 -6 -11 -8 -16 -5 -5 4 -8 -12 -8 -37 2 -34 3 -37 6 -13
3 17 12 38 20 48 9 9 13 17 10 17 -3 0 -9 -5 -12 -10z M1533 2614 c11 -4 17
-16 17 -35 0 -32 -24 -49 -42 -31 -8 8 -5 14 13 21 15 6 18 10 8 10 -21 1 -40
-21 -30 -37 4 -6 20 -11 37 -9 29 2 29 3 24 42 -4 30 -10 40 -25 42 -16 1 -16
1 -2 -3z M1602 2608 c-26 -26 -7 -79 28 -77 9 0 6 4 -7 9 -28 11 -31 54 -5 69
9 6 12 11 7 11 -6 0 -16 -5 -23 -12z M1763 2614 c11 -4 17 -16 17 -35 0 -32
-24 -49 -42 -31 -8 8 -5 14 13 21 15 6 18 10 8 10 -21 1 -40 -21 -30 -37 4 -6
20 -11 37 -9 29 2 29 3 24 42 -4 30 -10 40 -25 42 -16 1 -16 1 -2 -3z M1922
2608 c-16 -16 -15 -53 3 -68 18 -15 47 -10 53 10 5 13 3 13 -11 1 -23 -19 -47
-7 -47 24 0 30 24 43 45 25 9 -7 15 -8 15 -2 0 9 -22 22 -39 22 -4 0 -12 -5
-19 -12z M2040 2616 c0 -2 7 -7 16 -10 8 -3 12 -2 9 4 -6 10 -25 14 -25 6z
M2191 2555 c1 -33 3 -52 6 -42 3 10 14 17 27 17 28 0 46 18 46 46 0 28 -21 45
-54 42 -25 -2 -26 -4 -25 -63z m58 36 c7 -13 6 -24 -3 -37 -12 -15 -16 -16
-30 -5 -19 16 -20 33 -4 49 17 17 26 15 37 -7z M2295 2610 c-10 -17 2 -25 18
-12 8 7 17 9 20 5 13 -12 7 -22 -15 -25 -15 -2 -24 -11 -26 -25 -3 -21 1 -23
35 -21 l39 1 -6 41 c-4 35 -9 41 -32 44 -14 2 -29 -2 -33 -8z m45 -49 c0 -14
-18 -23 -30 -16 -6 4 -8 11 -5 16 8 12 35 12 35 0z M2390 2605 c-6 -8 -10 -26
-8 -42 2 -23 8 -28 31 -28 17 1 27 -4 27 -13 0 -11 -8 -13 -32 -8 -31 5 -32 5
-14 -9 25 -19 31 -19 50 1 10 10 16 33 16 63 0 46 -1 48 -29 49 -16 0 -35 -6
-41 -13z m45 -31 c0 -32 -21 -39 -38 -12 -8 12 -7 21 3 32 19 24 35 14 35 -20z
M2486 2604 c-19 -19 -20 -35 -3 -58 15 -21 58 -18 65 4 5 13 3 13 -11 1 -18
-14 -47 -9 -47 9 0 5 14 10 30 10 31 0 39 17 18 38 -16 16 -33 15 -52 -4z m35
-22 c-28 -4 -40 6 -21 18 9 6 20 4 29 -3 12 -10 11 -13 -8 -15z M4663 2609
c25 -15 21 -29 -9 -29 -20 0 -25 4 -20 16 3 8 2 12 -4 9 -14 -9 -13 -48 2 -63
7 -7 19 -12 28 -11 9 0 6 4 -7 9 -33 13 -28 30 7 30 18 0 30 5 30 13 0 16 -20
37 -34 37 -6 0 -3 -5 7 -11z M4722 2608 c-26 -26 -7 -79 28 -77 9 0 6 4 -7 9
-28 11 -31 54 -5 69 9 6 12 11 7 11 -6 0 -16 -5 -23 -12z M4860 2606 c-15 -20
-9 -56 12 -70 14 -8 21 -6 35 9 16 17 17 18 1 6 -25 -18 -48 -7 -48 24 0 31
24 42 48 24 15 -13 16 -12 3 4 -16 21 -35 22 -51 3z M4949 2603 c-13 -16 -12
-17 3 -4 10 7 25 11 33 7 9 -3 13 -2 10 4 -10 15 -31 12 -46 -7z M5166 2606
c10 -8 21 -12 24 -10 5 6 -21 24 -34 24 -6 0 -1 -6 10 -14z M5250 2616 c0 -2
7 -7 16 -10 8 -3 12 -2 9 4 -6 10 -25 14 -25 6z M5407 2613 c-3 -5 5 -8 18 -8
13 0 21 3 18 8 -2 4 -10 7 -18 7 -8 0 -16 -3 -18 -7z M5530 2606 c-15 -20 -9
-56 12 -70 14 -8 21 -6 35 9 16 17 17 18 1 6 -25 -18 -48 -7 -48 24 0 31 24
42 48 24 15 -13 16 -12 3 4 -16 21 -35 22 -51 3z M5640 2610 c8 -5 20 -10 25
-10 6 0 3 5 -5 10 -8 5 -19 10 -25 10 -5 0 -3 -5 5 -10z M6043 2609 c25 -15
21 -29 -9 -29 -20 0 -25 4 -20 16 3 8 2 12 -4 9 -14 -9 -13 -48 2 -63 7 -7 19
-12 28 -11 9 0 6 4 -7 9 -33 13 -28 30 7 30 18 0 30 5 30 13 0 16 -20 37 -34
37 -6 0 -3 -5 7 -11z M6189 2603 c-13 -17 -13 -17 6 -3 11 8 22 16 24 17 2 2
0 3 -6 3 -6 0 -17 -8 -24 -17z M6362 2608 c-16 -16 -15 -53 3 -68 18 -15 47
-10 53 10 5 13 3 13 -11 1 -23 -19 -47 -7 -47 24 0 30 24 43 45 25 9 -7 15 -8
15 -2 0 9 -22 22 -39 22 -4 0 -12 -5 -19 -12z M6493 2609 c11 -6 18 -24 19
-47 l1 -37 4 33 c4 34 -10 62 -31 62 -6 0 -3 -5 7 -11z M6801 2555 c1 -33 3
-52 6 -42 3 10 14 17 27 17 28 0 46 18 46 46 0 28 -21 45 -54 42 -25 -2 -26
-4 -25 -63z m58 36 c7 -13 6 -24 -3 -37 -12 -15 -16 -16 -30 -5 -19 16 -20 33
-4 49 17 17 26 15 37 -7z M6907 2613 c-14 -13 -7 -25 8 -13 8 6 19 9 25 5 16
-10 12 -25 -9 -25 -22 0 -45 -25 -36 -40 3 -5 23 -10 45 -10 31 0 37 3 35 18
-14 69 -16 72 -39 72 -12 0 -26 -3 -29 -7z m43 -53 c0 -12 -28 -25 -36 -17 -9
9 6 27 22 27 8 0 14 -5 14 -10z M7000 2605 c-6 -8 -10 -26 -8 -42 2 -23 8 -28
31 -28 17 1 27 -4 27 -13 0 -11 -8 -13 -32 -8 -31 5 -32 5 -14 -9 25 -19 31
-19 50 1 10 10 16 33 16 63 0 46 -1 48 -29 49 -16 0 -35 -6 -41 -13z m45 -31
c0 -32 -21 -39 -38 -12 -8 12 -7 21 3 32 19 24 35 14 35 -20z M7096 2604 c-19
-19 -20 -35 -3 -58 15 -21 58 -18 65 4 5 13 3 13 -11 1 -18 -14 -47 -9 -47 9
0 5 14 10 30 10 31 0 39 17 18 38 -16 16 -33 15 -52 -4z m35 -22 c-28 -4 -40
6 -21 18 9 6 20 4 29 -3 12 -10 11 -13 -8 -15z M613 2570 c0 -25 2 -35 4 -22
2 12 2 32 0 45 -2 12 -4 2 -4 -23z M723 2570 c0 -25 2 -35 4 -22 2 12 2 32 0
45 -2 12 -4 2 -4 -23z M1200 2570 c0 -22 2 -40 4 -40 2 0 6 18 8 40 2 22 0 40
-4 40 -5 0 -8 -18 -8 -40z M1297 2603 c-22 -21 2 -74 33 -72 9 0 5 4 -9 10
-19 7 -22 15 -19 39 5 32 5 33 -5 23z M1645 2600 c3 -5 8 -10 11 -10 2 0 4 5
4 10 0 6 -5 10 -11 10 -5 0 -7 -4 -4 -10z M1693 2570 c0 -25 2 -35 4 -22 2 12
2 32 0 45 -2 12 -4 2 -4 -23z M1873 2570 c0 -25 2 -35 4 -22 2 12 2 32 0 45
-2 12 -4 2 -4 -23z M2010 2570 c0 -22 2 -40 4 -40 2 0 6 18 8 40 2 22 0 40 -4
40 -5 0 -8 -18 -8 -40z M4765 2600 c3 -5 8 -10 11 -10 2 0 4 5 4 10 0 6 -5 10
-11 10 -5 0 -7 -4 -4 -10z M5120 2565 l0 -45 -332 0 c-182 0 -329 -2 -326 -5
5 -5 2218 -8 2224 -3 1 2 -1 10 -6 18 -7 10 -10 11 -10 3 0 -10 -98 -13 -454
-13 -354 0 -455 3 -459 13 -4 10 -6 10 -6 0 -1 -10 -70 -13 -311 -13 -170 0
-310 4 -310 8 0 4 12 8 27 7 15 0 28 6 30 15 4 12 3 12 -5 2 -5 -8 -18 -12
-28 -10 -14 3 -19 12 -19 36 0 17 -3 32 -7 32 -5 0 -8 -20 -8 -45z M5483 2570
c0 -25 2 -35 4 -22 2 12 2 32 0 45 -2 12 -4 2 -4 -23z M5611 2594 c0 -11 3
-14 6 -6 3 7 2 16 -1 19 -3 4 -6 -2 -5 -13z M6450 2570 c0 -22 2 -40 4 -40 2
0 6 18 8 40 2 22 0 40 -4 40 -5 0 -8 -18 -8 -40z M5742 2575 c0 -16 2 -22 5
-12 2 9 2 23 0 30 -3 6 -5 -1 -5 -18z M6682 2575 c0 -16 2 -22 5 -12 2 9 2 23
0 30 -3 6 -5 -1 -5 -18z M880 2570 c0 -31 49 -55 64 -32 2 4 -7 8 -21 7 -39 0
-40 23 -1 27 l33 3 -37 6 c-30 4 -38 2 -38 -11z M988 2578 c5 -5 16 -8 23 -6
8 3 3 7 -10 11 -17 4 -21 3 -13 -5z M4545 2569 c-6 -17 -9 -19 -16 -8 -5 8 -9
10 -9 4 0 -5 4 -16 8 -23 6 -9 12 -5 21 14 6 15 10 29 7 31 -2 2 -7 -5 -11
-18z M5408 2578 c5 -5 16 -8 23 -6 8 3 3 7 -10 11 -17 4 -21 3 -13 -5z M6205
2580 l-40 -7 43 -2 c23 0 42 4 42 9 0 6 -1 9 -2 9 -2 -1 -21 -5 -43 -9z M751
2577 c-1 -5 4 -17 9 -28 13 -24 43 -25 61 -1 11 14 11 15 -1 5 -21 -20 -46
-15 -58 10 -6 12 -11 18 -11 14z M5630 2576 c0 -2 9 -6 20 -9 11 -3 18 -1 14
4 -5 9 -34 13 -34 5z M5908 2573 c6 -2 18 -2 25 0 6 3 1 5 -13 5 -14 0 -19 -2
-12 -5z M1030 2556 c0 -14 -6 -17 -25 -14 -13 3 -22 1 -19 -3 9 -15 44 -10 51
6 3 9 3 19 -1 22 -3 4 -6 -2 -6 -11z M4944 2550 c1 -8 10 -16 21 -17 15 -1 15
0 3 3 -9 3 -19 11 -21 17 -2 7 -3 5 -3 -3z M5450 2556 c0 -14 -6 -17 -25 -14
-13 3 -22 1 -19 -3 9 -15 44 -10 51 6 3 9 3 19 -1 22 -3 4 -6 -2 -6 -11z
M6183 2550 c5 -18 35 -26 50 -11 7 7 3 8 -13 4 -13 -4 -26 0 -32 8 -8 12 -9
11 -5 -1z M5335 2540 c3 -5 8 -10 11 -10 2 0 4 5 4 10 0 6 -5 10 -11 10 -5 0
-7 -4 -4 -10z M5617 2538 c2 -5 13 -8 23 -8 10 0 21 3 23 8 3 4 -8 7 -23 7
-15 0 -26 -3 -23 -7z M6110 2540 c0 -5 5 -10 10 -10 6 0 10 5 10 10 0 6 -4 10
-10 10 -5 0 -10 -4 -10 -10z M6605 2540 c3 -5 8 -10 11 -10 2 0 4 5 4 10 0 6
-5 10 -11 10 -5 0 -7 -4 -4 -10z M818 2513 c232 -2 612 -2 845 0 232 1 42 2
-423 2 -465 0 -655 -1 -422 -2z M60 2305 c-7 -8 -10 -18 -6 -22 3 -4 13 2 20
13 12 16 17 17 28 6 11 -11 10 -16 -5 -26 -15 -12 -16 -14 -2 -20 17 -6 20
-32 4 -41 -5 -4 -19 1 -31 12 -20 18 -20 18 -17 -2 3 -13 13 -21 30 -23 31 -4
54 21 44 45 -4 10 -8 29 -9 43 -1 30 -36 39 -56 15z M406 2295 c11 -48 25 -76
18 -35 -4 19 -10 42 -15 50 -6 10 -7 5 -3 -15z M467 2314 c-11 -11 -8 -26 3
-19 6 3 10 -2 11 -12 0 -10 3 -13 5 -6 7 15 -10 46 -19 37z M962 2295 c-15
-32 -15 -62 1 -98 11 -26 12 -21 12 47 0 42 0 76 -1 76 0 0 -6 -11 -12 -25z
M1447 2306 c-15 -11 -15 -15 -3 -19 9 -4 16 -23 19 -49 3 -35 4 -31 5 20 1 34
1 62 0 62 -2 0 -11 -7 -21 -14z M1520 2310 c0 -5 11 -10 25 -10 26 0 32 -9 15
-26 -14 -14 -31 -74 -21 -74 4 0 13 17 19 39 7 21 19 44 27 51 25 21 17 30
-25 30 -22 0 -40 -4 -40 -10z M1615 2245 c0 -63 2 -71 12 -52 7 12 12 36 12
52 0 17 -5 40 -12 52 -10 19 -12 11 -12 -52z M4147 2306 c-15 -11 -15 -15 -3
-19 9 -4 16 -23 19 -49 3 -35 4 -31 5 20 1 34 1 62 0 62 -2 0 -11 -7 -21 -14z
M4237 2306 c-15 -11 -15 -15 -3 -19 9 -4 16 -23 19 -49 3 -35 4 -31 5 20 1 34
1 62 0 62 -2 0 -11 -7 -21 -14z M4480 2260 l0 -60 43 2 42 1 -37 4 c-32 4 -38
8 -38 28 0 19 6 24 33 28 l32 4 -32 1 c-25 2 -33 7 -33 21 0 15 8 21 33 24 31
4 31 4 -5 5 l-38 2 0 -60z M5520 2260 c0 -35 2 -61 5 -58 8 7 9 108 1 115 -3
3 -6 -22 -6 -57z M6117 2314 c-11 -11 -8 -24 4 -21 6 1 15 -8 20 -20 7 -21 5
-23 -20 -23 -17 0 -31 -6 -35 -16 -9 -24 -7 -31 5 -11 14 24 53 21 73 -5 12
-17 11 -9 -5 32 -22 60 -32 74 -42 64z M6263 2260 c0 -36 2 -50 4 -32 2 17 2
47 0 65 -2 17 -4 3 -4 -33z M6843 2260 c0 -36 2 -50 4 -32 2 17 2 47 0 65 -2
17 -4 3 -4 -33z M7061 2302 c-16 -30 -13 -95 5 -118 14 -18 15 -18 10 -1 -16
50 -17 69 -7 98 13 37 8 50 -8 21z M7528 2290 c-4 -24 -1 -30 11 -29 32 3 41
-1 41 -20 0 -26 -17 -36 -36 -20 -17 14 -33 4 -17 -12 15 -15 54 -7 67 14 14
22 -3 51 -33 55 -28 4 -22 24 10 33 22 6 21 7 -7 8 -28 1 -32 -3 -36 -29z
M7638 2281 c-34 -48 -34 -51 -3 -51 16 0 25 -6 25 -15 0 -20 18 -19 22 2 5 25
-3 103 -11 103 -3 0 -18 -18 -33 -39z m22 -16 c0 -16 -6 -25 -15 -25 -18 0
-19 4 -3 30 16 26 18 25 18 -5z M7708 2303 c15 -27 15 -88 2 -114 -7 -12 -7
-19 -1 -19 15 0 31 68 24 101 -3 16 -12 34 -21 41 -13 11 -14 10 -4 -9z M531
2294 c0 -11 3 -14 6 -6 3 7 2 16 -1 19 -3 4 -6 -2 -5 -13z M593 2284 c11 -4
17 -16 17 -35 0 -32 -24 -49 -42 -31 -8 8 -5 14 13 21 15 6 18 10 8 10 -21 1
-40 -21 -30 -37 4 -6 20 -11 37 -9 29 2 29 3 24 42 -4 30 -10 40 -25 42 -16 1
-16 1 -2 -3z M761 2287 c2 -1 13 -9 24 -17 19 -14 19 -14 6 3 -7 9 -18 17 -24
17 -6 0 -8 -1 -6 -3z M830 2275 c-15 -18 -15 -17 28 -38 18 -8 30 -11 26 -6
-3 6 -18 15 -32 20 -26 10 -26 11 -8 25 11 8 15 14 9 14 -6 0 -16 -7 -23 -15z
M1001 2225 c1 -33 3 -52 6 -42 3 10 14 17 27 17 28 0 46 18 46 46 0 28 -21 45
-54 42 -25 -2 -26 -4 -25 -63z m58 36 c7 -13 6 -24 -3 -37 -12 -15 -16 -16
-30 -5 -19 16 -20 33 -4 49 17 17 26 15 37 -7z M1107 2283 c-14 -13 -7 -25 8
-13 8 6 19 9 25 5 16 -10 12 -25 -9 -25 -22 0 -45 -25 -36 -40 3 -5 23 -10 45
-10 31 0 37 3 35 18 -14 69 -16 72 -39 72 -12 0 -26 -3 -29 -7z m43 -53 c0
-12 -28 -25 -36 -17 -9 9 6 27 22 27 8 0 14 -5 14 -10z M1200 2275 c-6 -8 -10
-26 -8 -42 2 -23 8 -28 31 -28 17 1 27 -4 27 -13 0 -11 -8 -13 -32 -8 -31 5
-32 5 -14 -9 25 -19 31 -19 50 1 10 10 16 33 16 63 0 46 -1 48 -29 49 -16 0
-35 -6 -41 -13z m45 -31 c0 -32 -21 -39 -38 -12 -8 12 -7 21 3 32 19 24 35 14
35 -20z M1296 2274 c-19 -19 -20 -35 -3 -58 15 -21 58 -18 65 4 5 13 3 13 -11
1 -18 -14 -47 -9 -47 9 0 5 14 10 30 10 31 0 39 17 18 38 -16 16 -33 15 -52
-4z m35 -22 c-28 -4 -40 6 -21 18 9 6 20 4 29 -3 12 -10 11 -13 -8 -15z M4610
2286 c0 -2 7 -7 16 -10 8 -3 12 -2 9 4 -6 10 -25 14 -25 6z M4682 2278 c-28
-28 -2 -88 33 -74 18 7 20 -5 3 -23 -11 -11 -10 -13 2 -9 16 5 28 108 13 108
-5 0 -8 -15 -8 -32 0 -26 -4 -33 -20 -33 -27 0 -33 44 -9 62 10 7 13 13 8 13
-6 0 -15 -5 -22 -12z M4840 2286 c0 -2 7 -7 16 -10 8 -3 12 -2 9 4 -6 10 -25
14 -25 6z M4943 2279 c25 -15 21 -29 -9 -29 -20 0 -25 4 -20 16 3 8 2 12 -4 9
-14 -9 -13 -48 2 -63 7 -7 19 -12 28 -11 9 0 6 4 -7 9 -33 13 -28 30 7 30 18
0 30 5 30 13 0 16 -20 37 -34 37 -6 0 -3 -5 7 -11z M5033 2279 c25 -15 21 -29
-9 -29 -20 0 -25 4 -20 16 3 8 2 12 -4 9 -14 -9 -13 -48 2 -63 7 -7 19 -12 28
-11 9 0 6 4 -7 9 -33 13 -28 30 7 30 18 0 30 5 30 13 0 16 -20 37 -34 37 -6 0
-3 -5 7 -11z M5210 2286 c0 -2 7 -7 16 -10 8 -3 12 -2 9 4 -6 10 -25 14 -25 6z
M5282 2278 c-28 -28 -2 -88 33 -74 18 7 20 -5 3 -23 -11 -11 -10 -13 2 -9 16
5 28 108 13 108 -5 0 -8 -15 -8 -32 0 -26 -4 -33 -20 -33 -27 0 -33 44 -9 62
10 7 13 13 8 13 -6 0 -15 -5 -22 -12z M5466 2276 c10 -8 21 -12 24 -10 5 6
-21 24 -34 24 -6 0 -1 -6 10 -14z M5550 2286 c0 -2 7 -7 16 -10 8 -3 12 -2 9
4 -6 10 -25 14 -25 6z M5700 2275 c-15 -18 -15 -17 28 -38 18 -8 30 -11 26 -6
-3 6 -18 15 -32 20 -26 10 -26 11 -8 25 11 8 15 14 9 14 -6 0 -16 -7 -23 -15z
M5830 2280 c-8 -5 -12 -11 -10 -14 3 -2 14 2 24 10 22 15 10 19 -14 4z M5940
2280 c8 -5 20 -10 25 -10 6 0 3 5 -5 10 -8 5 -19 10 -25 10 -5 0 -3 -5 5 -10z
M6309 2273 c-13 -17 -13 -17 6 -3 11 8 22 16 24 17 2 2 0 3 -6 3 -6 0 -17 -8
-24 -17z M6501 2287 c2 -1 13 -9 24 -17 19 -14 19 -14 6 3 -7 9 -18 17 -24 17
-6 0 -8 -1 -6 -3z M6662 2278 c-16 -16 -15 -53 3 -68 18 -15 47 -10 53 10 5
13 3 13 -11 1 -23 -19 -47 -7 -47 24 0 30 24 43 45 25 9 -7 15 -8 15 -2 0 9
-22 22 -39 22 -4 0 -12 -5 -19 -12z M6780 2286 c0 -2 7 -7 16 -10 8 -3 12 -2
9 4 -6 10 -25 14 -25 6z M6972 2270 c0 -14 2 -19 5 -12 2 6 2 18 0 25 -3 6 -5
1 -5 -13z M7101 2225 c1 -33 3 -52 6 -42 3 10 14 17 27 17 28 0 46 18 46 46 0
28 -21 45 -54 42 -25 -2 -26 -4 -25 -63z m58 36 c7 -13 6 -24 -3 -37 -12 -15
-16 -16 -30 -5 -19 16 -20 33 -4 49 17 17 26 15 37 -7z M7207 2283 c-14 -13
-7 -25 8 -13 8 6 19 9 25 5 16 -10 12 -25 -9 -25 -22 0 -45 -25 -36 -40 3 -5
23 -10 45 -10 31 0 37 3 35 18 -14 69 -16 72 -39 72 -12 0 -26 -3 -29 -7z m43
-53 c0 -12 -28 -25 -36 -17 -9 9 6 27 22 27 8 0 14 -5 14 -10z M7289 2269
c-17 -34 4 -73 37 -66 16 3 23 0 21 -7 -2 -6 -16 -11 -30 -11 -30 1 -36 -10
-11 -19 34 -13 54 12 54 67 0 51 -1 53 -30 55 -21 2 -32 -4 -41 -19z m55 -37
c-16 -25 -38 -21 -42 7 -5 30 18 45 38 25 11 -11 12 -19 4 -32z M7392 2278
c-7 -7 -12 -21 -12 -33 0 -41 45 -60 70 -30 8 9 8 15 2 15 -6 0 -12 -5 -14
-12 -5 -14 -38 -4 -38 12 0 5 14 10 30 10 18 0 30 5 30 13 0 18 -21 37 -40 37
-9 0 -21 -5 -28 -12z m46 -16 c2 -7 -6 -12 -17 -12 -21 0 -27 11 -14 24 9 9
26 2 31 -12z M4580 2240 c0 -22 2 -40 4 -40 2 0 6 18 8 40 2 22 0 40 -4 40 -5
0 -8 -18 -8 -40z M4773 2240 c0 -25 2 -35 4 -22 2 12 2 32 0 45 -2 12 -4 2 -4
-23z M4810 2240 c0 -22 2 -40 4 -40 2 0 6 18 8 40 2 22 0 40 -4 40 -5 0 -8
-18 -8 -40z M5143 2240 c0 -25 2 -35 4 -22 2 12 2 32 0 45 -2 12 -4 2 -4 -23z
M5180 2240 c0 -22 2 -40 4 -40 2 0 6 18 8 40 2 22 0 40 -4 40 -5 0 -8 -18 -8
-40z M5418 2229 c-1 -28 0 -53 5 -56 4 -2 7 4 7 14 0 14 7 19 27 18 15 0 28 6
30 15 4 12 3 12 -5 2 -5 -8 -18 -12 -28 -10 -14 3 -19 12 -19 36 0 51 -13 37
-17 -19z M5783 2240 c0 -25 2 -35 4 -22 2 12 2 32 0 45 -2 12 -4 2 -4 -23z
M5911 2264 c0 -11 3 -14 6 -6 3 7 2 16 -1 19 -3 4 -6 -2 -5 -13z M6043 2245
c0 -22 2 -30 4 -17 2 12 2 30 0 40 -3 9 -5 -1 -4 -23z M6750 2240 c0 -22 2
-40 4 -40 2 0 6 18 8 40 2 22 0 40 -4 40 -5 0 -8 -18 -8 -40z M521 2254 c0
-11 3 -14 6 -6 3 7 2 16 -1 19 -3 4 -6 -2 -5 -13z M496 2235 c2 -11 4 -23 4
-27 0 -15 20 -8 20 7 0 8 -4 15 -9 15 -5 0 -11 6 -14 13 -2 6 -3 3 -1 -8z
M730 2240 c0 -31 49 -55 64 -32 2 4 -7 8 -21 7 -39 0 -40 23 -1 27 l33 3 -37
6 c-30 4 -38 2 -38 -11z M6325 2250 l-40 -7 43 -2 c23 0 42 4 42 9 0 6 -1 9
-2 9 -2 -1 -21 -5 -43 -9z M6470 2240 c0 -31 49 -55 64 -32 2 4 -7 8 -21 7
-39 0 -40 23 -1 27 l33 3 -37 6 c-30 4 -38 2 -38 -11z M5811 2247 c-1 -5 4
-17 9 -28 13 -24 43 -25 61 -1 11 14 11 15 -1 5 -21 -20 -46 -15 -58 10 -6 12
-11 18 -11 14z M5930 2246 c0 -2 9 -6 20 -9 11 -3 18 -1 14 4 -5 9 -34 13 -34
5z M6198 2243 c6 -2 18 -2 25 0 6 3 1 5 -13 5 -14 0 -19 -2 -12 -5z M436 2224
c-4 -9 -4 -19 -1 -22 2 -3 7 3 11 12 4 9 4 19 1 22 -2 3 -7 -3 -11 -12z M6303
2220 c5 -18 35 -26 50 -11 7 7 3 8 -13 4 -13 -4 -26 0 -32 8 -8 12 -9 11 -5
-1z M6971 2214 c0 -11 3 -14 6 -6 3 7 2 16 -1 19 -3 4 -6 -2 -5 -13z M670
2210 c0 -5 5 -10 10 -10 6 0 10 5 10 10 0 6 -4 10 -10 10 -5 0 -10 -4 -10 -10z
M828 2208 c6 -6 18 -8 28 -6 14 3 12 5 -9 10 -19 3 -25 2 -19 -4z M5635 2210
c3 -5 8 -10 11 -10 2 0 4 5 4 10 0 6 -5 10 -11 10 -5 0 -7 -4 -4 -10z M5698
2208 c6 -6 18 -8 28 -6 14 3 12 5 -9 10 -19 3 -25 2 -19 -4z M5917 2208 c2 -5
13 -8 23 -8 10 0 21 3 23 8 3 4 -8 7 -23 7 -15 0 -26 -3 -23 -7z M6410 2210
c0 -5 5 -10 10 -10 6 0 10 5 10 10 0 6 -4 10 -10 10 -5 0 -10 -4 -10 -10z
M6905 2210 c3 -5 8 -10 11 -10 2 0 4 5 4 10 0 6 -5 10 -11 10 -5 0 -7 -4 -4
-10z M6050 2191 c0 -5 5 -13 10 -16 6 -3 10 -2 10 4 0 5 -4 13 -10 16 -5 3
-10 2 -10 -4z M4675 2180 c3 -5 11 -10 16 -10 6 0 7 5 4 10 -3 6 -11 10 -16
10 -6 0 -7 -4 -4 -10z M5275 2180 c3 -5 11 -10 16 -10 6 0 7 5 4 10 -3 6 -11
10 -16 10 -6 0 -7 -4 -4 -10z M5615 2180 c-3 -5 -2 -10 4 -10 5 0 13 5 16 10
3 6 2 10 -4 10 -5 0 -13 -4 -16 -10z M6885 2180 c-3 -5 -2 -10 4 -10 5 0 13 5
16 10 3 6 2 10 -4 10 -5 0 -13 -4 -16 -10z M78 1955 c-34 -49 -35 -55 -3 -55
17 0 25 -6 25 -17 0 -15 2 -14 14 3 8 10 11 23 6 29 -5 6 -10 26 -12 45 l-3
35 -27 -40z m22 -20 c0 -18 -5 -25 -20 -25 -20 0 -20 1 -4 25 9 14 18 25 20
25 2 0 4 -11 4 -25z M412 1928 l1 -63 7 55 c4 30 7 49 8 41 1 -8 4 -12 7 -9 8
7 -5 38 -16 38 -5 0 -8 -28 -7 -62z M504 1979 c-3 -6 -2 -14 4 -18 6 -3 12
-27 15 -51 3 -38 4 -36 5 18 2 58 -7 77 -24 51z M740 1930 c0 -35 2 -61 5 -58
8 7 9 108 1 115 -3 3 -6 -22 -6 -57z M1529 1968 c-4 -72 -3 -90 4 -95 4 -2 7
23 7 56 0 58 -9 87 -11 39z M2183 1930 c0 -36 2 -50 4 -32 2 17 2 47 0 65 -2
17 -4 3 -4 -33z M2352 1965 c-15 -32 -15 -62 1 -98 11 -26 12 -21 12 47 0 42
0 76 -1 76 0 0 -6 -11 -12 -25z M2820 1975 c-7 -8 -10 -18 -6 -22 3 -4 12 2
20 12 14 19 36 13 36 -10 0 -7 -13 -23 -30 -35 -44 -32 -39 -50 13 -48 36 1
38 2 10 5 -18 2 -33 7 -33 10 0 4 15 19 33 34 27 23 30 31 21 46 -14 24 -47
28 -64 8z M2940 1981 c0 -5 -8 -12 -17 -14 -17 -4 -17 -5 0 -6 13 -1 17 -10
17 -46 0 -25 5 -45 10 -45 6 0 10 27 10 60 0 33 -4 60 -10 60 -5 0 -10 -4 -10
-9z M3005 1915 c0 -63 2 -71 12 -52 7 12 12 36 12 52 0 17 -5 40 -12 52 -10
19 -12 11 -12 -52z M4147 1976 c-15 -11 -15 -15 -3 -19 9 -4 16 -23 19 -49 3
-35 4 -31 5 20 1 34 1 62 0 62 -2 0 -11 -7 -21 -14z M4220 1975 c-7 -8 -10
-18 -6 -22 3 -4 12 2 20 12 14 19 36 13 36 -10 0 -7 -13 -23 -30 -35 -44 -32
-39 -50 13 -48 36 1 38 2 10 5 -18 2 -33 7 -33 10 0 4 15 19 33 34 27 23 30
31 21 46 -14 24 -47 28 -64 8z M4487 1980 c12 -5 34 -5 50 0 24 7 21 8 -22 9
-38 0 -45 -2 -28 -9z M6477 1984 c-11 -11 -8 -24 4 -21 6 1 15 -8 20 -20 7
-21 5 -23 -20 -23 -17 0 -31 -6 -35 -16 -9 -24 -7 -31 5 -11 14 24 53 21 73
-5 12 -17 11 -9 -5 32 -22 60 -32 74 -42 64z M6623 1930 c0 -36 2 -50 4 -32 2
17 2 47 0 65 -2 17 -4 3 -4 -33z M7203 1930 c0 -36 2 -50 4 -32 2 17 2 47 0
65 -2 17 -4 3 -4 -33z M1850 1935 c0 -27 2 -46 5 -44 7 8 9 78 2 85 -4 4 -7
-14 -7 -41z M5421 1970 c-4 -21 0 -94 5 -99 8 -9 9 5 3 59 -3 30 -7 48 -8 40z
M581 1957 c2 -1 13 -9 24 -17 19 -14 19 -14 6 3 -7 9 -18 17 -24 17 -6 0 -8
-1 -6 -3z M660 1950 c-8 -5 -12 -11 -10 -14 3 -2 14 2 24 10 22 15 10 19 -14
4z M770 1956 c0 -2 7 -7 16 -10 8 -3 12 -2 9 4 -6 10 -25 14 -25 6z M839 1943
c-13 -16 -12 -17 3 -4 10 7 25 11 33 7 9 -3 13 -2 10 4 -10 15 -31 12 -46 -7z
M943 1953 c-7 -2 -13 -10 -13 -16 0 -8 4 -7 12 1 22 22 37 13 41 -28 l4 -40
-1 42 c-1 43 -13 54 -43 41z M1096 1946 c10 -8 21 -12 24 -10 5 6 -21 24 -34
24 -6 0 -1 -6 10 -14z M1157 1953 c-3 -5 5 -8 18 -8 13 0 21 3 18 8 -2 4 -10
7 -18 7 -8 0 -16 -3 -18 -7z M1313 1954 c11 -4 17 -16 17 -35 0 -32 -24 -49
-42 -31 -8 8 -5 14 13 21 15 6 18 10 8 10 -21 1 -40 -21 -30 -37 4 -6 20 -11
37 -9 29 2 29 3 24 42 -4 30 -10 40 -25 42 -16 1 -16 1 -2 -3z M1413 1949 c11
-6 18 -24 19 -47 l1 -37 4 33 c4 34 -10 62 -31 62 -6 0 -3 -5 7 -11z M1656
1946 c10 -8 21 -12 24 -10 5 6 -21 24 -34 24 -6 0 -1 -6 10 -14z M1708 1948
c6 -7 12 -29 15 -48 4 -34 4 -34 5 6 2 31 -2 44 -14 48 -13 5 -14 3 -6 -6z
M1793 1954 c11 -4 17 -16 17 -35 0 -32 -24 -49 -42 -31 -8 8 -5 14 13 21 15 6
18 10 8 10 -21 1 -40 -21 -30 -37 4 -6 20 -11 37 -9 29 2 29 3 24 42 -4 30
-10 40 -25 42 -16 1 -16 1 -2 -3z M1943 1949 c25 -15 21 -29 -9 -29 -20 0 -25
4 -20 16 3 8 2 12 -4 9 -14 -9 -13 -48 2 -63 7 -7 19 -12 28 -11 9 0 6 4 -7 9
-33 13 -28 30 7 30 18 0 30 5 30 13 0 16 -20 37 -34 37 -6 0 -3 -5 7 -11z
M2015 1950 c-4 -6 -11 -8 -16 -5 -5 4 -8 -12 -8 -37 2 -34 3 -37 6 -13 3 17
12 38 20 48 9 9 13 17 10 17 -3 0 -9 -5 -12 -10z M2123 1954 c11 -4 17 -16 17
-35 0 -32 -24 -49 -42 -31 -8 8 -5 14 13 21 15 6 18 10 8 10 -21 1 -40 -21
-30 -37 4 -6 20 -11 37 -9 29 2 29 3 24 42 -4 30 -10 40 -25 42 -16 1 -16 1
-2 -3z M2220 1945 c-15 -18 -15 -17 28 -38 18 -8 30 -11 26 -6 -3 6 -18 15
-32 20 -26 10 -26 11 -8 25 11 8 15 14 9 14 -6 0 -16 -7 -23 -15z M2391 1895
c1 -33 3 -52 6 -42 3 10 14 17 27 17 28 0 46 18 46 46 0 28 -21 45 -54 42 -25
-2 -26 -4 -25 -63z m58 36 c7 -13 6 -24 -3 -37 -12 -15 -16 -16 -30 -5 -19 16
-20 33 -4 49 17 17 26 15 37 -7z M2497 1953 c-14 -13 -7 -25 8 -13 8 6 19 9
25 5 16 -10 12 -25 -9 -25 -22 0 -45 -25 -36 -40 3 -5 23 -10 45 -10 31 0 37
3 35 18 -14 69 -16 72 -39 72 -12 0 -26 -3 -29 -7z m43 -53 c0 -12 -28 -25
-36 -17 -9 9 6 27 22 27 8 0 14 -5 14 -10z M2579 1939 c-17 -34 4 -73 37 -66
16 3 23 0 21 -7 -2 -6 -16 -11 -30 -11 -30 1 -36 -10 -11 -19 34 -13 54 12 54
67 0 51 -1 53 -30 55 -21 2 -32 -4 -41 -19z m55 -37 c-16 -25 -38 -21 -42 7
-5 30 18 45 38 25 11 -11 12 -19 4 -32z M2686 1944 c-19 -19 -20 -35 -3 -58
15 -21 58 -18 65 4 5 13 3 13 -11 1 -18 -14 -47 -9 -47 9 0 5 14 10 30 10 31
0 39 17 18 38 -16 16 -33 15 -52 -4z m35 -22 c-28 -4 -40 6 -21 18 9 6 20 4
29 -3 12 -10 11 -13 -8 -15z M4675 1950 c-4 -6 -11 -8 -16 -5 -5 4 -8 -12 -8
-37 2 -34 3 -37 6 -13 3 17 12 38 20 48 9 9 13 17 10 17 -3 0 -9 -5 -12 -10z
M4740 1956 c0 -2 7 -7 16 -10 8 -3 12 -2 9 4 -6 10 -25 14 -25 6z M4883 1949
c11 -6 18 -24 19 -47 l1 -37 4 33 c4 34 -10 62 -31 62 -6 0 -3 -5 7 -11z
M4976 1946 c10 -8 21 -12 24 -10 5 6 -21 24 -34 24 -6 0 -1 -6 10 -14z M5192
1948 c-16 -16 -15 -53 3 -68 18 -15 47 -10 53 10 5 13 3 13 -11 1 -23 -19 -47
-7 -47 24 0 30 24 43 45 25 9 -7 15 -8 15 -2 0 9 -22 22 -39 22 -4 0 -12 -5
-19 -12z M5333 1953 c-7 -2 -13 -10 -13 -16 0 -8 4 -7 12 1 22 22 37 13 41
-28 l4 -40 -1 42 c-1 43 -13 54 -43 41z M5470 1945 c-15 -18 -15 -17 28 -38
18 -8 30 -11 26 -6 -3 6 -18 15 -32 20 -26 10 -26 11 -8 25 11 8 15 14 9 14
-6 0 -16 -7 -23 -15z M5653 1953 c-7 -2 -13 -10 -13 -16 0 -8 4 -7 12 1 22 22
37 13 41 -28 l4 -40 -1 42 c-1 43 -13 54 -43 41z M5793 1953 c-7 -2 -13 -9
-13 -15 0 -6 6 -6 15 2 21 18 45 5 45 -25 0 -17 -7 -29 -22 -35 -14 -5 -17 -9
-7 -9 21 -1 39 19 39 44 0 35 -25 52 -57 38z M5917 1953 c6 -4 13 -26 16 -48
4 -40 4 -40 3 4 -1 30 -6 46 -16 48 -10 3 -11 2 -3 -4z M6060 1945 c-15 -18
-15 -17 28 -38 18 -8 30 -11 26 -6 -3 6 -18 15 -32 20 -26 10 -26 11 -8 25 11
8 15 14 9 14 -6 0 -16 -7 -23 -15z M6190 1950 c-8 -5 -12 -11 -10 -14 3 -2 14
2 24 10 22 15 10 19 -14 4z M6277 1953 c-3 -5 5 -8 18 -8 13 0 21 3 18 8 -2 4
-10 7 -18 7 -8 0 -16 -3 -18 -7z M6669 1943 c-13 -17 -13 -17 6 -3 11 8 22 16
24 17 2 2 0 3 -6 3 -6 0 -17 -8 -24 -17z M6861 1957 c2 -1 13 -9 24 -17 19
-14 19 -14 6 3 -7 9 -18 17 -24 17 -6 0 -8 -1 -6 -3z M7023 1953 c-7 -2 -13
-9 -13 -15 0 -6 6 -6 15 2 23 19 47 4 43 -27 -3 -31 -34 -44 -50 -21 -8 10 -9
10 -5 -2 10 -37 67 -16 67 24 0 36 -25 53 -57 39z M7140 1956 c0 -2 7 -7 16
-10 8 -3 12 -2 9 4 -6 10 -25 14 -25 6z M7332 1940 c0 -14 2 -19 5 -12 2 6 2
18 0 25 -3 6 -5 1 -5 -13z M1023 1910 c0 -25 2 -35 4 -22 2 12 2 32 0 45 -2
12 -4 2 -4 -23z M1370 1910 c0 -22 2 -40 4 -40 2 0 6 18 8 40 2 22 0 40 -4 40
-5 0 -8 -18 -8 -40z M1467 1943 c-22 -21 2 -74 33 -72 9 0 5 4 -9 10 -19 7
-22 15 -19 39 5 32 5 33 -5 23z M1610 1910 c0 -22 2 -40 4 -40 2 0 6 18 8 40
2 22 0 40 -4 40 -5 0 -8 -18 -8 -40z M2053 1910 c0 -25 2 -35 4 -22 2 12 2 32
0 45 -2 12 -4 2 -4 -23z M4608 1918 c-2 -27 -7 -33 -25 -32 -12 0 -20 -3 -17
-8 3 -4 16 -7 29 -6 22 2 25 7 25 40 0 47 -8 50 -12 6z M4710 1910 c0 -22 2
-40 4 -40 2 0 6 18 8 40 2 22 0 40 -4 40 -5 0 -8 -18 -8 -40z M4840 1910 c0
-22 2 -40 4 -40 2 0 6 18 8 40 2 22 0 40 -4 40 -5 0 -8 -18 -8 -40z M5080
1893 c0 -31 2 -54 5 -51 9 8 11 108 3 108 -5 0 -8 -25 -8 -57z M5283 1910 c0
-25 2 -35 4 -22 2 12 2 32 0 45 -2 12 -4 2 -4 -23z M5880 1939 c0 -5 5 -7 10
-4 6 3 10 8 10 11 0 2 -4 4 -10 4 -5 0 -10 -5 -10 -11z M6143 1910 c0 -25 2
-35 4 -22 2 12 2 32 0 45 -2 12 -4 2 -4 -23z M6403 1915 c0 -22 2 -30 4 -17 2
12 2 30 0 40 -3 9 -5 -1 -4 -23z M7110 1910 c0 -22 2 -40 4 -40 2 0 6 18 8 40
2 22 0 40 -4 40 -5 0 -8 -18 -8 -40z M7236 1937 c3 -10 9 -15 12 -12 3 3 0 11
-7 18 -10 9 -11 8 -5 -6z M440 1935 c0 -5 5 -17 10 -25 5 -8 10 -10 10 -5 0 6
-5 17 -10 25 -5 8 -10 11 -10 5z M550 1910 c0 -31 49 -55 64 -32 2 4 -7 8 -21
7 -39 0 -40 23 -1 27 l33 3 -37 6 c-30 4 -38 2 -38 -11z M1051 1914 c-2 -40
56 -61 66 -24 4 12 3 12 -5 2 -14 -21 -45 -10 -53 18 -6 22 -7 23 -8 4z M1158
1918 c5 -5 16 -8 23 -6 8 3 3 7 -10 11 -17 4 -21 3 -13 -5z M4931 1914 c0 -12
6 -27 14 -34 16 -13 55 -5 55 12 0 6 -6 6 -15 -2 -20 -17 -42 -6 -48 22 -4 21
-4 21 -6 2z M5151 1912 c-1 -13 -10 -26 -23 -32 -16 -6 -18 -9 -7 -9 22 -1 42
24 36 46 -4 14 -5 13 -6 -5z M6278 1918 c5 -5 16 -8 23 -6 8 3 3 7 -10 11 -17
4 -21 3 -13 -5z M6685 1920 l-40 -7 43 -2 c23 0 42 4 42 9 0 6 -1 9 -2 9 -2
-1 -21 -5 -43 -9z M6830 1910 c0 -31 49 -55 64 -32 2 4 -7 8 -21 7 -39 0 -40
23 -1 27 l33 3 -37 6 c-30 4 -38 2 -38 -11z M641 1917 c-1 -5 4 -17 9 -28 13
-24 43 -25 61 -1 11 14 11 15 -1 5 -21 -20 -46 -15 -58 10 -6 12 -11 18 -11
14z M6171 1917 c-1 -5 4 -17 9 -28 13 -24 43 -25 61 -1 11 14 11 15 -1 5 -21
-20 -46 -15 -58 10 -6 12 -11 18 -11 14z M6558 1913 c6 -2 18 -2 25 0 6 3 1 5
-13 5 -14 0 -19 -2 -12 -5z M834 1890 c1 -8 10 -16 21 -17 15 -1 15 0 3 3 -9
3 -19 11 -21 17 -2 7 -3 5 -3 -3z M1200 1896 c0 -14 -6 -17 -25 -14 -13 3 -22
1 -19 -3 9 -15 44 -10 51 6 3 9 3 19 -1 22 -3 4 -6 -2 -6 -11z M6320 1896 c0
-14 -6 -17 -25 -14 -13 3 -22 1 -19 -3 9 -15 44 -10 51 6 3 9 3 19 -1 22 -3 4
-6 -2 -6 -11z M6760 1903 c0 -15 18 -35 23 -27 3 5 -1 15 -9 22 -8 7 -14 9
-14 5z M7255 1891 c4 -13 1 -28 -7 -38 -11 -14 -11 -16 1 -12 22 8 31 42 14
58 -13 12 -14 11 -8 -8z M467 1893 c-4 -3 -7 -11 -7 -17 0 -6 5 -5 12 2 6 6 9
14 7 17 -3 3 -9 2 -12 -2z M6663 1890 c5 -18 35 -26 50 -11 7 7 3 8 -13 4 -13
-4 -26 0 -32 8 -8 12 -9 11 -5 -1z M7331 1884 c0 -11 3 -14 6 -6 3 7 2 16 -1
19 -3 4 -6 -2 -5 -13z M2218 1878 c6 -6 18 -8 28 -6 14 3 12 5 -9 10 -19 3
-25 2 -19 -4z M5468 1878 c6 -6 18 -8 28 -6 14 3 12 5 -9 10 -19 3 -25 2 -19
-4z M5995 1880 c3 -5 8 -10 11 -10 2 0 4 5 4 10 0 6 -5 10 -11 10 -5 0 -7 -4
-4 -10z M6058 1878 c6 -6 18 -8 28 -6 14 3 12 5 -9 10 -19 3 -25 2 -19 -4z
M6410 1861 c0 -6 4 -13 10 -16 6 -3 7 1 4 9 -7 18 -14 21 -14 7z M4936 1848
c6 -10 64 -11 64 0 0 4 -16 7 -35 8 -18 0 -32 -3 -29 -8z M5770 1850 c0 -5 5
-10 10 -10 6 0 10 5 10 10 0 6 -4 10 -10 10 -5 0 -10 -4 -10 -10z M5980 1850
c-13 -8 -12 -10 3 -10 9 0 17 5 17 10 0 12 -1 12 -20 0z M4481 1772 c-19 -35
-12 -132 9 -132 4 0 3 18 -2 40 -7 27 -7 49 1 71 13 37 8 50 -8 21z M4946
1768 c-9 -36 -7 -41 13 -35 29 7 45 -7 37 -37 -7 -30 -23 -33 -43 -8 -13 16
-14 16 -11 -3 2 -13 12 -21 31 -23 21 -3 29 2 37 23 13 33 -3 65 -31 65 -28 0
-19 23 12 31 22 6 21 7 -7 8 -25 1 -33 -4 -38 -21z M5040 1775 c-10 -12 -10
-19 -2 -27 8 -8 8 -15 1 -24 -5 -7 -7 -24 -3 -39 5 -22 11 -26 38 -23 24 2 32
8 34 26 2 13 -1 29 -7 36 -7 9 -7 16 1 24 14 14 -7 42 -32 42 -10 0 -23 -7
-30 -15z m46 -6 c10 -17 -13 -36 -27 -22 -12 12 -4 33 11 33 5 0 12 -5 16 -11z
m2 -52 c7 -8 6 -18 -4 -32 -13 -17 -16 -18 -24 -5 -23 35 2 68 28 37z M5130
1771 c7 -14 10 -46 8 -78 -3 -34 -1 -50 5 -44 18 18 12 110 -7 129 -18 16 -18
16 -6 -7z M4515 1751 c-10 -9 -5 -111 5 -111 6 0 10 5 10 10 0 6 11 10 25 10
34 0 53 39 37 75 -9 20 -18 25 -42 23 -17 -1 -33 -4 -35 -7z m65 -31 c0 -28
-11 -50 -25 -50 -24 0 -35 65 -12 73 20 7 37 -4 37 -23z M4620 1745 c-15 -18
0 -21 18 -3 9 9 15 9 24 0 9 -9 7 -13 -5 -17 -9 -3 -24 -7 -33 -10 -9 -3 -14
-14 -12 -27 2 -19 10 -23 38 -24 l36 -2 -6 47 c-4 37 -9 47 -26 49 -11 2 -27
-4 -34 -13z m50 -39 c0 -2 -3 -11 -6 -20 -9 -23 -34 -20 -34 4 0 13 7 20 20
20 11 0 20 -2 20 -4z M4712 1748 c-26 -26 -6 -88 28 -88 11 0 20 -4 20 -10 0
-5 5 -10 10 -10 6 0 10 26 10 58 0 56 -1 58 -28 60 -15 1 -33 -3 -40 -10z m46
-15 c6 -11 6 -25 -1 -40 -13 -30 -25 -29 -33 2 -11 46 14 74 34 38z M4812
1748 c-25 -25 -6 -88 28 -88 11 0 24 9 30 20 7 14 7 20 0 20 -5 0 -10 -7 -10
-15 0 -20 -26 -19 -34 1 -9 23 -8 24 24 24 18 0 30 5 30 13 0 18 -21 37 -40
37 -9 0 -21 -5 -28 -12z m46 -16 c2 -7 -6 -12 -17 -12 -21 0 -27 11 -14 24 9
9 26 2 31 -12z M57 1625 c-3 -20 0 -25 12 -24 32 3 41 -1 41 -20 0 -26 -17
-36 -36 -20 -17 14 -33 4 -17 -12 15 -15 54 -7 67 14 14 22 -3 51 -33 55 -30
5 -26 20 7 25 26 4 26 4 -4 6 -26 1 -32 -3 -37 -24z M410 1595 l0 -55 43 2 42
1 -37 4 c-32 4 -38 8 -38 28 0 19 6 24 33 28 l32 4 -32 1 c-48 3 -44 30 5 35
l37 4 -42 1 -43 2 0 -55z M513 1595 c0 -33 2 -45 4 -27 2 18 2 45 0 60 -2 15
-4 0 -4 -33z M1202 1638 c-17 -17 -15 -91 4 -114 14 -18 15 -18 10 -1 -16 49
-17 69 -8 97 12 33 11 35 -6 18z M1673 1644 c-7 -3 -13 -11 -13 -17 0 -8 4 -7
12 1 17 17 48 15 48 -3 0 -8 -11 -22 -25 -31 -14 -9 -30 -25 -36 -35 -9 -17
-6 -19 33 -18 l43 2 -35 6 -35 6 33 24 c51 36 30 88 -25 65z M1777 1643 l32
-4 -20 -34 c-12 -19 -19 -42 -16 -52 4 -16 5 -16 11 2 4 11 15 37 26 58 l18
37 -41 -2 c-36 -1 -38 -2 -10 -5z M1848 1639 c15 -16 16 -83 2 -110 -7 -12 -7
-19 -1 -19 15 0 31 68 24 101 -3 15 -13 31 -22 34 -13 5 -14 4 -3 -6z M740
1637 c-8 -8 1 -97 9 -97 4 0 5 17 3 38 -5 57 -7 64 -12 59z M1010 1601 c0 -23
2 -41 4 -41 8 0 12 71 4 76 -4 3 -8 -13 -8 -35z M593 1619 c25 -15 21 -29 -9
-29 -20 0 -25 4 -20 16 3 8 2 12 -4 9 -14 -9 -13 -48 2 -63 7 -7 19 -12 28
-11 9 0 6 4 -7 9 -33 13 -28 30 7 30 18 0 30 5 30 13 0 16 -20 37 -34 37 -6 0
-3 -5 7 -11z M650 1616 c-15 -20 -9 -56 12 -70 14 -8 21 -6 35 9 16 17 17 18
1 6 -25 -18 -48 -7 -48 24 0 31 24 42 48 24 15 -13 16 -12 3 4 -16 21 -35 22
-51 3z M890 1620 c-8 -5 -12 -11 -10 -14 3 -2 14 2 24 10 22 15 10 19 -14 4z
M1235 1622 c-9 -10 -5 -112 5 -112 6 0 10 7 10 15 0 9 9 15 24 15 34 0 52 25
40 58 -8 21 -16 27 -42 28 -17 1 -34 -1 -37 -4z m63 -41 c-4 -35 -41 -37 -46
-2 -4 26 13 42 35 34 8 -3 13 -16 11 -32z M1340 1615 c-15 -18 0 -21 18 -3 9
9 15 9 24 0 9 -9 7 -13 -5 -17 -9 -3 -24 -7 -33 -10 -8 -3 -14 -13 -12 -22 2
-13 14 -18 39 -19 l35 -2 -5 42 c-5 32 -11 42 -27 44 -11 2 -27 -4 -34 -13z
m48 -47 c-7 -19 -38 -22 -38 -4 0 10 9 16 21 16 12 0 19 -5 17 -12z M1432
1618 c-27 -27 -7 -78 30 -78 10 0 18 -5 18 -11 0 -7 -11 -9 -30 -5 -35 6 -39
1 -10 -14 14 -8 26 -8 40 0 16 9 20 21 20 63 0 51 -1 53 -28 55 -15 1 -33 -3
-40 -10z m47 -17 c7 -13 6 -23 -3 -36 -16 -22 -36 -12 -36 19 0 39 22 49 39
17z M1532 1618 c-7 -7 -12 -21 -12 -33 0 -41 45 -60 70 -30 8 9 8 15 2 15 -6
0 -12 -5 -14 -12 -5 -14 -38 -4 -38 12 0 5 14 10 30 10 18 0 30 5 30 13 0 18
-21 37 -40 37 -9 0 -21 -5 -28 -12z m46 -16 c2 -7 -6 -12 -17 -12 -21 0 -27
11 -14 24 9 9 26 2 31 -12z M843 1580 c0 -25 2 -35 4 -22 2 12 2 32 0 45 -2
12 -4 2 -4 -23z M973 1580 c0 -25 2 -35 4 -22 2 12 2 32 0 45 -2 12 -4 2 -4
-23z M871 1587 c-1 -5 4 -17 9 -28 13 -24 43 -25 61 -1 11 14 11 15 -1 5 -21
-20 -46 -15 -58 10 -6 12 -11 18 -11 14z M1085 1550 c3 -5 8 -10 11 -10 2 0 4
5 4 10 0 6 -5 10 -11 10 -5 0 -7 -4 -4 -10z M1070 1520 c-13 -8 -12 -10 3 -10
9 0 17 5 17 10 0 12 -1 12 -20 0z M4147 1436 c-15 -11 -15 -15 -3 -19 9 -4 16
-23 19 -49 3 -35 4 -31 5 20 1 34 1 62 0 62 -2 0 -11 -7 -21 -14z M4220 1435
c-7 -8 -10 -18 -6 -22 3 -4 13 2 20 13 12 16 17 17 28 6 11 -11 10 -16 -5 -26
-15 -12 -16 -14 -2 -20 17 -6 20 -32 4 -41 -5 -4 -19 1 -31 12 -20 18 -20 18
-17 -2 3 -13 13 -21 30 -23 31 -4 54 21 44 45 -4 10 -8 29 -9 43 -1 30 -36 39
-56 15z M4480 1390 l0 -60 43 2 42 1 -37 4 c-32 4 -38 8 -38 28 0 19 6 24 33
28 l32 4 -32 1 c-25 2 -33 7 -33 21 0 15 8 21 33 24 31 4 31 4 -5 5 l-38 2 0
-60z M4583 1390 c0 -36 2 -50 4 -32 2 17 2 47 0 65 -2 17 -4 3 -4 -33z M5436
1441 c-4 -6 -3 -11 3 -11 5 0 13 -9 16 -21 4 -11 9 -18 12 -16 2 3 -2 18 -10
33 -9 17 -17 23 -21 15z M5583 1390 c0 -36 2 -50 4 -32 2 17 2 47 0 65 -2 17
-4 3 -4 -33z M5883 1390 c0 -36 2 -50 4 -32 2 17 2 47 0 65 -2 17 -4 3 -4 -33z
M6163 1390 c0 -36 2 -50 4 -32 2 17 2 47 0 65 -2 17 -4 3 -4 -33z M6383 1438
c-20 -25 -23 -68 -9 -103 20 -46 26 -44 13 4 -8 28 -8 50 0 75 12 39 11 43 -4
24z M6846 1428 c-31 -45 -10 -103 35 -96 33 4 41 63 10 73 -12 3 -25 3 -31 0
-15 -9 -12 11 3 24 10 8 17 7 25 -1 13 -13 27 -4 17 11 -11 18 -43 12 -59 -11z
m52 -61 c4 -20 -25 -34 -40 -19 -15 15 -1 44 19 40 10 -2 19 -11 21 -21z
M6940 1435 c-7 -8 -10 -18 -6 -22 3 -4 12 2 20 12 14 19 36 13 36 -10 0 -7
-13 -23 -30 -35 -44 -32 -39 -50 13 -48 36 1 38 2 10 5 -18 2 -33 7 -33 10 0
4 15 19 33 34 27 23 30 31 21 46 -14 24 -47 28 -64 8z M7027 1430 c4 -14 8
-38 8 -55 0 -16 -4 -41 -8 -55 -8 -24 -7 -24 7 -6 9 11 16 38 16 61 0 23 -7
50 -16 61 -14 18 -15 18 -7 -6z M4800 1395 c0 -27 2 -46 5 -44 7 8 9 78 2 85
-4 4 -7 -14 -7 -41z M4641 1417 c2 -1 13 -9 24 -17 19 -14 19 -14 6 3 -7 9
-18 17 -24 17 -6 0 -8 -1 -6 -3z M4746 1406 c10 -8 21 -12 24 -10 5 6 -21 24
-34 24 -6 0 -1 -6 10 -14z M4875 1410 c-4 -6 -11 -8 -16 -5 -5 4 -8 -12 -8
-37 2 -34 3 -37 6 -13 3 17 12 38 20 48 9 9 13 17 10 17 -3 0 -9 -5 -12 -10z
M4922 1412 c-8 -6 -2 -9 18 -9 20 0 26 3 18 9 -7 4 -15 8 -18 8 -3 0 -11 -4
-18 -8z M5043 1409 c11 -6 18 -24 19 -47 l1 -37 4 33 c4 34 -10 62 -31 62 -6
0 -3 -5 7 -11z M5176 1406 c10 -8 21 -12 24 -10 5 6 -21 24 -34 24 -6 0 -1 -6
10 -14z M5230 1405 c-15 -18 -15 -17 28 -38 18 -8 30 -11 26 -6 -3 6 -18 15
-32 20 -26 10 -26 11 -8 25 11 8 15 14 9 14 -6 0 -16 -7 -23 -15z M5361 1404
c0 -11 3 -14 6 -6 3 7 2 16 -1 19 -3 4 -6 -2 -5 -13z M5641 1417 c2 -1 13 -9
24 -17 19 -14 19 -14 6 3 -7 9 -18 17 -24 17 -6 0 -8 -1 -6 -3z M5833 1409
c25 -15 21 -29 -9 -29 -20 0 -25 4 -20 16 3 8 2 12 -4 9 -14 -9 -13 -48 2 -63
7 -7 19 -12 28 -11 9 0 6 4 -7 9 -33 13 -28 30 7 30 18 0 30 5 30 13 0 16 -20
37 -34 37 -6 0 -3 -5 7 -11z M5982 1412 c-8 -6 -2 -9 18 -9 20 0 26 3 18 9 -7
4 -15 8 -18 8 -3 0 -11 -4 -18 -8z M6083 1413 c-7 -2 -13 -10 -13 -16 0 -8 4
-7 12 1 22 22 37 13 41 -28 l4 -40 -1 42 c-1 43 -13 54 -43 41z M6410 1359 c0
-33 4 -59 10 -59 6 0 10 6 10 14 0 9 12 16 28 18 23 3 27 8 30 41 2 20 0 38
-5 38 -4 1 -23 3 -40 5 l-33 2 0 -59z m60 36 c17 -20 8 -50 -15 -50 -20 0 -31
25 -21 51 7 18 20 18 36 -1z M6515 1410 c-10 -17 2 -25 18 -12 8 7 17 9 20 5
13 -12 7 -22 -15 -25 -15 -2 -24 -11 -26 -25 -3 -21 1 -23 35 -21 l39 1 -6 41
c-4 35 -9 41 -32 44 -14 2 -29 -2 -33 -8z m45 -49 c0 -14 -18 -23 -30 -16 -6
4 -8 11 -5 16 8 12 35 12 35 0z M6612 1408 c-27 -27 -7 -78 30 -78 10 0 18 -5
18 -11 0 -7 -11 -9 -30 -5 -35 6 -39 1 -10 -14 14 -8 26 -8 40 0 16 9 20 21
20 63 0 51 -1 53 -28 55 -15 1 -33 -3 -40 -10z m47 -17 c7 -13 6 -23 -3 -36
-16 -22 -36 -12 -36 19 0 39 22 49 39 17z M6711 1406 c-7 -8 -11 -27 -9 -43 2
-24 8 -28 32 -28 17 0 31 6 34 15 5 13 3 13 -11 1 -18 -14 -47 -9 -47 9 0 5
16 10 35 10 38 0 40 2 25 31 -13 22 -43 25 -59 5z m49 -17 c0 -5 -12 -9 -26
-9 -22 0 -24 2 -14 14 12 15 40 11 40 -5z M5000 1370 c0 -22 2 -40 4 -40 2 0
6 18 8 40 2 22 0 40 -4 40 -5 0 -8 -18 -8 -40z M5755 1399 c-4 -6 -5 -12 -2
-15 2 -3 7 2 10 11 7 17 1 20 -8 4z M6293 1375 c0 -22 2 -30 4 -17 2 12 2 30
0 40 -3 9 -5 -1 -4 -23z M4610 1370 c0 -31 49 -55 64 -32 2 4 -7 8 -21 7 -39
0 -40 23 -1 27 l33 3 -37 6 c-30 4 -38 2 -38 -11z M4701 1374 c-2 -40 56 -61
66 -24 4 12 3 12 -5 2 -14 -21 -45 -10 -53 18 -6 22 -7 23 -8 4z M4903 1371
c3 -32 31 -50 55 -35 9 6 18 22 19 35 2 24 2 24 -5 -1 -6 -18 -15 -25 -32 -25
-17 0 -26 7 -32 25 -7 25 -7 25 -5 1z M5131 1374 c-2 -40 56 -61 66 -24 4 12
3 12 -5 2 -14 -21 -45 -10 -53 18 -6 22 -7 23 -8 4z M5401 1358 c-6 -18 -7
-26 -1 -23 6 4 10 13 10 21 0 9 11 14 30 14 22 0 33 -6 40 -22 5 -13 9 -16 9
-8 1 25 -12 37 -46 42 -28 4 -34 1 -42 -24z M5610 1370 c0 -31 49 -55 64 -32
2 4 -7 8 -21 7 -39 0 -40 23 -1 27 l33 3 -37 6 c-30 4 -38 2 -38 -11z M5963
1371 c4 -53 70 -53 74 0 2 24 2 24 -5 -1 -6 -18 -15 -25 -32 -25 -17 0 -26 7
-32 25 -7 25 -7 25 -5 1z M5518 1373 c6 -2 18 -2 25 0 6 3 1 5 -13 5 -14 0
-19 -2 -12 -5z M5362 1350 c0 -14 2 -19 5 -12 2 6 2 18 0 25 -3 6 -5 1 -5 -13z
M5720 1349 c0 -15 18 -19 23 -6 3 8 -1 14 -9 14 -8 0 -14 -4 -14 -8z M6217
1343 c3 -7 -1 -21 -8 -30 -12 -14 -12 -16 0 -11 20 6 33 55 16 55 -7 0 -11 -6
-8 -14z M5228 1338 c6 -6 18 -8 28 -6 14 3 12 5 -9 10 -19 3 -25 2 -19 -4z
M6275 1320 c-3 -5 -1 -10 4 -10 6 0 11 5 11 10 0 6 -2 10 -4 10 -3 0 -8 -4
-11 -10z M60 1301 c-14 -26 -13 -74 2 -89 22 -22 57 -14 64 13 8 31 -13 58
-38 52 -11 -3 -18 0 -18 8 0 20 20 29 33 16 17 -17 31 -13 17 4 -17 21 -47 19
-60 -4z m53 -55 c7 -17 -18 -40 -33 -31 -5 3 -10 15 -10 26 0 23 35 27 43 5z
M412 1258 c0 -35 3 -49 5 -31 3 26 9 33 31 36 l27 4 -27 2 c-21 1 -28 6 -28
20 0 15 8 21 33 24 31 4 31 4 -5 5 l-38 2 2 -62z M710 1260 c0 -35 2 -61 5
-58 8 7 9 108 1 115 -3 3 -6 -22 -6 -57z M2733 1260 c0 -36 2 -50 4 -32 2 17
2 47 0 65 -2 17 -4 3 -4 -33z M660 1265 c0 -27 2 -46 5 -44 7 8 9 78 2 85 -4
4 -7 -14 -7 -41z M2211 1300 c-4 -21 0 -94 5 -99 8 -9 9 5 3 59 -3 30 -7 48
-8 40z M625 1280 c-4 -6 -11 -8 -16 -5 -5 4 -8 -12 -8 -37 2 -34 3 -37 6 -13
3 17 12 38 20 48 9 9 13 17 10 17 -3 0 -9 -5 -12 -10z M753 1279 c11 -6 18
-24 19 -47 l1 -37 4 33 c4 34 -10 62 -31 62 -6 0 -3 -5 7 -11z M831 1287 c2
-1 13 -9 24 -17 19 -14 19 -14 6 3 -7 9 -18 17 -24 17 -6 0 -8 -1 -6 -3z
M1038 1283 c6 -2 13 -23 13 -46 l2 -42 6 40 c6 38 -2 55 -24 54 -5 0 -4 -3 3
-6z M1080 1286 c0 -2 7 -7 16 -10 8 -3 12 -2 9 4 -6 10 -25 14 -25 6z M1171
1287 c2 -1 13 -9 24 -17 19 -14 19 -14 6 3 -7 9 -18 17 -24 17 -6 0 -8 -1 -6
-3z M1276 1276 c10 -8 21 -12 24 -10 5 6 -21 24 -34 24 -6 0 -1 -6 10 -14z
M1367 1283 c6 -4 13 -26 16 -48 4 -40 4 -40 3 4 -1 30 -6 46 -16 48 -10 3 -11
2 -3 -4z M1429 1273 c-13 -16 -12 -17 3 -4 10 7 25 11 33 7 9 -3 13 -2 10 4
-10 15 -31 12 -46 -7z M1553 1279 c11 -6 18 -24 19 -47 l1 -37 4 33 c4 34 -10
62 -31 62 -6 0 -3 -5 7 -11z M1686 1276 c10 -8 21 -12 24 -10 5 6 -21 24 -34
24 -6 0 -1 -6 10 -14z M1740 1275 c-15 -18 -15 -17 28 -38 18 -8 30 -11 26 -6
-3 6 -18 15 -32 20 -26 10 -26 11 -8 25 11 8 15 14 9 14 -6 0 -16 -7 -23 -15z
M1903 1284 c11 -4 17 -16 17 -35 0 -32 -24 -49 -42 -31 -8 8 -5 14 13 21 15 6
18 10 8 10 -21 1 -40 -21 -30 -37 4 -6 20 -11 37 -9 29 2 29 3 24 42 -4 30
-10 40 -25 42 -16 1 -16 1 -2 -3z M1990 1286 c0 -2 7 -7 16 -10 8 -3 12 -2 9
4 -6 10 -25 14 -25 6z M2062 1278 c-26 -26 -7 -79 28 -77 9 0 6 4 -7 9 -28 11
-31 54 -5 69 9 6 12 11 7 11 -6 0 -16 -5 -23 -12z M2297 1283 c6 -4 13 -26 16
-48 4 -40 4 -40 3 4 -1 30 -6 46 -16 48 -10 3 -11 2 -3 -4z M2359 1273 c-13
-17 -13 -17 6 -3 11 8 22 16 24 17 2 2 0 3 -6 3 -6 0 -17 -8 -24 -17z M2533
1279 c11 -6 18 -23 18 -47 l2 -37 6 40 c5 30 2 42 -9 47 -24 10 -37 9 -17 -3z
M2587 1283 c6 -4 13 -26 16 -48 4 -40 4 -40 3 4 -1 30 -6 46 -16 48 -10 3 -11
2 -3 -4z M2649 1273 c-13 -16 -12 -17 3 -4 10 7 25 11 33 7 9 -3 13 -2 10 4
-10 15 -31 12 -46 -7z M2833 1283 c-7 -2 -13 -9 -13 -15 0 -6 6 -6 15 2 21 18
45 5 45 -25 0 -17 -7 -29 -22 -35 -14 -5 -17 -9 -7 -9 21 -1 39 19 39 44 0 35
-25 52 -57 38z M2957 1283 c6 -4 13 -26 16 -48 4 -40 4 -40 3 4 -1 30 -6 46
-16 48 -10 3 -11 2 -3 -4z M3100 1275 c-15 -18 -15 -17 28 -38 18 -8 30 -11
26 -6 -3 6 -18 15 -32 20 -26 10 -26 11 -8 25 11 8 15 14 9 14 -6 0 -16 -7
-23 -15z M3230 1280 c-8 -5 -12 -11 -10 -14 3 -2 14 2 24 10 22 15 10 19 -14
4z M3317 1283 c-3 -5 5 -8 18 -8 13 0 21 3 18 8 -2 4 -10 7 -18 7 -8 0 -16 -3
-18 -7z M558 1248 c-2 -27 -7 -33 -25 -32 -12 0 -20 -3 -17 -8 3 -4 16 -7 29
-6 22 2 25 7 25 40 0 47 -8 50 -12 6z M1000 1240 c0 -22 2 -40 4 -40 2 0 6 18
8 40 2 22 0 40 -4 40 -5 0 -8 -18 -8 -40z M1330 1269 c0 -5 5 -7 10 -4 6 3 10
8 10 11 0 2 -4 4 -10 4 -5 0 -10 -5 -10 -11z M1510 1240 c0 -22 2 -40 4 -40 2
0 6 18 8 40 2 22 0 40 -4 40 -5 0 -8 -18 -8 -40z M1960 1240 c0 -22 2 -40 4
-40 2 0 6 18 8 40 2 22 0 40 -4 40 -5 0 -8 -18 -8 -40z M2105 1270 c3 -5 8
-10 11 -10 2 0 4 5 4 10 0 6 -5 10 -11 10 -5 0 -7 -4 -4 -10z M2260 1269 c0
-5 5 -7 10 -4 6 3 10 8 10 11 0 2 -4 4 -10 4 -5 0 -10 -5 -10 -11z M2443 1240
c0 -25 2 -35 4 -22 2 12 2 32 0 45 -2 12 -4 2 -4 -23z M2920 1269 c0 -5 5 -7
10 -4 6 3 10 8 10 11 0 2 -4 4 -10 4 -5 0 -10 -5 -10 -11z M3183 1240 c0 -25
2 -35 4 -22 2 12 2 32 0 45 -2 12 -4 2 -4 -23z M800 1240 c0 -31 49 -55 64
-32 2 4 -7 8 -21 7 -39 0 -40 23 -1 27 l33 3 -37 6 c-30 4 -38 2 -38 -11z
M1112 1230 c0 -19 2 -27 5 -17 2 9 2 25 0 35 -3 9 -5 1 -5 -18z M1140 1240 c0
-31 49 -55 64 -32 2 4 -7 8 -21 7 -39 0 -40 23 -1 27 l33 3 -37 6 c-30 4 -38
2 -38 -11z M1231 1244 c-2 -40 56 -61 66 -24 4 12 3 12 -5 2 -14 -21 -45 -10
-53 18 -6 22 -7 23 -8 4z M1641 1244 c-2 -40 56 -61 66 -24 4 12 3 12 -5 2
-14 -21 -45 -10 -53 18 -6 22 -7 23 -8 4z M2375 1250 l-40 -7 43 -2 c23 0 42
4 42 9 0 6 -1 9 -2 9 -2 -1 -21 -5 -43 -9z M3318 1248 c5 -5 16 -8 23 -6 8 3
3 7 -10 11 -17 4 -21 3 -13 -5z M3211 1247 c-1 -5 4 -17 9 -28 13 -24 43 -25
61 -1 11 14 11 15 -1 5 -21 -20 -46 -15 -58 10 -6 12 -11 18 -11 14z M1424
1220 c1 -8 10 -16 21 -17 15 -1 15 0 3 3 -9 3 -19 11 -21 17 -2 7 -3 5 -3 -3z
M2644 1220 c1 -8 10 -16 21 -17 15 -1 15 0 3 3 -9 3 -19 11 -21 17 -2 7 -3 5
-3 -3z M3360 1226 c0 -14 -6 -17 -25 -14 -13 3 -22 1 -19 -3 9 -15 44 -10 51
6 3 9 3 19 -1 22 -3 4 -6 -2 -6 -11z M2353 1220 c5 -18 35 -26 50 -11 7 7 3 8
-13 4 -13 -4 -26 0 -32 8 -8 12 -9 11 -5 -1z M1738 1208 c6 -6 18 -8 28 -6 14
3 12 5 -9 10 -19 3 -25 2 -19 -4z M3035 1210 c3 -5 8 -10 11 -10 2 0 4 5 4 10
0 6 -5 10 -11 10 -5 0 -7 -4 -4 -10z M3098 1208 c6 -6 18 -8 28 -6 14 3 12 5
-9 10 -19 3 -25 2 -19 -4z M1705 1180 c721 -3 1402 -3 1515 0 113 3 -477 6
-1310 5 l-1515 0 1310 -5z M486 1111 c-4 -6 -3 -11 3 -11 5 0 13 -9 16 -21 4
-11 9 -18 12 -16 2 3 -2 18 -10 33 -9 17 -17 23 -21 15z M633 1060 c0 -36 2
-50 4 -32 2 17 2 47 0 65 -2 17 -4 3 -4 -33z M1213 1060 c0 -36 2 -50 4 -32 2
17 2 47 0 65 -2 17 -4 3 -4 -33z M1431 1102 c-16 -30 -13 -95 5 -118 14 -18
15 -18 10 -1 -16 50 -17 69 -7 98 13 37 8 50 -8 21z M1897 1114 c-4 -4 -7 -14
-7 -22 0 -13 3 -12 19 2 16 15 20 15 31 1 10 -12 9 -16 -5 -21 -17 -7 -17 -8
0 -20 20 -15 14 -44 -9 -44 -8 0 -20 8 -26 18 -10 15 -10 15 -8 -3 4 -24 42
-32 64 -14 8 7 12 19 8 28 -3 9 -7 30 -8 46 -1 24 -6 31 -26 33 -14 2 -29 0
-33 -4z M1991 1106 c-7 -8 -11 -31 -9 -52 6 -72 70 -72 76 0 4 41 -11 66 -38
66 -10 0 -23 -6 -29 -14z m44 -47 c0 -32 -4 -44 -15 -44 -16 0 -26 54 -16 82
12 30 31 6 31 -38z M2077 1100 c4 -14 8 -38 8 -55 0 -16 -4 -41 -8 -55 -8 -24
-7 -24 7 -6 9 11 16 38 16 61 0 23 -7 50 -16 61 -14 18 -15 18 -7 -6z M411
1074 c0 -11 3 -14 6 -6 3 7 2 16 -1 19 -3 4 -6 -2 -5 -13z M691 1087 c2 -1 13
-9 24 -17 19 -14 19 -14 6 3 -7 9 -18 17 -24 17 -6 0 -8 -1 -6 -3z M883 1079
c25 -15 21 -29 -9 -29 -20 0 -25 4 -20 16 3 8 2 12 -4 9 -14 -9 -13 -48 2 -63
7 -7 19 -12 27 -11 10 0 7 4 -6 9 -33 13 -28 30 7 30 18 0 30 5 30 13 0 16
-20 37 -34 37 -6 0 -3 -5 7 -11z M1033 1083 c-7 -2 -13 -9 -13 -15 0 -6 6 -6
15 2 23 19 47 4 43 -27 -3 -31 -34 -44 -50 -21 -8 10 -9 10 -5 -2 10 -37 67
-16 67 24 0 36 -25 53 -57 39z M1133 1083 c-7 -2 -13 -10 -13 -16 0 -8 4 -7
12 1 22 22 37 13 41 -28 l4 -40 -1 42 c-1 43 -13 54 -43 41z M1465 1082 c-9
-10 -5 -112 5 -112 6 0 10 7 10 15 0 9 9 15 24 15 34 0 52 25 40 58 -8 21 -16
27 -42 28 -17 1 -34 -1 -37 -4z m63 -41 c-4 -35 -41 -37 -46 -2 -4 26 13 42
35 34 8 -3 13 -16 11 -32z M1570 1075 c-15 -18 0 -21 18 -3 9 9 15 9 24 0 9
-9 7 -13 -5 -17 -9 -3 -24 -7 -33 -10 -8 -3 -14 -13 -12 -22 2 -13 14 -18 39
-19 l35 -2 -5 42 c-5 32 -11 42 -27 44 -11 2 -27 -4 -34 -13z m48 -47 c-7 -19
-38 -22 -38 -4 0 10 9 16 21 16 12 0 19 -5 17 -12z M1662 1078 c-27 -27 -7
-78 30 -78 10 0 18 -5 18 -11 0 -7 -11 -9 -30 -5 -35 6 -39 1 -10 -14 14 -8
26 -8 40 0 16 9 20 21 20 63 0 51 -1 53 -28 55 -15 1 -33 -3 -40 -10z m47 -17
c7 -13 6 -23 -3 -36 -16 -22 -36 -12 -36 19 0 39 22 49 39 17z M1761 1076 c-7
-8 -11 -27 -9 -43 2 -24 8 -28 32 -28 17 0 31 6 34 15 5 13 3 13 -11 1 -18
-14 -47 -9 -47 9 0 5 16 10 35 10 38 0 40 2 25 31 -13 22 -43 25 -59 5z m49
-17 c0 -5 -12 -9 -26 -9 -22 0 -24 2 -14 14 12 15 40 11 40 -5z M1246 1067 c3
-10 9 -15 12 -12 3 3 0 11 -7 18 -10 9 -11 8 -5 -6z M1343 1045 c0 -22 2 -30
4 -17 2 12 2 30 0 40 -3 9 -5 -1 -4 -23z M451 1028 c-6 -18 -7 -26 -1 -23 6 4
10 13 10 21 0 9 11 14 30 14 22 0 33 -6 40 -22 5 -13 9 -16 9 -8 1 25 -12 37
-46 42 -28 4 -34 1 -42 -24z M660 1040 c0 -31 49 -55 64 -32 2 4 -7 8 -21 7
-39 0 -40 23 -1 27 l33 3 -37 6 c-30 4 -38 2 -38 -11z M568 1043 c6 -2 18 -2
25 0 6 3 1 5 -13 5 -14 0 -19 -2 -12 -5z M412 1020 c0 -14 2 -19 5 -12 2 6 2
18 0 25 -3 6 -5 1 -5 -13z M770 1033 c0 -15 18 -35 23 -27 3 5 -1 15 -9 22 -8
7 -14 9 -14 5z M1266 1016 l6 -26 -438 -2 -439 -3 435 -5 c239 -3 458 -2 485
1 51 6 44 13 -9 9 -21 -1 -27 2 -24 12 3 7 -1 19 -9 26 -12 12 -13 10 -7 -12z
M55 780 c3 -5 17 -10 30 -10 l24 0 -20 -35 c-11 -19 -19 -42 -16 -52 4 -16 5
-16 11 2 6 17 21 48 44 98 2 4 -15 7 -38 7 -25 0 -39 -4 -35 -10z M412 728 c0
-35 3 -49 5 -31 3 26 9 33 31 36 l27 4 -27 2 c-21 1 -28 6 -28 20 0 15 8 21
33 24 31 4 31 4 -5 5 l-38 2 2 -62z M1290 730 c0 -35 2 -61 5 -58 8 7 9 108 1
115 -3 3 -6 -22 -6 -57z M2847 784 c-11 -11 -8 -24 4 -21 6 1 15 -8 20 -20 7
-21 5 -23 -20 -23 -17 0 -31 -6 -35 -16 -9 -24 -7 -31 5 -11 14 24 53 21 73
-5 12 -17 11 -9 -5 32 -22 60 -32 74 -42 64z M2993 730 c0 -36 2 -50 4 -32 2
17 2 47 0 65 -2 17 -4 3 -4 -33z M3573 730 c0 -36 2 -50 4 -32 2 17 2 47 0 65
-2 17 -4 3 -4 -33z M1240 735 c0 -27 2 -46 5 -44 7 8 9 78 2 85 -4 4 -7 -14
-7 -41z M571 757 c2 -1 13 -9 24 -17 19 -14 19 -14 6 3 -7 9 -18 17 -24 17 -6
0 -8 -1 -6 -3z M682 748 c-26 -26 -7 -79 27 -77 10 0 7 4 -6 9 -28 11 -31 54
-5 69 9 6 12 11 7 11 -6 0 -16 -5 -23 -12z M800 750 c8 -5 20 -10 25 -10 6 0
3 5 -5 10 -8 5 -19 10 -25 10 -5 0 -3 -5 5 -10z M916 752 c-3 -5 5 -8 17 -8
18 1 22 -5 23 -33 0 -19 5 -36 10 -38 14 -5 4 70 -10 79 -15 10 -34 10 -40 0z
M1013 753 c-7 -2 -13 -10 -13 -16 0 -8 4 -7 12 1 22 22 37 13 41 -28 l4 -40
-1 42 c-1 43 -13 54 -43 41z M1102 748 c-26 -26 -7 -79 28 -77 9 0 6 4 -7 9
-28 11 -31 54 -5 69 9 6 12 11 7 11 -6 0 -16 -5 -23 -12z M1333 749 c11 -6 18
-24 19 -47 l1 -37 4 33 c4 34 -10 62 -31 62 -6 0 -3 -5 7 -11z M1411 757 c2
-1 13 -9 24 -17 19 -14 19 -14 6 3 -7 9 -18 17 -24 17 -6 0 -8 -1 -6 -3z
M1630 750 c-8 -5 -12 -11 -10 -14 3 -2 14 2 24 10 22 15 10 19 -14 4z M1723
753 c-7 -2 -13 -9 -13 -15 0 -6 6 -6 15 2 23 19 47 4 43 -27 -3 -31 -34 -44
-50 -21 -8 10 -9 10 -5 -2 10 -37 67 -16 67 24 0 36 -25 53 -57 39z M1840 756
c0 -2 7 -7 16 -10 8 -3 12 -2 9 4 -6 10 -25 14 -25 6z M1930 750 c8 -5 20 -10
25 -10 6 0 3 5 -5 10 -8 5 -19 10 -25 10 -5 0 -3 -5 5 -10z M2011 757 c2 -1
13 -9 24 -17 19 -14 19 -14 6 3 -7 9 -18 17 -24 17 -6 0 -8 -1 -6 -3z M2090
750 c-8 -5 -12 -11 -10 -14 3 -2 14 2 24 10 22 15 10 19 -14 4z M2313 749 c25
-15 21 -29 -9 -29 -20 0 -25 4 -20 16 3 8 2 12 -4 9 -14 -9 -13 -48 2 -63 7
-7 19 -12 28 -11 9 0 6 4 -7 9 -33 13 -28 30 7 30 18 0 30 5 30 13 0 16 -20
37 -34 37 -6 0 -3 -5 7 -11z M2403 749 c11 -6 18 -24 19 -47 l1 -37 4 33 c4
34 -10 62 -31 62 -6 0 -3 -5 7 -11z M2470 750 c-8 -5 -12 -11 -10 -14 3 -2 14
2 24 10 22 15 10 19 -14 4z M2559 743 c-13 -17 -13 -17 6 -3 11 8 22 16 24 17
2 2 0 3 -6 3 -6 0 -17 -8 -24 -17z M2647 753 c-3 -5 5 -8 18 -8 13 0 21 3 18
8 -2 4 -10 7 -18 7 -8 0 -16 -3 -18 -7z M3039 743 c-13 -17 -13 -17 6 -3 11 8
22 16 24 17 2 2 0 3 -6 3 -6 0 -17 -8 -24 -17z M3231 757 c2 -1 13 -9 24 -17
19 -14 19 -14 6 3 -7 9 -18 17 -24 17 -6 0 -8 -1 -6 -3z M3392 748 c-16 -16
-15 -53 3 -68 18 -15 47 -10 53 10 5 13 3 13 -11 1 -23 -19 -47 -7 -47 24 0
30 24 43 45 25 9 -7 15 -8 15 -2 0 9 -22 22 -39 22 -4 0 -12 -5 -19 -12z
M3510 756 c0 -2 7 -7 16 -10 8 -3 12 -2 9 4 -6 10 -25 14 -25 6z M3702 740 c0
-14 2 -19 5 -12 2 6 2 18 0 25 -3 6 -5 1 -5 -13z M725 740 c3 -5 8 -10 11 -10
2 0 4 5 4 10 0 6 -5 10 -11 10 -5 0 -7 -4 -4 -10z M771 734 c0 -11 3 -14 6 -6
3 7 2 16 -1 19 -3 4 -6 -2 -5 -13z M1145 740 c3 -5 8 -10 11 -10 2 0 4 5 4 10
0 6 -5 10 -11 10 -5 0 -7 -4 -4 -10z M1483 710 c0 -25 2 -35 4 -22 2 12 2 32
0 45 -2 12 -4 2 -4 -23z M1810 710 c0 -22 2 -40 4 -40 2 0 6 18 8 40 2 22 0
40 -4 40 -5 0 -8 -18 -8 -40z M1901 734 c0 -11 3 -14 6 -6 3 7 2 16 -1 19 -3
4 -6 -2 -5 -13z M2135 718 c0 -24 -5 -33 -19 -36 -10 -2 -23 2 -28 10 -8 10
-9 10 -5 -2 2 -9 15 -15 30 -15 15 1 27 -3 27 -7 0 -4 -392 -8 -872 -8 -479 0
-869 -2 -866 -5 6 -7 3309 -7 3316 0 5 5 -427 6 -1250 5 l-318 -1 0 46 c0 25
-3 45 -8 45 -4 0 -7 -15 -7 -32z M2184 710 c1 -26 6 -35 19 -36 11 -1 12 0 3
3 -8 2 -17 19 -19 36 -4 31 -4 31 -3 -3z M2360 710 c0 -22 2 -40 4 -40 2 0 6
18 8 40 2 22 0 40 -4 40 -5 0 -8 -18 -8 -40z M2773 715 c0 -22 2 -30 4 -17 2
12 2 30 0 40 -3 9 -5 -1 -4 -23z M3480 710 c0 -22 2 -40 4 -40 2 0 6 18 8 40
2 22 0 40 -4 40 -5 0 -8 -18 -8 -40z M540 710 c0 -31 49 -55 64 -32 2 4 -7 8
-21 7 -39 0 -40 23 -1 27 l33 3 -37 6 c-30 4 -38 2 -38 -11z M1380 710 c0 -31
49 -55 64 -32 2 4 -7 8 -21 7 -39 0 -40 23 -1 27 l33 3 -37 6 c-30 4 -38 2
-38 -11z M1980 710 c0 -31 49 -55 64 -32 2 4 -7 8 -21 7 -39 0 -40 23 -1 27
l33 3 -37 6 c-30 4 -38 2 -38 -11z M2575 720 l-40 -7 43 -2 c23 0 42 4 42 9 0
6 -1 9 -2 9 -2 -1 -21 -5 -43 -9z M2648 718 c5 -5 16 -8 23 -6 8 3 3 7 -10 11
-17 4 -21 3 -13 -5z M3055 720 l-40 -7 43 -2 c23 0 42 4 42 9 0 6 -1 9 -2 9
-2 -1 -21 -5 -43 -9z M3200 710 c0 -31 49 -55 64 -32 2 4 -7 8 -21 7 -39 0
-40 23 -1 27 l33 3 -37 6 c-30 4 -38 2 -38 -11z M790 716 c0 -2 9 -6 20 -9 11
-3 18 -1 14 4 -5 9 -34 13 -34 5z M928 713 c7 -3 16 -2 19 1 4 3 -2 6 -13 5
-11 0 -14 -3 -6 -6z M1611 717 c-1 -5 4 -17 9 -28 13 -24 43 -25 61 -1 11 14
11 15 -1 5 -21 -20 -46 -15 -58 10 -6 12 -11 18 -11 14z M1920 716 c0 -2 9 -6
20 -9 11 -3 18 -1 14 4 -5 9 -34 13 -34 5z M2451 717 c-1 -5 4 -17 9 -28 13
-24 43 -25 61 -1 11 14 11 15 -1 5 -21 -20 -46 -15 -58 10 -6 12 -11 18 -11
14z M2928 713 c6 -2 18 -2 25 0 6 3 1 5 -13 5 -14 0 -19 -2 -12 -5z M904 690
c1 -8 10 -16 21 -17 15 -1 15 0 3 3 -9 3 -19 11 -21 17 -2 7 -3 5 -3 -3z
M2690 696 c0 -14 -6 -17 -25 -14 -13 3 -22 1 -19 -3 9 -15 44 -10 51 6 3 9 3
19 -1 22 -3 4 -6 -2 -6 -11z M2553 690 c5 -18 35 -26 50 -11 7 7 3 8 -13 4
-13 -4 -26 0 -32 8 -8 12 -9 11 -5 -1z M3033 690 c5 -18 35 -26 50 -11 7 7 3
8 -13 4 -13 -4 -26 0 -32 8 -8 12 -9 11 -5 -1z M3701 684 c0 -11 3 -14 6 -6 3
7 2 16 -1 19 -3 4 -6 -2 -5 -13z M777 678 c2 -5 13 -8 23 -8 10 0 21 3 23 8 3
4 -8 7 -23 7 -15 0 -26 -3 -23 -7z M1907 678 c2 -5 13 -8 23 -8 10 0 21 3 23
8 3 4 -8 7 -23 7 -15 0 -26 -3 -23 -7z M3140 680 c0 -5 5 -10 10 -10 6 0 10 5
10 10 0 6 -4 10 -10 10 -5 0 -10 -4 -10 -10z M3635 680 c3 -5 8 -10 11 -10 2
0 4 5 4 10 0 6 -5 10 -11 10 -5 0 -7 -4 -4 -10z M412 565 c-15 -32 -15 -62 1
-98 11 -26 12 -21 12 47 0 42 0 76 -1 76 0 0 -6 -11 -12 -25z M887 583 c-4 -3
-7 -13 -7 -22 0 -12 3 -11 13 4 8 10 19 15 25 11 18 -11 14 -36 -4 -36 -13 0
-11 -4 6 -18 13 -11 20 -24 16 -30 -11 -17 -34 -15 -45 5 -5 10 -13 15 -17 11
-13 -14 19 -39 45 -36 24 3 26 7 27 48 0 25 -4 51 -9 58 -10 13 -39 16 -50 5z
M992 550 l-34 -45 31 -3 c18 -2 32 -10 34 -20 4 -15 5 -15 6 1 0 9 7 17 14 17
9 0 9 2 0 8 -6 4 -13 25 -15 47 l-3 40 -33 -45z m25 -37 c-3 -3 -13 -3 -21 -1
-15 3 -15 6 1 28 l18 25 3 -23 c2 -13 1 -26 -1 -29z M1065 515 c0 -63 2 -71
12 -52 16 28 16 76 0 104 -10 19 -12 11 -12 -52z M451 495 c1 -33 3 -52 6 -42
3 10 14 17 27 17 28 0 46 18 46 46 0 28 -21 45 -54 42 -25 -2 -26 -4 -25 -63z
m58 36 c7 -13 6 -24 -3 -37 -12 -15 -16 -16 -30 -5 -19 16 -20 33 -4 49 17 17
26 15 37 -7z M555 550 c-10 -17 2 -25 18 -12 8 7 17 9 20 5 13 -12 7 -22 -15
-25 -15 -2 -24 -11 -26 -25 -3 -21 1 -23 35 -21 l39 1 -6 41 c-4 35 -9 41 -32
44 -14 2 -29 -2 -33 -8z m45 -49 c0 -14 -18 -23 -30 -16 -6 4 -8 11 -5 16 8
12 35 12 35 0z M650 545 c-6 -8 -10 -26 -8 -42 2 -23 8 -28 31 -28 17 1 27 -4
27 -13 0 -11 -8 -13 -32 -8 -31 5 -32 5 -14 -9 25 -19 31 -19 50 1 10 10 16
33 16 63 0 46 -1 48 -29 49 -16 0 -35 -6 -41 -13z m45 -31 c0 -32 -21 -39 -38
-12 -8 12 -7 21 3 32 19 24 35 14 35 -20z M746 544 c-19 -19 -20 -35 -3 -58
15 -21 58 -18 65 4 5 13 3 13 -11 1 -18 -14 -47 -9 -47 9 0 5 14 10 30 10 31
0 39 17 18 38 -16 16 -33 15 -52 -4z m35 -22 c-28 -4 -40 6 -21 18 9 6 20 4
29 -3 12 -10 11 -13 -8 -15z M60 245 c-10 -12 -10 -19 -2 -27 8 -8 8 -15 1
-24 -19 -23 -1 -54 32 -54 34 0 48 23 31 50 -8 13 -8 20 0 28 14 14 -7 42 -32
42 -10 0 -23 -7 -30 -15z m46 -6 c10 -17 -13 -36 -27 -22 -12 12 -4 33 11 33
5 0 12 -5 16 -11z m3 -53 c9 -10 8 -16 -4 -26 -19 -16 -41 1 -32 24 8 20 21
20 36 2z M412 199 c1 -54 2 -57 5 -19 3 24 9 47 14 51 6 3 4 11 -6 19 -13 11
-15 5 -13 -51z M490 213 l-1 -48 -25 30 -26 30 18 -33 c35 -62 44 -61 44 7 0
33 -2 61 -5 61 -3 0 -5 -21 -5 -47z M723 200 c0 -36 2 -50 4 -32 2 17 2 47 0
65 -2 17 -4 3 -4 -33z M1140 200 c0 -35 2 -61 5 -58 8 7 9 108 1 115 -3 3 -6
-22 -6 -57z M1736 244 c-9 -23 -7 -31 4 -14 10 17 15 14 24 -17 6 -19 3 -23
-13 -23 -12 0 -21 6 -22 13 0 6 -7 -3 -15 -22 -8 -18 -13 -35 -10 -38 2 -2 7
5 11 16 4 15 15 21 35 21 20 0 31 -6 35 -21 4 -11 8 -19 11 -17 5 6 -38 118
-46 118 -4 0 -11 -7 -14 -16z M2193 200 c0 -36 2 -50 4 -32 2 17 2 47 0 65 -2
17 -4 3 -4 -33z M2693 248 c-20 -25 -23 -68 -9 -103 20 -46 26 -44 13 4 -8 28
-8 50 0 75 12 39 11 43 -4 24z M3168 221 c-34 -48 -34 -51 -3 -51 16 0 25 -6
25 -15 0 -20 18 -19 22 2 5 25 -3 103 -11 103 -3 0 -18 -18 -33 -39z m22 -16
c0 -16 -6 -25 -15 -25 -18 0 -19 4 -3 30 16 26 18 25 18 -5z M3267 246 c-15
-11 -15 -15 -3 -19 9 -4 16 -23 19 -49 3 -35 4 -31 5 20 1 34 1 62 0 62 -2 0
-11 -7 -21 -14z M3335 185 c0 -63 2 -71 12 -52 7 12 12 36 12 52 0 17 -5 40
-12 52 -10 19 -12 11 -12 -52z M666 216 c10 -8 21 -12 24 -10 5 6 -21 24 -34
24 -6 0 -1 -6 10 -14z M781 227 c2 -1 13 -9 24 -17 19 -14 19 -14 6 3 -7 9
-18 17 -24 17 -6 0 -8 -1 -6 -3z M856 222 c-3 -5 5 -8 17 -8 18 1 22 -5 23
-33 0 -19 5 -36 10 -38 14 -5 4 70 -10 79 -15 10 -34 10 -40 0z M1183 219 c11
-6 18 -24 19 -47 l1 -37 4 33 c4 34 -10 62 -31 62 -6 0 -3 -5 7 -11z M1327
223 c-3 -5 5 -8 18 -8 13 0 21 3 18 8 -2 4 -10 7 -18 7 -8 0 -16 -3 -18 -7z
M1450 216 c-15 -20 -9 -56 12 -70 14 -8 21 -6 35 9 16 17 17 18 1 6 -25 -18
-48 -7 -48 24 0 31 24 42 48 24 15 -13 16 -12 3 4 -16 21 -35 22 -51 3z M1540
215 c-15 -18 -15 -17 28 -38 18 -8 30 -11 26 -6 -3 6 -18 15 -32 20 -26 10
-26 11 -8 25 11 8 15 14 9 14 -6 0 -16 -7 -23 -15z M1963 219 c25 -15 21 -29
-9 -29 -20 0 -25 4 -20 16 3 8 2 12 -4 9 -14 -9 -13 -48 2 -63 7 -7 19 -12 28
-11 9 0 6 4 -7 9 -33 13 -28 30 7 30 18 0 30 5 30 13 0 16 -20 37 -34 37 -6 0
-3 -5 7 -11z M2109 213 c-13 -17 -13 -17 6 -3 11 8 22 16 24 17 2 2 0 3 -6 3
-6 0 -17 -8 -24 -17z M2292 222 c-8 -6 -2 -9 18 -9 20 0 26 3 18 9 -7 4 -15 8
-18 8 -3 0 -11 -4 -18 -8z M2413 219 c11 -6 18 -24 19 -47 l1 -37 4 33 c4 34
-10 62 -31 62 -6 0 -3 -5 7 -11z M2720 169 c0 -33 4 -59 10 -59 6 0 10 6 10
14 0 9 12 16 28 18 23 3 27 8 30 41 2 20 0 38 -5 38 -4 1 -23 3 -40 5 l-33 2
0 -59z m60 36 c17 -20 8 -50 -15 -50 -20 0 -31 25 -21 51 7 18 20 18 36 -1z
M2825 220 c-10 -17 2 -25 18 -12 8 7 17 9 20 5 13 -12 7 -22 -15 -25 -15 -2
-24 -11 -26 -25 -3 -21 1 -23 35 -21 l39 1 -6 41 c-4 35 -9 41 -32 44 -14 2
-29 -2 -33 -8z m45 -49 c0 -14 -18 -23 -30 -16 -6 4 -8 11 -5 16 8 12 35 12
35 0z M2920 215 c-6 -8 -10 -26 -8 -42 2 -23 8 -28 31 -28 17 1 27 -4 27 -13
0 -11 -8 -13 -32 -8 -31 5 -32 5 -14 -9 25 -19 31 -19 50 1 10 10 16 33 16 63
0 46 -1 48 -29 49 -16 0 -35 -6 -41 -13z m45 -31 c0 -32 -21 -39 -38 -12 -8
12 -7 21 3 32 19 24 35 14 35 -20z M3016 214 c-19 -19 -20 -35 -3 -58 15 -21
58 -18 65 4 5 13 3 13 -11 1 -18 -14 -47 -9 -47 9 0 5 14 10 30 10 31 0 39 17
18 38 -16 16 -33 15 -52 -4z m35 -22 c-28 -4 -40 6 -21 18 9 6 20 4 29 -3 12
-10 11 -13 -8 -15z M534 185 c1 -31 5 -41 21 -43 18 -4 19 -3 3 10 -9 7 -19
27 -21 43 -3 21 -4 18 -3 -10z M588 184 c-2 -19 0 -37 4 -40 4 -3 8 13 8 35 0
51 -6 53 -12 5z M1040 163 c0 -31 3 -53 7 -49 9 9 10 106 1 106 -5 0 -8 -26
-8 -57z M2065 209 c-4 -6 -5 -12 -2 -15 2 -3 7 2 10 11 7 17 1 20 -8 4z M2370
180 c0 -22 2 -40 4 -40 2 0 6 18 8 40 2 22 0 40 -4 40 -5 0 -8 -18 -8 -40z
M1662 185 c0 -16 2 -22 5 -12 2 9 2 23 0 30 -3 6 -5 -1 -5 -18z M2602 185 c0
-16 2 -22 5 -12 2 9 2 23 0 30 -3 6 -5 -1 -5 -18z M621 184 c-2 -40 56 -61 66
-24 4 12 3 12 -5 2 -14 -21 -45 -10 -53 18 -6 22 -7 23 -8 4z M750 180 c0 -31
49 -55 64 -32 2 4 -7 8 -21 7 -39 0 -40 23 -1 27 l33 3 -37 6 c-30 4 -38 2
-38 -11z M1111 182 c-1 -13 -10 -26 -23 -32 -16 -6 -18 -9 -7 -9 22 -1 42 24
36 46 -4 14 -5 13 -6 -5z M1328 188 c5 -5 16 -8 23 -6 8 3 3 7 -10 11 -17 4
-21 3 -13 -5z M2125 190 l-40 -7 43 -2 c23 0 42 4 42 9 0 6 -1 9 -2 9 -2 -1
-21 -5 -43 -9z M2273 181 c4 -53 70 -53 74 0 2 24 2 24 -5 -1 -6 -18 -15 -25
-32 -25 -17 0 -26 7 -32 25 -7 25 -7 25 -5 1z M868 183 c7 -3 16 -2 19 1 4 3
-2 6 -13 5 -11 0 -14 -3 -6 -6z M1828 183 c6 -2 18 -2 25 0 6 3 1 5 -13 5 -14
0 -19 -2 -12 -5z M844 160 c1 -8 10 -16 21 -17 15 -1 15 0 3 3 -9 3 -19 11
-21 17 -2 7 -3 5 -3 -3z M1370 166 c0 -14 -6 -17 -25 -14 -13 3 -22 1 -19 -3
9 -15 44 -10 51 6 3 9 3 19 -1 22 -3 4 -6 -2 -6 -11z M1257 153 c3 -7 -1 -21
-8 -30 -12 -14 -12 -16 0 -11 20 6 33 55 16 55 -7 0 -11 -6 -8 -14z M2030 159
c0 -15 18 -19 23 -6 3 8 -1 14 -9 14 -8 0 -14 -4 -14 -8z M2103 160 c5 -18 35
-26 50 -11 7 7 3 8 -13 4 -13 -4 -26 0 -32 8 -8 12 -9 11 -5 -1z M2527 153 c3
-7 -1 -21 -8 -30 -12 -14 -12 -16 0 -11 20 6 33 55 16 55 -7 0 -11 -6 -8 -14z
M1538 148 c6 -6 18 -8 28 -6 14 3 12 5 -9 10 -19 3 -25 2 -19 -4z M1670 138
c0 -9 5 -20 10 -23 13 -8 13 5 0 25 -8 13 -10 13 -10 -2z M2586 134 c-4 -9 -4
-19 -1 -22 2 -3 7 3 11 12 4 9 4 19 1 22 -2 3 -7 -3 -11 -12z"/>
</g>
</svg>
