<?xml version="1.0" standalone="no"?>
<!DOCTYPE svg PUBLIC "-//W3C//DTD SVG 20010904//EN"
 "http://www.w3.org/TR/2001/REC-SVG-20010904/DTD/svg10.dtd">
<svg version="1.0" xmlns="http://www.w3.org/2000/svg"
 width="225.000000pt" height="225.000000pt" viewBox="0 0 225.000000 225.000000"
 preserveAspectRatio="xMidYMid meet">
<metadata>
Created by potrace 1.16, written by Peter Selinger 2001-2019
</metadata>
<g transform="translate(0.000000,225.000000) scale(0.100000,-0.100000)"
fill="#000000" stroke="none">
<path d="M568 2142 c-27 -10 -48 -21 -49 -27 -1 -5 21 -21 47 -35 45 -23 50
-29 56 -70 12 -79 9 -235 -4 -252 -15 -19 -172 -48 -260 -48 -32 0 -58 -4 -58
-8 0 -12 54 -41 115 -62 51 -17 60 -18 123 -5 37 8 71 15 75 15 4 0 6 -57 5
-127 l-3 -127 -110 -27 c-60 -15 -147 -38 -193 -53 -46 -14 -102 -26 -125 -26
-39 0 -77 -13 -67 -23 10 -9 90 -47 140 -67 l50 -20 78 25 c42 14 101 35 129
47 l53 22 25 -24 c13 -12 30 -39 36 -59 15 -44 17 -217 5 -414 l-9 -148 -81 6
c-45 4 -86 8 -93 10 -8 3 -6 21 8 67 10 35 19 70 19 78 0 8 12 39 25 69 l26
54 -26 37 c-41 59 -77 88 -126 101 -41 11 -50 10 -85 -8 -21 -11 -39 -26 -39
-33 0 -8 20 -26 45 -40 l45 -26 3 -67 c3 -70 -30 -225 -89 -419 -38 -123 -61
-176 -104 -232 l-35 -46 24 -6 c31 -7 51 4 103 58 48 49 139 209 148 262 14
72 18 73 149 37 64 -18 160 -50 214 -72 371 -155 632 -253 832 -313 82 -24 90
-25 225 -16 207 13 375 54 375 90 0 18 -123 49 -320 80 -69 10 -154 26 -190
35 -36 9 -108 23 -160 31 -207 34 -291 56 -440 117 -47 19 -140 52 -207 73
-80 24 -124 43 -128 53 -3 9 0 32 5 51 6 19 10 62 10 95 0 86 7 105 39 105 73
1 224 45 264 78 24 21 21 58 -5 76 -33 24 -143 22 -160 -2 -18 -26 -106 -58
-119 -45 -7 7 -9 33 -5 69 16 138 15 142 -50 200 -33 29 -56 55 -52 59 13 14
86 26 206 34 132 10 166 24 160 65 -7 47 -100 62 -237 37 -35 -6 -66 -9 -68
-7 -8 8 29 242 40 253 15 15 150 43 206 43 41 0 81 23 81 46 0 9 -13 29 -29
45 -23 23 -38 29 -72 29 -23 0 -50 -6 -58 -14 -20 -18 -108 -43 -117 -33 -6 6
4 104 23 215 8 46 -16 75 -89 111 -85 40 -96 42 -150 23z M1705 1958 c-19 -14
-90 -36 -229 -68 -176 -40 -210 -45 -271 -40 -38 4 -72 5 -75 2 -8 -7 102
-102 134 -116 35 -16 99 -6 176 27 59 26 261 79 269 71 6 -6 -16 -320 -25
-351 -3 -12 -18 -26 -32 -32 -30 -12 -315 -81 -334 -81 -6 0 -23 11 -37 24
-15 13 -48 31 -74 40 -47 16 -117 22 -117 10 0 -3 21 -30 48 -58 l47 -52 0
-315 c0 -306 1 -315 23 -361 46 -95 141 -146 309 -167 90 -11 325 16 422 49
164 55 196 104 121 185 -48 53 -66 87 -119 230 -29 77 -57 145 -63 150 -6 7
-7 -43 -3 -145 4 -109 2 -173 -7 -215 -12 -57 -15 -61 -58 -82 -67 -32 -166
-46 -273 -38 -100 8 -141 22 -189 67 l-31 29 6 207 c7 238 20 319 51 333 34
14 234 57 325 69 131 18 166 46 134 107 -13 25 -12 36 7 108 35 130 40 151 40
173 0 14 11 27 30 37 25 13 30 21 30 53 0 49 -17 72 -94 127 -71 50 -100 55
-141 23z"/>
</g>
</svg>
