<?xml version="1.0" standalone="no"?>
<!DOCTYPE svg PUBLIC "-//W3C//DTD SVG 20010904//EN"
 "http://www.w3.org/TR/2001/REC-SVG-20010904/DTD/svg10.dtd">
<svg version="1.0" xmlns="http://www.w3.org/2000/svg"
 width="1024.000000pt" height="341.000000pt" viewBox="0 0 1024.000000 341.000000"
 preserveAspectRatio="xMidYMid meet">
<metadata>
Created by potrace 1.16, written by Peter Selinger 2001-2019
</metadata>
<g transform="translate(0.000000,341.000000) scale(0.100000,-0.100000)"
fill="#000000" stroke="none">
<path d="M0 1705 l0 -1705 5120 0 5120 0 0 1705 0 1705 -5120 0 -5120 0 0
-1705z m8535 1065 c307 -44 567 -193 747 -430 195 -255 260 -640 162 -954
-127 -403 -462 -678 -911 -745 -50 -8 -1072 -11 -3415 -11 -3591 0 -3413 -2
-3588 48 -316 92 -580 322 -696 606 -67 164 -78 222 -78 416 0 157 3 185 27
272 50 188 130 329 267 471 167 175 394 289 645 326 86 12 6752 13 6840 1z
M1712 2499 c-86 -14 -238 -69 -304 -109 -272 -164 -417 -463 -379 -778 43
-348 258 -593 604 -685 l82 -22 3405 0 3405 0 85 23 c298 79 507 283 581 567
25 96 30 287 10 380 -60 277 -255 494 -526 584 -49 16 -119 35 -155 40 -82 14
-6729 13 -6808 0z m438 -632 l215 -348 3 351 2 351 158 -3 157 -3 3 -508 2
-507 -162 2 -163 3 -215 345 -215 345 -3 -347 -2 -348 -155 0 -155 0 0 510 0
511 157 -3 158 -3 215 -348z m1010 243 l0 -111 -152 3 -153 3 -3 94 c-1 52 -1
100 2 108 4 10 40 13 156 13 l150 0 0 -110z m4498 -402 l2 -508 -155 0 c-136
0 -155 2 -155 16 0 12 -5 14 -17 9 -84 -37 -132 -47 -199 -43 -134 9 -255 91
-310 211 -24 52 -28 75 -29 147 0 77 3 92 33 152 37 75 105 143 180 180 34 16
69 24 127 26 78 4 96 0 198 -43 16 -7 17 5 17 172 0 99 3 183 7 187 4 3 72 5
152 4 l146 -3 3 -507z m1074 492 c20 -6 50 -26 67 -45 75 -86 54 -196 -47
-246 -72 -36 -144 -16 -196 55 -16 20 -21 42 -21 86 0 71 21 105 85 138 50 25
60 26 112 12z m-4042 -155 l0 -64 83 -3 82 -3 3 -52 3 -53 -85 0 -86 0 0 -335
0 -335 -155 0 -155 0 0 335 0 335 -81 0 -80 0 3 53 3 52 78 3 77 3 0 64 0 65
155 0 155 0 0 -65z m683 -140 c176 -37 328 -185 339 -330 l3 -40 -287 -3 -288
-2 0 -78 c0 -137 30 -190 113 -199 84 -10 137 45 137 141 l0 46 155 0 c85 0
155 -3 155 -7 0 -5 -13 -31 -30 -59 -138 -242 -526 -288 -740 -88 -186 174
-138 454 100 574 112 56 222 71 343 45z m2950 0 c168 -44 289 -161 315 -305
24 -132 -31 -258 -149 -345 -230 -169 -583 -97 -701 143 -29 59 -33 76 -33
147 0 100 29 166 107 243 113 113 297 160 461 117z m-4309 -26 c73 -27 147
-95 177 -161 23 -50 24 -65 27 -285 l3 -233 -155 0 -156 0 0 238 c-1 173 -4
243 -14 260 -45 82 -192 82 -240 0 -17 -28 -19 -53 -17 -264 l2 -234 -155 0
-156 0 0 340 0 341 153 -3 152 -3 3 -27 3 -27 64 35 c105 58 198 65 309 23z
m2467 5 c81 -30 140 -81 179 -158 l35 -69 3 -228 4 -229 -156 0 -155 0 -3 246
-3 246 -37 34 c-33 30 -44 34 -90 34 -35 0 -64 -7 -85 -20 -59 -36 -63 -54
-63 -310 l0 -230 -155 0 -155 0 2 338 3 337 153 3 152 3 0 -36 0 -35 41 29
c35 26 87 48 154 65 34 8 125 -2 176 -20z m-3321 -344 l0 -340 -150 0 -150 0
0 340 0 340 150 0 150 0 0 -340z M7178 1774 c-51 -27 -58 -57 -58 -236 0 -143
2 -167 19 -194 41 -67 151 -67 191 -1 18 28 20 51 20 194 0 89 -4 173 -10 187
-21 55 -105 81 -162 50z M8611 2145 c-40 -34 -56 -84 -41 -130 44 -133 240
-103 240 37 0 38 -28 86 -62 104 -40 23 -103 17 -137 -11z m139 -25 c25 -25
25 -31 1 -61 -17 -22 -17 -28 -5 -49 19 -35 17 -50 -6 -50 -13 0 -26 12 -37
35 -9 19 -20 35 -25 35 -4 0 -8 -16 -8 -35 0 -31 -3 -35 -25 -35 -25 0 -25 1
-25 90 l0 90 55 0 c42 0 60 -5 75 -20z M8670 2085 c0 -26 14 -31 39 -16 19 12
6 41 -19 41 -15 0 -20 -7 -20 -25z M5208 1815 c-35 -20 -58 -63 -65 -126 l-6
-49 128 0 127 0 -4 60 c-4 52 -9 66 -35 92 -37 37 -102 47 -145 23z M8122
1805 c-18 -15 -34 -41 -41 -69 -14 -57 -14 -339 0 -390 32 -114 171 -129 219
-23 17 36 20 66 20 212 0 94 -5 187 -10 207 -23 83 -124 117 -188 63z"/>
</g>
</svg>
