<?xml version="1.0" standalone="no"?>
<!DOCTYPE svg PUBLIC "-//W3C//DTD SVG 20010904//EN"
 "http://www.w3.org/TR/2001/REC-SVG-20010904/DTD/svg10.dtd">
<svg version="1.0" xmlns="http://www.w3.org/2000/svg"
 width="1359.000000pt" height="1758.000000pt" viewBox="0 0 1359.000000 1758.000000"
 preserveAspectRatio="xMidYMid meet">
<metadata>
Created by potrace 1.16, written by Peter Selinger 2001-2019
</metadata>
<g transform="translate(0.000000,1758.000000) scale(0.100000,-0.100000)"
fill="#000000" stroke="none">
<path d="M6520 15620 c-722 -53 -1289 -166 -1960 -389 -1220 -407 -2139 -1025
-2771 -1864 -385 -510 -686 -1109 -859 -1707 -88 -306 -156 -676 -176 -955 -3
-49 -8 -101 -10 -115 -8 -51 -4 -655 6 -773 65 -768 277 -1562 579 -2165 426
-851 1078 -1520 1991 -2042 251 -144 503 -265 840 -402 282 -115 377 -173 451
-277 62 -87 84 -171 84 -326 0 -149 -10 -180 -65 -207 -32 -16 -91 -17 -865
-13 -1519 9 -1617 12 -1911 61 -277 45 -521 113 -668 186 -122 60 -184 104
-282 203 -145 145 -225 300 -265 517 -39 208 -48 218 -209 218 -111 0 -134
-11 -150 -70 -10 -35 -1 -553 15 -910 2 -63 7 -261 10 -440 3 -179 8 -370 10
-425 2 -55 7 -278 10 -495 4 -217 11 -418 16 -446 12 -62 47 -99 104 -111 22
-4 1163 -6 2535 -3 2753 6 2541 0 2585 66 17 25 20 47 20 159 0 121 -14 404
-20 415 -1 3 -6 59 -10 125 -4 66 -8 134 -10 150 -2 17 -7 82 -10 145 -4 63
-8 117 -10 120 -1 3 -6 64 -10 135 -4 72 -8 137 -10 145 -2 8 -6 69 -9 135 -4
66 -9 131 -11 145 -2 14 -7 63 -10 110 -3 47 -12 164 -20 260 -8 96 -17 216
-20 265 -4 50 -8 101 -10 115 -2 14 -6 66 -10 115 -12 156 -39 192 -205 275
-799 400 -1378 1057 -1743 1975 -143 359 -262 767 -328 1123 -28 151 -67 413
-74 502 -4 41 -8 85 -10 98 -26 167 -26 926 -1 1187 115 1194 407 2115 913
2884 429 653 960 1106 1582 1350 428 168 887 243 1396 227 116 -4 224 -9 240
-11 17 -2 77 -9 135 -15 766 -79 1406 -376 1920 -890 74 -74 181 -192 237
-262 398 -497 796 -1320 1002 -2072 86 -313 161 -703 187 -966 3 -36 8 -76 10
-90 29 -188 29 -991 0 -1260 -76 -700 -238 -1380 -452 -1904 -342 -837 -928
-1483 -1694 -1867 -148 -74 -188 -108 -208 -177 -10 -34 -32 -269 -47 -497 -3
-49 -10 -139 -15 -200 -9 -114 -16 -197 -25 -350 -3 -49 -8 -110 -10 -135 -2
-25 -7 -83 -10 -130 -3 -47 -8 -110 -10 -140 -5 -49 -16 -222 -30 -445 -3 -44
-8 -102 -10 -130 -3 -27 -7 -86 -10 -130 -3 -44 -10 -143 -15 -220 -21 -283
-18 -305 35 -325 11 -4 1163 -9 2560 -11 2873 -4 2597 -12 2637 78 21 46 22
69 29 498 4 248 10 524 13 615 4 91 11 370 16 620 6 250 12 489 15 530 3 41 6
173 7 293 l3 219 -28 24 c-26 22 -36 24 -133 24 -164 0 -184 -18 -205 -191
-20 -170 -84 -329 -184 -459 -111 -145 -261 -239 -560 -355 -295 -114 -435
-136 -970 -151 -137 -3 -252 -8 -255 -9 -7 -4 -1535 -20 -1760 -19 -294 1
-316 22 -312 295 3 233 29 307 128 365 24 14 117 53 206 85 1293 473 2247
1236 2890 2309 396 661 628 1420 688 2255 8 124 6 837 -4 890 -3 17 -10 89
-16 160 -46 558 -187 1126 -405 1640 -49 116 -197 407 -260 510 -217 360 -433
633 -741 935 -429 421 -881 730 -1549 1060 -828 409 -1663 645 -2545 720 -171
15 -767 21 -920 10z"/>
</g>
</svg>
