<?xml version="1.0" standalone="no"?>
<!DOCTYPE svg PUBLIC "-//W3C//DTD SVG 20010904//EN"
 "http://www.w3.org/TR/2001/REC-SVG-20010904/DTD/svg10.dtd">
<svg version="1.0" xmlns="http://www.w3.org/2000/svg"
 width="570.000000pt" height="419.000000pt" viewBox="0 0 570.000000 419.000000"
 preserveAspectRatio="xMidYMid meet">
<metadata>
Created by potrace 1.16, written by Peter Selinger 2001-2019
</metadata>
<g transform="translate(0.000000,419.000000) scale(0.100000,-0.100000)"
fill="#000000" stroke="none">
<path d="M2497 3314 c-4 -4 -7 -490 -7 -1080 l0 -1073 243 -80 c159 -53 245
-76 252 -70 6 6 12 337 15 932 5 876 6 924 23 951 17 25 24 28 54 23 41 -7 61
-22 76 -57 7 -16 13 -168 17 -428 5 -382 6 -404 24 -418 36 -26 130 -47 207
-48 63 0 86 5 132 28 155 76 225 263 199 534 -17 174 -54 267 -149 373 -123
135 -339 231 -813 357 -205 55 -262 67 -273 56z M2280 1981 c-114 -38 -457
-160 -620 -220 -103 -38 -224 -106 -256 -144 -48 -57 -44 -105 14 -169 105
-117 499 -202 817 -178 66 5 135 12 153 16 l32 7 0 128 c0 76 -4 130 -10 134
-6 4 -66 -12 -133 -34 -154 -51 -238 -71 -305 -71 -67 0 -122 22 -122 49 0 22
0 22 307 132 106 38 209 75 228 83 l36 15 -3 142 c-2 84 -7 144 -13 145 -5 2
-62 -14 -125 -35z M3455 1893 c-85 -8 -223 -35 -302 -59 l-83 -25 0 -150 c0
-110 3 -151 13 -154 6 -3 144 40 306 95 293 99 295 100 390 100 99 0 146 -13
146 -40 0 -19 -76 -50 -460 -186 -176 -62 -337 -120 -357 -129 l-38 -15 0
-145 c0 -126 2 -145 16 -145 14 0 132 41 664 231 460 165 524 194 590 265 70
77 54 147 -49 213 -55 36 -184 85 -280 107 -153 36 -395 52 -556 37z"/>
</g>
</svg>
