<?xml version="1.0" standalone="no"?>
<!DOCTYPE svg PUBLIC "-//W3C//DTD SVG 20010904//EN"
 "http://www.w3.org/TR/2001/REC-SVG-20010904/DTD/svg10.dtd">
<svg version="1.0" xmlns="http://www.w3.org/2000/svg"
 width="920.000000pt" height="480.000000pt" viewBox="0 0 920.000000 480.000000"
 preserveAspectRatio="xMidYMid meet">
<metadata>
Created by potrace 1.16, written by Peter Selinger 2001-2019
</metadata>
<g transform="translate(0.000000,480.000000) scale(0.100000,-0.100000)"
fill="#000000" stroke="none">
<path d="M2000 4510 l0 -80 160 0 c179 0 201 -6 243 -62 13 -18 32 -53 42 -78
21 -53 23 -93 29 -770 3 -351 8 -493 20 -580 33 -235 75 -396 153 -577 111
-255 287 -419 592 -550 263 -112 529 -175 979 -229 l43 -5 -4 -447 c-3 -364
-6 -456 -19 -497 -52 -171 -157 -268 -319 -294 -35 -6 -112 -11 -171 -11
l-108 0 0 -65 0 -65 965 0 965 0 0 65 0 65 -107 0 c-193 0 -286 26 -368 101
-55 51 -90 107 -118 192 -20 59 -21 87 -25 509 l-3 447 43 5 c579 70 940 175
1211 352 288 189 441 487 513 999 13 96 18 240 23 715 7 651 6 633 69 719 39
53 71 61 247 61 l155 0 0 80 0 80 -272 0 c-151 0 -293 -5 -318 -11 -82 -18
-187 -77 -256 -142 -107 -99 -168 -201 -222 -367 -67 -207 -82 -351 -82 -787
0 -781 -52 -1035 -255 -1239 -121 -122 -264 -192 -500 -244 -72 -15 -311 -50
-347 -50 -13 0 -10 2326 3 2395 14 76 39 124 85 165 78 68 215 107 412 117
l112 6 0 78 0 79 -965 0 -965 0 0 -79 0 -78 113 -6 c269 -13 419 -79 478 -210
l24 -52 3 -1208 2 -1208 -57 6 c-405 46 -624 122 -785 273 -99 92 -163 209
-204 372 -44 171 -55 312 -64 845 -9 525 -16 607 -62 765 -29 102 -70 200
-110 268 -51 87 -180 213 -258 251 -116 56 -148 61 -447 61 l-273 0 0 -80z"/>
</g>
</svg>
