<?xml version="1.0" standalone="no"?>
<!DOCTYPE svg PUBLIC "-//W3C//DTD SVG 20010904//EN"
 "http://www.w3.org/TR/2001/REC-SVG-20010904/DTD/svg10.dtd">
<svg version="1.0" xmlns="http://www.w3.org/2000/svg"
 width="683.000000pt" height="410.000000pt" viewBox="0 0 683.000000 410.000000"
 preserveAspectRatio="xMidYMid meet">
<metadata>
Created by potrace 1.16, written by Peter Selinger 2001-2019
</metadata>
<g transform="translate(0.000000,410.000000) scale(0.100000,-0.100000)"
fill="#000000" stroke="none">
<path d="M3847 3444 c-102 -24 -185 -72 -268 -154 -108 -107 -169 -239 -169
-369 l0 -54 59 6 c80 9 148 36 223 90 137 98 228 271 228 434 0 35 -3 63 -7
62 -5 0 -34 -7 -66 -15z M3735 2820 c-38 -10 -113 -35 -165 -55 -126 -49 -155
-48 -310 10 -109 42 -137 48 -221 53 -113 5 -174 -6 -274 -53 -356 -167 -479
-622 -309 -1148 91 -279 312 -605 462 -681 96 -49 165 -45 322 19 166 67 283
67 444 0 189 -78 307 -61 433 64 102 100 231 298 292 446 48 117 49 109 -16
145 -32 18 -88 63 -124 100 -211 214 -211 555 1 771 36 36 76 73 88 82 31 20
22 36 -58 111 -146 134 -369 188 -565 136z"/>
</g>
</svg>
