<?xml version="1.0" standalone="no"?>
<!DOCTYPE svg PUBLIC "-//W3C//DTD SVG 20010904//EN"
 "http://www.w3.org/TR/2001/REC-SVG-20010904/DTD/svg10.dtd">
<svg version="1.0" xmlns="http://www.w3.org/2000/svg"
 width="432.000000pt" height="243.000000pt" viewBox="0 0 432.000000 243.000000"
 preserveAspectRatio="xMidYMid meet">
<metadata>
Created by potrace 1.16, written by Peter Selinger 2001-2019
</metadata>
<g transform="translate(0.000000,243.000000) scale(0.100000,-0.100000)"
fill="#000000" stroke="none">
<path d="M0 1215 l0 -1215 2160 0 2160 0 0 1215 0 1215 -2160 0 -2160 0 0
-1215z m1940 10 l0 -305 -50 0 -50 0 0 305 0 305 50 0 50 0 0 -305z m215 115
l45 0 0 -40 0 -40 -45 0 -45 0 0 -114 c0 -130 9 -150 60 -139 30 5 30 5 30
-39 l0 -45 -44 -6 c-23 -4 -59 -2 -79 4 -65 18 -67 26 -67 282 l0 228 48 50
47 49 3 -95 3 -95 44 0z m1023 72 l3 -112 28 21 c63 47 177 31 218 -30 22 -32
23 -43 23 -202 l0 -169 -50 0 -50 0 0 145 c0 132 -2 147 -20 165 -39 39 -119
15 -139 -41 -6 -18 -11 -85 -11 -150 l0 -119 -50 0 -50 0 0 306 0 305 48 -3
47 -3 3 -113z m-1947 96 c50 -17 88 -48 115 -94 36 -62 33 -81 -18 -90 -24 -5
-46 -8 -51 -9 -4 0 -15 16 -25 35 -23 46 -74 72 -131 67 -56 -6 -90 -32 -120
-91 -51 -101 -23 -238 58 -293 69 -46 161 -20 206 58 l20 35 47 -20 c26 -12
48 -26 48 -32 0 -24 -62 -105 -101 -131 -34 -23 -56 -28 -116 -32 -95 -4 -152
12 -207 60 -160 141 -110 466 83 535 45 17 147 18 192 2z m476 -182 c54 -27
61 -53 65 -239 l3 -167 -52 0 c-40 0 -53 4 -53 15 0 19 0 19 -40 -2 -114 -56
-240 0 -240 108 0 81 51 117 209 150 35 8 66 19 68 26 8 23 -35 53 -77 53 -39
0 -80 -26 -80 -50 0 -5 -22 -10 -50 -10 -55 0 -61 9 -36 59 19 35 37 50 83 67
48 18 157 13 200 -10z m785 12 c73 -22 128 -107 128 -200 l0 -38 -154 0 c-149
0 -154 -1 -149 -20 8 -29 50 -67 82 -73 38 -8 88 7 117 34 24 22 24 22 60 3
44 -24 48 -29 34 -53 -18 -35 -95 -72 -157 -78 -107 -10 -187 30 -224 112 -25
54 -25 156 0 211 41 91 155 135 263 102z m440 1 c42 -11 108 -72 108 -99 0
-22 -82 -59 -88 -40 -17 49 -99 66 -145 30 -68 -54 -54 -192 22 -218 43 -15
79 -3 111 36 l30 36 37 -21 c21 -12 39 -26 41 -31 6 -19 -79 -101 -116 -112
-152 -42 -276 52 -276 210 0 157 125 251 276 209z M1597 1109 c-77 -19 -97
-32 -97 -64 0 -32 26 -49 71 -48 68 3 106 43 97 104 l-3 24 -68 -16z M2365
1248 c-25 -13 -45 -38 -45 -55 0 -10 23 -13 95 -13 106 0 117 9 70 55 -26 27
-83 33 -120 13z"/>
</g>
</svg>
