<?xml version="1.0" standalone="no"?>
<!DOCTYPE svg PUBLIC "-//W3C//DTD SVG 20010904//EN"
 "http://www.w3.org/TR/2001/REC-SVG-20010904/DTD/svg10.dtd">
<svg version="1.0" xmlns="http://www.w3.org/2000/svg"
 width="225.000000pt" height="225.000000pt" viewBox="0 0 225.000000 225.000000"
 preserveAspectRatio="xMidYMid meet">
<metadata>
Created by potrace 1.16, written by Peter Selinger 2001-2019
</metadata>
<g transform="translate(0.000000,225.000000) scale(0.100000,-0.100000)"
fill="#000000" stroke="none">
<path d="M1372 1800 c-27 -22 -54 -40 -59 -40 -11 0 -93 -101 -183 -226 l-30
-42 35 0 c19 0 58 -5 85 -12 43 -10 54 -10 75 4 14 9 28 29 31 44 4 15 10 32
14 37 9 13 7 66 -3 82 -10 17 9 25 65 30 l48 4 0 -58 c0 -32 -5 -85 -10 -118
-6 -33 -11 -110 -11 -172 l-1 -112 -49 -31 c-27 -16 -49 -27 -49 -23 0 4 -12
-5 -27 -19 -16 -14 -74 -60 -131 -103 -97 -72 -104 -76 -117 -58 -18 23 -19
63 -1 88 7 11 16 36 20 56 3 20 16 45 29 57 21 19 25 20 78 8 58 -14 127 -9
165 12 31 17 36 60 14 107 -22 45 -64 77 -139 106 -57 21 -70 18 -121 -28 -27
-24 -27 -26 -13 -52 15 -25 14 -32 -6 -95 -12 -38 -20 -71 -17 -74 3 -3 -3
-12 -13 -21 -10 -9 -31 -42 -48 -74 l-29 -58 -30 43 c-17 24 -34 51 -37 61 -8
21 18 120 36 140 7 7 37 40 67 71 63 66 39 61 -32 -8 -40 -37 -48 -42 -48 -25
0 11 6 32 14 47 9 17 14 60 14 114 0 103 -25 168 -81 206 -61 41 -146 50 -209
23 -38 -16 -55 -33 -99 -98 -28 -43 -75 -107 -104 -143 -120 -150 -105 -183
53 -119 87 34 167 81 199 115 12 13 24 40 27 61 3 21 5 39 6 41 1 6 31 1 52
-9 27 -12 50 -58 50 -97 1 -76 -10 -241 -16 -251 -9 -13 -26 -15 -26 -1 0 15
-47 80 -72 99 -38 30 -121 62 -144 57 -22 -6 -84 -69 -84 -85 0 -5 14 -21 30
-34 37 -32 37 -47 0 -122 l-30 -60 44 50 c42 47 46 49 67 36 13 -7 45 -13 72
-12 44 1 48 -1 36 -15 -7 -9 -38 -32 -69 -51 -30 -20 -62 -43 -71 -52 -8 -9
-28 -25 -43 -36 -15 -11 -40 -30 -54 -42 -30 -26 -42 -29 -42 -11 0 21 -58
-43 -84 -93 -14 -27 -22 -49 -17 -49 4 0 17 -18 30 -40 21 -38 47 -60 70 -60
5 0 33 20 62 45 29 25 55 45 59 45 3 0 14 -15 24 -32 30 -53 124 -156 171
-188 36 -25 47 -28 74 -20 34 9 42 17 84 72 27 36 40 110 24 135 -4 5 -9 24
-12 41 -5 31 -5 31 25 20 17 -6 44 -8 59 -5 25 5 35 -1 79 -51 98 -113 208
-219 274 -265 38 -26 72 -47 78 -47 17 0 51 23 90 60 21 19 54 50 74 68 30 28
36 41 37 75 1 47 -1 94 -6 147 -4 41 -7 247 -6 403 1 117 3 122 71 170 24 17
24 17 -14 2 -51 -20 -58 -11 -12 16 44 26 48 36 5 13 l-32 -16 8 29 c4 15 8
33 9 38 1 6 7 19 13 30 41 79 6 204 -82 288 -47 45 -134 97 -162 97 -11 0 -43
-18 -71 -40z m56 -725 c1 -5 5 -52 8 -103 5 -73 3 -102 -10 -135 -19 -50 -69
-102 -107 -110 -35 -9 -88 8 -128 41 -33 28 -33 29 -18 58 8 16 28 43 44 59
16 17 39 51 52 78 38 74 90 125 127 124 17 -1 31 -6 32 -12z m-490 -51 c23
-36 28 -54 15 -54 -5 0 -18 20 -30 45 -26 53 -17 59 15 9z m342 26 c0 -5 -5
-10 -11 -10 -5 0 -7 5 -4 10 3 6 8 10 11 10 2 0 4 -4 4 -10z m-442 -112 c1
-24 4 -77 8 -119 l6 -75 -34 -26 c-62 -47 -89 -57 -123 -43 -31 14 -60 42 -87
86 -16 25 -15 28 16 75 43 63 75 91 106 96 14 1 41 13 60 25 19 12 37 22 41
22 3 1 6 -18 7 -41z m102 -14 c0 -12 -6 -26 -13 -33 -11 -8 -14 0 -16 42 -2
48 -1 51 13 32 9 -11 16 -30 16 -41z m193 -159 c34 -43 23 -45 -20 -4 -36 33
-39 39 -20 39 6 0 25 -16 40 -35z"/>
</g>
</svg>
