<?xml version="1.0" standalone="no"?>
<!DOCTYPE svg PUBLIC "-//W3C//DTD SVG 20010904//EN"
 "http://www.w3.org/TR/2001/REC-SVG-20010904/DTD/svg10.dtd">
<svg version="1.0" xmlns="http://www.w3.org/2000/svg"
 width="1300.000000pt" height="1100.000000pt" viewBox="0 0 1300.000000 1100.000000"
 preserveAspectRatio="xMidYMid meet">
<metadata>
Created by potrace 1.16, written by Peter Selinger 2001-2019
</metadata>
<g transform="translate(0.000000,1100.000000) scale(0.100000,-0.100000)"
fill="#000000" stroke="none">
<path d="M6910 10594 c-6 -14 -10 -34 -10 -45 0 -47 -124 -51 -184 -6 -43 34
-71 34 -92 2 -14 -22 -15 -33 -4 -88 6 -34 21 -84 31 -112 10 -27 19 -52 19
-54 0 -7 -175 10 -268 26 -84 15 -94 15 -108 1 -25 -25 -9 -54 89 -155 57 -59
85 -94 76 -97 -8 -2 -44 -12 -81 -21 -72 -18 -108 -44 -86 -63 7 -5 47 -23 89
-39 94 -37 175 -90 229 -151 22 -26 53 -60 68 -76 40 -44 159 -97 221 -98 28
-1 51 -2 51 -4 0 -1 -7 -15 -15 -30 -8 -16 -15 -37 -15 -46 0 -17 -29 -18
-472 -18 l-473 0 -17 40 c-9 22 -30 48 -48 59 l-32 19 47 21 c61 27 217 38
296 22 31 -7 71 -23 90 -36 38 -28 71 -32 89 -10 53 64 -151 267 -317 315
l-41 13 78 76 c79 77 102 119 83 150 -8 12 -29 16 -86 17 -68 2 -86 7 -184 52
-155 72 -213 86 -365 86 l-128 1 0 45 c0 57 -28 114 -57 118 -23 3 -44 -15
-91 -77 -16 -21 -39 -35 -80 -46 -81 -24 -205 -90 -261 -141 -28 -25 -63 -72
-85 -113 -50 -96 -118 -156 -194 -172 -75 -15 -195 -56 -253 -84 l-45 -23 0
68 c1 60 -3 73 -29 111 -43 61 -87 84 -161 84 -49 0 -68 -5 -101 -27 -107 -71
-122 -209 -32 -299 38 -38 39 -42 26 -62 -32 -48 -101 -118 -158 -161 -57 -43
-65 -46 -124 -46 l-62 0 -6 74 c-11 125 -70 246 -112 230 -9 -4 -23 -21 -32
-38 -25 -49 -96 -137 -164 -205 l-62 -61 -113 0 -114 0 0 -132 -1 -133 -55
-59 -55 -58 -57 54 c-64 61 -122 82 -150 54 -13 -13 -13 -21 -2 -61 25 -89 -5
-208 -79 -311 -42 -59 -83 -167 -95 -256 -4 -27 -8 -48 -10 -48 -1 0 -22 9
-46 21 -53 26 -177 36 -237 20 -53 -15 -97 -50 -88 -72 3 -9 31 -37 61 -63 68
-59 81 -85 105 -204 30 -146 88 -234 177 -263 31 -10 33 -14 28 -41 -10 -48
-74 -168 -133 -246 l-55 -74 -16 24 c-8 12 -30 39 -48 59 -17 20 -35 51 -39
70 -10 44 -89 121 -141 137 -92 27 -169 8 -236 -59 -114 -114 -81 -301 67
-370 48 -22 132 -25 180 -5 l35 15 16 -56 c12 -40 15 -82 12 -148 -3 -78 -9
-102 -35 -156 -18 -36 -43 -75 -56 -87 l-24 -23 -27 35 c-14 19 -34 37 -44 40
-15 5 -21 24 -31 88 -30 197 -116 344 -253 431 -34 21 -86 22 -116 1 -31 -22
-29 -70 7 -127 22 -34 33 -67 41 -129 15 -108 6 -176 -35 -268 -18 -41 -36
-96 -40 -122 l-7 -47 -34 17 c-32 15 -36 15 -51 -1 -20 -19 -21 -69 -3 -132 9
-31 10 -100 6 -237 -7 -241 -7 -301 0 -360 l6 -47 -55 6 c-94 10 -214 -29
-256 -83 -35 -44 -28 -69 33 -113 84 -62 134 -131 185 -251 39 -93 76 -150
143 -218 62 -63 169 -119 248 -130 l55 -7 7 -103 c4 -56 15 -132 23 -168 8
-36 15 -67 15 -69 0 -2 -21 7 -48 20 -26 13 -63 26 -82 30 -26 5 -41 16 -60
46 -97 156 -330 140 -407 -28 -51 -111 -18 -225 85 -297 80 -57 225 -42 293
30 l22 24 59 -32 c101 -54 194 -174 226 -291 6 -21 8 -37 4 -35 -115 59 -192
92 -255 108 -88 22 -123 16 -132 -23 -8 -32 27 -134 80 -232 24 -44 46 -91 50
-104 7 -24 6 -24 -39 -18 -62 9 -120 40 -184 98 -32 29 -63 49 -77 49 -41 0
-50 -25 -48 -129 2 -125 38 -240 138 -439 41 -81 75 -150 75 -154 0 -5 -18 -8
-40 -8 -33 0 -48 -7 -85 -41 -67 -62 -60 -89 29 -109 60 -13 114 -40 193 -96
87 -62 158 -146 206 -244 22 -47 59 -105 82 -129 50 -56 175 -155 226 -181
l38 -20 -20 -46 c-76 -171 -27 -369 125 -511 69 -65 156 -113 202 -113 28 0
13 -17 -24 -28 -73 -22 -146 -111 -129 -156 10 -25 50 -45 129 -65 91 -23 146
-50 212 -103 51 -40 86 -54 111 -44 24 9 17 43 -17 83 -18 21 -23 30 -12 21
19 -17 20 -16 22 47 1 53 -2 65 -16 69 -9 3 2 4 26 2 35 -4 42 -1 42 14 0 10
-6 20 -12 22 -9 3 -8 12 5 31 22 33 22 35 -5 40 -13 3 -6 4 15 4 43 -1 84 31
74 58 -8 20 -67 45 -107 45 l-30 0 75 89 c74 87 77 89 106 79 34 -12 94 -78
103 -114 6 -21 -7 -40 -74 -117 -97 -111 -115 -156 -114 -292 0 -124 26 -189
108 -271 65 -64 146 -109 251 -139 114 -33 217 -91 359 -203 147 -116 593
-351 886 -467 957 -380 1901 -474 2840 -285 618 125 1208 372 1785 747 72 47
149 101 172 120 58 46 115 70 204 84 233 36 395 238 360 450 -19 116 -46 170
-142 281 -49 57 -89 108 -89 115 -1 38 130 124 148 97 32 -48 107 -136 129
-153 27 -20 27 -20 5 -21 -29 0 -94 -27 -103 -42 -17 -27 26 -62 76 -61 16 0
17 -1 2 -4 -16 -4 -16 -6 3 -30 14 -18 17 -30 10 -37 -5 -5 -10 -17 -10 -26 0
-12 10 -15 43 -13 23 1 33 -1 22 -3 -18 -4 -20 -11 -17 -70 l4 -65 21 18 c12
9 8 2 -10 -17 -37 -41 -44 -68 -22 -83 24 -15 60 -2 117 43 61 49 146 88 231
105 73 16 111 45 111 86 0 47 -77 119 -148 138 -27 8 -26 8 23 33 108 55 231
183 280 291 54 117 54 220 0 320 l-23 44 50 23 c54 24 168 113 235 182 23 23
63 86 89 138 38 77 62 110 124 171 81 79 199 151 273 164 21 4 48 15 59 25 19
15 21 21 11 43 -18 39 -78 79 -127 84 l-43 5 76 152 c107 211 134 293 139 431
6 168 -19 183 -137 81 -64 -55 -130 -86 -184 -86 -26 0 -29 2 -23 26 4 15 24
56 44 93 79 139 103 232 67 261 -33 28 -183 -10 -303 -76 -35 -19 -66 -33 -68
-31 -8 8 37 122 67 168 34 53 95 113 152 148 l38 23 34 -27 c76 -57 153 -69
256 -39 95 28 169 126 169 224 0 113 -92 217 -207 236 -54 8 -160 -20 -203
-55 -19 -15 -45 -43 -58 -62 -13 -19 -38 -39 -56 -45 -18 -7 -47 -19 -64 -28
-18 -9 -32 -15 -32 -14 0 2 7 35 15 73 8 39 17 114 21 167 l7 98 36 5 c193 32
322 145 416 366 19 44 48 99 64 122 33 49 101 113 136 129 28 12 39 47 26 81
-21 56 -135 102 -249 101 l-73 0 7 83 c4 48 1 134 -6 205 -12 118 -6 265 16
400 3 21 3 50 0 64 -6 23 -11 25 -39 22 -18 -3 -39 -8 -48 -12 -14 -6 -17 2
-21 46 -3 33 -17 80 -38 122 -57 118 -53 293 9 391 43 68 41 109 -6 134 -37
19 -69 12 -130 -29 -124 -82 -206 -238 -229 -431 -5 -47 -11 -59 -31 -70 -14
-8 -36 -29 -48 -47 l-23 -34 -36 48 c-57 77 -79 145 -80 244 0 47 5 101 12
120 l12 35 92 0 c104 1 137 13 200 73 98 94 83 267 -29 345 -144 100 -363 17
-398 -151 -7 -32 -44 -101 -55 -101 -3 -1 -29 32 -58 71 -55 73 -104 161 -128
230 l-13 38 36 15 c95 40 154 121 174 239 20 121 43 170 110 228 76 67 78 90
12 121 -68 31 -197 30 -267 -1 -27 -12 -52 -20 -55 -16 -3 3 -11 35 -17 72
-16 93 -48 173 -95 234 -57 76 -81 161 -77 273 l3 90 -48 -1 c-44 0 -52 -4
-105 -57 l-58 -57 -17 29 c-9 16 -34 44 -54 62 l-38 33 -5 125 -5 126 -201 3
-200 2 -75 73 c-47 46 -96 83 -133 101 -81 37 -140 78 -213 148 -51 48 -67 58
-96 58 -84 0 -103 -107 -42 -227 18 -37 37 -87 40 -110 6 -40 5 -43 -17 -43
-16 0 -30 10 -41 29 -21 36 -80 83 -127 101 -184 71 -332 201 -359 317 -10 44
-9 52 14 97 14 27 25 66 25 86 0 52 -38 120 -87 154 -36 25 -52 29 -103 29
-51 0 -67 -4 -103 -29 -49 -34 -87 -102 -87 -154 0 -19 9 -55 20 -79 l20 -44
-56 6 c-36 4 -88 21 -146 48 -79 38 -94 49 -125 96 -85 128 -266 244 -412 264
-122 17 -253 75 -339 150 -41 36 -69 37 -82 3z m-189 -121 l24 -28 -27 23 -26
24 -5 -24 c-4 -21 -4 -20 -6 5 0 15 3 27 7 27 5 0 19 -12 33 -27z m56 -29 c-3
-3 -12 -4 -19 -1 -8 3 -5 6 6 6 11 1 17 -2 13 -5z m106 -11 c-13 -2 -35 -2
-50 0 -16 2 -5 4 22 4 28 0 40 -2 28 -4z m122 -53 c10 -11 16 -20 13 -20 -3 0
-13 9 -23 20 -10 11 -16 20 -13 20 3 0 13 -9 23 -20z m292 14 c-3 -3 -12 -4
-19 -1 -8 3 -5 6 6 6 11 1 17 -2 13 -5z m-342 -45 c-4 -5 -14 -8 -23 -8 -15 1
-15 2 1 6 9 2 14 9 11 15 -4 7 -2 8 5 4 6 -4 9 -12 6 -17z m-1645 8 c0 -2 -12
-14 -27 -28 l-28 -24 24 28 c23 25 31 32 31 24z m1587 -23 c-3 -3 -12 -4 -19
-1 -8 3 -5 6 6 6 11 1 17 -2 13 -5z m210 0 c-3 -3 -12 -4 -19 -1 -8 3 -5 6 6
6 11 1 17 -2 13 -5z m-1727 -17 c0 -2 -12 -14 -27 -28 l-28 -24 24 28 c23 25
31 32 31 24z m1443 -4 c-7 -2 -19 -2 -25 0 -7 3 -2 5 12 5 14 0 19 -2 13 -5z
m-1645 -30 c-10 -2 -26 -2 -35 0 -10 3 -2 5 17 5 19 0 27 -2 18 -5z m2373 -20
c13 -16 12 -17 -3 -4 -17 13 -22 21 -14 21 2 0 10 -8 17 -17z m-493 0 c-15 -2
-42 -2 -60 0 -18 2 -6 4 27 4 33 0 48 -2 33 -4z m-1495 -10 c-7 -2 -19 -2 -25
0 -7 3 -2 5 12 5 14 0 19 -2 13 -5z m160 0 c-7 -2 -19 -2 -25 0 -7 3 -2 5 12
5 14 0 19 -2 13 -5z m1184 1 c-3 -3 -12 -4 -19 -1 -8 3 -5 6 6 6 11 1 17 -2
13 -5z m260 0 c-3 -3 -12 -4 -19 -1 -8 3 -5 6 6 6 11 1 17 -2 13 -5z m1040 0
c-3 -3 -12 -4 -19 -1 -8 3 -5 6 6 6 11 1 17 -2 13 -5z m50 0 c-3 -3 -12 -4
-19 -1 -8 3 -5 6 6 6 11 1 17 -2 13 -5z m-2470 -10 c-3 -3 -12 -4 -19 -1 -8 3
-5 6 6 6 11 1 17 -2 13 -5z m970 -20 c-3 -3 -12 -4 -19 -1 -8 3 -5 6 6 6 11 1
17 -2 13 -5z m-1737 -7 c0 -2 -17 -19 -37 -38 l-38 -34 34 38 c33 34 41 42 41
34z m1517 -3 c-3 -3 -12 -4 -19 -1 -8 3 -5 6 6 6 11 1 17 -2 13 -5z m156 -1
c-7 -2 -19 -2 -25 0 -7 3 -2 5 12 5 14 0 19 -2 13 -5z m932 -23 c10 -11 16
-20 13 -20 -3 0 -13 9 -23 20 -10 11 -16 20 -13 20 3 0 13 -9 23 -20z m-2445
-14 c0 -2 -8 -10 -17 -17 -16 -13 -17 -12 -4 4 13 16 21 21 21 13z m2390 -51
c19 -19 32 -35 29 -35 -3 0 -20 16 -39 35 -19 19 -32 35 -29 35 3 0 20 -16 39
-35z m-2430 22 c0 -2 -15 -16 -32 -33 l-33 -29 29 33 c28 30 36 37 36 29z
m2531 -14 c13 -16 12 -17 -3 -4 -10 7 -18 15 -18 17 0 8 8 3 21 -13z m-230
-10 c13 -16 12 -17 -3 -4 -10 7 -18 15 -18 17 0 8 8 3 21 -13z m-284 1 c-3 -3
-12 -4 -19 -1 -8 3 -5 6 6 6 11 1 17 -2 13 -5z m186 -1 c-7 -2 -19 -2 -25 0
-7 3 -2 5 12 5 14 0 19 -2 13 -5z m-1856 -9 c-3 -3 -12 -4 -19 -1 -8 3 -5 6 6
6 11 1 17 -2 13 -5z m126 -1 c-7 -2 -19 -2 -25 0 -7 3 -2 5 12 5 14 0 19 -2
13 -5z m1804 1 c-3 -3 -12 -4 -19 -1 -8 3 -5 6 6 6 11 1 17 -2 13 -5z m-1740
-10 c-3 -3 -12 -4 -19 -1 -8 3 -5 6 6 6 11 1 17 -2 13 -5z m1373 -7 c0 -2 -12
-14 -27 -28 l-28 -24 24 28 c23 25 31 32 31 24z m681 -14 c13 -16 12 -17 -3
-4 -10 7 -18 15 -18 17 0 8 8 3 21 -13z m-2124 -9 c-3 -3 -12 -4 -19 -1 -8 3
-5 6 6 6 11 1 17 -2 13 -5z m-497 -7 c0 -2 -10 -12 -22 -23 l-23 -19 19 23
c18 21 26 27 26 19z m403 -4 c-7 -2 -19 -2 -25 0 -7 3 -2 5 12 5 14 0 19 -2
13 -5z m308 -20 c13 -16 12 -17 -3 -4 -10 7 -18 15 -18 17 0 8 8 3 21 -13z
m1322 10 c-7 -2 -19 -2 -25 0 -7 3 -2 5 12 5 14 0 19 -2 13 -5z m130 0 c-7 -2
-21 -2 -30 0 -10 3 -4 5 12 5 17 0 24 -2 18 -5z m-3143 -26 c0 -2 -12 -14 -27
-28 l-28 -24 24 28 c23 25 31 32 31 24z m2398 -14 c-10 -2 -26 -2 -35 0 -10 3
-2 5 17 5 19 0 27 -2 18 -5z m-633 -36 c18 -4 18 -5 -2 -6 -14 -1 -26 7 -33
22 -10 19 -9 20 2 6 8 -9 22 -19 33 -22z m1600 14 c3 -5 0 -13 -6 -17 -7 -4
-9 -3 -5 4 3 5 0 13 -6 15 -9 4 -10 6 -1 6 6 1 14 -3 18 -8z m-2390 -21 c-3
-5 -21 -9 -38 -9 l-32 2 35 7 c19 4 36 8 38 9 2 0 0 -3 -3 -9z m3152 4 c-3 -3
-12 -4 -19 -1 -8 3 -5 6 6 6 11 1 17 -2 13 -5z m-2869 -11 c-10 -2 -26 -2 -35
0 -10 3 -2 5 17 5 19 0 27 -2 18 -5z m119 -9 c-3 -3 -12 -4 -19 -1 -8 3 -5 6
6 6 11 1 17 -2 13 -5z m1173 -30 c0 -2 -9 0 -20 6 -11 6 -20 13 -20 16 0 2 9
0 20 -6 11 -6 20 -13 20 -16z m-1640 2 c8 -2 -13 -4 -47 -5 -35 0 -63 2 -63 7
0 7 76 5 110 -2z m2637 -8 c-3 -8 -6 -5 -6 6 -1 11 2 17 5 13 3 -3 4 -12 1
-19z m520 -10 c-3 -7 -5 -2 -5 12 0 14 2 19 5 13 2 -7 2 -19 0 -25z m-3009 5
c-10 -2 -26 -2 -35 0 -10 3 -2 5 17 5 19 0 27 -2 18 -5z m2907 -13 c10 -11 16
-20 13 -20 -3 0 -13 9 -23 20 -10 11 -16 20 -13 20 3 0 13 -9 23 -20z m-2818
4 c-3 -3 -12 -4 -19 -1 -8 3 -5 6 6 6 11 1 17 -2 13 -5z m553 -1 c-8 -3 -24
-10 -35 -15 -20 -9 -20 -9 -1 6 11 9 27 16 35 15 14 0 14 -1 1 -6z m163 0 c-7
-2 -19 -2 -25 0 -7 3 -2 5 12 5 14 0 19 -2 13 -5z m1620 0 c-7 -2 -19 -2 -25
0 -7 3 -2 5 12 5 14 0 19 -2 13 -5z m-1007 -45 l29 -33 -32 29 c-31 28 -38 36
-30 36 2 0 16 -15 33 -32z m477 15 c-7 -2 -19 -2 -25 0 -7 3 -2 5 12 5 14 0
19 -2 13 -5z m150 0 c-7 -2 -19 -2 -25 0 -7 3 -2 5 12 5 14 0 19 -2 13 -5z
m-3123 -28 c13 -14 21 -25 18 -25 -2 0 -15 11 -28 25 -13 14 -21 25 -18 25 2
0 15 -11 28 -25z m180 22 c0 -2 -12 -14 -27 -28 l-28 -24 24 28 c23 25 31 32
31 24z m987 -14 c-20 -2 -52 -2 -70 0 -17 2 0 4 38 4 39 0 53 -2 32 -4z m463
3 c0 -2 -8 -10 -17 -17 -16 -13 -17 -12 -4 4 13 16 21 21 21 13z m2037 -2 c-3
-3 -12 -4 -19 -1 -8 3 -5 6 6 6 11 1 17 -2 13 -5z m130 0 c-3 -3 -12 -4 -19
-1 -8 3 -5 6 6 6 11 1 17 -2 13 -5z m454 -11 c13 -16 12 -17 -3 -4 -10 7 -18
15 -18 17 0 8 8 3 21 -13z m-3224 1 c-3 -3 -12 -4 -19 -1 -8 3 -5 6 6 6 11 1
17 -2 13 -5z m1073 -39 c19 -19 32 -35 29 -35 -3 0 -20 16 -39 35 -19 19 -32
35 -29 35 3 0 20 -16 39 -35z m1755 25 c3 -6 -1 -7 -9 -4 -18 7 -21 14 -7 14
6 0 13 -4 16 -10z m-3475 -5 c0 -2 -10 -9 -22 -15 -22 -11 -22 -10 -4 4 21 17
26 19 26 11z m853 -12 c-7 -2 -19 -2 -25 0 -7 3 -2 5 12 5 14 0 19 -2 13 -5z
m247 3 c0 -2 -8 -10 -17 -17 -16 -13 -17 -12 -4 4 13 16 21 21 21 13z m100 1
c0 -1 -26 -27 -57 -57 l-58 -55 55 58 c50 53 60 62 60 54z m981 -14 c13 -16
12 -17 -3 -4 -10 7 -18 15 -18 17 0 8 8 3 21 -13z m989 14 c0 -2 -10 -12 -22
-23 l-23 -19 19 23 c18 21 26 27 26 19z m345 -17 c10 -11 16 -20 13 -20 -3 0
-13 9 -23 20 -10 11 -16 20 -13 20 3 0 13 -9 23 -20z m-2738 4 c-3 -3 -12 -4
-19 -1 -8 3 -5 6 6 6 11 1 17 -2 13 -5z m1806 -1 c-7 -2 -19 -2 -25 0 -7 3 -2
5 12 5 14 0 19 -2 13 -5z m167 -38 c-24 -25 -46 -45 -49 -45 -3 0 15 20 39 45
24 25 46 45 49 45 3 0 -15 -20 -39 -45z m317 39 c-3 -3 -12 -4 -19 -1 -8 3 -5
6 6 6 11 1 17 -2 13 -5z m848 -14 c10 -11 16 -20 13 -20 -3 0 -13 9 -23 20
-10 11 -16 20 -13 20 3 0 13 -9 23 -20z m539 12 c3 -5 -1 -9 -9 -9 -8 0 -12 4
-9 9 3 4 7 8 9 8 2 0 6 -4 9 -8z m-1079 -18 c14 -9 25 -19 25 -23 0 -4 -20
-12 -44 -19 -85 -22 -138 -89 -138 -174 l0 -48 -165 0 -165 0 78 56 c44 31
118 87 165 125 124 99 187 120 244 83z m-2928 -10 c-3 -3 -12 -4 -19 -1 -8 3
-5 6 6 6 11 1 17 -2 13 -5z m3980 -31 c-3 -10 -5 -4 -5 12 0 17 2 24 5 18 2
-7 2 -21 0 -30z m-4607 17 c0 -5 10 -10 23 -11 12 0 16 -3 9 -6 -7 -3 -20 -1
-30 3 -9 4 -21 6 -25 5 -5 -1 -6 3 -2 9 8 13 25 13 25 0z m557 4 c-3 -3 -12
-4 -19 -1 -8 3 -5 6 6 6 11 1 17 -2 13 -5z m350 -10 c-3 -3 -12 -4 -19 -1 -8
3 -5 6 6 6 11 1 17 -2 13 -5z m236 -1 c-7 -2 -19 -2 -25 0 -7 3 -2 5 12 5 14
0 19 -2 13 -5z m764 0 c-20 -2 -52 -2 -70 0 -17 2 0 4 38 4 39 0 53 -2 32 -4z
m2244 -10 c13 -16 12 -17 -3 -4 -10 7 -18 15 -18 17 0 8 8 3 21 -13z m-3123 0
c-16 -2 -40 -2 -55 0 -16 2 -3 4 27 4 30 0 43 -2 28 -4z m725 0 c-7 -2 -19 -2
-25 0 -7 3 -2 5 12 5 14 0 19 -2 13 -5z m1527 4 c0 -2 -10 -12 -22 -23 l-23
-19 19 23 c18 21 26 27 26 19z m-2902 -14 c-16 -2 -40 -2 -55 0 -16 2 -3 4 27
4 30 0 43 -2 28 -4z m1309 1 c-3 -3 -12 -4 -19 -1 -8 3 -5 6 6 6 11 1 17 -2
13 -5z m2063 -19 c13 -14 21 -25 18 -25 -2 0 -15 11 -28 25 -13 14 -21 25 -18
25 2 0 15 -11 28 -25z m441 -2 c13 -16 12 -17 -3 -4 -10 7 -18 15 -18 17 0 8
8 3 21 -13z m-1171 -7 c0 -2 -8 -10 -17 -17 -16 -13 -17 -12 -4 4 13 16 21 21
21 13z m-403 -12 c-3 -3 -12 -4 -19 -1 -8 3 -5 6 6 6 11 1 17 -2 13 -5z m603
2 c0 -2 -8 -10 -17 -17 -16 -13 -17 -12 -4 4 13 16 21 21 21 13z m-2867 -13
c-13 -2 -33 -2 -45 0 -13 2 -3 4 22 4 25 0 35 -2 23 -4z m391 -13 c37 -14 77
-42 123 -85 l68 -64 -102 -1 c-103 0 -103 0 -103 24 0 38 -18 78 -53 114 -29
30 -29 32 -9 32 12 0 46 -9 76 -20z m1969 13 c-7 -2 -21 -2 -30 0 -10 3 -4 5
12 5 17 0 24 -2 18 -5z m-1296 -10 c-20 -2 -52 -2 -70 0 -17 2 0 4 38 4 39 0
53 -2 32 -4z m2500 0 c-20 -2 -52 -2 -70 0 -17 2 0 4 38 4 39 0 53 -2 32 -4z
m-1117 -6 c0 -2 -12 -14 -27 -28 l-28 -24 24 28 c23 25 31 32 31 24z m130 -42
c-24 -25 -46 -45 -49 -45 -3 0 15 20 39 45 24 25 46 45 49 45 3 0 -15 -20 -39
-45z m250 41 c0 -2 -8 -10 -17 -17 -16 -13 -17 -12 -4 4 13 16 21 21 21 13z
m-323 -38 c-3 -7 -5 -2 -5 12 0 14 2 19 5 13 2 -7 2 -19 0 -25z m-3027 18 c0
-2 -8 -10 -17 -17 -16 -13 -17 -12 -4 4 13 16 21 21 21 13z m1084 -12 c5 -14
4 -15 -9 -4 -17 14 -19 20 -6 20 5 0 12 -7 15 -16z m239 9 c-7 -2 -19 -2 -25
0 -7 3 -2 5 12 5 14 0 19 -2 13 -5z m-965 -10 c-10 -2 -26 -2 -35 0 -10 3 -2
5 17 5 19 0 27 -2 18 -5z m160 0 c-10 -2 -28 -2 -40 0 -13 2 -5 4 17 4 22 1
32 -1 23 -4z m609 1 c-3 -3 -12 -4 -19 -1 -8 3 -5 6 6 6 11 1 17 -2 13 -5z
m3789 -26 l29 -33 -32 29 c-31 28 -38 36 -30 36 2 0 16 -15 33 -32z m185 15
c13 -16 12 -17 -3 -4 -10 7 -18 15 -18 17 0 8 8 3 21 -13z m-4834 1 c-3 -3
-12 -4 -19 -1 -8 3 -5 6 6 6 11 1 17 -2 13 -5z m1160 0 c-3 -3 -12 -4 -19 -1
-8 3 -5 6 6 6 11 1 17 -2 13 -5z m2394 -11 c13 -16 12 -17 -3 -4 -10 7 -18 15
-18 17 0 8 8 3 21 -13z m1169 -8 c13 -14 21 -25 18 -25 -2 0 -15 11 -28 25
-13 14 -21 25 -18 25 2 0 15 -11 28 -25z m-3377 8 c-23 -2 -64 -2 -90 0 -26 2
-7 3 42 3 50 0 71 -1 48 -3z m2559 -30 c26 -14 55 -34 64 -44 17 -18 12 -19
-144 -19 l-162 0 0 34 c0 34 13 45 75 60 39 9 120 -6 167 -31z m144 5 l29 -33
-32 29 c-31 28 -38 36 -30 36 2 0 16 -15 33 -32z m-4799 -25 c-3 -10 -5 -2 -5
17 0 19 2 27 5 18 2 -10 2 -26 0 -35z m2173 22 c13 -14 21 -25 18 -25 -2 0
-15 11 -28 25 -13 14 -21 25 -18 25 2 0 15 -11 28 -25z m-1740 12 c0 -2 -10
-12 -22 -23 l-23 -19 19 23 c18 21 26 27 26 19z m210 -1 c0 -2 -7 -7 -16 -10
-8 -3 -12 -2 -9 4 6 10 25 14 25 6z m3487 -43 c-3 -10 -5 -2 -5 17 0 19 2 27
5 18 2 -10 2 -26 0 -35z m-4227 34 c0 -2 -12 -14 -27 -28 l-28 -24 24 28 c23
25 31 32 31 24z m4437 -34 c-3 -10 -5 -4 -5 12 0 17 2 24 5 18 2 -7 2 -21 0
-30z m1304 20 c13 -16 12 -17 -3 -4 -10 7 -18 15 -18 17 0 8 8 3 21 -13z
m-4617 -3 c3 -3 3 -16 -1 -28 -5 -22 -8 -22 -177 -21 -159 1 -169 2 -137 15
71 31 137 44 223 41 47 -1 89 -4 92 -7z m-444 -3 c0 -2 -12 -14 -27 -28 l-28
-24 24 28 c23 25 31 32 31 24z m4515 -17 c10 -11 16 -20 13 -20 -3 0 -13 9
-23 20 -10 11 -16 20 -13 20 3 0 13 -9 23 -20z m356 -7 c13 -16 12 -17 -3 -4
-10 7 -18 15 -18 17 0 8 8 3 21 -13z m90 -10 c13 -16 12 -17 -3 -4 -10 7 -18
15 -18 17 0 8 8 3 21 -13z m-6071 -480 c0 -47 -3 -83 -7 -80 -3 4 -5 41 -4 84
2 73 2 76 -16 62 -16 -13 -17 -13 -4 4 25 31 31 18 31 -70z m6761 60 c13 -16
12 -17 -3 -4 -10 7 -18 15 -18 17 0 8 8 3 21 -13z m190 -50 c13 -16 12 -17 -3
-4 -10 7 -18 15 -18 17 0 8 8 3 21 -13z m-7081 -28 c19 -19 32 -35 29 -35 -3
0 -20 16 -39 35 -19 19 -32 35 -29 35 3 0 20 -16 39 -35z m7010 32 c0 -2 -15
-16 -32 -33 l-33 -29 29 33 c28 30 36 37 36 29z m-132 -52 c-6 -14 -13 -23
-15 -21 -5 5 15 46 22 46 3 0 -1 -11 -7 -25z m37 -145 c10 -11 16 -20 13 -20
-3 0 -13 9 -23 20 -10 11 -16 20 -13 20 3 0 13 -9 23 -20z m-6855 -13 c0 -1
-24 -25 -52 -52 l-53 -50 50 53 c46 48 55 57 55 49z m6811 -84 c13 -16 12 -17
-3 -4 -10 7 -18 15 -18 17 0 8 8 3 21 -13z m-6818 -383 l-78 -75 73 75 72 75
2 160 2 160 3 -160 4 -159 -78 -76z m6968 373 c13 -16 12 -17 -3 -4 -10 7 -18
15 -18 17 0 8 8 3 21 -13z m-6911 4 c0 -1 -24 -25 -52 -52 l-53 -50 50 53 c46
48 55 57 55 49z m-150 -21 c0 -2 -8 -10 -17 -17 -16 -13 -17 -12 -4 4 13 16
21 21 21 13z m6961 -13 c13 -16 12 -17 -3 -4 -10 7 -18 15 -18 17 0 8 8 3 21
-13z m50 -60 c13 -16 12 -17 -3 -4 -10 7 -18 15 -18 17 0 8 8 3 21 -13z m139
-58 c0 -5 -5 -3 -10 5 -5 8 -10 20 -10 25 0 6 5 3 10 -5 5 -8 10 -19 10 -25z
m-70 -59 c0 -12 -5 -7 -19 24 -11 24 -11 24 3 6 9 -11 16 -24 16 -30z m247 2
c-3 -8 -6 -5 -6 6 -1 11 2 17 5 13 3 -3 4 -12 1 -19z m281 -5 c-16 -2 -40 -2
-55 0 -16 2 -3 4 27 4 30 0 43 -2 28 -4z m-8178 -7 c0 -2 -7 -7 -16 -10 -8 -3
-12 -2 -9 4 6 10 25 14 25 6z m107 -2 c-3 -3 -12 -4 -19 -1 -8 3 -5 6 6 6 11
1 17 -2 13 -5z m190 -46 c-3 -8 -6 -5 -6 6 -1 11 2 17 5 13 3 -3 4 -12 1 -19z
m7610 -25 c-3 -10 -5 -4 -5 12 0 17 2 24 5 18 2 -7 2 -21 0 -30z m75 24 c-6
-7 -12 -33 -15 -57 l-4 -45 -1 46 c-1 25 3 50 10 57 16 16 23 15 10 -1z
m-7744 -86 l-2 -66 -3 65 c-2 35 -9 71 -16 80 -11 13 -10 13 6 1 13 -11 17
-27 15 -80z m3089 57 c4 -7 6 -384 5 -837 -2 -623 -6 -831 -15 -850 -20 -42
-79 -54 -262 -52 -88 1 -220 -3 -294 -9 -99 -9 -136 -9 -145 0 -8 8 -11 218
-12 761 -1 776 1 835 40 893 24 38 74 46 272 46 190 0 268 9 337 40 51 22 63
24 74 8z m1663 -16 c38 -14 78 -17 260 -14 144 1 224 -1 243 -9 39 -17 60 -94
61 -234 2 -252 -13 -1448 -19 -1453 -8 -8 -538 -5 -590 4 -55 9 -94 31 -103
57 -5 12 -7 386 -6 830 2 756 3 810 20 828 20 22 58 19 134 -9z m1378 11 c9
-21 8 -1099 -3 -1448 l-7 -246 -32 -17 c-27 -15 -66 -17 -311 -17 -250 0 -285
-2 -328 -19 -74 -29 -80 -19 -67 130 5 66 9 379 9 695 0 659 6 815 30 842 33
38 53 41 316 48 227 5 267 8 315 26 71 26 68 26 78 6z m-4388 -33 c66 -18 92
-20 215 -15 222 8 224 8 266 -11 27 -12 45 -28 54 -50 21 -50 28 -432 17 -874
-5 -212 -6 -468 -3 -570 4 -102 4 -192 0 -201 -7 -14 -15 -15 -76 -2 -40 8
-166 16 -308 20 -208 5 -245 8 -277 24 -21 11 -38 23 -39 27 -2 35 -7 699 -7
972 0 645 1 690 18 701 18 11 38 8 140 -21z m5555 -20 c21 -22 37 -40 34 -40
-3 0 -23 18 -44 40 -21 22 -37 40 -34 40 3 0 23 -18 44 -40z m242 8 c-3 -8 -6
-5 -6 6 -1 11 2 17 5 13 3 -3 4 -12 1 -19z m-4332 6 c9 -4 28 -30 43 -58 l27
-51 -3 -805 c-2 -443 -7 -809 -11 -813 -15 -15 -51 17 -76 67 l-25 50 0 792
c0 436 3 799 6 808 7 17 14 19 39 10z m3058 -22 c9 -10 26 -39 37 -65 21 -47
21 -53 16 -836 -2 -435 -7 -795 -11 -800 -11 -18 -30 -12 -57 17 -51 54 -49
36 -46 650 2 317 1 674 -1 793 -3 218 2 259 33 259 7 0 20 -8 29 -18z m182 8
c3 -6 -1 -7 -9 -4 -18 7 -21 14 -7 14 6 0 13 -4 16 -10z m-5115 -3 c0 -2 -10
-12 -22 -23 l-23 -19 19 23 c18 21 26 27 26 19z m37 -23 c2 -13 1 -15 -4 -4
-3 8 -11 19 -17 23 -7 6 -6 7 4 4 8 -2 16 -12 17 -23z m139 -800 c1 -450 -3
-835 -8 -856 -4 -20 -22 -51 -38 -68 -25 -27 -33 -30 -46 -20 -13 12 -14 104
-9 836 4 727 7 828 21 864 16 41 50 73 69 67 7 -3 10 -277 11 -823z m3005 789
c8 -20 11 -266 10 -816 -1 -754 -2 -790 -21 -826 -10 -21 -26 -44 -35 -51 -42
-35 -43 -23 -41 823 1 855 -1 820 49 875 26 28 25 28 38 -5z m1846 5 c-3 -8
-6 -5 -6 6 -1 11 2 17 5 13 3 -3 4 -12 1 -19z m-6180 -20 c-3 -7 -5 -2 -5 12
0 14 2 19 5 13 2 -7 2 -19 0 -25z m7370 -15 c-3 -10 -5 -4 -5 12 0 17 2 24 5
18 2 -7 2 -21 0 -30z m120 0 c-3 -10 -5 -4 -5 12 0 17 2 24 5 18 2 -7 2 -21 0
-30z m-7410 5 c-3 -8 -6 -5 -6 6 -1 11 2 17 5 13 3 -3 4 -12 1 -19z m7210 -10
c-3 -7 -5 -2 -5 12 0 14 2 19 5 13 2 -7 2 -19 0 -25z m-4140 0 c-3 -8 -6 -5
-6 6 -1 11 2 17 5 13 3 -3 4 -12 1 -19z m90 -35 c-3 -10 -5 -2 -5 17 0 19 2
27 5 18 2 -10 2 -26 0 -35z m3060 -15 c-2 -13 -4 -3 -4 22 0 25 2 35 4 23 2
-13 2 -33 0 -45z m1328 42 c-17 -19 -41 -18 -29 1 3 5 10 7 15 4 5 -4 9 -1 9
4 0 6 5 11 12 11 6 0 3 -8 -7 -20z m-7885 -1 c0 -5 4 -8 8 -5 5 3 9 -1 9 -9 0
-19 0 -19 -22 5 -10 11 -13 20 -7 20 7 0 12 -5 12 -11z m137 -21 c-3 -7 -5 -2
-5 12 0 14 2 19 5 13 2 -7 2 -19 0 -25z m7318 12 c10 -11 16 -20 13 -20 -3 0
-13 9 -23 20 -10 11 -16 20 -13 20 3 0 13 -9 23 -20z m357 -14 c7 4 8 2 4 -4
-11 -18 -26 -14 -25 6 0 10 3 12 6 4 2 -6 10 -9 15 -6z m-3365 -18 c-3 -8 -6
-5 -6 6 -1 11 2 17 5 13 3 -3 4 -12 1 -19z m-4027 9 c0 -2 -10 -12 -22 -23
l-23 -19 19 23 c18 21 26 27 26 19z m937 -79 c-2 -18 -4 -6 -4 27 0 33 2 48 4
33 2 -15 2 -42 0 -60z m6503 78 c0 -2 -8 -10 -17 -17 -16 -13 -17 -12 -4 4 13
16 21 21 21 13z m-7819 -23 c13 -16 12 -17 -3 -4 -17 13 -22 21 -14 21 2 0 10
-8 17 -17z m286 -45 c-2 -13 -4 -3 -4 22 0 25 2 35 4 23 2 -13 2 -33 0 -45z
m4040 -45 c-2 -21 -4 -4 -4 37 0 41 2 58 4 38 2 -21 2 -55 0 -75z m2100 0 c-2
-21 -4 -4 -4 37 0 41 2 58 4 38 2 -21 2 -55 0 -75z m-5887 -7 c0 -58 -3 -107
-7 -109 -5 -3 -7 42 -5 100 3 81 1 103 -9 97 -8 -4 -10 -3 -5 4 19 30 26 4 26
-92z m6921 87 c13 -16 12 -17 -3 -4 -10 7 -18 15 -18 17 0 8 8 3 21 -13z
m-7255 -28 c-3 -8 -11 -15 -18 -14 -10 0 -10 2 0 6 6 2 12 14 13 26 0 12 3 16
6 9 3 -7 2 -19 -1 -27z m3171 -102 c-2 -27 -3 -5 -3 47 0 52 1 74 3 48 2 -27
2 -69 0 -95z m80 50 c-2 -16 -4 -3 -4 27 0 30 2 43 4 28 2 -16 2 -40 0 -55z
m-3540 45 c-3 -8 -6 -5 -6 6 -1 11 2 17 5 13 3 -3 4 -12 1 -19z m423 18 c0 -2
-8 -10 -17 -17 -16 -13 -17 -12 -4 4 13 16 21 21 21 13z m-185 -34 c-3 -3 -11
0 -18 7 -9 10 -8 11 6 5 10 -3 15 -9 12 -12z m1222 -94 c-2 -18 -4 -4 -4 32 0
36 2 50 4 33 2 -18 2 -48 0 -65z m6370 -35 c-2 -16 -4 -5 -4 22 0 28 2 40 4
28 2 -13 2 -35 0 -50z m-7690 -5 c-2 -13 -4 -5 -4 17 -1 22 1 32 4 23 2 -10 2
-28 0 -40z m6488 22 l20 -25 -22 19 c-13 11 -23 24 -23 29 0 6 1 8 3 6 1 -2
11 -15 22 -29z m-6559 -12 l29 -33 -32 29 c-31 28 -38 36 -30 36 2 0 16 -15
33 -32z m7854 29 c0 -2 -12 -14 -27 -28 l-28 -24 24 28 c23 25 31 32 31 24z
m-4366 -23 c3 -8 2 -12 -4 -9 -6 3 -10 10 -10 16 0 14 7 11 14 -7z m-2184 2
c0 -2 -8 -10 -17 -17 -16 -13 -17 -12 -4 4 13 16 21 21 21 13z m-1015 -39 c40
-4 40 -4 -4 -3 -30 1 -46 6 -48 16 -3 10 -2 11 4 3 4 -6 26 -13 48 -16z m152
-9 c-3 -8 -6 -5 -6 6 -1 11 2 17 5 13 3 -3 4 -12 1 -19z m3220 16 c-3 -3 -12
-4 -19 -1 -8 3 -5 6 6 6 11 1 17 -2 13 -5z m536 -1 c-7 -2 -21 -2 -30 0 -10 3
-4 5 12 5 17 0 24 -2 18 -5z m-3098 -15 c-11 -6 -27 -16 -35 -22 -9 -6 -5 -1
8 12 13 12 28 22 35 22 7 0 3 -6 -8 -12z m-751 -28 c-6 -6 -10 -3 -10 10 0 13
4 16 10 10 7 -7 7 -13 0 -20z m133 24 c-3 -3 -12 -4 -19 -1 -8 3 -5 6 6 6 11
1 17 -2 13 -5z m6294 -11 c13 -16 12 -17 -3 -4 -10 7 -18 15 -18 17 0 8 8 3
21 -13z m720 -20 c13 -16 12 -17 -3 -4 -10 7 -18 15 -18 17 0 8 8 3 21 -13z
m-3434 -25 c-3 -7 -5 -2 -5 12 0 14 2 19 5 13 2 -7 2 -19 0 -25z m3224 -31
l-24 -22 19 27 c10 14 21 24 23 22 3 -3 -6 -15 -18 -27z m-6738 15 c4 8 6 7 6
-4 1 -10 -3 -18 -8 -18 -5 0 -15 8 -22 18 -13 15 -12 16 3 4 13 -10 17 -10 21
0z m508 -19 c13 -16 12 -17 -3 -4 -10 7 -18 15 -18 17 0 8 8 3 21 -13z m2572
0 c-18 -2 -48 -2 -65 0 -18 2 -4 4 32 4 36 0 50 -2 33 -4z m-3547 -62 c-15
-28 -28 -51 -31 -51 -3 0 7 25 22 55 15 30 29 53 31 51 2 -2 -8 -27 -22 -55z
m4167 42 c-7 -2 -19 -2 -25 0 -7 3 -2 5 12 5 14 0 19 -2 13 -5z m-3070 -10
c-7 -2 -21 -2 -30 0 -10 3 -4 5 12 5 17 0 24 -2 18 -5z m123 -15 c19 -23 19
-23 -1 -7 -11 9 -27 19 -35 22 -13 5 -13 6 1 6 9 1 24 -9 35 -21z m6097 15
c-7 -2 -19 -2 -25 0 -7 3 -2 5 12 5 14 0 19 -2 13 -5z m44 1 c-3 -3 -12 -4
-19 -1 -8 3 -5 6 6 6 11 1 17 -2 13 -5z m-3108 -48 c-2 -2 -13 8 -23 22 l-19
27 24 -22 c12 -12 21 -24 18 -27z m3146 24 c10 -11 16 -20 13 -20 -3 0 -13 9
-23 20 -10 11 -16 20 -13 20 3 0 13 -9 23 -20z m-3068 -262 c-1 -51 -3 -12 -3
87 0 99 2 141 3 93 2 -48 2 -129 0 -180z m2030 9 c-1 -45 -3 -5 -3 88 0 94 2
130 3 82 2 -48 2 -125 0 -170z m96 238 c-3 -9 -8 -14 -10 -11 -3 3 -2 9 2 15
9 16 15 13 8 -4z m-5986 -67 c-2 -13 -4 -3 -4 22 0 25 2 35 4 23 2 -13 2 -33
0 -45z m-1048 48 c-2 -2 -15 -9 -29 -15 -24 -11 -24 -11 -6 3 16 13 49 24 35
12z m8011 -11 c11 -13 8 -15 -21 -14 -24 1 -27 3 -11 6 12 2 20 9 17 14 -10
15 1 10 15 -6z m-7885 -5 c3 -6 -1 -7 -9 -4 -18 7 -21 14 -7 14 6 0 13 -4 16
-10z m3852 -42 c-2 -13 -4 -5 -4 17 -1 22 1 32 4 23 2 -10 2 -28 0 -40z m860
-165 c-1 -43 -3 -10 -3 72 0 83 2 118 3 78 2 -40 2 -107 0 -150z m3086 200
c-7 -2 -19 -2 -25 0 -7 3 -2 5 12 5 14 0 19 -2 13 -5z m-6976 -9 c-3 -3 -12
-4 -19 -1 -8 3 -5 6 6 6 11 1 17 -2 13 -5z m7914 -11 c13 -16 12 -17 -3 -4
-17 13 -22 21 -14 21 2 0 10 -8 17 -17z m-8683 -38 c-3 -3 -9 2 -12 12 -6 14
-5 15 5 6 7 -7 10 -15 7 -18z m6849 -42 c-2 -16 -4 -5 -4 22 0 28 2 40 4 28 2
-13 2 -35 0 -50z m1020 41 c25 -7 110 -133 149 -220 13 -30 24 -56 24 -58 0
-2 -28 -2 -62 1 -53 5 -69 11 -99 38 -73 65 -162 71 -250 17 l-49 -31 0 89 0
89 45 27 c80 46 176 65 242 48z m590 -16 c-3 -8 -6 -5 -6 6 -1 11 2 17 5 13 3
-3 4 -12 1 -19z m-7654 -26 l67 -33 0 -90 0 -89 -41 27 c-47 31 -128 42 -181
24 -19 -6 -53 -27 -76 -46 -35 -31 -47 -35 -96 -35 -31 0 -56 2 -56 4 0 24 86
178 137 245 l26 33 76 -3 c62 -3 89 -10 144 -37z m844 -14 c-2 -13 -4 -5 -4
17 -1 22 1 32 4 23 2 -10 2 -28 0 -40z m-1637 38 c0 -2 -8 -10 -17 -17 -16
-13 -17 -12 -4 4 13 16 21 21 21 13z m8140 -16 c6 -11 8 -20 6 -20 -3 0 -10 9
-16 20 -6 11 -8 20 -6 20 3 0 10 -9 16 -20z m345 -10 c10 -11 16 -20 13 -20
-3 0 -13 9 -23 20 -10 11 -16 20 -13 20 3 0 13 -9 23 -20z m222 -37 c-3 -10
-5 -2 -5 17 0 19 2 27 5 18 2 -10 2 -26 0 -35z m-9010 5 c-3 -7 -5 -2 -5 12 0
14 2 19 5 13 2 -7 2 -19 0 -25z m8820 -70 c-2 -13 -4 -5 -4 17 -1 22 1 32 4
23 2 -10 2 -28 0 -40z m-137 38 c0 -2 -8 -10 -17 -17 -16 -13 -17 -12 -4 4 13
16 21 21 21 13z m-8367 -30 c-10 -13 -20 -22 -22 -20 -4 4 29 44 36 44 2 0 -4
-11 -14 -24z m68 7 c13 -16 12 -17 -3 -4 -10 7 -18 15 -18 17 0 8 8 3 21 -13z
m8610 -6 c-10 -9 -11 -8 -5 6 3 10 9 15 12 12 3 -3 0 -11 -7 -18z m-6994 -384
c-1 -71 -3 -13 -3 127 0 140 2 198 3 128 2 -71 2 -185 0 -255z m6722 323 l-34
-31 28 31 c15 16 27 37 28 45 0 11 2 11 6 0 3 -7 -10 -27 -28 -45z m261 41 c0
-2 -10 -12 -22 -23 l-23 -19 19 23 c18 21 26 27 26 19z m-8566 -43 c3 -8 2
-12 -4 -9 -6 3 -10 10 -10 16 0 14 7 11 14 -7z m8463 -10 c-3 -3 -12 -4 -19
-1 -8 3 -5 6 6 6 11 1 17 -2 13 -5z m-8714 -11 c-7 -2 -19 -2 -25 0 -7 3 -2 5
12 5 14 0 19 -2 13 -5z m158 -10 c13 -16 12 -17 -3 -4 -10 7 -18 15 -18 17 0
8 8 3 21 -13z m349 -3 c-6 -11 -13 -20 -16 -20 -2 0 0 9 6 20 6 11 13 20 16
20 2 0 0 -9 -6 -20z m-882 -4 c-7 -8 -15 -12 -17 -11 -5 6 10 25 20 25 5 0 4
-6 -3 -14z m8805 7 c-7 -2 -19 -2 -25 0 -7 3 -2 5 12 5 14 0 19 -2 13 -5z
m-7576 -39 c-3 -3 -12 -4 -19 -1 -8 3 -5 6 6 6 11 1 17 -2 13 -5z m7026 -1
c-7 -2 -19 -2 -25 0 -7 3 -2 5 12 5 14 0 19 -2 13 -5z m-8123 -38 c19 -19 32
-35 29 -35 -3 0 -20 16 -39 35 -19 19 -32 35 -29 35 3 0 20 -16 39 -35z m4157
-17 c-2 -13 -4 -5 -4 17 -1 22 1 32 4 23 2 -10 2 -28 0 -40z m5073 49 c0 -2
-15 -16 -32 -33 l-33 -29 29 33 c28 30 36 37 36 29z m-8210 -10 c0 -2 -12 -14
-27 -28 l-28 -24 24 28 c23 25 31 32 31 24z m160 -22 c13 -14 21 -25 18 -25
-2 0 -15 11 -28 25 -13 14 -21 25 -18 25 2 0 15 -11 28 -25z m3847 -212 c-1
-43 -3 -10 -3 72 0 83 2 118 3 78 2 -40 2 -107 0 -150z m2100 25 c-2 -35 -3
-7 -3 62 0 69 1 97 3 63 2 -35 2 -91 0 -125z m1228 175 c-16 -3 -33 -10 -37
-16 -5 -8 -8 -8 -8 -1 0 18 12 24 44 23 l31 -2 -30 -4z m-7471 -11 c2 -4 -12
-6 -32 -4 -56 5 -62 10 -15 11 23 1 44 -3 47 -7z m7863 -14 c-3 -8 -6 -5 -6 6
-1 11 2 17 5 13 3 -3 4 -12 1 -19z m-286 -15 c13 -16 12 -17 -3 -4 -10 7 -18
15 -18 17 0 8 8 3 21 -13z m46 -15 c-3 -7 -5 -2 -5 12 0 14 2 19 5 13 2 -7 2
-19 0 -25z m-8050 -10 c-3 -7 -5 -2 -5 12 0 14 2 19 5 13 2 -7 2 -19 0 -25z
m420 -10 c-3 -7 -5 -2 -5 12 0 14 2 19 5 13 2 -7 2 -19 0 -25z m7110 -15 c-3
-10 -5 -2 -5 17 0 19 2 27 5 18 2 -10 2 -26 0 -35z m-7030 0 c-3 -10 -5 -4 -5
12 0 17 2 24 5 18 2 -7 2 -21 0 -30z m8186 22 c-3 -9 -8 -14 -10 -11 -3 3 -2
9 2 15 9 16 15 13 8 -4z m-8423 -9 c-7 -7 -13 -7 -20 0 -6 6 -3 10 10 10 13 0
16 -4 10 -10z m497 -8 c-3 -8 -6 -5 -6 6 -1 11 2 17 5 13 3 -3 4 -12 1 -19z
m8060 -50 c-2 -13 -4 -5 -4 17 -1 22 1 32 4 23 2 -10 2 -28 0 -40z m-862 32
c3 -6 -1 -7 -9 -4 -18 7 -21 14 -7 14 6 0 13 -4 16 -10z m56 -37 c13 -16 12
-17 -3 -4 -17 13 -22 21 -14 21 2 0 10 -8 17 -17z m-8014 -25 c-3 -7 -5 -2 -5
12 0 14 2 19 5 13 2 -7 2 -19 0 -25z m273 19 c0 -2 -12 -14 -27 -28 l-28 -24
24 28 c23 25 31 32 31 24z m470 0 c0 -2 -12 -14 -27 -28 l-28 -24 24 28 c23
25 31 32 31 24z m6007 -34 c-3 -10 -5 -4 -5 12 0 17 2 24 5 18 2 -7 2 -21 0
-30z m1190 6 c99 -48 252 -260 257 -356 l2 -48 -44 47 c-62 67 -169 147 -289
216 l-102 59 34 33 c19 19 37 42 41 52 7 24 47 23 101 -3z m350 -1 c-3 -8 -6
-5 -6 6 -1 11 2 17 5 13 3 -3 4 -12 1 -19z m-202 -28 c21 -22 37 -40 34 -40
-3 0 -23 18 -44 40 -21 22 -37 40 -34 40 3 0 23 -18 44 -40z m552 -27 c-3 -10
-5 -4 -5 12 0 17 2 24 5 18 2 -7 2 -21 0 -30z m-7994 20 c-7 -2 -21 -2 -30 0
-10 3 -4 5 12 5 17 0 24 -2 18 -5z m-996 -70 c-2 -16 -4 -5 -4 22 0 28 2 40 4
28 2 -13 2 -35 0 -50z m643 64 c0 -2 -19 -21 -42 -42 l-43 -40 40 43 c36 39
45 47 45 39z m191 -14 c13 -16 12 -17 -3 -4 -10 7 -18 15 -18 17 0 8 8 3 21
-13z m7086 -37 c19 -9 57 -16 92 -16 58 0 60 -1 83 -37 22 -36 23 -46 19 -163
-2 -69 -4 -173 -5 -233 -1 -59 -4 -107 -8 -107 -3 0 -35 13 -70 30 -74 35
-118 38 -143 10 -25 -28 -16 -69 43 -199 l50 -109 -97 5 c-53 3 -97 6 -98 7
-2 1 4 51 12 112 18 140 32 341 41 572 l6 183 22 -19 c11 -11 35 -27 53 -36z
m-3950 -218 c-1 -51 -3 -12 -3 87 0 99 2 141 3 93 2 -48 2 -129 0 -180z
m-3437 249 c0 -2 -12 -14 -27 -28 l-28 -24 24 28 c23 25 31 32 31 24z m603
-244 c3 -152 14 -317 27 -427 11 -98 20 -180 18 -181 -3 -3 -178 -11 -178 -9
0 1 20 43 44 95 64 137 73 172 52 204 -23 35 -74 33 -154 -5 -35 -17 -66 -30
-69 -30 -3 0 -3 19 0 43 3 23 0 116 -6 207 -12 185 -7 226 29 270 23 26 32 30
78 30 37 0 66 7 97 24 24 14 47 25 50 25 3 1 9 -110 12 -246z m3854 -90 c-1
-65 -3 -14 -3 112 0 127 2 180 3 118 2 -62 2 -165 0 -230z m3514 290 c13 -16
12 -17 -3 -4 -10 7 -18 15 -18 17 0 8 8 3 21 -13z m486 -20 c-3 -10 -5 -4 -5
12 0 17 2 24 5 18 2 -7 2 -21 0 -30z m-8167 12 c0 -2 -10 -9 -22 -15 -22 -11
-22 -10 -4 4 21 17 26 19 26 11z m-340 -9 c0 -2 -8 -10 -17 -17 -16 -13 -17
-12 -4 4 13 16 21 21 21 13z m8051 -23 c13 -16 12 -17 -3 -4 -17 13 -22 21
-14 21 2 0 10 -8 17 -17z m-4484 -50 c-3 -10 -5 -2 -5 17 0 19 2 27 5 18 2
-10 2 -26 0 -35z m3050 5 c-3 -7 -5 -2 -5 12 0 14 2 19 5 13 2 -7 2 -19 0 -25z
m-7126 -11 l-24 -22 19 27 c10 14 21 24 23 22 3 -3 -6 -15 -18 -27z m309 13
c-6 -11 -13 -20 -16 -20 -2 0 0 9 6 20 6 11 13 20 16 20 2 0 0 -9 -6 -20z
m-523 -12 c-3 -8 -6 -5 -6 6 -1 11 2 17 5 13 3 -3 4 -12 1 -19z m5150 -10 c-3
-7 -5 -2 -5 12 0 14 2 19 5 13 2 -7 2 -19 0 -25z m-3010 -25 c-3 -10 -5 -2 -5
17 0 19 2 27 5 18 2 -10 2 -26 0 -35z m7330 25 c-3 -8 -6 -5 -6 6 -1 11 2 17
5 13 3 -3 4 -12 1 -19z m-1045 -55 c-5 -83 -9 -90 -11 -20 0 37 2 67 7 67 4 0
6 -21 4 -47z m-8435 -80 c-2 -21 -4 -6 -4 32 0 39 2 55 4 38 2 -18 2 -50 0
-70z m4332 52 c16 -20 16 -20 -6 -1 -13 11 -23 26 -22 35 0 14 1 14 6 1 3 -8
13 -24 22 -35z m-4026 28 c-7 -2 -19 -2 -25 0 -7 3 -2 5 12 5 14 0 19 -2 13
-5z m4828 -26 l-24 -22 19 27 c10 14 21 24 23 22 3 -3 -6 -15 -18 -27z m4038
31 c-2 -2 -17 -14 -34 -28 l-30 -25 24 28 c14 15 29 27 34 27 6 0 8 -1 6 -2z
m71 -23 c13 -14 21 -25 18 -25 -2 0 -15 11 -28 25 -13 14 -21 25 -18 25 2 0
15 -11 28 -25z m-8980 11 c0 -2 -8 -10 -17 -17 -16 -13 -17 -12 -4 4 13 16 21
21 21 13z m90 -21 c13 -14 21 -25 18 -25 -2 0 -15 11 -28 25 -13 14 -21 25
-18 25 2 0 15 -11 28 -25z m460 12 c0 -2 -15 -16 -32 -33 l-33 -29 29 33 c28
30 36 37 36 29z m8520 -17 c6 -11 8 -20 6 -20 -3 0 -10 9 -16 20 -6 11 -8 20
-6 20 3 0 10 -9 16 -20z m-8273 -72 c-2 -18 -4 -6 -4 27 0 33 2 48 4 33 2 -15
2 -42 0 -60z m7981 57 c-3 -3 -9 2 -12 12 -6 14 -5 15 5 6 7 -7 10 -15 7 -18z
m-8138 11 c0 -2 -8 -10 -17 -17 -16 -13 -17 -12 -4 4 13 16 21 21 21 13z
m6553 -13 c-7 -2 -21 -2 -30 0 -10 3 -4 5 12 5 17 0 24 -2 18 -5z m1172 -13
c10 -11 16 -20 13 -20 -3 0 -13 9 -23 20 -10 11 -16 20 -13 20 3 0 13 -9 23
-20z m-8485 -10 c-6 -11 -13 -20 -16 -20 -2 0 0 9 6 20 6 11 13 20 16 20 2 0
0 -9 -6 -20z m547 -2 c-3 -8 -6 -5 -6 6 -1 11 2 17 5 13 3 -3 4 -12 1 -19z
m3806 15 c-18 -2 -48 -2 -65 0 -18 2 -4 4 32 4 36 0 50 -2 33 -4z m570 0 c-7
-2 -19 -2 -25 0 -7 3 -2 5 12 5 14 0 19 -2 13 -5z m3838 -10 c13 -16 12 -17
-3 -4 -10 7 -18 15 -18 17 0 8 8 3 21 -13z m-6804 1 c-3 -3 -12 -4 -19 -1 -8
3 -5 6 6 6 11 1 17 -2 13 -5z m2462 -28 c-3 -3 -11 5 -18 17 -13 21 -12 21 5
5 10 -10 16 -20 13 -22z m3052 17 c13 -17 13 -17 -6 -3 -11 8 -22 16 -24 17
-2 2 0 3 6 3 6 0 17 -8 24 -17z m-6761 4 c0 -1 -33 -34 -72 -72 l-73 -70 70
73 c64 67 75 77 75 69z m4080 -1 c0 -2 -8 -10 -17 -17 -16 -13 -17 -12 -4 4
13 16 21 21 21 13z m-4360 -10 c0 -2 -8 -10 -17 -17 -16 -13 -17 -12 -4 4 13
16 21 21 21 13z m7930 0 c0 -3 -4 -8 -10 -11 -5 -3 -10 -1 -10 4 0 6 5 11 10
11 6 0 10 -2 10 -4z m-7770 -9 c0 -2 -13 -16 -30 -32 -16 -16 -30 -26 -30 -22
0 3 12 18 27 32 27 24 33 28 33 22z m250 -1 c0 -2 -8 -10 -17 -17 -16 -13 -17
-12 -4 4 13 16 21 21 21 13z m7975 -16 c10 -11 16 -20 13 -20 -3 0 -13 9 -23
20 -10 11 -16 20 -13 20 3 0 13 -9 23 -20z m-399 -22 l29 -33 -32 29 c-31 28
-38 36 -30 36 2 0 16 -15 33 -32z m149 2 c10 -11 16 -20 13 -20 -3 0 -13 9
-23 20 -10 11 -16 20 -13 20 3 0 13 -9 23 -20z m-8185 7 c0 -2 -9 -12 -19 -21
-14 -13 -21 -14 -27 -5 -4 7 -3 10 3 6 6 -4 16 0 23 8 12 14 20 19 20 12z
m-447 -76 c-2 -3 -20 12 -41 34 l-37 39 41 -35 c22 -19 39 -36 37 -38z m9370
38 c-29 -30 -53 -32 -53 -6 0 7 4 6 10 -3 8 -13 14 -11 37 13 15 15 30 27 33
27 2 0 -9 -14 -27 -31z m-7538 -9 l20 -25 -22 19 c-13 11 -23 24 -23 29 0 6 1
8 3 6 1 -2 11 -15 22 -29z m-1291 12 c2 -4 -4 -8 -14 -8 -10 0 -16 4 -14 8 3
4 9 8 14 8 5 0 11 -4 14 -8z m3921 -2 c-3 -5 -12 -10 -18 -10 -7 0 -6 4 3 10
19 12 23 12 15 0z m4395 -25 c19 -19 32 -35 29 -35 -3 0 -20 16 -39 35 -19 19
-32 35 -29 35 3 0 20 -16 39 -35z m-8020 22 c0 -2 -12 -14 -27 -28 l-28 -24
24 28 c23 25 31 32 31 24z m3497 -3 c-3 -3 -12 -4 -19 -1 -8 3 -5 6 6 6 11 1
17 -2 13 -5z m4450 -151 c-2 -32 -3 -8 -3 52 0 61 1 87 3 58 2 -29 2 -78 0
-110z m733 153 c0 -2 -8 -10 -17 -17 -16 -13 -17 -12 -4 4 13 16 21 21 21 13z
m-9679 -23 c13 -16 12 -17 -3 -4 -17 13 -22 21 -14 21 2 0 10 -8 17 -17z
m2306 -45 c-2 -13 -4 -3 -4 22 0 25 2 35 4 23 2 -13 2 -33 0 -45z m5271 55
c-15 -2 -42 -2 -60 0 -18 2 -6 4 27 4 33 0 48 -2 33 -4z m79 1 c-3 -3 -12 -4
-19 -1 -8 3 -5 6 6 6 11 1 17 -2 13 -5z m850 -26 c-3 -7 -5 -2 -5 12 0 14 2
19 5 13 2 -7 2 -19 0 -25z m650 10 c-3 -8 -6 -5 -6 6 -1 11 2 17 5 13 3 -3 4
-12 1 -19z m-8440 -25 c-3 -10 -5 -4 -5 12 0 17 2 24 5 18 2 -7 2 -21 0 -30z
m3703 33 c0 -2 -8 -10 -17 -17 -16 -13 -17 -12 -4 4 13 16 21 21 21 13z m657
-2 c-3 -3 -12 -4 -19 -1 -8 3 -5 6 6 6 11 1 17 -2 13 -5z m2270 -71 c-2 -16
-4 -3 -4 27 0 30 2 43 4 28 2 -16 2 -40 0 -55z m-6840 35 c-3 -7 -5 -2 -5 12
0 14 2 19 5 13 2 -7 2 -19 0 -25z m4719 0 l29 -33 -35 30 c-19 17 -37 31 -39
33 -2 1 0 2 5 2 6 0 23 -15 40 -32z m3485 15 c13 -16 12 -17 -3 -4 -10 7 -18
15 -18 17 0 8 8 3 21 -13z m154 -3 c10 -11 16 -20 13 -20 -3 0 -13 9 -23 20
-10 11 -16 20 -13 20 3 0 13 -9 23 -20z m-7708 -22 c-3 -7 -5 -2 -5 12 0 14 2
19 5 13 2 -7 2 -19 0 -25z m1026 25 c-7 -2 -19 -2 -25 0 -7 3 -2 5 12 5 14 0
19 -2 13 -5z m47 -18 c6 -8 10 -20 7 -27 -4 -8 -6 -7 -6 4 -1 9 -9 22 -18 27
-10 6 -13 11 -7 11 6 0 17 -7 24 -15z m-1610 2 c0 -2 -12 -14 -27 -28 l-28
-24 24 28 c23 25 31 32 31 24z m3767 -49 c-2 -13 -4 -5 -4 17 -1 22 1 32 4 23
2 -10 2 -28 0 -40z m3050 -10 c-2 -13 -4 -3 -4 22 0 25 2 35 4 23 2 -13 2 -33
0 -45z m-6647 48 c0 -2 -8 -10 -17 -17 -16 -13 -17 -12 -4 4 13 16 21 21 21
13z m150 0 c0 -2 -8 -10 -17 -17 -16 -13 -17 -12 -4 4 13 16 21 21 21 13z
m8660 0 c0 -2 -8 -10 -17 -17 -16 -13 -17 -12 -4 4 13 16 21 21 21 13z m-9519
-23 c13 -16 12 -17 -3 -4 -17 13 -22 21 -14 21 2 0 10 -8 17 -17z m419 13 c0
-2 -8 -10 -17 -17 -16 -13 -17 -12 -4 4 13 16 21 21 21 13z m8251 -13 c13 -16
12 -17 -3 -4 -10 7 -18 15 -18 17 0 8 8 3 21 -13z m340 -10 c13 -16 12 -17 -3
-4 -10 7 -18 15 -18 17 0 8 8 3 21 -13z m586 -5 c-3 -8 -6 -5 -6 6 -1 11 2 17
5 13 3 -3 4 -12 1 -19z m-237 8 c0 -2 -8 -10 -17 -17 -16 -13 -17 -12 -4 4 13
16 21 21 21 13z m-9453 -98 c-2 -18 -4 -4 -4 32 0 36 2 50 4 33 2 -18 2 -48 0
-65z m923 88 c0 -2 -8 -10 -17 -17 -16 -13 -17 -12 -4 4 13 16 21 21 21 13z
m247 -28 c-3 -8 -6 -5 -6 6 -1 11 2 17 5 13 3 -3 4 -12 1 -19z m7740 0 c-3 -8
-6 -5 -6 6 -1 11 2 17 5 13 3 -3 4 -12 1 -19z m-4590 -50 c-2 -13 -4 -3 -4 22
0 25 2 35 4 23 2 -13 2 -33 0 -45z m4200 40 c-3 -8 -6 -5 -6 6 -1 11 2 17 5
13 3 -3 4 -12 1 -19z m-7740 -10 c-3 -8 -6 -5 -6 6 -1 11 2 17 5 13 3 -3 4
-12 1 -19z m4500 -111 c-2 -23 -3 -1 -3 48 0 50 1 68 3 42 2 -26 2 -67 0 -90z
m4143 129 c0 -2 -8 -10 -17 -17 -16 -13 -17 -12 -4 4 13 16 21 21 21 13z m130
1 c0 -2 -12 -14 -27 -28 l-28 -24 24 28 c23 25 31 32 31 24z m-9390 -32 c13
-14 21 -25 18 -25 -2 0 -15 11 -28 25 -13 14 -21 25 -18 25 2 0 15 -11 28 -25z
m4015 -32 c39 -54 42 -68 18 -82 -10 -5 -181 -10 -379 -12 -345 -4 -363 -3
-383 15 -27 25 -27 42 2 60 17 10 71 14 232 15 212 1 326 11 393 36 64 23 79
19 117 -32z m1520 22 c61 -9 175 -15 292 -15 199 0 235 -5 252 -39 27 -50 -16
-69 -116 -51 -43 7 -167 11 -339 10 -256 -1 -271 0 -288 19 -14 15 -15 24 -7
39 18 33 61 62 85 57 11 -3 66 -12 121 -20z m-3089 -7 c46 -20 66 -21 304 -23
299 -2 330 -9 313 -75 -6 -21 -10 -22 -66 -16 -33 3 -193 6 -357 6 -326 0
-339 2 -326 54 8 32 48 76 69 76 8 0 36 -10 63 -22z m4594 -14 c25 -23 40 -45
40 -60 l0 -24 -402 2 -403 3 -3 31 c-3 30 -1 32 45 43 28 6 144 10 283 9 183
0 247 3 290 15 87 24 105 21 150 -19z m-4873 -41 c-2 -16 -4 -5 -4 22 0 28 2
40 4 28 2 -13 2 -35 0 -50z m-1600 20 c-3 -10 -5 -4 -5 12 0 17 2 24 5 18 2
-7 2 -21 0 -30z m6710 -10 c-3 -10 -5 -4 -5 12 0 17 2 24 5 18 2 -7 2 -21 0
-30z m2250 0 c-3 -10 -5 -4 -5 12 0 17 2 24 5 18 2 -7 2 -21 0 -30z m-5300
-25 c-2 -13 -4 -5 -4 17 -1 22 1 32 4 23 2 -10 2 -28 0 -40z m5103 48 c0 -2
-8 -10 -17 -17 -16 -13 -17 -12 -4 4 13 16 21 21 21 13z m-9279 -23 c13 -16
12 -17 -3 -4 -10 7 -18 15 -18 17 0 8 8 3 21 -13z m2046 -90 c-2 -21 -4 -4 -4
37 0 41 2 58 4 38 2 -21 2 -55 0 -75z m3090 60 c-3 -10 -5 -2 -5 17 0 19 2 27
5 18 2 -10 2 -26 0 -35z m2983 33 c0 -2 -9 -6 -20 -9 -11 -3 -18 -1 -14 4 5 9
34 13 34 5z m-6940 -30 c0 -8 -8 -20 -17 -27 -16 -13 -17 -12 -4 3 7 10 11 25
7 33 -3 9 -2 13 4 10 6 -3 10 -12 10 -19z m-60 10 c0 -2 -7 -7 -16 -10 -8 -3
-12 -2 -9 4 6 10 25 14 25 6z m2977 -28 c-3 -8 -6 -5 -6 6 -1 11 2 17 5 13 3
-3 4 -12 1 -19z m-4320 -10 c-3 -8 -6 -5 -6 6 -1 11 2 17 5 13 3 -3 4 -12 1
-19z m7360 0 c-3 -8 -6 -5 -6 6 -1 11 2 17 5 13 3 -3 4 -12 1 -19z m2350 -10
c-3 -8 -6 -5 -6 6 -1 11 2 17 5 13 3 -3 4 -12 1 -19z m-4326 -5 c13 -16 12
-17 -3 -4 -10 7 -18 15 -18 17 0 8 8 3 21 -13z m2056 -15 c-3 -7 -5 -2 -5 12
0 14 2 19 5 13 2 -7 2 -19 0 -25z m-3127 19 c0 -2 -12 -14 -27 -28 l-28 -24
24 28 c23 25 31 32 31 24z m2020 0 c0 -2 -10 -12 -22 -23 l-23 -19 19 23 c18
21 26 27 26 19z m1020 -10 c0 -2 -10 -12 -22 -23 l-23 -19 19 23 c18 21 26 27
26 19z m-7060 -27 c6 -11 8 -20 6 -20 -3 0 -10 9 -16 20 -6 11 -8 20 -6 20 3
0 10 -9 16 -20z m3060 16 c0 -2 -7 -7 -16 -10 -8 -3 -12 -2 -9 4 6 10 25 14
25 6z m5301 -13 c13 -16 12 -17 -3 -4 -10 7 -18 15 -18 17 0 8 8 3 21 -13z
m-5241 -18 c13 -14 21 -25 18 -25 -2 0 -15 11 -28 25 -13 14 -21 25 -18 25 2
0 15 -11 28 -25z m2033 18 c-7 -2 -19 -2 -25 0 -7 3 -2 5 12 5 14 0 19 -2 13
-5z m4274 -15 c-3 -8 -6 -5 -6 6 -1 11 2 17 5 13 3 -3 4 -12 1 -19z m-8667 8
c0 -2 -8 -10 -17 -17 -16 -13 -17 -12 -4 4 13 16 21 21 21 13z m4833 -3 c-62
-2 -164 -2 -225 0 -62 1 -12 3 112 3 124 0 174 -2 113 -3z m-4986 -25 c-3 -8
-6 -5 -6 6 -1 11 2 17 5 13 3 -3 4 -12 1 -19z m5231 15 c-10 -2 -26 -2 -35 0
-10 3 -2 5 17 5 19 0 27 -2 18 -5z m485 0 c-7 -2 -19 -2 -25 0 -7 3 -2 5 12 5
14 0 19 -2 13 -5z m105 0 c-10 -2 -26 -2 -35 0 -10 3 -2 5 17 5 19 0 27 -2 18
-5z m-4261 -9 c-3 -3 -12 -4 -19 -1 -8 3 -5 6 6 6 11 1 17 -2 13 -5z m106 -1
c-7 -2 -21 -2 -30 0 -10 3 -4 5 12 5 17 0 24 -2 18 -5z m1405 0 c-27 -2 -69
-2 -95 0 -27 2 -5 3 47 3 52 0 74 -1 48 -3z m145 0 c-13 -2 -35 -2 -50 0 -16
2 -5 4 22 4 28 0 40 -2 28 -4z m90 0 c-7 -2 -21 -2 -30 0 -10 3 -4 5 12 5 17
0 24 -2 18 -5z m173 -31 c-15 -15 -15 -15 -4 10 7 15 15 23 17 17 2 -6 -4 -18
-13 -27z m2062 13 c-3 -3 -9 2 -12 12 -6 14 -5 15 5 6 7 -7 10 -15 7 -18z
m595 18 c-23 -2 -64 -2 -90 0 -26 2 -7 3 42 3 50 0 71 -1 48 -3z m1888 -11
c-5 -10 -18 -25 -27 -33 -11 -9 -9 -2 6 19 26 35 36 42 21 14z m-7911 4 c0 -2
-8 -10 -17 -17 -16 -13 -17 -12 -4 4 13 16 21 21 21 13z m1798 -3 c-27 -2 -69
-2 -95 0 -27 2 -5 3 47 3 52 0 74 -1 48 -3z m345 0 c-7 -2 -19 -2 -25 0 -7 3
-2 5 12 5 14 0 19 -2 13 -5z m434 1 c-3 -3 -12 -4 -19 -1 -8 3 -5 6 6 6 11 1
17 -2 13 -5z m3829 -22 c-17 -16 -18 -16 -5 5 7 12 15 20 18 17 3 -2 -3 -12
-13 -22z m-5121 -12 l20 -25 -22 19 c-13 11 -23 24 -23 29 0 6 1 8 3 6 1 -2
11 -15 22 -29z m895 6 c0 -8 -8 -20 -17 -27 -16 -13 -17 -12 -4 3 7 10 11 25
7 33 -3 9 -2 13 4 10 6 -3 10 -12 10 -19z m5541 7 c13 -16 12 -17 -3 -4 -10 7
-18 15 -18 17 0 8 8 3 21 -13z m-7926 -13 c10 -11 16 -20 13 -20 -3 0 -13 9
-23 20 -10 11 -16 20 -13 20 3 0 13 -9 23 -20z m8736 -8 c-6 -2 -8 -9 -5 -14
4 -7 2 -8 -4 -4 -9 5 -8 12 1 27 7 12 13 15 16 7 2 -7 -1 -14 -8 -16z m-9374
0 c7 -13 8 -23 1 -33 -8 -11 -9 -10 -4 4 3 9 1 17 -3 17 -5 0 -11 7 -15 15 -8
21 7 19 21 -3z m803 15 c0 -2 -10 -12 -22 -23 l-23 -19 19 23 c18 21 26 27 26
19z m4375 -15 c-3 -3 -11 0 -18 7 -9 10 -8 11 6 5 10 -3 15 -9 12 -12z m-5378
-29 c-3 -10 -5 -4 -5 12 0 17 2 24 5 18 2 -7 2 -21 0 -30z m3866 20 c-7 -2
-21 -2 -30 0 -10 3 -4 5 12 5 17 0 24 -2 18 -5z m410 0 c-34 -2 -93 -2 -130 0
-37 2 -9 3 62 3 72 0 102 -1 68 -3z m1185 0 c-10 -2 -26 -2 -35 0 -10 3 -2 5
17 5 19 0 27 -2 18 -5z m150 0 c-16 -2 -40 -2 -55 0 -16 2 -3 4 27 4 30 0 43
-2 28 -4z m495 0 c-34 -2 -93 -2 -130 0 -37 2 -9 3 62 3 72 0 102 -1 68 -3z
m1140 0 c-51 -2 -135 -2 -185 0 -51 1 -10 3 92 3 102 0 143 -2 93 -3z m2524
-100 c-2 -21 -4 -4 -4 37 0 41 2 58 4 38 2 -21 2 -55 0 -75z m-7359 90 c-10
-2 -28 -2 -40 0 -13 2 -5 4 17 4 22 1 32 -1 23 -4z m1330 0 c-15 -2 -42 -2
-60 0 -18 2 -6 4 27 4 33 0 48 -2 33 -4z m4973 -20 c13 -16 12 -17 -3 -4 -10
7 -18 15 -18 17 0 8 8 3 21 -13z m-7661 -6 c0 -2 -10 -12 -22 -23 l-23 -19 19
23 c18 21 26 27 26 19z m5291 -14 c13 -16 12 -17 -3 -4 -10 7 -18 15 -18 17 0
8 8 3 21 -13z m3182 -18 c-9 -19 -18 -33 -21 -31 -4 5 26 66 33 66 3 0 -3 -16
-12 -35z m-758 -5 c10 -11 16 -20 13 -20 -3 0 -13 9 -23 20 -10 11 -16 20 -13
20 3 0 13 -9 23 -20z m356 3 c13 -17 13 -17 -6 -3 -11 8 -22 16 -24 17 -2 2 0
3 6 3 6 0 17 -8 24 -17z m-8463 -18 c-3 -3 -9 2 -12 12 -6 14 -5 15 5 6 7 -7
10 -15 7 -18z m342 12 c0 -1 -24 -25 -52 -52 l-53 -50 50 53 c46 48 55 57 55
49z m2460 -1 c0 -2 -8 -10 -17 -17 -16 -13 -17 -12 -4 4 13 16 21 21 21 13z
m6087 -38 c-3 -7 -5 -2 -5 12 0 14 2 19 5 13 2 -7 2 -19 0 -25z m-9550 -30
c-2 -13 -4 -5 -4 17 -1 22 1 32 4 23 2 -10 2 -28 0 -40z m873 49 c0 -2 -12
-14 -27 -28 l-28 -24 24 28 c23 25 31 32 31 24z m2543 -14 c-7 -2 -21 -2 -30
0 -10 3 -4 5 12 5 17 0 24 -2 18 -5z m5232 -55 c35 -37 35 -39 5 -11 -19 18
-39 31 -44 30 -5 -1 -16 9 -25 22 -15 23 -15 24 4 13 11 -6 38 -30 60 -54z
m-8428 20 c-3 -7 -5 -2 -5 12 0 14 2 19 5 13 2 -7 2 -19 0 -25z m955 10 c-7
-7 -12 -8 -12 -2 0 14 12 26 19 19 2 -3 -1 -11 -7 -17z m7126 15 c-16 -2 -40
-2 -55 0 -16 2 -3 4 27 4 30 0 43 -2 28 -4z m572 -48 c30 -30 52 -55 49 -55
-2 0 -29 25 -59 55 -30 30 -52 55 -49 55 2 0 29 -25 59 -55z m70 30 c13 -14
21 -25 18 -25 -2 0 -15 11 -28 25 -13 14 -21 25 -18 25 2 0 15 -11 28 -25z
m-7493 9 c-3 -3 -12 -4 -19 -1 -8 3 -5 6 6 6 11 1 17 -2 13 -5z m7990 -16 c-3
-8 -6 -5 -6 6 -1 11 2 17 5 13 3 -3 4 -12 1 -19z m-1260 -20 c-3 -8 -6 -5 -6
6 -1 11 2 17 5 13 3 -3 4 -12 1 -19z m-7790 -20 c-3 -8 -6 -5 -6 6 -1 11 2 17
5 13 3 -3 4 -12 1 -19z m423 19 c0 -2 -10 -12 -22 -23 l-23 -19 19 23 c18 21
26 27 26 19z m8637 -29 c-3 -8 -6 -5 -6 6 -1 11 2 17 5 13 3 -3 4 -12 1 -19z
m90 -30 c-2 -13 -4 -5 -4 17 -1 22 1 32 4 23 2 -10 2 -28 0 -40z m-8427 39 c0
-2 -17 -19 -37 -38 l-38 -34 34 38 c33 34 41 42 41 34z m7881 -14 c13 -16 12
-17 -3 -4 -10 7 -18 15 -18 17 0 8 8 3 21 -13z m146 -5 c-3 -8 -6 -5 -6 6 -1
11 2 17 5 13 3 -3 4 -12 1 -19z m620 0 c-3 -8 -6 -5 -6 6 -1 11 2 17 5 13 3
-3 4 -12 1 -19z m-8510 -10 c-3 -8 -6 -5 -6 6 -1 11 2 17 5 13 3 -3 4 -12 1
-19z m-377 9 c0 -2 -15 -16 -32 -33 l-33 -29 29 33 c28 30 36 37 36 29z m7647
-19 c-3 -8 -6 -5 -6 6 -1 11 2 17 5 13 3 -3 4 -12 1 -19z m-8140 -10 c-3 -8
-6 -5 -6 6 -1 11 2 17 5 13 3 -3 4 -12 1 -19z m9010 -10 c-3 -8 -6 -5 -6 6 -1
11 2 17 5 13 3 -3 4 -12 1 -19z m-8770 -10 c-3 -8 -6 -5 -6 6 -1 11 2 17 5 13
3 -3 4 -12 1 -19z m8113 -3 c13 -14 21 -25 18 -25 -2 0 -15 11 -28 25 -13 14
-21 25 -18 25 2 0 15 -11 28 -25z m225 -5 c10 -11 16 -20 13 -20 -3 0 -13 9
-23 20 -10 11 -16 20 -13 20 3 0 13 -9 23 -20z m192 -2 c-3 -8 -6 -5 -6 6 -1
11 2 17 5 13 3 -3 4 -12 1 -19z m-7910 -10 c-3 -8 -6 -5 -6 6 -1 11 2 17 5 13
3 -3 4 -12 1 -19z m7037 -158 c73 -141 198 -261 340 -326 31 -14 56 -26 56
-28 0 -1 -29 0 -65 2 -123 8 -213 -37 -259 -129 -61 -124 -9 -271 116 -323 47
-20 141 -20 193 0 71 27 83 27 139 0 136 -67 209 -208 191 -368 -7 -54 -8 -58
-30 -52 -39 10 -56 -30 -58 -135 -1 -50 -6 -92 -11 -93 -5 -2 -18 15 -30 37
-18 35 -21 59 -23 185 -1 80 -2 153 -2 163 -1 22 -50 23 -90 2 -41 -21 -106
-98 -158 -187 l-45 -77 -54 85 c-109 174 -184 234 -232 186 -18 -18 -19 -30
-14 -139 4 -95 1 -130 -12 -169 -18 -55 -69 -124 -92 -124 -7 0 -35 16 -61 36
-62 47 -143 88 -154 77 -20 -20 -29 -190 -29 -542 l1 -375 -48 -18 c-65 -24
-117 -69 -144 -125 -22 -46 -23 -46 -30 -21 -4 15 -11 32 -15 40 -5 7 -7 40
-5 73 4 80 -19 134 -76 185 -62 54 -128 69 -206 46 -100 -29 -160 -111 -159
-217 0 -114 77 -200 191 -216 66 -10 76 -23 67 -94 l-7 -54 -79 -37 c-141 -68
-260 -208 -260 -307 1 -53 31 -112 80 -153 35 -30 49 -37 82 -35 34 1 45 -4
69 -31 35 -39 38 -76 7 -96 -13 -7 -59 -16 -104 -19 -46 -4 -108 -16 -146 -30
l-65 -23 3 115 c1 64 4 130 6 146 3 26 -1 30 -24 33 -38 4 -124 -35 -185 -85
-29 -24 -56 -43 -59 -43 -4 0 -4 44 -1 97 6 106 -7 252 -26 292 -16 35 -51 38
-93 9 -47 -30 -145 -153 -218 -272 -58 -94 -60 -95 -75 -73 -20 29 -32 37 -58
37 -29 0 -90 -64 -99 -103 -13 -63 -49 -113 -158 -227 -61 -63 -157 -165 -213
-226 l-101 -111 -21 28 c-13 17 -37 33 -61 39 -35 10 -44 8 -69 -10 -61 -43
-125 -171 -137 -274 l-6 -53 -87 -12 c-111 -15 -275 -30 -325 -31 -38 0 -36 2
80 76 338 216 644 451 973 749 944 853 1606 1869 1916 2945 52 182 125 488
125 527 0 11 3 23 8 27 13 14 89 -82 136 -174z m-6579 -229 c177 -693 528
-1414 993 -2041 499 -672 1200 -1328 1912 -1788 l145 -93 -80 6 c-97 8 -311
34 -342 42 -17 4 -23 12 -23 32 0 115 -113 301 -183 301 -36 0 -66 -15 -93
-46 l-20 -24 -166 177 c-92 98 -189 199 -216 226 -50 47 -102 134 -102 169 0
25 -73 98 -98 98 -22 0 -56 -27 -64 -51 -7 -18 -1 -24 -89 111 -124 190 -228
287 -279 260 -10 -5 -21 -18 -24 -27 -16 -53 -27 -169 -24 -264 1 -60 -1 -111
-4 -115 -4 -3 -31 15 -61 39 -50 40 -147 87 -181 87 -27 0 -38 -26 -27 -67 12
-43 15 -193 3 -193 -4 0 -39 7 -77 15 -39 8 -97 15 -130 15 -102 0 -134 43
-75 102 27 27 35 30 71 24 48 -8 111 17 148 58 19 20 26 40 29 84 4 51 0 65
-35 132 -48 94 -138 172 -270 237 l-93 45 0 48 c0 74 5 80 65 80 205 0 302
254 149 389 -148 130 -367 27 -369 -173 -1 -40 -8 -77 -22 -106 -20 -41 -22
-43 -22 -17 -2 61 -68 136 -138 157 l-38 12 0 386 c0 370 -5 480 -25 511 -7
13 -15 12 -51 -5 -24 -10 -70 -39 -103 -63 -68 -50 -74 -49 -123 22 -44 65
-60 162 -45 264 11 65 10 79 -3 100 -42 64 -141 -9 -243 -179 -26 -43 -49 -78
-52 -78 -3 0 -22 31 -44 69 -42 75 -115 164 -149 183 -12 6 -36 14 -54 19 -48
10 -54 -8 -47 -138 8 -127 -6 -211 -41 -251 l-24 -27 -1 95 c0 109 -13 145
-50 145 -16 0 -27 7 -32 20 -13 43 -7 145 13 210 17 55 31 78 72 119 29 29 78
64 111 79 l58 28 42 -21 c54 -26 146 -27 202 -1 80 36 134 127 134 222 -1 135
-141 249 -272 222 -27 -5 -48 -8 -48 -6 0 1 30 18 68 37 140 70 255 182 317
306 31 61 77 133 108 168 l21 23 32 -148 c18 -82 44 -195 59 -252z m-1328 357
c-3 -7 -5 -2 -5 12 0 14 2 19 5 13 2 -7 2 -19 0 -25z m663 29 c0 -2 -12 -14
-27 -28 l-28 -24 24 28 c23 25 31 32 31 24z m-230 -11 c0 -2 -8 -10 -17 -17
-16 -13 -17 -12 -4 4 13 16 21 21 21 13z m7461 -13 c13 -16 12 -17 -3 -4 -10
7 -18 15 -18 17 0 8 8 3 21 -13z m730 -10 c13 -16 12 -17 -3 -4 -10 7 -18 15
-18 17 0 8 8 3 21 -13z m406 -15 c-3 -7 -5 -2 -5 12 0 14 2 19 5 13 2 -7 2
-19 0 -25z m-8790 -15 c-3 -10 -5 -4 -5 12 0 17 2 24 5 18 2 -7 2 -21 0 -30z
m8178 17 c10 -11 16 -20 13 -20 -3 0 -13 9 -23 20 -10 11 -16 20 -13 20 3 0
13 -9 23 -20z m-7285 7 c0 -2 -10 -12 -22 -23 l-23 -19 19 23 c18 21 26 27 26
19z m7657 -69 c-2 -13 -4 -3 -4 22 0 25 2 35 4 23 2 -13 2 -33 0 -45z m791 55
c-15 -2 -42 -2 -60 0 -18 2 -6 4 27 4 33 0 48 -2 33 -4z m-10151 -9 c-3 -3
-12 -4 -19 -1 -8 3 -5 6 6 6 11 1 17 -2 13 -5z m126 -1 c-7 -2 -21 -2 -30 0
-10 3 -4 5 12 5 17 0 24 -2 18 -5z m8382 -13 c10 -11 16 -20 13 -20 -3 0 -13
9 -23 20 -10 11 -16 20 -13 20 3 0 13 -9 23 -20z m-7335 6 c0 -2 -8 -10 -17
-17 -16 -13 -17 -12 -4 4 13 16 21 21 21 13z m7855 -26 c10 -11 16 -20 13 -20
-3 0 -13 9 -23 20 -10 11 -16 20 -13 20 3 0 13 -9 23 -20z m273 -5 c-3 -3 -9
2 -12 12 -6 14 -5 15 5 6 7 -7 10 -15 7 -18z m-7648 2 c0 -2 -10 -12 -22 -23
l-23 -19 19 23 c18 21 26 27 26 19z m-1160 -42 c0 -5 -5 -3 -10 5 -5 8 -10 20
-10 25 0 6 5 3 10 -5 5 -8 10 -19 10 -25z m67 -102 c-2 -27 -3 -5 -3 47 0 52
1 74 3 48 2 -27 2 -69 0 -95z m573 123 c0 -2 -8 -10 -17 -17 -16 -13 -17 -12
-4 4 13 16 21 21 21 13z m7421 -13 c13 -16 12 -17 -3 -4 -10 7 -18 15 -18 17
0 8 8 3 21 -13z m445 -44 c14 -28 24 -53 22 -55 -2 -2 -16 21 -31 51 -15 30
-25 55 -22 55 3 0 16 -23 31 -51z m75 24 c13 -16 12 -17 -3 -4 -10 7 -18 15
-18 17 0 8 8 3 21 -13z m-7461 4 c0 -2 -10 -12 -22 -23 l-23 -19 19 23 c18 21
26 27 26 19z m-1321 -37 c11 -24 11 -24 -3 -6 -9 11 -16 24 -16 30 0 12 5 7
19 -24z m801 16 c0 -2 -8 -10 -17 -17 -16 -13 -17 -12 -4 4 13 16 21 21 21 13z
m7501 -13 c13 -16 12 -17 -3 -4 -10 7 -18 15 -18 17 0 8 8 3 21 -13z m1016
-30 c-3 -10 -5 -2 -5 17 0 19 2 27 5 18 2 -10 2 -26 0 -35z m-506 20 c13 -16
12 -17 -3 -4 -10 7 -18 15 -18 17 0 8 8 3 21 -13z m259 -20 c0 -24 -3 -33 -9
-25 -7 12 -4 62 5 62 2 0 4 -17 4 -37z m-7790 13 c0 -2 -8 -10 -17 -17 -16
-13 -17 -12 -4 4 13 16 21 21 21 13z m-510 -10 c0 -2 -8 -10 -17 -17 -16 -13
-17 -12 -4 4 13 16 21 21 21 13z m-353 -28 c-3 -8 -6 -5 -6 6 -1 11 2 17 5 13
3 -3 4 -12 1 -19z m8424 5 c13 -16 12 -17 -3 -4 -10 7 -18 15 -18 17 0 8 8 3
21 -13z m-466 -43 c21 -22 37 -40 34 -40 -3 0 -23 18 -44 40 -21 22 -37 40
-34 40 3 0 23 -18 44 -40z m-7635 26 c0 -2 -8 -10 -17 -17 -16 -13 -17 -12 -4
4 13 16 21 21 21 13z m320 -14 c0 -5 -7 -17 -15 -28 -14 -18 -14 -17 -4 9 12
27 19 34 19 19z m7821 -19 c13 -16 12 -17 -3 -4 -10 7 -18 15 -18 17 0 8 8 3
21 -13z m-7671 4 c0 -2 -17 -19 -37 -38 l-38 -34 34 38 c33 34 41 42 41 34z
m7807 -19 c-3 -8 -6 -5 -6 6 -1 11 2 17 5 13 3 -3 4 -12 1 -19z m360 -30 c-2
-13 -4 -5 -4 17 -1 22 1 32 4 23 2 -10 2 -28 0 -40z m133 18 c0 -2 -8 -10 -17
-17 -16 -13 -17 -12 -4 4 13 16 21 21 21 13z m-9419 -23 c13 -16 12 -17 -3 -4
-10 7 -18 15 -18 17 0 8 8 3 21 -13z m306 -5 c-3 -8 -6 -5 -6 6 -1 11 2 17 5
13 3 -3 4 -12 1 -19z m8910 -15 c-3 -10 -5 -4 -5 12 0 17 2 24 5 18 2 -7 2
-21 0 -30z m-9297 7 c6 -11 8 -20 6 -20 -3 0 -10 9 -16 20 -6 11 -8 20 -6 20
3 0 10 -9 16 -20z m197 -27 c-3 -10 -5 -2 -5 17 0 19 2 27 5 18 2 -10 2 -26 0
-35z m8244 30 c13 -16 12 -17 -3 -4 -10 7 -18 15 -18 17 0 8 8 3 21 -13z
m-7894 -55 c-2 -13 -4 -3 -4 22 0 25 2 35 4 23 2 -13 2 -33 0 -45z m-80 5 c-3
-10 -5 -2 -5 17 0 19 2 27 5 18 2 -10 2 -26 0 -35z m8010 25 c-3 -8 -6 -5 -6
6 -1 11 2 17 5 13 3 -3 4 -12 1 -19z m993 19 c0 -2 -12 -14 -27 -28 l-28 -24
24 28 c23 25 31 32 31 24z m-9350 -32 c13 -14 21 -25 18 -25 -2 0 -15 11 -28
25 -13 14 -21 25 -18 25 2 0 15 -11 28 -25z m147 -7 c-3 -7 -5 -2 -5 12 0 14
2 19 5 13 2 -7 2 -19 0 -25z m843 26 c0 -8 -19 -13 -24 -6 -3 5 1 9 9 9 8 0
15 -2 15 -3z m-733 -26 c-3 -8 -6 -5 -6 6 -1 11 2 17 5 13 3 -3 4 -12 1 -19z
m263 18 c0 -2 -8 -10 -17 -17 -16 -13 -17 -12 -4 4 13 16 21 21 21 13z m8311
-23 c13 -16 12 -17 -3 -4 -10 7 -18 15 -18 17 0 8 8 3 21 -13z m146 -15 c-3
-7 -5 -2 -5 12 0 14 2 19 5 13 2 -7 2 -19 0 -25z m-8127 9 c0 -2 -10 -12 -22
-23 l-23 -19 19 23 c18 21 26 27 26 19z m-360 -11 c0 -2 -8 -10 -17 -17 -16
-13 -17 -12 -4 4 13 16 21 21 21 13z m8677 -18 c-3 -8 -6 -5 -6 6 -1 11 2 17
5 13 3 -3 4 -12 1 -19z m70 -10 c-3 -7 -5 -2 -5 12 0 14 2 19 5 13 2 -7 2 -19
0 -25z m-702 -18 c21 -22 37 -40 34 -40 -3 0 -23 18 -44 40 -21 22 -37 40 -34
40 3 0 23 -18 44 -40z m326 23 c13 -16 12 -17 -3 -4 -10 7 -18 15 -18 17 0 8
8 3 21 -13z m-8704 -15 c-3 -8 -6 -5 -6 6 -1 11 2 17 5 13 3 -3 4 -12 1 -19z
m8920 0 c-3 -8 -6 -5 -6 6 -1 11 2 17 5 13 3 -3 4 -12 1 -19z m313 18 c0 -2
-8 -10 -17 -17 -16 -13 -17 -12 -4 4 13 16 21 21 21 13z m-9439 -23 c13 -16
12 -17 -3 -4 -10 7 -18 15 -18 17 0 8 8 3 21 -13z m136 -15 c-3 -7 -5 -2 -5
12 0 14 2 19 5 13 2 -7 2 -19 0 -25z m8794 9 c-10 -9 -11 -8 -5 6 3 10 9 15
12 12 3 -3 0 -11 -7 -18z m86 -39 c-2 -13 -4 -3 -4 22 0 25 2 35 4 23 2 -13 2
-33 0 -45z m-8507 47 c0 -2 -7 -8 -15 -15 -12 -10 -15 -10 -15 2 0 8 7 15 15
15 8 0 15 -1 15 -2z m-123 -37 c-3 -7 -5 -2 -5 12 0 14 2 19 5 13 2 -7 2 -19
0 -25z m8650 -10 c-3 -7 -5 -2 -5 12 0 14 2 19 5 13 2 -7 2 -19 0 -25z m-8887
-165 c0 -28 -3 -54 -7 -56 -5 -3 -6 20 -5 50 l4 55 -69 72 -68 71 73 -70 c71
-69 72 -70 72 -122z m9250 184 c0 -1 -30 -32 -67 -67 l-68 -65 65 68 c60 62
70 72 70 64z m-8590 -10 c0 -2 -10 -12 -22 -23 l-23 -19 19 23 c18 21 26 27
26 19z m8327 -19 c-3 -8 -6 -5 -6 6 -1 11 2 17 5 13 3 -3 4 -12 1 -19z m-8730
-25 c-3 -10 -5 -4 -5 12 0 17 2 24 5 18 2 -7 2 -21 0 -30z m8790 5 c-3 -8 -6
-5 -6 6 -1 11 2 17 5 13 3 -3 4 -12 1 -19z m-8820 -20 c-3 -8 -6 -5 -6 6 -1
11 2 17 5 13 3 -3 4 -12 1 -19z m9193 19 c0 -2 -10 -12 -22 -23 l-23 -19 19
23 c18 21 26 27 26 19z m-9690 -32 c13 -14 21 -25 18 -25 -2 0 -15 11 -28 25
-13 14 -21 25 -18 25 2 0 15 -11 28 -25z m397 3 c-3 -8 -6 -5 -6 6 -1 11 2 17
5 13 3 -3 4 -12 1 -19z m273 7 c0 -8 -4 -15 -10 -15 -5 0 -7 7 -4 15 4 8 8 15
10 15 2 0 4 -7 4 -15z m8334 0 c3 -8 1 -15 -4 -15 -6 0 -10 7 -10 15 0 8 2 15
4 15 2 0 6 -7 10 -15z m163 -7 c-3 -8 -6 -5 -6 6 -1 11 2 17 5 13 3 -3 4 -12
1 -19z m118 -6 c-3 -3 -11 0 -18 7 -9 10 -8 11 6 5 10 -3 15 -9 12 -12z
m-8627 -37 c-3 -3 -9 2 -12 12 -6 14 -5 15 5 6 7 -7 10 -15 7 -18z m8355 5
c-3 -12 -8 -19 -11 -16 -5 6 5 36 12 36 2 0 2 -9 -1 -20z m114 -2 c-3 -8 -6
-5 -6 6 -1 11 2 17 5 13 3 -3 4 -12 1 -19z m-8590 -20 c-3 -8 -6 -5 -6 6 -1
11 2 17 5 13 3 -3 4 -12 1 -19z m8048 12 c3 -6 -1 -7 -9 -4 -18 7 -21 14 -7
14 6 0 13 -4 16 -10z m-145 -3 c0 -2 -10 -12 -22 -23 l-23 -19 19 23 c18 21
26 27 26 19z m-7410 -10 c0 -2 -10 -12 -22 -23 l-23 -19 19 23 c18 21 26 27
26 19z m215 -17 c10 -11 16 -20 13 -20 -3 0 -13 9 -23 20 -10 11 -16 20 -13
20 3 0 13 -9 23 -20z m7376 3 c13 -16 12 -17 -3 -4 -17 13 -22 21 -14 21 2 0
10 -8 17 -17z m979 13 c0 -2 -8 -10 -17 -17 -16 -13 -17 -12 -4 4 13 16 21 21
21 13z m-9519 -23 c13 -16 12 -17 -3 -4 -10 7 -18 15 -18 17 0 8 8 3 21 -13z
m566 -5 c-3 -8 -6 -5 -6 6 -1 11 2 17 5 13 3 -3 4 -12 1 -19z m-170 -10 c-3
-8 -6 -5 -6 6 -1 11 2 17 5 13 3 -3 4 -12 1 -19z m5325 -8 c-2 -14 -3 -381 -2
-816 1 -435 -1 -805 -5 -823 -4 -21 -17 -37 -38 -48 -75 -38 -122 -43 -469
-43 -315 0 -341 -1 -389 -20 -88 -35 -89 -34 -84 148 2 86 1 238 -4 337 -6
156 -2 258 13 273 3 2 13 1 23 -2 34 -11 57 -74 58 -157 1 -41 4 -80 8 -86 10
-15 172 -26 197 -13 11 6 20 16 20 22 0 6 -24 34 -54 62 -49 47 -54 57 -64
116 -7 36 -32 123 -57 193 -25 70 -45 136 -45 147 0 10 -20 81 -45 158 l-45
140 0 171 c0 156 2 173 19 190 37 37 108 41 451 27 222 -9 320 -1 394 34 23
10 59 18 81 17 37 -2 40 -4 37 -27z m-4899 -1 c-4 -13 -25 -29 -57 -43 -28
-13 -72 -39 -98 -59 -27 -20 -48 -34 -48 -29 1 4 7 32 14 62 l12 55 56 2 c44
2 87 13 125 32 0 1 -1 -8 -4 -20z m2993 -5 c79 -26 79 -26 279 -18 369 16 491
8 531 -37 17 -20 19 -36 16 -198 -3 -191 -11 -255 -47 -371 -13 -41 -47 -167
-75 -280 -29 -113 -59 -217 -66 -232 -8 -15 -28 -35 -44 -43 -37 -19 -42 -60
-7 -69 32 -8 120 -7 134 2 9 6 12 37 10 104 -2 85 1 100 19 125 27 37 70 43
79 12 9 -28 10 -703 2 -717 -7 -10 -719 -7 -812 3 -28 3 -68 16 -90 28 l-40
23 -7 154 c-4 85 -7 452 -7 815 0 363 0 671 -1 683 -1 51 15 53 126 16z m4909
11 c22 -8 59 -14 82 -15 41 0 43 -1 53 -42 6 -24 13 -51 16 -60 3 -12 -16 -3
-60 27 -35 23 -80 48 -99 54 -20 7 -37 20 -40 31 -6 24 -4 24 48 5z m613 -48
c12 -3 10 -5 -5 -6 -20 -1 -23 4 -22 32 2 29 2 29 6 5 2 -15 12 -29 21 -31z
m-88 34 c0 -5 -7 -12 -16 -15 -14 -5 -15 -4 -4 9 14 17 20 19 20 6z m-8980
-16 c11 -13 10 -14 -4 -9 -9 3 -16 10 -16 15 0 13 6 11 20 -6z m5683 -3 c-10
-10 -20 -17 -22 -16 -6 5 20 34 30 34 5 0 1 -8 -8 -18z m-5463 -17 c14 -19 14
-19 -2 -6 -10 7 -18 18 -18 24 0 6 1 8 3 6 1 -2 9 -13 17 -24z m2977 19 c-3
-3 -12 -4 -19 -1 -8 3 -5 6 6 6 11 1 17 -2 13 -5z m2399 -52 l32 -41 7 -173
c9 -223 3 -1484 -8 -1494 -14 -14 -41 10 -74 66 l-33 54 0 798 c0 808 2 846
35 835 5 -2 24 -22 41 -45z m3142 40 c15 12 16 11 3 -4 -14 -19 -32 -15 -30 5
0 8 2 8 6 -1 4 -10 8 -10 21 0z m-5610 -22 c-7 -10 -14 -17 -17 -15 -4 4 18
35 25 35 2 0 -1 -9 -8 -20z m4899 -27 c-3 -10 -5 -2 -5 17 0 19 2 27 5 18 2
-10 2 -26 0 -35z m923 43 c0 -2 -8 -10 -17 -17 -16 -13 -17 -12 -4 4 13 16 21
21 21 13z m-8919 -23 c13 -16 12 -17 -3 -4 -10 7 -18 15 -18 17 0 8 8 3 21
-13z m3196 -5 c-3 -8 -6 -5 -6 6 -1 11 2 17 5 13 3 -3 4 -12 1 -19z m-2950
-10 c-3 -8 -6 -5 -6 6 -1 11 2 17 5 13 3 -3 4 -12 1 -19z m660 0 c-3 -8 -6 -5
-6 6 -1 11 2 17 5 13 3 -3 4 -12 1 -19z m4860 -70 c-2 -18 -4 -4 -4 32 0 36 2
50 4 33 2 -18 2 -48 0 -65z m-2462 73 c3 -5 5 -372 5 -815 0 -778 0 -808 -19
-844 -24 -47 -46 -66 -66 -58 -14 5 -15 97 -13 824 l3 818 28 42 c26 40 49 52
62 33z m-3250 -39 c-3 -3 -11 0 -18 7 -9 10 -8 11 6 5 10 -3 15 -9 12 -12z
m182 -24 c-3 -8 -6 -5 -6 6 -1 11 2 17 5 13 3 -3 4 -12 1 -19z m8244 5 c13
-16 12 -17 -3 -4 -10 7 -18 15 -18 17 0 8 8 3 21 -13z m-5404 -30 c-3 -10 -5
-4 -5 12 0 17 2 24 5 18 2 -7 2 -21 0 -30z m5590 15 c-3 -8 -6 -5 -6 6 -1 11
2 17 5 13 3 -3 4 -12 1 -19z m-8247 9 c0 -1 -33 -34 -72 -72 l-73 -70 70 73
c64 67 75 77 75 69z m7841 -20 c-10 -9 -11 -8 -5 6 3 10 9 15 12 12 3 -3 0
-11 -7 -18z m-8274 -9 c-3 -8 -6 -5 -6 6 -1 11 2 17 5 13 3 -3 4 -12 1 -19z
m5690 -100 c-2 -24 -4 -5 -4 42 0 47 2 66 4 43 2 -24 2 -62 0 -85z m-2530 75
c-3 -10 -5 -4 -5 12 0 17 2 24 5 18 2 -7 2 -21 0 -30z m4903 12 c13 -14 21
-25 18 -25 -2 0 -15 11 -28 25 -13 14 -21 25 -18 25 2 0 15 -11 28 -25z m500
-10 c19 -19 32 -35 29 -35 -3 0 -20 16 -39 35 -19 19 -32 35 -29 35 3 0 20
-16 39 -35z m-189 -2 c-12 -20 -14 -14 -5 12 4 9 9 14 11 11 3 -2 0 -13 -6
-23z m-8134 -25 c-3 -7 -5 -2 -5 12 0 14 2 19 5 13 2 -7 2 -19 0 -25z m318 23
c3 -5 2 -12 -3 -15 -5 -3 -9 1 -9 9 0 17 3 19 12 6z m5222 -53 c-2 -13 -4 -5
-4 17 -1 22 1 32 4 23 2 -10 2 -28 0 -40z m2910 20 c-3 -7 -5 -2 -5 12 0 14 2
19 5 13 2 -7 2 -19 0 -25z m-8158 8 c-2 -2 -15 -9 -29 -15 -24 -11 -24 -11 -6
3 16 13 49 24 35 12z m249 -13 c-10 -2 -28 -2 -40 0 -13 2 -5 4 17 4 22 1 32
-1 23 -4z m8129 -25 c-3 -8 -6 -5 -6 6 -1 11 2 17 5 13 3 -3 4 -12 1 -19z
m-8890 -20 c-3 -8 -6 -5 -6 6 -1 11 2 17 5 13 3 -3 4 -12 1 -19z m433 18 c0
-2 -8 -10 -17 -17 -16 -13 -17 -12 -4 4 13 16 21 21 21 13z m8085 -46 c21 -22
37 -40 34 -40 -3 0 -23 18 -44 40 -21 22 -37 40 -34 40 3 0 23 -18 44 -40z
m-8293 -44 c7 4 8 2 4 -4 -15 -25 -26 -10 -24 31 l1 42 4 -38 c3 -24 8 -35 15
-31z m158 50 c0 -2 -8 -10 -17 -17 -16 -13 -17 -12 -4 4 13 16 21 21 21 13z
m8497 -18 c-3 -8 -6 -5 -6 6 -1 11 2 17 5 13 3 -3 4 -12 1 -19z m413 8 c0 -2
-7 -7 -16 -10 -8 -3 -12 -2 -9 4 6 10 25 14 25 6z m-9283 -28 c-3 -8 -6 -5 -6
6 -1 11 2 17 5 13 3 -3 4 -12 1 -19z m8634 5 c13 -16 12 -17 -3 -4 -10 7 -18
15 -18 17 0 8 8 3 21 -13z m754 7 c3 -6 -1 -7 -9 -4 -18 7 -21 14 -7 14 6 0
13 -4 16 -10z m-9745 -25 c13 -14 21 -25 18 -25 -2 0 -15 11 -28 25 -13 14
-21 25 -18 25 2 0 15 -11 28 -25z m9030 10 c0 -8 -4 -15 -10 -15 -5 0 -7 7 -4
15 4 8 8 15 10 15 2 0 4 -7 4 -15z m570 12 c0 -2 -10 -12 -22 -23 l-23 -19 19
23 c18 21 26 27 26 19z m-6200 -21 c0 -2 -8 -10 -17 -17 -16 -13 -17 -12 -4 4
13 16 21 21 21 13z m2807 -22 c-3 -3 -12 -4 -19 -1 -8 3 -5 6 6 6 11 1 17 -2
13 -5z m3010 -16 c-3 -8 -6 -5 -6 6 -1 11 2 17 5 13 3 -3 4 -12 1 -19z m-2924
5 c-7 -2 -19 -2 -25 0 -7 3 -2 5 12 5 14 0 19 -2 13 -5z m-5926 -35 c-3 -7 -5
-2 -5 12 0 14 2 19 5 13 2 -7 2 -19 0 -25z m2970 26 c-3 -3 -12 -4 -19 -1 -8
3 -5 6 6 6 11 1 17 -2 13 -5z m-99 -11 c-10 -2 -28 -2 -40 0 -13 2 -5 4 17 4
22 1 32 -1 23 -4z m6579 -45 c-3 -8 -6 -5 -6 6 -1 11 2 17 5 13 3 -3 4 -12 1
-19z m-10090 -25 c-3 -10 -5 -4 -5 12 0 17 2 24 5 18 2 -7 2 -21 0 -30z m9810
5 c-3 -7 -5 -2 -5 12 0 14 2 19 5 13 2 -7 2 -19 0 -25z m-330 -65 c-2 -16 -4
-3 -4 27 0 30 2 43 4 28 2 -16 2 -40 0 -55z m610 45 c-3 -8 -6 -5 -6 6 -1 11
2 17 5 13 3 -3 4 -12 1 -19z m-6686 -15 c13 -16 12 -17 -3 -4 -17 13 -22 21
-14 21 2 0 10 -8 17 -17z m-2754 -30 c-3 -10 -5 -4 -5 12 0 17 2 24 5 18 2 -7
2 -21 0 -30z m5891 30 c-10 -2 -26 -2 -35 0 -10 3 -2 5 17 5 19 0 27 -2 18 -5z
m-118 -17 c0 -2 -8 -10 -17 -17 -16 -13 -17 -12 -4 4 13 16 21 21 21 13z
m-5839 -23 c13 -16 12 -17 -3 -4 -10 7 -18 15 -18 17 0 8 8 3 21 -13z m296
-30 c-3 -10 -5 -4 -5 12 0 17 2 24 5 18 2 -7 2 -21 0 -30z m8828 27 c-3 -5
-16 -15 -28 -21 -19 -9 -19 -8 3 10 28 23 34 26 25 11z m-9415 -3 c0 -2 -12
-14 -27 -28 l-28 -24 24 28 c23 25 31 32 31 24z m8957 -89 c-2 -18 -4 -6 -4
27 0 33 2 48 4 33 2 -15 2 -42 0 -60z m263 78 c0 -2 -8 -10 -17 -17 -16 -13
-17 -12 -4 4 13 16 21 21 21 13z m550 0 c0 -2 -8 -10 -17 -17 -16 -13 -17 -12
-4 4 13 16 21 21 21 13z m-9425 -24 c-3 -3 -11 0 -18 7 -9 10 -8 11 6 5 10 -3
15 -9 12 -12z m5742 -384 c-1 -73 -3 -14 -3 132 0 146 2 205 3 133 2 -73 2
-193 0 -265z m3243 369 c0 -2 -10 -12 -22 -23 l-23 -19 19 23 c18 21 26 27 26
19z m-9099 -24 c13 -16 12 -17 -3 -4 -17 13 -22 21 -14 21 2 0 10 -8 17 -17z
m9432 10 c-7 -2 -19 -2 -25 0 -7 3 -2 5 12 5 14 0 19 -2 13 -5z m-9780 -10
c-7 -2 -21 -2 -30 0 -10 3 -4 5 12 5 17 0 24 -2 18 -5z m8767 -6 c0 -2 -10
-12 -22 -23 l-23 -19 19 23 c18 21 26 27 26 19z m-8063 -54 c-3 -10 -5 -4 -5
12 0 17 2 24 5 18 2 -7 2 -21 0 -30z m334 20 c13 -16 12 -17 -3 -4 -17 13 -22
21 -14 21 2 0 10 -8 17 -17z m439 3 c0 -2 -7 -7 -16 -10 -8 -3 -12 -2 -9 4 6
10 25 14 25 6z m6817 -83 c-2 -16 -4 -3 -4 27 0 30 2 43 4 28 2 -16 2 -40 0
-55z m1073 64 c0 -2 -10 -12 -22 -23 l-23 -19 19 23 c18 21 26 27 26 19z
m-8935 -27 c10 -11 16 -20 13 -20 -3 0 -13 9 -23 20 -10 11 -16 20 -13 20 3 0
13 -9 23 -20z m985 16 c0 -2 -8 -10 -17 -17 -16 -13 -17 -12 -4 4 13 16 21 21
21 13z m67 -33 c-3 -10 -5 -4 -5 12 0 17 2 24 5 18 2 -7 2 -21 0 -30z m4640
-180 c-1 -43 -3 -10 -3 72 0 83 2 118 3 78 2 -40 2 -107 0 -150z m-2540 -215
c-1 -79 -3 -15 -3 142 0 157 2 221 3 143 2 -79 2 -207 0 -285z m1218 412 c4
-6 4 -54 0 -106 -6 -72 -11 -97 -23 -101 -20 -8 -42 23 -42 60 0 16 8 58 17
93 16 60 33 78 48 54z m3611 -22 l29 -33 -32 29 c-31 28 -38 36 -30 36 2 0 16
-15 33 -32z m-7429 -35 c-3 -10 -5 -4 -5 12 0 17 2 24 5 18 2 -7 2 -21 0 -30z
m7810 -15 c-3 -7 -5 -2 -5 12 0 14 2 19 5 13 2 -7 2 -19 0 -25z m-7447 18 c0
-2 -8 -10 -17 -17 -16 -13 -17 -12 -4 4 13 16 21 21 21 13z m7323 -11 c-3 -9
-8 -14 -10 -11 -3 3 -2 9 2 15 9 16 15 13 8 -4z m620 -20 c-3 -9 -8 -14 -10
-11 -3 3 -2 9 2 15 9 16 15 13 8 -4z m-8316 -47 c-3 -8 -6 -5 -6 6 -1 11 2 17
5 13 3 -3 4 -12 1 -19z m-277 -8 c-6 -11 -13 -20 -16 -20 -2 0 0 9 6 20 6 11
13 20 16 20 2 0 0 -9 -6 -20z m8107 -2 c-3 -8 -6 -5 -6 6 -1 11 2 17 5 13 3
-3 4 -12 1 -19z m-510 -10 c-3 -8 -6 -5 -6 6 -1 11 2 17 5 13 3 -3 4 -12 1
-19z m-7491 0 c4 -7 3 -8 -5 -4 -6 4 -20 2 -29 -6 -15 -12 -16 -11 -3 5 16 20
27 22 37 5z m681 -20 c-3 -8 -6 -5 -6 6 -1 11 2 17 5 13 3 -3 4 -12 1 -19z
m3410 6 c8 -21 -13 -42 -28 -27 -13 13 -5 43 11 43 6 0 13 -7 17 -16z m-3930
-26 c-3 -8 -6 -5 -6 6 -1 11 2 17 5 13 3 -3 4 -12 1 -19z m-214 -3 c-3 -9 -8
-14 -10 -11 -3 3 -2 9 2 15 9 16 15 13 8 -4z m7874 -7 c-3 -8 -6 -5 -6 6 -1
11 2 17 5 13 3 -3 4 -12 1 -19z m330 -10 c-3 -8 -6 -5 -6 6 -1 11 2 17 5 13 3
-3 4 -12 1 -19z m-7800 -20 c-3 -7 -5 -2 -5 12 0 14 2 19 5 13 2 -7 2 -19 0
-25z m-947 18 c0 -2 -9 -6 -20 -9 -11 -3 -18 -1 -14 4 5 9 34 13 34 5z m617
-28 c-3 -7 -5 -2 -5 12 0 14 2 19 5 13 2 -7 2 -19 0 -25z m130 0 c-3 -8 -6 -5
-6 6 -1 11 2 17 5 13 3 -3 4 -12 1 -19z m7025 -3 c-2 -14 -6 -25 -8 -25 -2 0
-4 11 -4 25 0 14 4 25 9 25 4 0 6 -11 3 -25z m1255 3 c-3 -8 -6 -5 -6 6 -1 11
2 17 5 13 3 -3 4 -12 1 -19z m-7429 -40 l-2 -53 -3 48 c-3 38 -7 47 -19 43 -9
-3 -12 -1 -9 4 3 6 13 10 21 10 11 0 14 -13 12 -52z m-1261 20 c-3 -8 -6 -5
-6 6 -1 11 2 17 5 13 3 -3 4 -12 1 -19z m-201 -4 c18 -14 18 -14 -6 -3 -31 14
-36 19 -24 19 6 0 19 -7 30 -16z m8601 -16 c-3 -8 -6 -5 -6 6 -1 11 2 17 5 13
3 -3 4 -12 1 -19z m-8000 -10 c-3 -8 -6 -5 -6 6 -1 11 2 17 5 13 3 -3 4 -12 1
-19z m743 -23 c-24 -25 -46 -45 -49 -45 -3 0 15 20 39 45 24 25 46 45 49 45 3
0 -15 -20 -39 -45z m7537 3 c-3 -7 -5 -2 -5 12 0 14 2 19 5 13 2 -7 2 -19 0
-25z m-8816 5 c13 -16 12 -17 -3 -4 -17 13 -22 21 -14 21 2 0 10 -8 17 -17z
m979 -7 c0 -2 -8 -10 -17 -17 -16 -13 -17 -12 -4 4 13 16 21 21 21 13z m-870
-93 c0 -8 -9 0 -50 45 l-45 47 48 -45 c26 -24 47 -45 47 -47z m8327 65 c-3 -8
-6 -5 -6 6 -1 11 2 17 5 13 3 -3 4 -12 1 -19z m493 19 c0 -2 -19 -21 -42 -42
l-43 -40 40 43 c36 39 45 47 45 39z m-135 -27 c-10 -11 -22 -20 -28 -20 -5 0
1 9 14 20 31 25 37 25 14 0z m-1064 -7 c13 -16 12 -17 -3 -4 -10 7 -18 15 -18
17 0 8 8 3 21 -13z m-7540 -16 c-10 -9 -11 -8 -5 6 3 10 9 15 12 12 3 -3 0
-11 -7 -18z m326 -24 c-3 -10 -5 -4 -5 12 0 17 2 24 5 18 2 -7 2 -21 0 -30z
m713 23 c0 -2 -8 -10 -17 -17 -16 -13 -17 -12 -4 4 13 16 21 21 21 13z m-90
-10 c0 -2 -8 -10 -17 -17 -16 -13 -17 -12 -4 4 13 16 21 21 21 13z m6711 -23
c13 -16 12 -17 -3 -4 -10 7 -18 15 -18 17 0 8 8 3 21 -13z m-294 -85 c-2 -18
-4 -4 -4 32 0 36 2 50 4 33 2 -18 2 -48 0 -65z m440 50 c-3 -7 -5 -2 -5 12 0
14 2 19 5 13 2 -7 2 -19 0 -25z m433 14 c0 -5 -7 -17 -15 -28 -14 -18 -14 -17
-4 9 12 27 19 34 19 19z m410 4 c0 -2 -8 -10 -17 -17 -16 -13 -17 -12 -4 4 13
16 21 21 21 13z m-8699 -23 c13 -16 12 -17 -3 -4 -10 7 -18 15 -18 17 0 8 8 3
21 -13z m8126 -25 c-3 -7 -5 -2 -5 12 0 14 2 19 5 13 2 -7 2 -19 0 -25z m-70
-10 c-3 -8 -6 -5 -6 6 -1 11 2 17 5 13 3 -3 4 -12 1 -19z m510 0 c-3 -8 -6 -5
-6 6 -1 11 2 17 5 13 3 -3 4 -12 1 -19z m-8539 -19 c-3 -8 -7 -3 -11 10 -4 17
-3 21 5 13 5 -5 8 -16 6 -23z m1239 -76 c-2 -21 -4 -4 -4 37 0 41 2 58 4 38 2
-21 2 -55 0 -75z m6227 99 c3 -5 -1 -9 -9 -9 -8 0 -12 4 -9 9 3 4 7 8 9 8 2 0
6 -4 9 -8z m-6304 -12 c-35 -24 -54 -31 -30 -11 14 11 30 21 35 21 6 0 3 -5
-5 -10z m-433 -22 c-3 -8 -6 -5 -6 6 -1 11 2 17 5 13 3 -3 4 -12 1 -19z m7900
0 c-3 -8 -6 -5 -6 6 -1 11 2 17 5 13 3 -3 4 -12 1 -19z m-1102 -8 c10 -11 16
-20 13 -20 -3 0 -13 9 -23 20 -10 11 -16 20 -13 20 3 0 13 -9 23 -20z m-7008
-27 c-3 -10 -5 -4 -5 12 0 17 2 24 5 18 2 -7 2 -21 0 -30z m70 15 c-3 -8 -6
-5 -6 6 -1 11 2 17 5 13 3 -3 4 -12 1 -19z m-510 -10 c-3 -8 -6 -5 -6 6 -1 11
2 17 5 13 3 -3 4 -12 1 -19z m7960 -10 c-3 -7 -5 -2 -5 12 0 14 2 19 5 13 2
-7 2 -19 0 -25z m-7597 -3 c13 -14 21 -25 18 -25 -2 0 -15 11 -28 25 -13 14
-21 25 -18 25 2 0 15 -11 28 -25z m660 21 c0 -2 -8 -10 -17 -17 -16 -13 -17
-12 -4 4 13 16 21 21 21 13z m7033 -70 l22 19 -19 -22 c-29 -35 -36 -28 -34
30 l2 52 3 -49 4 -48 22 18z m67 71 c0 -2 -10 -12 -22 -23 l-23 -19 19 23 c18
21 26 27 26 19z m347 -19 c-3 -8 -6 -5 -6 6 -1 11 2 17 5 13 3 -3 4 -12 1 -19z
m-7830 -10 c-3 -8 -6 -5 -6 6 -1 11 2 17 5 13 3 -3 4 -12 1 -19z m8040 16 c-3
-3 -12 -4 -19 -1 -8 3 -5 6 6 6 11 1 17 -2 13 -5z m540 -16 c-3 -8 -6 -5 -6 6
-1 11 2 17 5 13 3 -3 4 -12 1 -19z m-9430 5 c-4 -4 5 -20 20 -37 l28 -31 -32
29 c-28 25 -35 46 -16 46 4 0 3 -3 0 -7z m44 -10 c13 -17 13 -17 -6 -3 -11 8
-22 16 -24 17 -2 2 0 3 6 3 6 0 17 -8 24 -17z m76 -20 c-3 -10 -5 -4 -5 12 0
17 2 24 5 18 2 -7 2 -21 0 -30z m8733 33 c0 -2 -8 -10 -17 -17 -16 -13 -17
-12 -4 4 13 16 21 21 21 13z m-62 -54 c15 12 16 11 3 -4 -20 -27 -31 -22 -30
15 2 31 2 31 6 4 4 -25 6 -27 21 -15z m92 35 c0 -2 -10 -12 -22 -23 l-23 -19
19 23 c18 21 26 27 26 19z m-418 -34 c-3 -16 -7 -22 -10 -15 -4 13 4 42 11 42
2 0 2 -12 -1 -27z m-8094 -3 c-7 -10 -14 -17 -17 -15 -4 4 18 35 25 35 2 0 -1
-9 -8 -20z m60 -5 c-3 -3 -9 2 -12 12 -6 14 -5 15 5 6 7 -7 10 -15 7 -18z
m279 -7 c-3 -7 -5 -2 -5 12 0 14 2 19 5 13 2 -7 2 -19 0 -25z m7250 -5 c-3
-10 -5 -4 -5 12 0 17 2 24 5 18 2 -7 2 -21 0 -30z m-8250 21 c-3 -3 -12 -4
-19 -1 -8 3 -5 6 6 6 11 1 17 -2 13 -5z m490 -56 c-2 -13 -4 -3 -4 22 0 25 2
35 4 23 2 -13 2 -33 0 -45z m428 42 c10 -11 16 -20 13 -20 -3 0 -13 9 -23 20
-10 11 -16 20 -13 20 3 0 13 -9 23 -20z m212 -2 c-3 -8 -6 -5 -6 6 -1 11 2 17
5 13 3 -3 4 -12 1 -19z m326 -13 c-9 -19 -18 -33 -21 -31 -4 5 26 66 33 66 3
0 -3 -16 -12 -35z m80 20 c-3 -9 -8 -14 -10 -11 -3 3 -2 9 2 15 9 16 15 13 8
-4z m6934 -22 c-3 -10 -5 -4 -5 12 0 17 2 24 5 18 2 -7 2 -21 0 -30z m-130 5
c-3 -8 -6 -5 -6 6 -1 11 2 17 5 13 3 -3 4 -12 1 -19z m-7113 -23 c5 -22 4 -26
-4 -15 -5 8 -10 24 -10 34 0 26 6 18 14 -19z m7753 -87 c-2 -24 -4 -5 -4 42 0
47 2 66 4 43 2 -24 2 -62 0 -85z m-347 88 c0 -2 -8 -10 -17 -17 -16 -13 -17
-12 -4 4 13 16 21 21 21 13z m-7779 -23 c13 -16 12 -17 -3 -4 -17 13 -22 21
-14 21 2 0 10 -8 17 -17z m8526 -5 c-3 -8 -6 -5 -6 6 -1 11 2 17 5 13 3 -3 4
-12 1 -19z m-8750 -40 c-2 -13 -4 -5 -4 17 -1 22 1 32 4 23 2 -10 2 -28 0 -40z
m490 20 c-3 -7 -5 -2 -5 12 0 14 2 19 5 13 2 -7 2 -19 0 -25z m4930 0 c-3 -7
-5 -2 -5 12 0 14 2 19 5 13 2 -7 2 -19 0 -25z m2300 -15 c-3 -10 -5 -4 -5 12
0 17 2 24 5 18 2 -7 2 -21 0 -30z m-8260 5 c-3 -8 -6 -5 -6 6 -1 11 2 17 5 13
3 -3 4 -12 1 -19z m3260 -15 c-3 -10 -5 -4 -5 12 0 17 2 24 5 18 2 -7 2 -21 0
-30z m5960 5 c-3 -8 -6 -5 -6 6 -1 11 2 17 5 13 3 -3 4 -12 1 -19z m-1340 -10
c-3 -8 -6 -5 -6 6 -1 11 2 17 5 13 3 -3 4 -12 1 -19z m503 19 c0 -2 -10 -12
-22 -23 l-23 -19 19 23 c18 21 26 27 26 19z m110 -1 c0 -2 -8 -10 -17 -17 -16
-13 -17 -12 -4 4 13 16 21 21 21 13z m-8423 -28 c-3 -8 -6 -5 -6 6 -1 11 2 17
5 13 3 -3 4 -12 1 -19z m858 2 c10 -11 16 -20 13 -20 -3 0 -13 9 -23 20 -10
11 -16 20 -13 20 3 0 13 -9 23 -20z m5055 -15 c14 -19 14 -19 -2 -6 -10 7 -18
18 -18 24 0 6 1 8 3 6 1 -2 9 -13 17 -24z m2677 3 c-3 -8 -6 -5 -6 6 -1 11 2
17 5 13 3 -3 4 -12 1 -19z m620 -10 c-3 -7 -5 -2 -5 12 0 14 2 19 5 13 2 -7 2
-19 0 -25z m-8880 -40 c-2 -13 -4 -3 -4 22 0 25 2 35 4 23 2 -13 2 -33 0 -45z
m-390 10 c-3 -7 -5 -2 -5 12 0 14 2 19 5 13 2 -7 2 -19 0 -25z m1010 -15 c-3
-10 -5 -2 -5 17 0 19 2 27 5 18 2 -10 2 -26 0 -35z m8190 25 c-3 -8 -6 -5 -6
6 -1 11 2 17 5 13 3 -3 4 -12 1 -19z m-7810 -25 c-3 -10 -5 -4 -5 12 0 17 2
24 5 18 2 -7 2 -21 0 -30z m6933 33 c0 -2 -8 -10 -17 -17 -16 -13 -17 -12 -4
4 13 16 21 21 21 13z m-8253 -28 c-3 -8 -6 -5 -6 6 -1 11 2 17 5 13 3 -3 4
-12 1 -19z m240 0 c-3 -8 -6 -5 -6 6 -1 11 2 17 5 13 3 -3 4 -12 1 -19z m654
5 c13 -16 12 -17 -3 -4 -17 13 -22 21 -14 21 2 0 10 -8 17 -17z m5092 10 c-7
-2 -19 -2 -25 0 -7 3 -2 5 12 5 14 0 19 -2 13 -5z m2674 -40 c-3 -10 -5 -2 -5
17 0 19 2 27 5 18 2 -10 2 -26 0 -35z m-7856 20 c13 -16 12 -17 -3 -4 -17 13
-22 21 -14 21 2 0 10 -8 17 -17z m5296 11 c-3 -3 -12 -4 -19 -1 -8 3 -5 6 6 6
11 1 17 -2 13 -5z m1710 -151 c-2 -32 -3 -8 -3 52 0 61 1 87 3 58 2 -29 2 -78
0 -110z m395 123 c7 4 8 2 4 -4 -13 -21 -26 -13 -25 16 2 23 2 24 6 4 3 -13 9
-19 15 -16z m-5089 17 c-7 -2 -19 -2 -25 0 -7 3 -2 5 12 5 14 0 19 -2 13 -5z
m134 -30 c-3 -10 -5 -4 -5 12 0 17 2 24 5 18 2 -7 2 -21 0 -30z m-260 21 c-3
-3 -12 -4 -19 -1 -8 3 -5 6 6 6 11 1 17 -2 13 -5z m-2520 -41 c-3 -10 -5 -4
-5 12 0 17 2 24 5 18 2 -7 2 -21 0 -30z m8410 15 c-3 -8 -6 -5 -6 6 -1 11 2
17 5 13 3 -3 4 -12 1 -19z m310 -20 c-3 -7 -5 -2 -5 12 0 14 2 19 5 13 2 -7 2
-19 0 -25z m-390 -10 c-3 -7 -5 -2 -5 12 0 14 2 19 5 13 2 -7 2 -19 0 -25z
m-8550 0 c-3 -8 -6 -5 -6 6 -1 11 2 17 5 13 3 -3 4 -12 1 -19z m80 -20 c-3 -8
-6 -5 -6 6 -1 11 2 17 5 13 3 -3 4 -12 1 -19z m7943 2 c-6 -11 -13 -20 -16
-20 -2 0 0 9 6 20 6 11 13 20 16 20 2 0 0 -9 -6 -20z m837 -2 c-3 -8 -6 -5 -6
6 -1 11 2 17 5 13 3 -3 4 -12 1 -19z m-9238 -18 c11 -24 11 -24 -3 -6 -9 11
-16 24 -16 30 0 12 5 7 19 -24z m8778 -2 c-3 -7 -5 -2 -5 12 0 14 2 19 5 13 2
-7 2 -19 0 -25z m220 10 c-3 -8 -6 -5 -6 6 -1 11 2 17 5 13 3 -3 4 -12 1 -19z
m-8850 -10 c-3 -8 -6 -5 -6 6 -1 11 2 17 5 13 3 -3 4 -12 1 -19z m240 -10 c-3
-8 -6 -5 -6 6 -1 11 2 17 5 13 3 -3 4 -12 1 -19z m220 -20 c-3 -7 -5 -2 -5 12
0 14 2 19 5 13 2 -7 2 -19 0 -25z m5570 15 c-20 -2 -52 -2 -70 0 -17 2 0 4 38
4 39 0 53 -2 32 -4z m-5710 -25 c-3 -8 -6 -5 -6 6 -1 11 2 17 5 13 3 -3 4 -12
1 -19z m1150 -45 c-2 -16 -4 -5 -4 22 0 28 2 40 4 28 2 -13 2 -35 0 -50z
m1561 60 c-10 -2 -28 -2 -40 0 -13 2 -5 4 17 4 22 1 32 -1 23 -4z m209 -85
c-2 -18 -4 -6 -4 27 0 33 2 48 4 33 2 -15 2 -42 0 -60z m6123 78 c0 -2 -8 -10
-17 -17 -16 -13 -17 -12 -4 4 13 16 21 21 21 13z m-9619 -23 c13 -16 12 -17
-3 -4 -10 7 -18 15 -18 17 0 8 8 3 21 -13z m3400 -10 c13 -16 12 -17 -3 -4
-17 13 -22 21 -14 21 2 0 10 -8 17 -17z m5476 -5 c-3 -8 -6 -5 -6 6 -1 11 2
17 5 13 3 -3 4 -12 1 -19z m-7480 -10 c-3 -8 -6 -5 -6 6 -1 11 2 17 5 13 3 -3
4 -12 1 -19z m908 12 c3 -6 -1 -7 -9 -4 -18 7 -21 14 -7 14 6 0 13 -4 16 -10z
m5902 -22 c-3 -7 -5 -2 -5 12 0 14 2 19 5 13 2 -7 2 -19 0 -25z m-7480 0 c-3
-8 -6 -5 -6 6 -1 11 2 17 5 13 3 -3 4 -12 1 -19z m830 -40 c-2 -13 -4 -3 -4
22 0 25 2 35 4 23 2 -13 2 -33 0 -45z m593 59 c0 -2 -12 -14 -27 -28 l-28 -24
24 28 c23 25 31 32 31 24z m3987 -19 c-3 -8 -6 -5 -6 6 -1 11 2 17 5 13 3 -3
4 -12 1 -19z m1133 19 c0 -2 -10 -12 -22 -23 l-23 -19 19 23 c18 21 26 27 26
19z m878 -53 l-3 -39 -5 47 c-3 26 -1 43 3 39 5 -5 7 -26 5 -47z m-687 29 c13
-16 12 -17 -3 -4 -10 7 -18 15 -18 17 0 8 8 3 21 -13z m416 -20 c-3 -10 -5 -4
-5 12 0 17 2 24 5 18 2 -7 2 -21 0 -30z m1563 33 c0 -2 -8 -10 -17 -17 -16
-13 -17 -12 -4 4 13 16 21 21 21 13z m140 1 c0 -1 -24 -25 -52 -52 l-53 -50
50 53 c46 48 55 57 55 49z m-9505 -57 c27 -27 47 -50 44 -50 -3 0 -27 23 -54
50 -27 28 -47 50 -44 50 3 0 27 -22 54 -50z m106 33 c13 -16 12 -17 -3 -4 -10
7 -18 15 -18 17 0 8 8 3 21 -13z m8529 13 c0 -2 -8 -10 -17 -17 -16 -13 -17
-12 -4 4 13 16 21 21 21 13z m-7799 -23 c13 -16 12 -17 -3 -4 -17 13 -22 21
-14 21 2 0 10 -8 17 -17z m546 -25 c-3 -8 -6 -5 -6 6 -1 11 2 17 5 13 3 -3 4
-12 1 -19z m5766 7 c-3 -9 -8 -14 -10 -11 -3 3 -2 9 2 15 9 16 15 13 8 -4z
m-7003 -20 c13 -14 21 -25 18 -25 -2 0 -15 11 -28 25 -13 14 -21 25 -18 25 2
0 15 -11 28 -25z m3583 -2 l62 -26 375 -5 c303 -3 379 -7 398 -18 18 -12 20
-18 12 -34 -6 -11 -18 -24 -28 -28 -18 -10 -979 2 -989 12 -21 20 53 126 88
126 11 0 48 -12 82 -27z m2052 -20 c38 -53 43 -78 19 -87 -9 -3 -236 -6 -504
-6 l-489 0 -15 22 c-39 55 2 62 389 63 344 1 451 10 492 41 37 28 70 17 108
-33z m172 -15 c-2 -13 -4 -3 -4 22 0 25 2 35 4 23 2 -13 2 -33 0 -45z m100 40
c-3 -8 -6 -5 -6 6 -1 11 2 17 5 13 3 -3 4 -12 1 -19z m1937 -18 c10 -13 9 -13
-6 -1 -10 7 -18 21 -17 30 0 13 1 14 6 1 3 -8 11 -22 17 -30z m1336 37 c0 -2
-10 -12 -22 -23 l-23 -19 19 23 c18 21 26 27 26 19z m-8013 -59 c-2 -13 -4 -5
-4 17 -1 22 1 32 4 23 2 -10 2 -28 0 -40z m2040 15 c-3 -10 -5 -4 -5 12 0 17
2 24 5 18 2 -7 2 -21 0 -30z m-1734 20 c-7 -2 -19 -2 -25 0 -7 3 -2 5 12 5 14
0 19 -2 13 -5z m6214 1 c-3 -3 -12 -4 -19 -1 -8 3 -5 6 6 6 11 1 17 -2 13 -5z
m-7534 -53 c-2 -3 -16 8 -31 24 l-27 28 31 -24 c17 -13 30 -26 27 -28z m6834
27 c-3 -8 -6 -5 -6 6 -1 11 2 17 5 13 3 -3 4 -12 1 -19z m2063 18 c0 -2 -8
-10 -17 -17 -16 -13 -17 -12 -4 4 13 16 21 21 21 13z m-8523 -28 c-3 -8 -6 -5
-6 6 -1 11 2 17 5 13 3 -3 4 -12 1 -19z m420 0 c-3 -8 -6 -5 -6 6 -1 11 2 17
5 13 3 -3 4 -12 1 -19z m377 2 c-10 -4 -21 -6 -24 -3 -8 7 24 22 34 16 5 -4 1
-10 -10 -13z m5953 -27 c-3 -10 -5 -2 -5 17 0 19 2 27 5 18 2 -10 2 -26 0 -35z
m-6643 29 c3 -5 -1 -9 -9 -9 -8 0 -15 4 -15 9 0 4 4 8 9 8 6 0 12 -4 15 -8z
m1523 -24 c-3 -7 -5 -2 -5 12 0 14 2 19 5 13 2 -7 2 -19 0 -25z m6390 -20 c-2
-13 -4 -5 -4 17 -1 22 1 32 4 23 2 -10 2 -28 0 -40z m610 46 c-3 -3 -12 -4
-19 -1 -8 3 -5 6 6 6 11 1 17 -2 13 -5z m-8100 -56 c-2 -13 -4 -5 -4 17 -1 22
1 32 4 23 2 -10 2 -28 0 -40z m4840 10 c-3 -7 -5 -2 -5 12 0 14 2 19 5 13 2
-7 2 -19 0 -25z m1090 10 c-3 -8 -6 -5 -6 6 -1 11 2 17 5 13 3 -3 4 -12 1 -19z
m2000 16 c-3 -3 -12 -4 -19 -1 -8 3 -5 6 6 6 11 1 17 -2 13 -5z m-7776 -27
c-10 -9 -11 -8 -5 6 3 10 9 15 12 12 3 -3 0 -11 -7 -18z m6771 9 c10 6 11 4 0
-7 -10 -11 -15 -10 -30 6 -15 17 -15 18 0 6 9 -7 23 -9 30 -5z m225 -8 c-3 -8
-6 -5 -6 6 -1 11 2 17 5 13 3 -3 4 -12 1 -19z m-7250 -35 c-3 -10 -5 -4 -5 12
0 17 2 24 5 18 2 -7 2 -21 0 -30z m615 27 c20 -6 50 -26 67 -46 28 -31 31 -41
31 -100 0 -35 -6 -80 -14 -99 -16 -38 -68 -75 -104 -75 -60 0 -116 67 -110
130 2 30 7 35 31 38 34 4 36 29 1 42 -41 16 -62 12 -94 -17 -64 -57 -42 -161
48 -226 53 -39 136 -48 208 -23 219 74 564 -96 625 -308 20 -68 -21 -106 -114
-106 -68 0 -113 -28 -145 -90 -55 -108 20 -190 176 -190 107 0 155 -17 280
-98 416 -271 756 -432 1168 -552 484 -142 1045 -174 1544 -89 536 91 1129 334
1533 627 108 78 143 92 258 101 107 8 158 31 184 81 22 43 18 81 -14 132 -35
54 -63 76 -111 84 -72 11 -81 15 -100 47 -42 68 -18 138 76 228 101 95 224
139 395 139 52 0 122 -5 154 -11 32 -6 73 -8 92 -4 42 8 159 118 169 159 16
68 -59 139 -127 120 -42 -12 -48 -31 -13 -45 37 -13 44 -25 44 -77 0 -55 -33
-92 -82 -92 -27 0 -46 13 -100 63 -74 69 -86 97 -64 150 32 78 149 128 249
107 100 -20 159 -68 560 -451 431 -411 432 -413 432 -534 0 -60 -5 -81 -34
-140 -43 -87 -157 -205 -233 -240 -92 -43 -207 -27 -283 38 -20 18 -170 201
-333 407 l-297 375 -79 40 c-68 35 -89 40 -157 44 -95 4 -155 -14 -232 -69
-64 -46 -95 -99 -79 -136 16 -33 52 -53 124 -70 110 -25 151 -62 444 -394 275
-312 394 -458 416 -511 32 -79 32 -217 0 -277 -54 -101 -149 -165 -279 -188
-103 -18 -161 -44 -263 -119 -200 -148 -571 -362 -851 -490 -1343 -616 -2854
-573 -4242 122 -156 78 -387 211 -448 260 -129 100 -173 129 -243 165 -43 21
-119 53 -169 69 -105 34 -146 57 -205 113 -63 59 -84 107 -90 198 -9 151 -22
131 365 576 401 461 411 471 528 502 102 27 112 89 28 168 -111 103 -252 134
-364 79 -30 -14 -68 -41 -86 -59 -17 -18 -178 -211 -358 -428 -180 -217 -341
-404 -358 -415 -25 -16 -48 -20 -112 -19 -113 1 -177 28 -258 108 -85 83 -119
154 -125 261 -7 142 -24 121 453 571 231 217 429 402 440 409 52 36 179 54
247 35z m6535 -12 c-3 -8 -6 -5 -6 6 -1 11 2 17 5 13 3 -3 4 -12 1 -19z m700
0 c-3 -8 -6 -5 -6 6 -1 11 2 17 5 13 3 -3 4 -12 1 -19z m-8854 5 c-18 -2 -48
-2 -65 0 -18 2 -4 4 32 4 36 0 50 -2 33 -4z m1287 4 c0 -1 -28 -29 -62 -62
l-63 -60 60 63 c55 58 65 67 65 59z m6022 -24 c-6 -10 -21 -27 -33 -38 -19
-16 -18 -14 4 13 15 19 27 38 27 44 0 6 3 9 6 6 3 -4 1 -15 -4 -25z m669 10
c13 -16 12 -17 -3 -4 -10 7 -18 15 -18 17 0 8 8 3 21 -13z m1216 11 c-3 -3
-12 -4 -19 -1 -8 3 -5 6 6 6 11 1 17 -2 13 -5z m200 0 c-3 -3 -12 -4 -19 -1
-8 3 -5 6 6 6 11 1 17 -2 13 -5z m-9530 -10 c-3 -3 -12 -4 -19 -1 -8 3 -5 6 6
6 11 1 17 -2 13 -5z m240 0 c-3 -3 -12 -4 -19 -1 -8 3 -5 6 6 6 11 1 17 -2 13
-5z m300 0 c-3 -3 -12 -4 -19 -1 -8 3 -5 6 6 6 11 1 17 -2 13 -5z m2930 -51
c-3 -10 -5 -2 -5 17 0 19 2 27 5 18 2 -10 2 -26 0 -35z m1233 33 c0 -2 -7 -7
-16 -10 -8 -3 -12 -2 -9 4 6 10 25 14 25 6z m56 -18 l19 -23 -25 20 c-14 11
-27 21 -29 22 -2 2 0 3 6 3 5 0 18 -10 29 -22z m-2446 9 c0 -2 -10 -12 -22
-23 l-23 -19 19 23 c18 21 26 27 26 19z m5915 -77 c44 -44 77 -80 75 -80 -3 0
-41 36 -85 80 -44 44 -77 80 -75 80 3 0 41 -36 85 -80z m-2280 50 c-3 -5 -12
-10 -18 -10 -7 0 -6 4 3 10 19 12 23 12 15 0z m113 -74 c-7 -6 -10 -7 -5 -2 4
6 8 28 9 51 l1 40 4 -39 c3 -24 -1 -43 -9 -50z m1173 67 c13 -16 12 -17 -3 -4
-10 7 -18 15 -18 17 0 8 8 3 21 -13z m1090 -20 c13 -16 12 -17 -3 -4 -10 7
-18 15 -18 17 0 8 8 3 21 -13z m-2503 0 c-10 -2 -28 -2 -40 0 -13 2 -5 4 17 4
22 1 32 -1 23 -4z m-3783 -23 c10 -11 16 -20 13 -20 -3 0 -13 9 -23 20 -10 11
-16 20 -13 20 3 0 13 -9 23 -20z m1738 13 c-18 -2 -48 -2 -65 0 -18 2 -4 4 32
4 36 0 50 -2 33 -4z m530 0 c-29 -2 -78 -2 -110 0 -32 2 -8 3 52 3 61 0 87 -1
58 -3z m1175 0 c-93 -2 -243 -2 -335 0 -93 1 -17 3 167 3 184 0 260 -2 168 -3z
m4022 4 c0 -2 -10 -12 -22 -23 l-23 -19 19 23 c18 21 26 27 26 19z m-9455 -27
c10 -11 16 -20 13 -20 -3 0 -13 9 -23 20 -10 11 -16 20 -13 20 3 0 13 -9 23
-20z m730 -23 c4 5 5 2 1 -4 -4 -7 -3 -13 2 -13 6 0 12 -7 16 -15 8 -22 4 -19
-39 27 -22 24 -28 33 -14 20 14 -12 29 -19 34 -15z m3852 -4 c-3 -10 -5 -4 -5
12 0 17 2 24 5 18 2 -7 2 -21 0 -30z m247 22 c-4 -8 0 -23 7 -33 12 -16 12
-16 -5 0 -16 14 -17 48 -2 48 3 0 3 -7 0 -15z m3916 12 c0 -2 -16 -19 -36 -38
-19 -19 -32 -26 -29 -16 4 9 11 17 17 17 5 0 6 5 2 12 -4 6 -3 8 3 5 6 -4 16
0 23 8 12 14 20 19 20 12z m-6783 -54 c-3 -10 -5 -2 -5 17 0 19 2 27 5 18 2
-10 2 -26 0 -35z m2530 25 c-3 -8 -6 -5 -6 6 -1 11 2 17 5 13 3 -3 4 -12 1
-19z m-3917 -14 c0 -2 -9 0 -20 6 -11 6 -20 13 -20 16 0 2 9 0 20 -6 11 -6 20
-13 20 -16z m2795 -4 l20 -25 -22 19 c-13 11 -23 24 -23 29 0 6 1 8 3 6 1 -2
11 -15 22 -29z m4015 15 c-7 -9 -15 -13 -19 -10 -3 3 1 10 9 15 21 14 24 12
10 -5z m57 -77 c-2 -18 -4 -6 -4 27 0 33 2 48 4 33 2 -15 2 -42 0 -60z m1953
79 c0 -1 -42 -43 -92 -92 l-93 -90 90 93 c83 85 95 97 95 89z m-9265 -97 c49
-49 87 -90 85 -90 -3 0 -46 41 -95 90 -49 50 -87 90 -85 90 3 0 46 -40 95 -90z
m1075 87 c0 -1 -30 -32 -67 -67 l-68 -65 65 68 c60 62 70 72 70 64z m3203 -14
c-13 -2 -35 -2 -50 0 -16 2 -5 4 22 4 28 0 40 -2 28 -4z m1514 0 c-20 -2 -52
-2 -70 0 -17 2 0 4 38 4 39 0 53 -2 32 -4z m-2024 -10 c-23 -2 -64 -2 -90 0
-26 2 -7 3 42 3 50 0 71 -1 48 -3z m255 0 c-10 -2 -28 -2 -40 0 -13 2 -5 4 17
4 22 1 32 -1 23 -4z m790 0 c-15 -2 -42 -2 -60 0 -18 2 -6 4 27 4 33 0 48 -2
33 -4z m485 0 c-35 -2 -91 -2 -125 0 -35 2 -7 3 62 3 69 0 97 -1 63 -3z m3044
-15 c-3 -8 -6 -5 -6 6 -1 11 2 17 5 13 3 -3 4 -12 1 -19z m-6470 -35 c-3 -10
-5 -2 -5 17 0 19 2 27 5 18 2 -10 2 -26 0 -35z m1436 40 c-7 -2 -21 -2 -30 0
-10 3 -4 5 12 5 17 0 24 -2 18 -5z m205 0 c-16 -2 -40 -2 -55 0 -16 2 -3 4 27
4 30 0 43 -2 28 -4z m1082 -38 c-7 -8 -18 -15 -24 -15 -6 0 -3 5 7 11 9 5 18
20 18 32 1 18 2 18 6 4 3 -10 -1 -24 -7 -32z m2657 -32 c-2 -16 -4 -3 -4 27 0
30 2 43 4 28 2 -16 2 -40 0 -55z m-6420 45 c-3 -8 -6 -5 -6 6 -1 11 2 17 5 13
3 -3 4 -12 1 -19z m6603 -53 c20 -12 9 -21 -20 -17 -28 4 -30 7 -30 51 l1 46
19 -37 c11 -20 24 -40 30 -43z m1518 48 c-10 -2 -26 -2 -35 0 -10 3 -2 5 17 5
19 0 27 -2 18 -5z m-7116 -33 c3 -16 1 -30 -4 -30 -4 0 -8 14 -8 30 0 17 2 30
4 30 2 0 6 -13 8 -30z m-85 -14 c-4 -9 -11 -16 -18 -16 -6 0 -8 7 -5 16 3 9 6
21 6 27 0 8 3 8 11 0 7 -7 9 -19 6 -27z m6599 -29 c9 -3 8 -4 -3 -3 -13 1 -19
11 -20 34 -3 31 -3 31 3 3 3 -17 12 -32 20 -34z m-6479 21 c-3 -8 -6 -5 -6 6
-1 11 2 17 5 13 3 -3 4 -12 1 -19z m6403 -55 l75 -78 -77 75 c-43 41 -78 76
-78 77 0 8 11 -3 80 -74z m300 74 c0 -2 -10 -12 -22 -23 l-23 -19 19 23 c18
21 26 27 26 19z m-7959 -24 c13 -16 12 -17 -3 -4 -10 7 -18 15 -18 17 0 8 8 3
21 -13z m8319 13 c0 -2 -8 -10 -17 -17 -16 -13 -17 -12 -4 4 13 16 21 21 21
13z m-8093 -28 c-3 -8 -6 -5 -6 6 -1 11 2 17 5 13 3 -3 4 -12 1 -19z m-22 -17
c-6 -5 -25 10 -25 20 0 5 6 4 14 -3 8 -7 12 -15 11 -17z m7965 25 c0 -2 -8
-10 -17 -17 -16 -13 -17 -12 -4 4 13 16 21 21 21 13z m-8379 -23 c13 -16 12
-17 -3 -4 -10 7 -18 15 -18 17 0 8 8 3 21 -13z m-91 -28 c19 -19 32 -35 29
-35 -3 0 -20 16 -39 35 -19 19 -32 35 -29 35 3 0 20 -16 39 -35z m355 15 c10
-11 16 -20 13 -20 -3 0 -13 9 -23 20 -10 11 -16 20 -13 20 3 0 13 -9 23 -20z
m71 -15 c-3 -8 -16 -14 -28 -14 l-23 2 23 4 c14 3 22 12 23 26 0 12 3 16 6 9
3 -7 2 -19 -1 -27z m7774 31 c0 -2 -8 -10 -17 -17 -16 -13 -17 -12 -4 4 13 16
21 21 21 13z m370 1 c0 -2 -17 -19 -37 -38 l-38 -34 34 38 c33 34 41 42 41 34z
m-7980 -10 c0 -1 -30 -32 -67 -67 l-68 -65 65 68 c60 62 70 72 70 64z m7760
-82 c-41 -41 -77 -75 -79 -75 -3 0 28 34 69 75 41 41 77 75 79 75 3 0 -28 -34
-69 -75z m-8150 -12 l75 -78 -77 75 c-72 69 -83 80 -75 80 1 0 36 -35 77 -77z
m-402 32 c-3 -3 -9 2 -12 12 -6 14 -5 15 5 6 7 -7 10 -15 7 -18z m8913 -68
c-10 -9 -11 -8 -5 6 3 10 9 15 12 12 3 -3 0 -11 -7 -18z m-546 -77 c44 -44 77
-80 75 -80 -3 0 -41 36 -85 80 -44 44 -77 80 -75 80 3 0 41 -36 85 -80z
m-8000 20 c21 -22 37 -40 34 -40 -3 0 -23 18 -44 40 -21 22 -37 40 -34 40 3 0
23 -18 44 -40z m8245 37 c0 -2 -17 -19 -37 -38 l-38 -34 34 38 c33 34 41 42
41 34z m-8000 -20 c0 -1 -30 -32 -67 -67 l-68 -65 65 68 c60 62 70 72 70 64z
m7857 -29 c-3 -7 -5 -2 -5 12 0 14 2 19 5 13 2 -7 2 -19 0 -25z m413 18 c0 -2
-8 -10 -17 -17 -16 -13 -17 -12 -4 4 13 16 21 21 21 13z m-8799 -23 c13 -16
12 -17 -3 -4 -10 7 -18 15 -18 17 0 8 8 3 21 -13z m1748 -4 c55 -24 133 -87
126 -100 -4 -5 -19 -9 -34 -9 -34 0 -133 -59 -186 -110 -22 -22 -141 -156
-265 -299 -124 -143 -228 -260 -231 -260 -4 -1 -12 13 -19 29 -12 30 -52 69
-100 101 l-24 16 219 264 c120 145 237 284 259 308 75 79 166 101 255 60z
m5418 -14 c27 -8 68 -28 90 -44 35 -26 446 -530 459 -565 3 -8 -7 -18 -28 -27
-17 -7 -50 -31 -71 -52 l-39 -39 -36 44 c-228 268 -436 486 -497 523 -24 13
-65 30 -91 36 -27 6 -60 16 -73 21 -23 8 -23 9 -5 29 10 11 33 29 52 41 80 49
151 59 239 33z m1283 -19 c0 -2 -8 -10 -17 -17 -16 -13 -17 -12 -4 4 13 16 21
21 21 13z m270 -19 c0 -2 -10 -12 -22 -23 l-23 -19 19 23 c18 21 26 27 26 19z
m-8639 -24 c13 -16 12 -17 -3 -4 -10 7 -18 15 -18 17 0 8 8 3 21 -13z m2436
-35 c-3 -8 -6 -5 -6 6 -1 11 2 17 5 13 3 -3 4 -12 1 -19z m133 -65 c0 -8 -9 0
-50 45 l-45 47 48 -45 c26 -24 47 -45 47 -47z m-2290 54 c0 -2 -17 -19 -37
-38 l-38 -34 34 38 c33 34 41 42 41 34z m8260 -2 c0 -2 -10 -9 -22 -15 -22
-11 -22 -10 -4 4 21 17 26 19 26 11z m-137 -64 c-2 -3 -18 10 -36 29 l-32 34
36 -30 c20 -16 34 -31 32 -33z m-2363 25 c0 -2 -8 -10 -17 -17 -16 -13 -17
-12 -4 4 13 16 21 21 21 13z m-3439 -53 c13 -16 12 -17 -3 -4 -10 7 -18 15
-18 17 0 8 8 3 21 -13z m3399 3 c0 -2 -8 -10 -17 -17 -16 -13 -17 -12 -4 4 13
16 21 21 21 13z m117 -63 c-3 -10 -5 -4 -5 12 0 17 2 24 5 18 2 -7 2 -21 0
-30z m-3640 -40 c-2 -16 -4 -5 -4 22 0 28 2 40 4 28 2 -13 2 -35 0 -50z m3653
-38 c0 -5 -5 -3 -10 5 -5 8 -10 20 -10 25 0 6 5 3 10 -5 5 -8 10 -19 10 -25z
m-3967 5 c-3 -12 -8 -19 -11 -16 -5 6 5 36 12 36 2 0 2 -9 -1 -20z m197 -97
c0 -8 -9 0 -50 45 l-45 47 48 -45 c26 -24 47 -45 47 -47z m3950 84 c0 -2 -19
-21 -42 -42 l-43 -40 40 43 c36 39 45 47 45 39z m-280 -19 c0 -6 -3 -8 -7 -5
-3 4 -13 1 -22 -6 -14 -11 -14 -10 -2 6 15 20 31 22 31 5z m-3150 -2 c0 -2 -8
-10 -17 -17 -16 -13 -17 -12 -4 4 13 16 21 21 21 13z m2861 -13 c13 -16 12
-17 -3 -4 -10 7 -18 15 -18 17 0 8 8 3 21 -13z m-2993 -48 c-3 -3 -9 2 -12 12
-6 14 -5 15 5 6 7 -7 10 -15 7 -18z m-311 -7 c-3 -8 -6 -5 -6 6 -1 11 2 17 5
13 3 -3 4 -12 1 -19z m3720 -10 c-3 -8 -6 -5 -6 6 -1 11 2 17 5 13 3 -3 4 -12
1 -19z m-3206 -5 c13 -16 12 -17 -3 -4 -17 13 -22 21 -14 21 2 0 10 -8 17 -17z
m-584 -15 c-3 -8 -6 -5 -6 6 -1 11 2 17 5 13 3 -3 4 -12 1 -19z m3470 -15 c-3
-10 -5 -4 -5 12 0 17 2 24 5 18 2 -7 2 -21 0 -30z m550 5 c-3 -8 -6 -5 -6 6
-1 11 2 17 5 13 3 -3 4 -12 1 -19z m-160 -10 c-3 -8 -6 -5 -6 6 -1 11 2 17 5
13 3 -3 4 -12 1 -19z m-3246 -5 c13 -16 12 -17 -3 -4 -10 7 -18 15 -18 17 0 8
8 3 21 -13z m-554 -115 c-2 -24 -4 -5 -4 42 0 47 2 66 4 43 2 -24 2 -62 0 -85z
m333 27 c0 -47 -3 -85 -7 -85 -5 0 -7 38 -5 85 2 47 5 85 8 85 2 0 4 -38 4
-85z m3027 63 c-3 -8 -6 -5 -6 6 -1 11 2 17 5 13 3 -3 4 -12 1 -19z m-3436
-11 c-10 -9 -11 -8 -5 6 3 10 9 15 12 12 3 -3 0 -11 -7 -18z m3816 -59 c-2
-18 -4 -6 -4 27 0 33 2 48 4 33 2 -15 2 -42 0 -60z m-3156 55 c13 -16 12 -17
-3 -4 -17 13 -22 21 -14 21 2 0 10 -8 17 -17z m3376 -15 c-3 -8 -6 -5 -6 6 -1
11 2 17 5 13 3 -3 4 -12 1 -19z m-3718 -18 c11 -24 11 -24 -3 -6 -9 11 -16 24
-16 30 0 12 5 7 19 -24z m138 -67 c-2 -21 -4 -6 -4 32 0 39 2 55 4 38 2 -18 2
-50 0 -70z m234 60 c13 -16 12 -17 -3 -4 -10 7 -18 15 -18 17 0 8 8 3 21 -13z
m3226 -45 c-3 -7 -5 -2 -5 12 0 14 2 19 5 13 2 -7 2 -19 0 -25z m-3344 7 c-3
-9 -8 -14 -10 -11 -3 3 -2 9 2 15 9 16 15 13 8 -4z m152 -5 c10 -11 16 -20 13
-20 -3 0 -13 9 -23 20 -10 11 -16 20 -13 20 3 0 13 -9 23 -20z m2575 17 c0 -2
-19 -21 -42 -42 l-43 -40 40 43 c36 39 45 47 45 39z m-2660 -32 c13 -14 21
-25 18 -25 -2 0 -15 11 -28 25 -13 14 -21 25 -18 25 2 0 15 -11 28 -25z m2540
11 c0 -2 -8 -10 -17 -17 -16 -13 -17 -12 -4 4 13 16 21 21 21 13z m-2589 -33
c13 -16 12 -17 -3 -4 -17 13 -22 21 -14 21 2 0 10 -8 17 -17z m3334 7 c3 -5 1
-10 -4 -10 -6 0 -11 5 -11 10 0 6 2 10 4 10 3 0 8 -4 11 -10z m-3648 -22 c-3
-8 -6 -5 -6 6 -1 11 2 17 5 13 3 -3 4 -12 1 -19z m498 -8 c10 -11 16 -20 13
-20 -3 0 -13 9 -23 20 -10 11 -16 20 -13 20 3 0 13 -9 23 -20z m2528 5 c-3 -9
-8 -14 -10 -11 -3 3 -2 9 2 15 9 16 15 13 8 -4z m-163 2 c0 -2 -10 -12 -22
-23 l-23 -19 19 23 c18 21 26 27 26 19z m-2449 -24 c13 -16 12 -17 -3 -4 -10
7 -18 15 -18 17 0 8 8 3 21 -13z m2746 -5 c-3 -8 -6 -5 -6 6 -1 11 2 17 5 13
3 -3 4 -12 1 -19z m370 0 c-3 -8 -6 -5 -6 6 -1 11 2 17 5 13 3 -3 4 -12 1 -19z
m-3520 -30 c-3 -8 -6 -5 -6 6 -1 11 2 17 5 13 3 -3 4 -12 1 -19z m180 0 c-3
-8 -6 -5 -6 6 -1 11 2 17 5 13 3 -3 4 -12 1 -19z m413 -65 l75 -78 -77 75
c-72 69 -83 80 -75 80 1 0 36 -35 77 -77z m2727 55 c-3 -8 -6 -5 -6 6 -1 11 2
17 5 13 3 -3 4 -12 1 -19z m-517 9 c0 -1 -33 -34 -72 -72 l-73 -70 70 73 c64
67 75 77 75 69z m337 -29 c-3 -8 -6 -5 -6 6 -1 11 2 17 5 13 3 -3 4 -12 1 -19z
m353 17 c0 -2 -10 -9 -22 -15 -22 -11 -22 -10 -4 4 21 17 26 19 26 11z m-3530
-41 c0 -2 -9 0 -20 6 -11 6 -20 13 -20 16 0 2 9 0 20 -6 11 -6 20 -13 20 -16z
m107 -6 c-3 -7 -5 -2 -5 12 0 14 2 19 5 13 2 -7 2 -19 0 -25z m3153 28 c0 -2
-7 -6 -15 -10 -8 -3 -15 -1 -15 4 0 6 7 10 15 10 8 0 15 -2 15 -4z m-3210 -31
c0 -8 -4 -15 -10 -15 -5 0 -7 7 -4 15 4 8 8 15 10 15 2 0 4 -7 4 -15z m2967
-17 c-3 -7 -5 -2 -5 12 0 14 2 19 5 13 2 -7 2 -19 0 -25z m270 0 c-3 -7 -5 -2
-5 12 0 14 2 19 5 13 2 -7 2 -19 0 -25z m-3120 0 c-3 -8 -6 -5 -6 6 -1 11 2
17 5 13 3 -3 4 -12 1 -19z m3180 -10 c-3 -7 -5 -2 -5 12 0 14 2 19 5 13 2 -7
2 -19 0 -25z m-2960 -10 c-3 -7 -5 -2 -5 12 0 14 2 19 5 13 2 -7 2 -19 0 -25z
m3033 27 c0 -2 -10 -9 -22 -15 -22 -11 -22 -10 -4 4 21 17 26 19 26 11z m-193
-37 c-3 -8 -6 -5 -6 6 -1 11 2 17 5 13 3 -3 4 -12 1 -19z m-3050 -30 c-3 -8
-6 -5 -6 6 -1 11 2 17 5 13 3 -3 4 -12 1 -19z m2290 -54 c-3 -3 -12 -4 -19 -1
-8 3 -5 6 6 6 11 1 17 -2 13 -5z m-1468 -38 c-3 -3 -11 5 -18 17 -13 21 -12
21 5 5 10 -10 16 -20 13 -22z m1511 9 c13 -14 21 -25 18 -25 -2 0 -15 11 -28
25 -13 14 -21 25 -18 25 2 0 15 -11 28 -25z m-1590 12 c0 -2 -10 -12 -22 -23
l-23 -19 19 23 c18 21 26 27 26 19z m-419 -34 c10 -11 10 -14 2 -9 -8 4 -13 1
-13 -9 0 -9 7 -15 16 -13 10 2 19 -4 21 -12 3 -9 1 -11 -4 -5 -4 6 -15 10 -23
10 -9 0 -15 10 -16 28 -1 32 -1 32 17 10z m2416 -20 c0 -27 -1 -30 -4 -10 -3
18 -9 25 -16 20 -7 -4 -6 0 2 10 7 9 14 17 15 17 1 0 2 -17 3 -37z m-4864 20
c-7 -2 -19 -2 -25 0 -7 3 -2 5 12 5 14 0 19 -2 13 -5z m7340 0 c-7 -2 -21 -2
-30 0 -10 3 -4 5 12 5 17 0 24 -2 18 -5z m-7406 -9 c-3 -3 -12 -4 -19 -1 -8 3
-5 6 6 6 11 1 17 -2 13 -5z m2770 -26 c-3 -8 -6 -5 -6 6 -1 11 2 17 5 13 3 -3
4 -12 1 -19z m1640 -20 c-3 -8 -6 -5 -6 6 -1 11 2 17 5 13 3 -3 4 -12 1 -19z
m250 -35 c-3 -10 -5 -2 -5 17 0 19 2 27 5 18 2 -10 2 -26 0 -35z m-4504 30
c-13 -2 -33 -2 -45 0 -13 2 -3 4 22 4 25 0 35 -2 23 -4z m4727 -3 c0 -5 -5
-10 -11 -10 -5 0 -7 5 -4 10 3 6 8 10 11 10 2 0 4 -4 4 -10z m2464 2 c2 -4
-12 -6 -32 -4 -56 5 -62 10 -15 11 23 1 44 -3 47 -7z m-7513 -15 c-6 -8 -7
-18 -3 -22 4 -5 1 -5 -6 -1 -10 6 -10 11 -1 22 6 8 14 14 16 14 3 0 0 -6 -6
-13z m4736 -19 c-3 -8 -6 -5 -6 6 -1 11 2 17 5 13 3 -3 4 -12 1 -19z m-4493
-4 c3 -8 2 -12 -4 -9 -6 3 -10 10 -10 16 0 14 7 11 14 -7z m7287 -7 c-10 -9
-11 -8 -5 6 3 10 9 15 12 12 3 -3 0 -11 -7 -18z m244 3 c-3 -5 -12 -10 -18
-10 -7 0 -6 4 3 10 19 12 23 12 15 0z m-4838 -16 c-3 -3 -12 -4 -19 -1 -8 3
-5 6 6 6 11 1 17 -2 13 -5z m273 -34 c0 -32 -4 -40 -17 -39 -11 0 -13 3 -5 6
6 2 12 20 12 39 0 19 2 34 5 34 3 0 5 -18 5 -40z m-3113 24 c-3 -3 -12 -4 -19
-1 -8 3 -5 6 6 6 11 1 17 -2 13 -5z m4470 -56 c-2 -13 -4 -3 -4 22 0 25 2 35
4 23 2 -13 2 -33 0 -45z m3130 56 c-3 -3 -12 -4 -19 -1 -8 3 -5 6 6 6 11 1 17
-2 13 -5z m-4662 -14 c3 -5 1 -10 -4 -10 -6 0 -11 5 -11 10 0 6 2 10 4 10 3 0
8 -4 11 -10z m42 -16 c-3 -3 -12 -4 -19 -1 -8 3 -5 6 6 6 11 1 17 -2 13 -5z
m-2862 -14 c3 -6 -1 -7 -9 -4 -18 7 -21 14 -7 14 6 0 13 -4 16 -10z M5251
7959 c-112 -8 -151 -18 -151 -39 0 -4 14 -24 30 -45 l30 -38 0 -261 c0 -255
-1 -262 -24 -313 -36 -77 -32 -79 166 -92 187 -13 207 -9 238 41 32 53 23 128
-15 128 -6 0 -21 -18 -34 -40 -28 -51 -44 -59 -124 -62 -84 -4 -96 7 -107 98
-14 106 -12 165 8 204 21 43 50 49 98 21 46 -27 60 -26 80 4 11 18 15 37 11
62 -9 55 -20 60 -66 30 -48 -32 -84 -34 -111 -7 -17 17 -20 33 -20 104 0 69 4
88 21 110 31 40 85 36 139 -9 45 -37 57 -39 74 -13 10 17 -11 71 -43 111 -15
19 -12 18 -200 6z M7372 7957 c-16 -18 -15 -20 9 -41 54 -46 54 -49 51 -350
-4 -278 -4 -280 -28 -311 -13 -18 -24 -42 -24 -53 0 -21 5 -22 89 -22 134 0
141 6 90 80 -30 43 -31 48 -26 129 3 54 10 88 20 98 19 19 20 17 103 -117 110
-176 139 -204 191 -181 31 14 29 27 -12 72 -19 21 -46 62 -61 91 -15 29 -40
71 -56 94 -36 51 -31 81 21 125 20 17 51 50 68 73 29 37 33 48 33 109 0 77
-15 120 -56 159 -56 53 -96 62 -252 63 -127 0 -145 -2 -160 -18z m314 -79 c39
-42 54 -79 54 -131 0 -80 -66 -157 -135 -157 -54 0 -65 23 -64 133 1 107 11
166 31 178 7 5 29 9 49 9 27 0 42 -7 65 -32z M8325 7972 c-112 -4 -124 -16
-89 -85 14 -27 17 -73 18 -312 l1 -281 -33 -42 c-49 -62 -41 -70 73 -74 134
-4 148 7 99 81 l-25 39 3 274 3 275 28 41 c48 69 30 89 -78 84z M4345 7963
c-78 -7 -98 -37 -50 -75 14 -11 37 -43 52 -71 26 -52 98 -247 133 -362 10 -33
23 -73 29 -90 6 -16 16 -49 21 -72 12 -49 54 -103 79 -103 41 0 58 46 141 365
51 196 87 312 106 341 23 35 -5 56 -69 52 -64 -4 -77 -22 -54 -71 24 -49 22
-73 -19 -242 -42 -175 -48 -193 -70 -202 -32 -12 -50 26 -132 286 l-35 114 23
44 c23 43 23 44 4 63 -21 21 -82 29 -159 23z M7075 5020 c-114 -10 -158 -36
-190 -113 -19 -46 -19 -129 -1 -165 19 -37 68 -81 146 -132 117 -77 160 -129
160 -192 0 -32 -21 -74 -44 -90 -6 -4 -34 -8 -61 -8 -66 0 -119 35 -145 96
-14 32 -25 44 -40 44 -33 0 -43 -38 -34 -121 8 -66 11 -74 29 -70 44 8 82 4
127 -14 42 -17 55 -18 104 -7 97 20 157 86 170 186 14 96 -30 163 -165 251
-53 35 -103 70 -111 77 -62 53 -78 121 -37 158 19 19 30 21 77 15 48 -5 59
-11 91 -47 62 -71 97 -32 77 86 -11 64 2 60 -153 46z M5673 5062 c-16 -10 -53
-117 -53 -154 0 -47 24 -44 77 11 55 57 79 63 117 29 24 -23 24 -24 17 -138
-4 -63 -6 -189 -5 -280 l2 -165 -30 -43 c-22 -31 -28 -50 -24 -67 6 -24 9 -25
104 -25 101 0 122 7 122 42 0 11 -9 31 -19 46 -18 25 -20 53 -27 317 -6 266
-5 292 10 308 24 24 38 21 71 -13 39 -41 70 -40 83 3 35 113 19 154 -46 122
-56 -28 -279 -31 -341 -4 -24 10 -44 19 -45 19 0 0 -7 -4 -13 -8z M4050 2396
c0 -3 14 -18 30 -35 30 -30 30 -30 15 -67 -15 -36 -150 -264 -306 -514 -96
-156 -115 -175 -164 -166 -47 9 -39 -5 23 -40 26 -15 81 -49 123 -75 72 -47
99 -58 99 -41 0 4 -14 16 -30 27 -51 34 -44 57 93 282 76 126 81 132 102 120
78 -43 315 -193 315 -199 0 -14 -173 -290 -203 -325 -30 -34 -44 -37 -89 -18
-11 4 -18 3 -18 -3 0 -6 30 -27 68 -48 37 -21 97 -58 135 -82 71 -47 105 -50
49 -4 -18 15 -32 36 -32 47 0 11 22 58 48 105 56 99 325 542 354 583 21 29 54
35 89 17 14 -8 19 -7 19 2 0 7 -19 24 -43 37 -23 13 -82 48 -130 78 -92 58
-122 64 -68 14 37 -34 37 -39 10 -94 -16 -31 -127 -220 -145 -245 -2 -3 -330
193 -342 203 -6 5 144 247 169 273 21 23 39 25 82 7 10 -4 17 -3 17 3 0 6 -37
32 -82 58 -46 26 -102 60 -125 75 -38 26 -63 36 -63 25z M8595 2164 c-82 -21
-136 -49 -368 -194 -128 -80 -166 -112 -114 -95 69 22 73 20 114 -42 60 -87
287 -453 344 -551 55 -96 60 -122 27 -145 -13 -8 -20 -18 -16 -22 4 -4 36 10
70 32 35 22 112 67 173 99 234 126 324 282 282 489 -49 237 -228 421 -420 430
-40 2 -81 2 -92 -1z m128 -137 c147 -67 297 -290 297 -442 0 -28 -7 -72 -16
-98 -40 -117 -230 -229 -289 -171 -37 38 -395 607 -395 629 0 23 108 87 177
105 64 16 164 6 226 -23z M5099 1822 c-20 -20 -151 -175 -292 -343 -141 -169
-269 -317 -284 -329 -23 -18 -36 -21 -70 -16 -57 8 -54 -8 5 -30 26 -9 78 -30
115 -46 73 -30 109 -28 58 3 -17 10 -31 22 -31 26 0 21 141 210 170 228 4 3
57 -14 116 -37 l107 -42 -7 -139 c-8 -154 -11 -167 -34 -167 -31 0 5 -21 113
-66 59 -24 111 -44 116 -44 18 0 8 16 -21 33 -55 33 -56 50 -31 544 13 256 19
449 14 454 -5 5 -24 -7 -44 -29z m-75 -224 c-2 -18 -9 -91 -14 -162 -6 -71
-12 -131 -13 -133 -5 -4 -159 58 -171 68 -8 7 181 257 196 259 4 0 5 -15 2
-32z M7705 1741 c-44 -16 -123 -45 -175 -64 -52 -19 -96 -40 -98 -46 -3 -8 5
-10 25 -5 15 4 30 8 32 10 10 9 43 -21 60 -54 25 -49 236 -634 252 -696 11
-46 11 -50 -10 -67 -11 -10 -27 -19 -34 -22 -6 -2 -9 -8 -5 -12 4 -4 56 11
115 33 59 22 125 45 146 52 52 16 46 28 -15 26 -52 -1 -53 0 -72 38 -17 35
-106 263 -106 271 0 10 101 35 112 29 7 -5 59 -46 116 -92 131 -107 205 -152
251 -152 40 0 191 49 191 62 0 4 -23 8 -51 8 -35 0 -67 8 -101 25 -47 24 -261
173 -314 219 l-25 21 22 60 c13 38 22 86 23 130 1 59 -4 79 -29 130 -63 124
-155 153 -310 96z m113 -65 c92 -48 164 -223 132 -320 -13 -39 -55 -67 -118
-79 -31 -6 -34 -4 -48 28 -23 56 -124 337 -124 346 0 15 55 38 93 39 21 0 50
-6 65 -14z M5483 1684 c3 -3 20 -13 39 -22 25 -13 34 -24 36 -48 3 -30 -122
-626 -153 -731 -20 -67 -37 -84 -75 -76 -18 3 -30 1 -30 -5 0 -12 16 -18 75
-27 22 -4 75 -16 119 -27 43 -10 88 -18 100 -16 17 3 14 7 -19 23 -36 18 -40
24 -43 61 -3 42 42 282 56 296 9 9 82 -9 99 -25 7 -7 35 -79 63 -162 75 -221
106 -258 228 -284 66 -14 92 -14 92 -1 0 6 -7 10 -15 10 -25 0 -85 61 -111
112 -28 55 -144 343 -144 356 0 5 18 22 41 38 123 85 180 239 130 349 -37 82
-88 106 -337 159 -119 26 -163 31 -151 20z m306 -123 c56 -39 66 -66 66 -164
0 -101 -19 -157 -68 -209 -32 -34 -64 -42 -113 -29 -80 22 -79 13 -34 221 22
102 43 191 45 199 7 17 71 7 104 -18z M7046 1593 c-3 -10 -39 -212 -80 -448
-41 -237 -79 -443 -85 -457 -11 -30 -47 -58 -73 -58 -10 0 -18 -4 -18 -10 0
-14 16 -13 147 7 106 16 150 33 84 33 -53 0 -57 17 -37 158 10 70 22 131 26
135 7 8 175 36 215 37 16 0 34 -27 83 -125 63 -126 72 -155 50 -155 -7 0 -8
-3 -2 -9 8 -8 172 9 242 24 37 9 25 25 -19 25 -69 0 -66 -5 -392 630 -63 123
-120 226 -125 228 -6 2 -13 -5 -16 -15z m164 -533 c0 -8 -181 -39 -189 -34 -4
4 38 290 46 314 4 13 143 -259 143 -280z M6036 1552 c-3 -5 15 -13 39 -20 36
-10 48 -19 63 -49 11 -21 74 -218 142 -438 67 -220 128 -411 135 -424 l12 -24
16 24 c9 14 91 209 181 433 91 225 175 420 187 433 13 12 33 23 45 23 13 0 25
4 28 9 8 12 -235 24 -248 11 -7 -7 -3 -10 11 -10 36 0 53 -11 53 -34 1 -24
-220 -636 -229 -636 -7 0 -181 617 -181 641 0 22 21 39 49 39 15 0 21 4 16 9
-13 11 -312 23 -319 13z"/>
</g>
</svg>
