<?xml version="1.0" standalone="no"?>
<!DOCTYPE svg PUBLIC "-//W3C//DTD SVG 20010904//EN"
 "http://www.w3.org/TR/2001/REC-SVG-20010904/DTD/svg10.dtd">
<svg version="1.0" xmlns="http://www.w3.org/2000/svg"
 width="240.000000pt" height="400.000000pt" viewBox="0 0 240.000000 400.000000"
 preserveAspectRatio="xMidYMid meet">
<metadata>
Created by potrace 1.16, written by Peter Selinger 2001-2019
</metadata>
<g transform="translate(0.000000,400.000000) scale(0.100000,-0.100000)"
fill="#000000" stroke="none">
<path d="M583 3896 c-122 -39 -224 -159 -283 -334 -22 -67 -50 -230 -50 -294
0 -36 1 -38 33 -38 l33 0 12 77 c28 177 129 293 271 310 139 16 252 -81 336
-291 33 -81 91 -287 115 -407 l11 -55 -417 -910 c-229 -500 -427 -933 -440
-961 l-23 -53 192 0 192 0 310 715 c214 494 312 709 317 697 4 -9 53 -217 108
-462 116 -510 147 -623 199 -736 50 -105 96 -156 185 -200 164 -81 316 -45
422 99 67 91 114 271 114 440 0 47 0 47 -34 47 -33 0 -35 -2 -41 -42 -28 -185
-122 -288 -262 -288 -117 0 -216 80 -288 232 -60 129 -95 258 -245 918 -263
1153 -308 1299 -449 1441 -99 99 -204 130 -318 95z"/>
</g>
</svg>
