<?xml version="1.0" standalone="no"?>
<!DOCTYPE svg PUBLIC "-//W3C//DTD SVG 20010904//EN"
 "http://www.w3.org/TR/2001/REC-SVG-20010904/DTD/svg10.dtd">
<svg version="1.0" xmlns="http://www.w3.org/2000/svg"
 width="400.000000pt" height="400.000000pt" viewBox="0 0 400.000000 400.000000"
 preserveAspectRatio="xMidYMid meet">
<metadata>
Created by potrace 1.16, written by Peter Selinger 2001-2019
</metadata>
<g transform="translate(0.000000,400.000000) scale(0.100000,-0.100000)"
fill="#000000" stroke="none">
<path d="M844 3550 c-126 -18 -232 -76 -326 -179 -155 -167 -229 -421 -184
-631 59 -278 301 -485 565 -483 48 1 108 8 136 17 27 8 50 14 51 13 2 -1 -13
-26 -31 -56 -113 -179 -186 -507 -156 -700 8 -48 8 -77 2 -85 -21 -25 -30 -98
-20 -160 41 -255 344 -556 629 -623 69 -16 81 -23 146 -83 190 -176 382 -179
565 -9 42 40 65 52 104 60 187 35 410 170 528 317 105 132 153 239 167 367 4
44 15 105 24 135 55 180 15 463 -95 684 -30 60 -35 76 -21 71 101 -40 270 -42
377 -5 212 73 359 283 372 530 7 126 -13 218 -73 339 -39 79 -61 109 -133 180
-143 143 -265 200 -441 209 -170 7 -293 -35 -406 -140 -107 -100 -154 -215
-154 -379 0 -92 9 -138 57 -281 4 -14 -9 -11 -70 17 -137 63 -242 87 -417 92
-212 7 -356 -22 -550 -110 l-55 -25 28 84 c102 306 12 592 -235 748 -108 68
-265 103 -384 86z m1026 -861 c40 -20 89 -69 118 -117 l19 -33 36 49 c25 35
52 58 91 77 50 25 65 27 134 23 203 -12 371 -184 433 -445 48 -198 1 -439
-110 -565 l-29 -33 72 -1 c98 -1 171 -31 242 -99 63 -62 94 -124 101 -205 18
-199 -189 -471 -462 -608 -77 -38 -172 -72 -204 -72 -11 0 -10 5 6 23 66 73
44 67 -33 -8 -97 -95 -173 -147 -258 -177 -130 -45 -239 -2 -411 163 -87 84
-110 99 -74 48 l22 -31 -24 7 c-46 14 -208 93 -256 126 -190 129 -343 340
-359 495 -14 130 54 243 178 300 55 24 75 28 155 29 l92 0 -19 30 c-39 64 -79
153 -95 215 -23 86 -24 244 -1 330 52 202 189 374 363 457 111 53 198 60 273
22z M1748 2350 c-116 -91 -144 -450 -49 -626 l29 -55 -46 -23 c-58 -30 -92
-55 -74 -56 7 0 31 9 54 21 22 11 84 32 136 45 162 41 315 30 451 -32 30 -13
56 -23 58 -20 4 4 -73 63 -91 69 -6 2 1 22 16 48 116 199 125 527 17 627 -31
30 -62 27 -102 -8 -74 -65 -117 -234 -119 -467 l-1 -151 -64 -4 c-36 -2 -66
-2 -67 0 -2 1 3 26 11 55 19 73 28 286 14 377 -14 99 -27 140 -54 181 -29 43
-79 51 -119 19z m89 -22 c44 -48 76 -253 63 -408 -5 -65 -11 -69 -24 -18 -3
15 -15 32 -26 38 -67 36 -126 -118 -85 -217 17 -39 14 -49 -10 -39 -21 8 -61
99 -76 175 -17 89 -7 278 20 363 37 115 91 156 138 106z m424 -44 c63 -142 41
-401 -46 -551 -28 -46 -63 -61 -50 -20 4 12 9 58 12 102 4 72 3 82 -16 103
-12 12 -28 22 -35 22 -16 0 -52 -38 -65 -70 -16 -41 -14 73 4 176 45 263 137
373 196 238z M1835 1606 c-126 -31 -205 -110 -205 -203 0 -79 82 -161 184
-184 60 -13 221 -7 278 10 60 19 130 73 155 121 59 110 -6 216 -154 255 -68
18 -188 18 -258 1z M2560 1447 c0 -3 29 -15 64 -27 96 -32 97 -37 28 -117
-333 -386 -853 -461 -1229 -179 -88 66 -205 219 -188 246 3 6 29 22 57 36 55
28 57 40 5 30 -76 -14 -187 -121 -187 -180 0 -15 11 -7 48 34 l48 54 39 -65
c22 -35 76 -102 120 -149 54 -57 99 -116 135 -180 118 -212 211 -318 316 -367
49 -22 66 -25 133 -21 146 8 243 92 400 344 80 128 109 165 206 259 62 61 125
129 140 153 15 23 33 42 40 42 7 0 31 -20 54 -45 30 -33 41 -40 41 -26 0 35
-57 98 -115 126 -50 25 -155 46 -155 32z m-642 -647 c48 -22 51 -29 21 -56
-11 -10 -25 -27 -31 -38 -8 -15 -3 -13 24 7 61 47 118 67 188 66 110 -1 113
-6 50 -73 -68 -72 -135 -107 -216 -114 -88 -7 -150 17 -220 83 -49 46 -55 55
-45 73 15 28 107 72 150 72 20 0 55 -9 79 -20z"/>
</g>
</svg>
