<?xml version="1.0" standalone="no"?>
<!DOCTYPE svg PUBLIC "-//W3C//DTD SVG 20010904//EN"
 "http://www.w3.org/TR/2001/REC-SVG-20010904/DTD/svg10.dtd">
<svg version="1.0" xmlns="http://www.w3.org/2000/svg"
 width="800.000000pt" height="800.000000pt" viewBox="0 0 800.000000 800.000000"
 preserveAspectRatio="xMidYMid meet">
<metadata>
Created by potrace 1.16, written by Peter Selinger 2001-2019
</metadata>
<g transform="translate(0.000000,800.000000) scale(0.100000,-0.100000)"
fill="#000000" stroke="none">
<path d="M2517 7723 c-11 -10 -8 -262 3 -283 18 -34 66 -40 300 -40 158 0 254
-5 314 -15 220 -39 334 -132 383 -316 13 -52 17 -114 17 -339 l1 -275 -60 -7
c-676 -85 -1082 -199 -1547 -435 -504 -255 -909 -659 -1160 -1157 -142 -283
-209 -615 -194 -956 9 -177 19 -250 57 -405 61 -243 150 -475 244 -633 177
-297 481 -594 810 -789 380 -226 990 -405 1595 -467 85 -9 179 -19 209 -22
l53 -6 -5 -291 c-5 -306 -10 -345 -57 -441 -50 -104 -151 -179 -295 -219 -59
-17 -115 -21 -347 -26 -346 -8 -322 6 -326 -179 -1 -70 2 -134 7 -141 8 -13
114 -13 811 -3 601 8 969 8 1465 0 364 -6 669 -8 679 -5 14 5 16 25 16 137 0
72 -4 140 -10 150 -18 34 -66 40 -300 40 -158 0 -254 5 -314 15 -217 38 -327
126 -379 304 -16 57 -20 109 -24 364 -3 163 -3 297 0 297 38 0 352 47 471 70
596 117 1165 369 1571 697 119 96 334 314 426 433 477 613 614 1284 398 1935
-99 299 -279 577 -535 826 -534 518 -1246 817 -2159 908 l-170 16 1 270 c0
290 6 330 59 435 27 54 105 129 164 160 102 52 177 63 473 69 346 7 322 -6
326 179 1 70 -2 134 -7 141 -8 13 -120 13 -858 3 -563 -7 -996 -8 -1288 -2
-536 11 -809 12 -818 3z m1023 -3701 c0 -1154 -2 -2101 -5 -2104 -7 -7 -216
26 -330 51 -595 133 -1091 441 -1360 844 -175 263 -280 564 -327 937 -20 161
-17 574 6 735 61 440 218 779 481 1040 142 142 262 227 460 324 217 108 405
169 680 221 104 19 308 47 368 49 l27 1 0 -2098z m1082 2062 c585 -81 1070
-297 1391 -620 337 -339 504 -878 484 -1559 -10 -328 -41 -528 -114 -739 -127
-365 -302 -616 -558 -802 -166 -119 -488 -267 -740 -339 -169 -49 -603 -123
-620 -107 -3 3 -5 945 -5 2094 l0 2088 25 0 c13 0 75 -7 137 -16z"/>
</g>
</svg>
