<?xml version="1.0" standalone="no"?>
<!DOCTYPE svg PUBLIC "-//W3C//DTD SVG 20010904//EN"
 "http://www.w3.org/TR/2001/REC-SVG-20010904/DTD/svg10.dtd">
<svg version="1.0" xmlns="http://www.w3.org/2000/svg"
 width="512.000000pt" height="512.000000pt" viewBox="0 0 512.000000 512.000000"
 preserveAspectRatio="xMidYMid meet">
<metadata>
Created by potrace 1.16, written by Peter Selinger 2001-2019
</metadata>
<g transform="translate(0.000000,512.000000) scale(0.100000,-0.100000)"
fill="#000000" stroke="none">
<path d="M2430 4044 c-14 -3 -61 -12 -105 -20 -239 -45 -491 -169 -687 -338
-27 -23 -48 -45 -48 -50 0 -4 17 7 38 26 35 32 132 103 196 144 l29 18 -12
-22 c-6 -12 -8 -22 -3 -22 15 0 34 28 27 39 -7 13 173 100 280 135 351 115
759 84 1090 -82 243 -121 501 -373 622 -607 221 -427 224 -904 7 -1336 -162
-325 -467 -581 -844 -710 -52 -17 -99 -36 -105 -41 -6 -6 -4 -7 5 -4 8 2 60
19 115 36 139 45 332 146 457 240 265 199 432 449 518 775 41 155 53 267 47
430 -13 376 -158 706 -427 975 -194 194 -455 333 -740 395 -73 16 -403 30
-460 19z M2700 3970 c-17 -31 -1 -69 41 -97 25 -16 39 -33 39 -46 0 -20 1 -20
16 -5 22 21 11 50 -24 66 -33 14 -56 55 -47 83 8 25 -11 24 -25 -1z M2755
3981 c-3 -5 -1 -12 5 -16 5 -3 10 -15 10 -26 0 -13 7 -19 21 -19 16 0 19 4 13
23 -12 40 -36 59 -49 38z M2385 3970 c-4 -6 7 -10 24 -10 17 0 31 5 31 10 0 6
-11 10 -24 10 -14 0 -28 -4 -31 -10z M2286 3962 c-3 -5 2 -12 12 -14 22 -6 47
-119 36 -163 -6 -24 -5 -27 11 -21 10 3 38 11 64 18 25 6 50 15 56 19 13 13
-2 11 -55 -5 l-45 -14 -1 52 c-2 72 -24 130 -51 134 -11 2 -24 -1 -27 -6z
M2585 3949 c-4 -6 -5 -13 -2 -16 7 -7 27 6 27 18 0 12 -17 12 -25 -2z M2860
3951 c0 -5 5 -11 12 -13 9 -3 9 -18 0 -63 -16 -80 -16 -94 1 -75 16 17 41 136
32 150 -8 13 -45 13 -45 1z M2167 3943 c-18 -33 -48 -146 -40 -154 6 -6 20 19
36 68 15 43 27 82 27 86 0 9 -18 9 -23 0z M2490 3945 c0 -3 8 -17 17 -31 13
-21 14 -30 5 -45 -18 -28 -15 -39 10 -39 17 0 19 3 10 12 -9 9 -8 16 5 30 16
18 16 21 1 46 -15 24 -48 43 -48 27z M1796 3896 c-259 -159 -448 -365 -581
-634 -58 -118 -81 -183 -122 -347 -26 -103 -28 -123 -28 -325 1 -197 3 -224
27 -325 72 -303 203 -540 418 -755 285 -286 657 -440 1060 -440 159 0 255 11
390 46 96 25 315 112 306 121 -3 3 -42 -11 -88 -30 -110 -48 -241 -85 -363
-103 -133 -21 -402 -14 -530 14 -530 115 -938 479 -1119 999 -182 526 -41
1149 348 1538 87 87 203 180 287 230 75 45 74 44 68 49 -2 2 -35 -15 -73 -38z
M2017 3894 c-3 -4 2 -18 13 -31 10 -13 28 -53 40 -89 19 -55 25 -64 46 -64 27
0 30 7 11 24 -8 6 -24 38 -36 71 -28 75 -55 108 -74 89z M2206 3892 c-10 -17
17 -142 31 -142 16 0 17 40 1 94 -13 47 -23 62 -32 48z M2405 3890 c-4 -6 7
-10 25 -10 18 0 29 4 25 10 -3 6 -15 10 -25 10 -10 0 -22 -4 -25 -10z M2950
3858 c-38 -63 -23 -101 54 -133 59 -25 67 -3 9 26 -41 20 -48 29 -51 56 -2 18
4 43 14 57 10 16 12 26 5 26 -6 0 -20 -15 -31 -32z M3150 3860 c0 -11 -9 -43
-20 -72 -22 -59 -24 -68 -11 -68 8 0 61 120 61 139 0 5 -7 11 -15 15 -10 4
-15 -1 -15 -14z M2560 3866 c0 -13 34 -36 52 -36 20 0 21 1 3 20 -16 17 -55
28 -55 16z M2690 3847 c0 -13 -5 -28 -11 -34 -15 -15 -1 -21 65 -29 71 -9 77
11 6 21 -42 6 -49 9 -39 21 12 15 6 44 -11 44 -5 0 -10 -10 -10 -23z M3006
3861 c-3 -5 15 -16 41 -25 55 -19 63 -20 63 -6 0 18 -95 46 -104 31z M3255
3791 c3 -11 -3 -33 -15 -53 -24 -40 -28 -71 -6 -48 30 32 56 93 44 107 -16 19
-30 16 -23 -6z M1886 3791 c-3 -5 1 -11 9 -15 8 -3 15 -15 15 -26 0 -26 17
-26 25 0 11 33 -32 69 -49 41z M3015 3790 c-8 -13 4 -32 16 -25 12 8 12 35 0
35 -6 0 -13 -4 -16 -10z M2827 3783 c-4 -3 -7 -10 -7 -13 0 -9 90 -33 97 -26
10 10 -9 26 -32 26 -13 0 -27 5 -30 10 -7 12 -19 13 -28 3z M1794 3768 c-4 -6
-2 -14 4 -16 24 -8 93 -122 87 -142 -5 -15 -2 -20 13 -20 44 0 6 100 -64 168
-27 25 -30 26 -40 10z M3075 3770 c-3 -5 1 -10 9 -10 9 0 16 5 16 10 0 6 -4
10 -9 10 -6 0 -13 -4 -16 -10z M3345 3730 c5 -16 -23 -71 -61 -119 -2 -2 -24
13 -49 34 -35 28 -49 35 -58 26 -9 -9 -4 -18 18 -36 17 -13 38 -27 48 -30 10
-4 34 -22 55 -41 20 -19 46 -34 57 -34 17 0 14 6 -17 37 l-37 36 40 59 c33 48
38 62 29 74 -18 20 -32 17 -25 -6z M2205 3716 c-163 -55 -324 -151 -453 -273
-66 -62 -73 -67 -78 -47 -7 27 -106 114 -130 114 -14 0 -9 10 21 40 21 22 35
40 29 40 -14 0 -84 -73 -84 -88 0 -7 6 -12 14 -12 23 0 126 -91 126 -111 0
-11 5 -19 12 -19 6 0 0 -13 -15 -28 -42 -43 -153 -235 -186 -320 -16 -42 -34
-106 -41 -142 -6 -36 -16 -79 -21 -96 -5 -17 -7 -39 -3 -48 7 -17 -11 -23 -21
-6 -3 6 -17 10 -31 10 -17 0 -24 5 -24 20 0 23 -15 27 -23 6 -9 -22 -67 -29
-89 -10 -20 19 -23 45 -8 60 8 8 8 19 0 38 -12 33 -30 25 -30 -12 0 -15 -1
-40 -2 -56 -4 -42 37 -71 77 -56 20 7 36 8 50 1 20 -10 76 -25 85 -23 3 0 3
-27 2 -61 -6 -92 15 -266 44 -364 30 -103 127 -307 181 -379 196 -261 443
-414 757 -469 223 -38 495 -7 683 80 78 36 248 143 240 151 -2 3 -31 -13 -63
-34 -191 -127 -384 -182 -633 -183 -401 0 -744 174 -957 486 -158 232 -221
446 -211 718 7 220 66 404 191 596 130 202 376 391 611 470 50 17 81 30 70 30
-11 0 -51 -10 -90 -23z M2418 3726 c-145 -26 -361 -111 -433 -171 -20 -17 1
-9 65 24 189 98 379 139 588 128 242 -13 509 -117 669 -262 46 -41 93 -59 93
-36 0 17 -162 137 -247 183 -94 50 -227 98 -345 124 -101 22 -295 27 -390 10z
M1940 3710 c0 -5 7 -10 15 -10 8 0 15 -4 15 -10 0 -14 36 -31 54 -24 12 5 10
11 -13 30 -29 24 -71 33 -71 14z M3072 3708 c5 -15 70 -48 81 -41 16 10 5 22
-33 37 -49 19 -53 20 -48 4z M3391 3696 c-9 -10 -6 -12 14 -8 29 5 31 8 11 15
-8 3 -19 0 -25 -7z M1696 3668 c-21 -30 -20 -56 4 -96 23 -37 60 -55 96 -46
36 9 39 23 5 22 -64 -2 -106 55 -83 114 12 33 -1 37 -22 6z M1773 3639 c25
-21 37 -39 37 -56 0 -21 2 -24 15 -13 21 18 19 34 -11 69 -17 20 -35 31 -52
31 -26 0 -26 0 11 -31z M3420 3581 c-26 -108 -25 -137 9 -133 32 5 115 41 108
48 -3 3 -15 0 -28 -6 -12 -7 -35 -16 -50 -20 -25 -7 -29 -6 -29 10 0 22 26
147 35 173 5 11 2 17 -8 17 -10 0 -21 -26 -37 -89z M2310 3597 c0 -27 127
-197 146 -197 8 0 14 3 14 6 0 4 -29 45 -65 92 -36 46 -65 93 -65 103 0 11 -7
19 -15 19 -9 0 -15 -9 -15 -23z M3507 3544 c-27 -29 -45 -54 -40 -54 12 0 103
89 103 100 0 19 -16 8 -63 -46z M2380 3580 c0 -6 78 -11 200 -12 l200 -3 -61
-70 c-85 -97 -95 -113 -80 -128 9 -9 116 -13 394 -17 l382 -5 3 -744 c1 -549
-1 -747 -9 -758 -7 -7 -9 -17 -5 -21 4 -4 16 4 27 17 18 22 19 49 19 761 0
406 -3 745 -6 754 -5 14 -48 16 -379 16 -205 0 -380 3 -389 6 -9 3 -16 10 -16
15 0 4 34 47 75 94 41 48 73 91 70 96 -8 12 -425 12 -425 -1z M1606 3562 c-3
-6 1 -12 9 -16 8 -3 12 -12 9 -21 -5 -11 -2 -14 10 -9 22 8 17 48 -6 52 -9 2
-19 -1 -22 -6z M2420 3542 c0 -23 130 -152 153 -152 9 0 17 2 17 4 0 2 -31 35
-70 72 -38 37 -70 73 -70 81 0 7 -7 13 -15 13 -8 0 -15 -8 -15 -18z M3600
3540 c0 -5 4 -10 9 -10 6 0 13 5 16 10 3 6 -1 10 -9 10 -9 0 -16 -4 -16 -10z
M2515 3520 c-4 -6 17 -10 56 -10 l63 0 -27 -28 c-42 -44 -31 -50 13 -7 21 21
37 42 34 47 -7 12 -132 10 -139 -2z M1686 3501 c-3 -5 1 -12 10 -15 10 -4 14
-14 11 -26 -4 -17 -2 -18 14 -9 10 5 19 15 19 22 0 28 -42 49 -54 28z M3582
3468 c-34 -22 -60 -43 -57 -46 5 -6 112 64 121 79 8 14 2 11 -64 -33z M3623
3459 c-15 -19 -56 -129 -50 -135 4 -5 39 3 112 23 15 4 12 -3 -15 -32 -21 -23
-27 -33 -15 -27 27 14 80 70 73 77 -3 3 -33 0 -67 -8 -33 -8 -61 -13 -61 -11
0 1 9 24 20 50 23 52 24 88 3 63z M1427 3402 c-42 -44 -36 -65 32 -107 33 -20
63 -45 66 -55 9 -28 25 -25 25 5 0 21 -12 33 -60 63 -63 39 -73 61 -43 94 27
30 9 30 -20 0z M3490 3400 c0 -20 25 -38 36 -27 8 7 -15 47 -26 47 -6 0 -10
-9 -10 -20z M1470 3401 c0 -5 7 -12 16 -15 11 -4 13 -13 9 -28 l-7 -23 23 22
c19 18 20 24 9 37 -13 17 -50 22 -50 7z M1746 3354 c-8 -20 -8 -1478 0 -1498
3 -9 10 -16 15 -16 5 0 9 323 9 765 0 442 -4 765 -9 765 -5 0 -12 -7 -15 -16z
M1805 3360 c4 -6 130 -10 345 -10 215 0 341 4 345 10 4 7 -113 10 -345 10
-232 0 -349 -3 -345 -10z M1550 3351 c0 -14 56 -24 82 -15 l23 8 -25 7 c-37
10 -80 10 -80 0z M3464 3315 c-4 -10 -1 -28 7 -40 146 -231 195 -360 219 -576
27 -244 -48 -537 -187 -732 -42 -60 -42 -101 0 -46 56 74 126 202 157 287 53
145 72 273 67 442 -9 243 -73 428 -221 634 -30 42 -36 47 -42 31z M1835 3298
c-3 -13 -4 -340 -3 -728 l3 -705 764 -3 c503 -1 768 1 775 8 7 7 -241 10 -752
10 l-762 0 0 714 c0 452 -4 717 -10 721 -5 3 -12 -4 -15 -17z M1880 3290 c0
-6 254 -11 728 -12 l727 -3 1 -173 c1 -95 4 -176 8 -180 10 -9 27 20 21 36 -3
8 -5 88 -5 178 l0 164 -740 0 c-483 0 -740 -3 -740 -10z M1320 3240 c-26 -51
-26 -53 10 -45 36 8 121 -30 128 -57 2 -10 12 -18 22 -18 13 0 16 6 13 24 -6
28 -109 82 -142 73 -20 -5 -20 -4 -6 24 18 33 18 39 5 39 -5 0 -19 -18 -30
-40z M3590 3267 c0 -20 37 -50 50 -42 8 5 4 15 -11 31 -25 27 -39 31 -39 11z
M3687 3243 c-14 -13 -7 -43 12 -53 29 -15 45 -12 59 11 15 24 1 49 -26 49 -12
0 -13 -3 -4 -12 18 -18 15 -40 -5 -36 -12 2 -17 11 -15 26 3 21 -8 29 -21 15z
M2910 3229 c0 -5 5 -7 10 -4 6 3 10 8 10 11 0 2 -4 4 -10 4 -5 0 -10 -5 -10
-11z M2240 3210 c0 -6 7 -13 15 -16 11 -5 15 -24 15 -80 0 -61 3 -72 15 -68
11 5 15 24 15 80 0 62 -3 75 -19 84 -25 13 -41 13 -41 0z M2783 3208 c-5 -7
-27 -47 -48 -88 -20 -41 -44 -82 -51 -91 -19 -22 -17 -31 5 -24 10 3 30 1 44
-4 18 -7 28 -7 33 1 9 15 -17 29 -44 25 -20 -4 -21 -2 -9 12 15 17 97 166 97
176 0 10 -17 5 -27 -7z M3167 3213 c-4 -3 -7 -11 -7 -17 0 -6 5 -5 12 2 6 6 9
14 7 17 -3 3 -9 2 -12 -2z M3807 3205 c-3 -7 -23 -23 -44 -34 -21 -11 -33 -20
-28 -20 17 -1 88 43 93 57 5 17 -15 15 -21 -3z M2063 3194 c-4 -10 0 -20 10
-26 16 -8 15 -12 -3 -48 -21 -42 -25 -60 -12 -60 4 0 20 25 35 56 28 57 28 57
8 75 -25 23 -30 24 -38 3z M2148 3203 c7 -3 16 -2 19 1 4 3 -2 6 -13 5 -11 0
-14 -3 -6 -6z M2965 3190 c-9 -30 2 -40 46 -40 l39 0 0 -70 c0 -55 -3 -71 -17
-79 -13 -7 -15 -13 -7 -21 13 -13 126 -2 118 11 -3 5 -23 6 -45 3 -39 -6 -49
2 -29 22 6 6 10 41 8 80 l-3 69 -42 3 c-35 3 -43 7 -43 23 0 25 -17 25 -25 -1z
M1910 3185 c0 -7 6 -18 14 -22 8 -4 31 -39 51 -78 41 -77 61 -103 72 -91 9 9
-61 149 -91 184 -22 25 -46 29 -46 7z M2375 3189 c-4 -5 0 -18 8 -27 8 -9 35
-55 60 -102 24 -47 52 -86 61 -88 24 -5 20 9 -24 86 -22 38 -40 73 -40 78 -1
10 -46 64 -54 64 -3 0 -8 -5 -11 -11z M2524 3185 c-4 -8 -1 -22 6 -30 9 -11 9
-22 1 -46 -6 -18 -11 -41 -11 -52 0 -36 27 0 40 52 9 39 9 53 -2 70 -15 25
-26 27 -34 6z M2850 3180 c0 -5 11 -10 24 -10 13 0 29 -7 36 -15 16 -19 36 -4
27 19 -7 18 -87 23 -87 6z M2810 3135 c0 -23 24 -45 36 -33 7 7 -17 58 -28 58
-4 0 -8 -11 -8 -25z M3130 3150 c0 -5 14 -10 30 -10 17 0 30 5 30 10 0 6 -13
10 -30 10 -16 0 -30 -4 -30 -10z M3666 3151 c-6 -10 28 -105 45 -125 4 -4 12
-5 17 -2 7 4 3 25 -10 59 -25 61 -42 84 -52 68z M3793 3137 c-29 -11 -53 -23
-53 -28 0 -5 19 0 43 10 29 13 49 16 60 10 19 -11 32 5 14 18 -8 6 -30 3 -64
-10z M1272 3125 c-14 -30 -16 -65 -4 -65 8 0 32 65 32 84 0 16 -18 4 -28 -19z
M1290 3081 c0 -5 10 -11 23 -13 23 -4 23 -5 11 -52 -5 -22 -4 -28 6 -24 20 6
40 70 27 86 -11 14 -67 17 -67 3z M2787 3083 c-15 -14 -6 -23 23 -23 17 0 30
-4 30 -10 0 -5 7 -10 15 -10 25 0 17 30 -11 40 -30 12 -48 13 -57 3z M3897
3063 c-4 -3 -7 -13 -7 -21 0 -12 3 -12 15 -2 8 7 15 16 15 21 0 11 -14 12 -23
2z M1390 3051 c0 -5 9 -13 20 -16 11 -3 20 -13 20 -21 0 -8 5 -12 10 -9 16 10
12 42 -6 49 -23 9 -44 7 -44 -3z M2242 3029 c6 -17 86 -25 101 -10 8 8 1 11
-23 11 -19 0 -46 3 -59 7 -18 4 -23 2 -19 -8z M2810 3031 c0 -14 9 -18 68 -26
56 -7 75 9 22 19 -16 3 -43 9 -60 12 -18 3 -30 1 -30 -5z M1219 2993 c-5 -16
-12 -33 -14 -40 -5 -15 11 -27 19 -15 8 14 141 -35 144 -52 5 -23 32 -20 32 3
0 26 -15 35 -93 57 -66 18 -68 20 -63 47 3 15 1 27 -4 27 -6 0 -15 -12 -21
-27z M3733 2974 c8 -50 33 -84 60 -84 20 1 20 2 6 13 -9 7 -23 31 -29 54 -17
56 -45 69 -37 17z M3880 2979 c-83 -29 -83 -29 -78 -34 3 -3 31 4 62 15 32 11
62 18 68 17 6 -1 13 4 15 11 6 15 0 15 -67 -9z M2153 2922 c-171 -1 -273 -6
-273 -12 0 -6 64 -10 166 -10 161 0 165 -1 159 -20 -5 -14 -2 -20 10 -20 33 0
50 -125 20 -150 -8 -7 -15 -19 -15 -28 0 -12 11 -14 66 -9 36 2 71 10 77 17 9
9 -3 10 -50 4 -64 -7 -76 -1 -47 21 25 18 10 152 -17 160 -60 19 43 33 206 28
22 -1 150 -2 285 -2 251 -1 353 -7 345 -21 -3 -4 2 -13 10 -20 23 -19 20 -103
-5 -125 -11 -10 -17 -22 -13 -26 18 -17 132 -14 157 4 15 11 6 12 -53 9 -72
-4 -86 3 -55 29 13 11 15 25 11 68 -3 30 -11 57 -18 61 -24 16 12 20 115 13
l106 -6 0 -159 c0 -87 4 -158 9 -158 4 0 11 73 14 163 4 138 2 164 -11 174
-11 9 -71 12 -216 12 -111 -1 -316 1 -456 3 -140 1 -378 2 -527 0z M3935 2889
c-10 -15 3 -25 16 -12 7 7 7 13 1 17 -6 3 -14 1 -17 -5z M2784 2878 c-4 -6 0
-16 9 -23 13 -9 17 -28 17 -76 0 -35 -4 -71 -10 -79 -15 -25 6 -38 54 -33 24
3 52 0 64 -6 15 -8 23 -8 28 0 11 18 -17 29 -74 29 -49 0 -52 1 -42 19 5 11
10 49 10 84 0 49 -4 68 -18 80 -22 20 -28 21 -38 5z M1950 2870 c-13 -9 -13
-12 3 -24 23 -18 25 -137 2 -156 -26 -21 -17 -30 30 -30 25 0 45 5 45 10 0 6
-15 10 -32 10 -27 1 -30 2 -15 11 13 8 17 24 17 78 0 77 -21 120 -50 101z
M2320 2871 c0 -10 36 -21 44 -14 3 3 3 10 0 14 -7 12 -44 12 -44 0z M1226
2854 c-4 -10 -1 -14 6 -12 15 5 23 28 10 28 -5 0 -13 -7 -16 -16z M2890 2860
c0 -5 11 -10 24 -10 14 0 28 5 31 10 4 6 -7 10 -24 10 -17 0 -31 -4 -31 -10z
M3753 2816 c7 -69 28 -106 62 -106 13 0 27 5 30 10 3 6 -3 10 -13 10 -28 0
-41 20 -49 80 -5 31 -14 55 -22 58 -11 4 -13 -6 -8 -52z M2030 2850 c0 -5 7
-10 15 -10 9 0 15 -9 15 -21 0 -12 5 -19 13 -17 17 6 21 39 5 49 -18 12 -48
11 -48 -1z M2424 2849 c-3 -6 6 -24 21 -39 l28 -29 -27 -31 c-14 -18 -24 -36
-20 -41 7 -12 44 -12 44 1 0 6 -5 10 -11 10 -6 0 1 16 16 35 l26 36 -28 34
c-31 37 -38 41 -49 24z M2532 2848 c-14 -14 -16 -28 -2 -28 5 0 14 9 20 20 12
22 1 27 -18 8z M3170 2853 c0 -5 7 -17 15 -27 8 -11 13 -28 9 -38 -4 -13 -1
-16 10 -12 19 7 21 55 4 72 -13 13 -38 16 -38 5z M1272 2834 c-14 -10 -22 -25
-22 -45 0 -18 4 -28 10 -24 6 3 10 17 10 30 0 13 10 31 22 39 12 9 18 16 12
16 -5 0 -20 -7 -32 -16z M1340 2820 c0 -5 5 -10 10 -10 6 0 10 -10 10 -22 0
-20 2 -21 15 -7 20 19 9 49 -16 49 -10 0 -19 -4 -19 -10z M3920 2820 c0 -5 5
-10 10 -10 6 0 10 -9 10 -20 0 -11 4 -20 9 -20 12 0 24 37 16 50 -8 13 -45 13
-45 0z M2637 2803 c-4 -3 -7 -17 -7 -30 0 -28 44 -53 61 -36 8 8 5 13 -10 18
-14 4 -21 15 -21 31 0 23 -10 31 -23 17z M2670 2803 c1 -11 26 -43 34 -43 16
0 0 45 -16 48 -10 2 -18 0 -18 -5z M3823 2799 c9 -5 17 -20 17 -32 1 -21 1
-21 15 -4 19 26 8 47 -24 47 -22 -1 -24 -2 -8 -11z M3880 2780 c0 -15 5 -31
12 -38 15 -15 54 -16 63 -2 3 6 -3 10 -14 10 -10 0 -29 12 -40 28 l-20 27 -1
-25z M2320 2780 c0 -5 11 -10 25 -10 14 0 25 5 25 10 0 6 -11 10 -25 10 -14 0
-25 -4 -25 -10z M2896 2783 c-3 -3 -3 -10 0 -14 7 -12 44 -12 44 0 0 10 -36
21 -44 14z M2036 2751 c-3 -5 3 -11 14 -14 14 -4 20 -14 20 -36 0 -32 22 -51
59 -51 29 0 26 14 -4 28 -16 8 -25 20 -25 35 0 13 -5 28 -12 35 -14 14 -44 16
-52 3z M2515 2751 c-6 -11 42 -51 61 -51 23 0 16 17 -15 39 -33 24 -37 25 -46
12z M3465 2740 c-3 -6 1 -13 9 -16 13 -5 16 -22 16 -79 0 -41 -4 -77 -10 -80
-5 -3 -10 -13 -10 -21 0 -10 12 -14 40 -14 22 0 40 5 40 10 0 6 -14 10 -32 10
-29 0 -30 1 -15 18 21 23 24 151 5 170 -15 15 -35 16 -43 2z M3563 2706 c9 -7
17 -22 17 -32 0 -17 1 -17 16 -2 23 23 11 48 -23 48 -25 -1 -26 -2 -10 -14z
M1475 2690 c-4 -6 -2 -16 3 -23 17 -22 24 -134 10 -157 -20 -31 5 -42 82 -34
90 9 98 23 9 16 l-72 -5 7 24 c13 39 6 160 -9 175 -16 17 -22 17 -30 4z M3960
2690 c0 -5 4 -10 9 -10 6 0 13 5 16 10 3 6 -1 10 -9 10 -9 0 -16 -4 -16 -10z
M1230 2675 c-10 -12 -9 -20 4 -40 17 -25 40 -33 51 -16 3 5 -4 13 -16 16 -16
5 -20 13 -16 31 5 27 -5 31 -23 9z M1276 2682 c-2 -4 2 -15 9 -25 15 -20 31
-6 21 18 -6 16 -22 20 -30 7z M3777 2683 c-6 -6 -4 -35 9 -120 3 -21 11 -33
20 -33 12 0 14 7 10 28 -3 15 -8 51 -11 80 -7 49 -13 60 -28 45z M1580 2670
c0 -5 11 -10 25 -10 14 0 25 5 25 10 0 6 -11 10 -25 10 -14 0 -25 -4 -25 -10z
M3560 2620 c0 -5 7 -10 15 -10 9 0 15 -9 15 -25 0 -41 57 -84 75 -56 3 5 -4
12 -15 16 -11 3 -23 18 -26 33 -3 15 -7 33 -10 40 -4 14 -54 17 -54 2z M3935
2621 c3 -6 13 -11 21 -11 9 0 14 -11 14 -30 0 -21 5 -30 16 -30 12 0 14 9 12
38 -3 34 -6 37 -37 40 -21 2 -31 0 -26 -7z M1324 2595 c-7 -29 -1 -41 15 -30
14 8 14 55 1 55 -5 0 -12 -11 -16 -25z M3840 2610 c0 -5 9 -10 20 -10 13 0 20
-7 20 -18 0 -24 8 -32 25 -26 10 4 11 12 3 35 -8 23 -16 29 -39 29 -16 0 -29
-4 -29 -10z M1152 2528 c2 -57 6 -73 18 -73 8 0 13 7 11 15 -2 8 -6 39 -9 68
-7 81 -23 74 -20 -10z M1237 2594 c-4 -4 -7 -18 -7 -31 0 -28 23 -27 28 1 4
20 -11 40 -21 30z M1590 2590 c-15 -10 -15 -10 25 -10 3 0 5 3 6 7 1 12 -15
13 -31 3z M3060 2553 c-114 -10 -207 -11 -300 -6 -142 8 -323 3 -304 -9 11 -8
14 -8 199 -10 234 -4 301 -3 403 5 101 8 103 8 90 -12 -21 -34 0 -73 55 -100
33 -16 47 -29 47 -43 0 -17 2 -18 15 -8 24 20 14 42 -30 64 -21 12 -46 33 -55
48 -22 41 -5 62 54 66 49 3 65 19 19 19 -16 0 -102 -7 -193 -14z M3290 2561
c0 -4 11 -13 25 -19 l25 -12 0 -149 0 -149 -27 -7 c-16 -3 -221 -9 -458 -11
-630 -7 -966 -17 -963 -29 2 -5 21 -9 43 -9 22 1 281 4 575 8 294 4 565 8 601
11 l67 4 -15 -29 c-21 -44 -1 -80 57 -100 33 -11 46 -22 48 -38 4 -27 18 -29
27 -3 9 28 -4 51 -34 57 -68 15 -89 41 -72 88 9 22 17 26 51 27 22 1 52 1 68
2 l27 1 0 -144 c0 -100 4 -144 12 -147 8 -3 12 78 15 314 2 175 1 321 -2 324
-8 10 -70 19 -70 10z M2120 2540 c-251 -9 -240 -8 -240 -20 0 -6 68 -7 190 -3
l189 6 -29 -59 c-28 -57 -64 -163 -58 -169 8 -8 88 8 88 17 0 6 -13 8 -30 6
-33 -5 -34 -5 -21 20 5 9 16 42 25 72 9 30 25 70 36 88 20 32 23 33 77 31 37
-2 58 1 61 9 2 8 -11 11 -45 10 -26 -1 -136 -5 -243 -8z M3208 2535 c-3 -4 0
-19 8 -34 15 -29 49 -47 60 -30 3 5 1 9 -5 9 -5 0 -16 12 -23 27 -13 27 -29
38 -40 28z M2467 2433 c6 -96 7 -98 22 -88 14 8 14 115 1 149 -19 52 -29 27
-23 -61z M3790 2487 c0 -26 6 -35 29 -45 33 -15 48 -42 29 -54 -7 -4 -8 -8 -3
-8 46 0 44 56 -2 79 -22 11 -33 23 -33 39 0 12 -4 22 -10 22 -5 0 -10 -15 -10
-33z M2977 2503 c-2 -4 -1 -44 2 -88 5 -70 8 -77 19 -58 17 30 16 127 -2 142
-8 7 -16 8 -19 4z M1265 2493 c-78 -6 -83 -25 -5 -22 36 1 73 -1 83 -6 10 -4
21 -5 24 -1 10 9 -18 36 -36 34 -9 -1 -38 -3 -66 -5z M2324 2492 c3 -6 23 -12
43 -14 21 -3 45 -7 53 -9 9 -2 15 2 15 11 0 11 -15 16 -58 18 -35 2 -56 -1
-53 -6z M2666 2491 c-3 -4 3 -16 14 -26 25 -23 28 -100 4 -126 -9 -10 -13 -23
-9 -28 8 -14 65 -14 85 -1 11 7 5 10 -24 10 -37 0 -38 1 -23 18 26 29 23 116
-5 142 -24 22 -34 25 -42 11z M1902 2478 c-17 -17 -15 -36 6 -42 11 -4 33 -39
55 -86 33 -73 57 -101 57 -66 0 25 -68 166 -80 166 -6 0 -14 9 -18 20 -6 16
-10 18 -20 8z M2023 2474 c-3 -9 -2 -24 4 -33 6 -9 8 -32 5 -51 -4 -31 -3 -33
10 -22 23 19 28 60 11 93 -17 33 -21 35 -30 13z M2105 2480 c-4 -6 -1 -18 6
-26 9 -11 9 -20 0 -41 -8 -17 -9 -29 -2 -36 6 -6 15 3 25 28 20 46 20 53 2 71
-17 17 -23 17 -31 4z M2530 2481 c0 -5 10 -11 21 -14 15 -4 20 -11 16 -21 -9
-22 10 -20 22 2 7 13 6 23 -1 30 -14 14 -58 16 -58 3z M2836 2475 c4 -8 11
-15 18 -15 7 0 29 -40 50 -90 22 -49 44 -90 51 -90 18 0 26 12 16 24 -5 6 -23
45 -40 86 -18 41 -39 81 -48 88 -24 17 -54 16 -47 -3z M2280 2462 c0 -10 6
-27 14 -38 13 -17 15 -17 21 -2 7 18 -10 58 -25 58 -6 0 -10 -8 -10 -18z
M2755 2451 c-3 -5 -1 -12 5 -16 5 -3 10 -20 10 -37 0 -26 2 -29 15 -18 18 15
20 51 3 68 -14 14 -25 15 -33 3z M1200 2435 c-18 -22 -25 -102 -10 -120 20
-24 27 -9 22 43 -2 27 1 59 7 71 13 24 0 29 -19 6z M1255 2430 c-3 -5 3 -10
14 -10 11 0 24 -8 30 -17 8 -14 12 -15 22 -6 10 10 9 15 -1 28 -14 17 -56 20
-65 5z M3920 2432 c0 -6 7 -12 15 -16 8 -3 15 -12 15 -21 0 -8 5 -15 11 -15 6
0 9 12 7 28 -2 19 -9 28 -25 30 -13 2 -23 -1 -23 -6z M3149 2413 c-1 -5 -3
-26 -4 -48 l-3 -40 68 0 c38 0 73 5 79 10 7 7 -11 10 -54 10 -51 0 -64 3 -63
15 3 34 -3 60 -12 60 -5 0 -11 -3 -11 -7z M2536 2392 c-3 -5 3 -12 14 -15 13
-3 22 -17 26 -36 7 -32 38 -59 48 -42 10 16 -39 96 -61 99 -12 2 -24 -1 -27
-6z M2275 2381 c-3 -7 3 -11 15 -11 19 0 21 -4 15 -30 -7 -30 -6 -30 39 -30
25 0 46 5 46 10 0 6 -13 10 -29 10 -26 0 -30 3 -28 28 2 22 -2 28 -25 30 -14
2 -29 -2 -33 -7z M3877 2373 c-4 -3 -2 -12 4 -20 13 -15 69 -18 69 -3 0 6 -9
10 -19 10 -11 0 -23 5 -26 10 -7 12 -19 13 -28 3z M1290 2359 c-54 -15 -63
-19 -57 -25 3 -3 23 0 45 6 30 9 44 10 61 1 29 -16 50 -3 26 16 -21 15 -26 15
-75 2z M3765 2360 c-18 -29 45 -42 80 -17 16 13 15 14 -14 9 -17 -2 -37 1 -45
7 -10 8 -16 9 -21 1z M2057 2335 c-5 -10 3 -26 20 -43 25 -24 28 -25 31 -8 2
10 -7 29 -21 43 -21 21 -25 23 -30 8z M2447 2334 c-15 -15 -6 -24 23 -24 17 0
30 5 30 10 0 6 -4 10 -9 10 -5 0 -16 2 -23 5 -8 3 -17 2 -21 -1z M1272 2308
c-19 -19 -14 -56 8 -68 31 -17 45 -1 20 22 -13 13 -19 26 -15 39 7 22 4 24
-13 7z M1307 2304 c-3 -4 1 -13 9 -21 17 -18 29 -11 21 12 -7 16 -19 20 -30 9z
M3747 2303 c-3 -5 -13 -37 -22 -71 -15 -53 -16 -65 -5 -72 19 -11 33 -2 26 17
-5 13 1 49 20 116 5 17 -10 24 -19 10z M1317 2232 c-21 -23 -24 -126 -4 -119
8 3 11 20 9 47 -2 26 3 52 13 66 18 28 5 32 -18 6z M1370 2221 c0 -6 5 -11 10
-11 15 0 12 -28 -6 -55 -18 -28 -13 -55 11 -55 11 0 14 6 9 25 -4 17 -1 32 11
45 9 10 15 27 13 37 -3 19 -48 32 -48 14z M3775 2210 c-4 -7 2 -14 13 -17 12
-3 22 -14 24 -26 2 -11 9 -22 16 -25 10 -3 12 6 10 34 -3 34 -7 39 -30 42 -14
2 -29 -2 -33 -8z M1250 2200 c0 -5 5 -10 10 -10 6 0 10 5 10 10 0 6 -4 10 -10
10 -5 0 -10 -4 -10 -10z M3870 2191 c0 -6 5 -13 10 -16 6 -3 10 -17 10 -31 0
-17 6 -24 18 -24 15 0 18 6 14 33 -3 17 -10 35 -16 39 -16 11 -36 10 -36 -1z
M1210 2189 c0 -13 34 -105 43 -117 11 -14 54 -8 72 9 7 7 1 8 -16 4 -30 -7
-59 15 -59 46 0 11 -9 29 -20 41 -11 12 -20 19 -20 17z M3215 2180 c-8 -14 36
-60 57 -60 17 0 17 2 -3 30 -24 32 -45 44 -54 30z M2650 2150 c0 -32 9 -37 39
-18 10 6 26 8 36 5 15 -6 16 -16 10 -77 -6 -60 -5 -70 9 -70 11 0 16 9 16 28
1 15 3 51 5 80 5 61 -8 73 -56 55 -26 -10 -29 -9 -29 8 0 10 -7 19 -15 19 -10
0 -15 -10 -15 -30z M3034 2169 c-3 -6 -1 -16 5 -22 6 -6 11 -40 11 -76 1 -60
2 -64 15 -47 18 24 20 127 3 144 -15 15 -25 15 -34 1z M1989 2133 c-15 -40 6
-72 61 -93 38 -15 45 -22 43 -43 -2 -33 24 -26 33 9 8 30 -2 44 -29 44 -12 0
-37 9 -54 20 -35 21 -44 55 -21 78 9 9 8 12 -5 12 -10 0 -22 -12 -28 -27z
M2240 2148 c0 -6 7 -19 15 -28 19 -21 24 -132 6 -154 -8 -9 -12 -18 -10 -20 2
-2 37 -6 77 -8 54 -3 72 0 72 9 0 9 -18 13 -62 13 -48 0 -59 3 -50 12 7 7 12
40 12 78 0 51 -4 72 -19 88 -20 24 -41 29 -41 10z M2910 2146 c0 -8 7 -16 15
-19 8 -4 32 -42 54 -86 40 -78 56 -99 69 -87 12 12 -80 184 -105 195 -31 14
-33 14 -33 -3z M2047 2143 c-9 -9 33 -53 50 -53 19 0 16 13 -7 38 -22 23 -32
27 -43 15z M2810 2143 c0 -5 11 -13 25 -20 25 -11 42 -2 30 17 -7 12 -55 14
-55 3z M1415 2131 c-3 -5 3 -11 12 -13 13 -3 3 -13 -34 -37 -29 -18 -53 -35
-53 -37 0 -5 100 45 118 59 9 7 9 13 1 23 -13 16 -35 18 -44 5z M2350 2131 c0
-5 11 -11 25 -13 17 -4 25 -1 25 8 0 8 -11 14 -25 14 -14 0 -25 -4 -25 -9z
M2450 2123 c0 -9 10 -27 21 -39 l21 -23 -22 -35 c-19 -31 -19 -37 -6 -42 20
-8 43 6 27 16 -8 4 -5 14 9 32 25 33 25 54 0 68 -11 6 -20 17 -20 25 0 8 -7
15 -15 15 -8 0 -15 -8 -15 -17z M2550 2125 c-20 -24 -6 -28 15 -5 10 11 13 20
8 20 -6 0 -16 -7 -23 -15z M3741 2116 c-22 -27 1 -68 37 -64 23 2 27 8 27 33
0 22 -5 31 -20 33 -16 3 -18 1 -7 -9 16 -18 15 -39 -2 -39 -9 0 -16 12 -18 32
-3 28 -4 30 -17 14z M3644 2075 c-4 -10 -16 -27 -25 -36 -10 -10 -22 -31 -25
-45 -6 -22 -2 -32 19 -50 23 -19 32 -21 59 -13 42 11 39 12 36 -8 -2 -10 7
-22 21 -29 13 -7 27 -18 32 -26 6 -10 11 -10 20 -1 14 14 4 32 -27 43 -13 5
-23 15 -22 22 2 8 -11 13 -39 13 -23 1 -48 7 -57 14 -26 22 -20 66 12 89 21
16 24 23 15 33 -10 10 -14 9 -19 -6z M3165 2040 c4 -12 1 -27 -5 -35 -16 -20
-3 -40 16 -24 11 9 21 9 42 0 20 -8 36 -9 55 -2 34 13 34 20 0 21 -91 2 -93 3
-82 16 14 18 4 44 -16 44 -12 0 -15 -6 -10 -20z M1408 2028 c-27 -11 -48 -24
-48 -29 0 -4 19 1 43 11 57 27 82 26 83 -2 0 -13 4 -30 8 -38 5 -12 -5 -22
-34 -39 -23 -13 -39 -25 -36 -28 6 -6 92 42 100 56 3 5 -2 27 -12 50 -20 47
-33 50 -104 19z M2350 2040 c20 -13 40 -13 40 0 0 6 -12 10 -27 10 -22 0 -25
-2 -13 -10z M1286 2031 c-5 -7 11 -46 32 -80 1 -3 8 1 14 7 9 9 7 20 -8 47
-19 36 -28 42 -38 26z M2540 2032 c0 -12 44 -52 58 -52 21 0 13 27 -13 44 -27
17 -45 21 -45 8z M3666 2033 c-3 -3 -3 -10 0 -14 7 -12 34 -11 34 0 0 11 -26
22 -34 14z M2005 2014 c-4 -10 -11 -29 -16 -42 -5 -13 -9 -24 -9 -26 0 -7 102
-15 117 -9 15 6 14 7 -3 14 -10 4 -34 8 -51 8 -31 1 -32 2 -21 26 9 19 9 28 0
37 -8 8 -13 7 -17 -8z M3690 2000 c-8 -5 -12 -11 -9 -14 3 -3 14 1 25 9 21 16
8 20 -16 5z M3764 1989 c-6 -11 19 -39 35 -39 6 0 11 8 11 19 0 20 -36 36 -46
20z M2705 1980 c-16 -26 35 -39 92 -24 35 9 17 23 -21 17 -19 -3 -36 -1 -40 6
-9 14 -23 14 -31 1z M1525 1910 c-3 -5 3 -10 14 -10 12 0 21 5 21 10 0 6 -6
10 -14 10 -8 0 -18 -4 -21 -10z M3578 1899 c-19 -11 -24 -29 -8 -29 5 0 14 9
20 20 12 23 12 23 -12 9z M1360 1895 c0 -12 30 -62 43 -74 26 -21 30 7 7 44
-18 29 -50 48 -50 30z M1557 1883 c-4 -3 -7 -12 -7 -19 0 -8 -16 -46 -35 -85
-19 -40 -35 -81 -35 -92 0 -18 5 -19 59 -14 32 2 71 12 87 21 27 16 27 17 4
11 -14 -3 -46 -8 -72 -12 -60 -7 -61 1 -13 97 19 38 35 76 35 85 0 16 -12 20
-23 8z M3627 1873 c-4 -3 2 -13 14 -21 17 -12 20 -23 17 -59 -2 -35 1 -48 14
-56 20 -13 36 -1 20 15 -7 7 -9 28 -5 53 5 36 2 44 -18 59 -26 18 -32 19 -42
9z M3512 1853 c4 -21 49 -29 75 -14 16 9 14 10 -9 11 -15 0 -30 5 -33 10 -11
17 -37 11 -33 -7z M1600 1820 c0 -5 4 -10 9 -10 6 0 13 5 16 10 3 6 -1 10 -9
10 -9 0 -16 -4 -16 -10z M1640 1784 c0 -14 3 -14 15 -4 8 7 15 14 15 16 0 2
-7 4 -15 4 -8 0 -15 -7 -15 -16z M3467 1782 c-45 -49 13 -152 85 -152 15 0 30
5 33 10 4 6 -5 10 -20 10 -57 0 -110 101 -73 138 7 7 8 12 2 12 -6 0 -18 -8
-27 -18z M1825 1780 c4 -7 268 -10 758 -10 l752 -1 -35 -31 c-86 -75 -243
-163 -383 -213 -42 -15 -75 -30 -73 -33 8 -8 181 58 263 100 82 41 172 103
238 162 l40 35 -783 1 c-520 0 -781 -3 -777 -10z M1573 1758 c4 -14 0 -26 -11
-34 -9 -8 -12 -14 -6 -14 7 0 22 8 35 19 20 16 21 21 10 35 -19 23 -34 20 -28
-6z M3510 1774 c0 -3 13 -16 29 -30 17 -14 33 -34 36 -44 9 -27 25 -25 25 2 0
27 -47 78 -72 78 -10 0 -18 -3 -18 -6z M2637 1753 c-16 -15 -6 -67 18 -95 29
-35 31 -54 8 -80 -9 -10 -11 -18 -5 -18 17 0 52 41 52 61 0 10 -11 31 -25 47
-15 18 -25 42 -25 61 0 30 -9 39 -23 24z M1690 1740 c-12 -8 -11 -10 8 -10 12
0 22 5 22 10 0 13 -11 13 -30 0z M2430 1713 c0 -26 8 -45 26 -64 33 -34 27
-66 -15 -94 -42 -27 -24 -41 34 -25 25 7 48 17 52 23 4 6 0 8 -11 4 -10 -4
-30 -10 -44 -14 l-27 -6 33 30 c39 37 40 62 7 101 -14 17 -25 42 -25 56 0 16
-6 26 -15 26 -11 0 -15 -11 -15 -37z M2270 1732 c0 -4 4 -12 9 -17 5 -6 11
-35 15 -65 4 -43 2 -61 -10 -79 -14 -19 -14 -25 -3 -32 8 -5 27 -7 43 -4 16 3
35 5 43 5 33 0 -1 20 -35 21 -20 0 -31 3 -24 6 16 6 17 144 0 161 -14 14 -38
16 -38 4z M2827 1722 c-9 -10 -22 -32 -28 -50 -23 -66 52 -146 115 -123 41 16
39 30 -3 24 -69 -9 -107 58 -73 128 21 42 16 51 -11 21z M2490 1720 c0 -12 17
-12 45 0 17 7 15 9 -12 9 -18 1 -33 -3 -33 -9z M2690 1720 c0 -13 30 -13 50 0
11 7 7 10 -17 10 -18 0 -33 -4 -33 -10z M1711 1696 c-10 -11 -8 -23 8 -54 12
-24 18 -48 14 -63 -6 -21 -5 -23 10 -10 21 17 22 53 2 92 -9 16 -13 34 -10 39
10 15 -11 12 -24 -4z M2880 1705 c0 -4 7 -13 16 -22 11 -12 14 -26 9 -56 -6
-31 -4 -38 6 -35 10 3 14 22 14 59 0 48 -2 54 -22 57 -13 2 -23 1 -23 -3z
M3345 1664 c-52 -37 -62 -56 -32 -62 12 -3 17 1 15 12 -2 9 15 32 37 51 52 44
43 44 -20 -1z M3372 1641 c-10 -6 -4 -18 25 -51 21 -23 38 -51 38 -61 0 -10 4
-19 8 -19 4 0 11 0 16 0 19 0 0 52 -34 95 -21 25 -38 45 -39 45 0 0 -7 -4 -14
-9z M1824 1613 c-11 -38 -40 -87 -67 -116 -33 -35 -30 -50 12 -68 18 -8 29
-19 26 -27 -2 -7 3 -15 13 -18 9 -3 24 -10 32 -15 19 -11 118 -58 127 -59 4
-1 9 3 11 9 2 6 -21 21 -51 35 -30 13 -58 29 -61 35 -4 6 -16 11 -27 11 -11 0
-18 4 -15 8 3 4 -11 21 -30 37 -34 28 -34 29 -15 49 29 32 71 104 71 121 0 21
-19 19 -26 -2z M3198 1565 c-27 -20 -48 -40 -48 -45 0 -6 15 -10 34 -10 35 0
66 -23 46 -35 -12 -8 -13 -25 0 -45 7 -11 12 -12 21 -3 14 14 39 6 39 -13 0
-8 -7 -17 -15 -20 -8 -4 -15 -15 -15 -25 0 -10 7 -19 15 -19 8 0 15 8 15 19 0
10 7 24 15 31 31 25 4 63 -36 53 -21 -6 -24 4 -10 26 6 9 4 22 -5 36 -11 16
-22 21 -47 18 -32 -4 -32 -4 -11 14 11 10 31 26 45 35 13 9 20 17 14 17 -5 0
-31 -15 -57 -34z M1611 1566 c-8 -9 -11 -19 -7 -23 11 -12 101 -40 114 -36 18
7 15 23 -6 23 -10 0 -28 7 -40 16 -12 8 -26 13 -31 9 -5 -3 -11 2 -13 11 -3
16 -4 16 -17 0z M1890 1564 c0 -8 5 -12 10 -9 6 3 10 10 10 16 0 5 -4 9 -10 9
-5 0 -10 -7 -10 -16z M1927 1564 c-3 -4 -2 -15 4 -25 7 -14 2 -31 -21 -72 -16
-30 -30 -57 -30 -62 0 -19 44 34 66 80 23 48 24 50 6 67 -10 10 -21 16 -25 12z
M2715 1560 c-4 -7 -25 -10 -48 -8 -28 2 -42 -1 -45 -11 -4 -11 5 -13 43 -9 45
6 75 21 63 33 -3 4 -9 1 -13 -5z M2010 1500 c0 -5 5 -10 10 -10 6 0 10 5 10
10 0 6 -4 10 -10 10 -5 0 -10 -4 -10 -10z M2044 1457 c3 -23 8 -77 12 -120 5
-66 8 -78 22 -74 10 2 15 10 14 18 -3 11 -21 176 -22 200 0 4 -7 10 -16 13
-13 5 -14 -1 -10 -37z M3124 1466 c-12 -32 0 -61 29 -64 32 -4 37 13 6 21 -17
5 -20 11 -15 31 7 27 -10 37 -20 12z M3167 1451 c3 -12 12 -21 20 -21 20 0 12
34 -9 38 -12 2 -15 -2 -11 -17z M2160 1434 c0 -22 2 -25 15 -14 8 7 15 19 15
26 0 8 -7 14 -15 14 -10 0 -15 -10 -15 -26z M2944 1424 c4 -15 2 -32 -5 -40
-17 -21 1 -34 31 -21 21 8 22 11 7 14 -14 4 -16 8 -7 18 15 18 3 55 -17 55
-11 0 -14 -6 -9 -26z M3010 1442 c0 -5 11 -13 25 -16 18 -5 27 -15 32 -37 3
-16 11 -28 17 -26 16 5 19 40 4 59 -15 20 -78 36 -78 20z M2242 1329 c-12
-102 -11 -119 11 -119 8 0 13 25 15 73 2 39 5 87 5 106 1 19 -3 36 -9 38 -6 2
-15 -35 -22 -98z M2862 1421 c-19 -11 -24 -91 -6 -84 8 3 15 8 15 12 2 8 6 81
5 81 -1 0 -7 -4 -14 -9z M2117 1403 c-4 -3 -2 -12 5 -20 8 -10 8 -17 0 -25
-14 -14 -16 -48 -3 -48 13 0 34 67 27 85 -6 16 -18 19 -29 8z M2436 1390 c-11
-29 -11 -113 0 -117 14 -5 27 94 14 116 -7 14 -9 14 -14 1z M2730 1385 c0 -24
27 -72 45 -78 9 -4 15 -19 15 -40 0 -53 48 -84 90 -57 12 8 9 10 -12 10 -33 0
-63 39 -53 69 4 13 -1 24 -13 33 -11 7 -27 28 -36 46 -17 34 -36 43 -36 17z
M2632 1368 c5 -32 28 -35 28 -4 0 17 -5 26 -16 26 -10 0 -14 -7 -12 -22z
M2343 1358 c-27 -30 -46 -68 -34 -68 5 0 23 20 40 45 32 48 29 60 -6 23z
M2500 1372 c0 -4 4 -12 8 -17 5 -6 23 -45 42 -87 33 -78 52 -104 68 -94 13 8
-86 206 -103 206 -8 0 -15 -4 -15 -8z M2967 1333 c-13 -12 -7 -48 12 -72 24
-31 33 -14 17 32 -14 42 -20 50 -29 40z M2615 1300 c-3 -5 -2 -10 4 -10 5 0
11 -11 13 -25 5 -40 22 -34 25 8 3 31 0 37 -16 37 -11 0 -23 -4 -26 -10z
M2847 1303 c-4 -3 2 -12 13 -20 11 -8 20 -22 20 -31 1 -15 3 -14 16 3 14 18
13 22 -7 38 -23 18 -32 21 -42 10z M2350 1290 c0 -24 51 -110 65 -110 20 0 19
0 -12 65 -24 49 -53 73 -53 45z"/>
</g>
</svg>
