<?xml version="1.0" standalone="no"?>
<!DOCTYPE svg PUBLIC "-//W3C//DTD SVG 20010904//EN"
 "http://www.w3.org/TR/2001/REC-SVG-20010904/DTD/svg10.dtd">
<svg version="1.0" xmlns="http://www.w3.org/2000/svg"
 width="820.000000pt" height="750.000000pt" viewBox="0 0 820.000000 750.000000"
 preserveAspectRatio="xMidYMid meet">
<metadata>
Created by potrace 1.16, written by Peter Selinger 2001-2019
</metadata>
<g transform="translate(0.000000,750.000000) scale(0.100000,-0.100000)"
fill="#000000" stroke="none">
<path d="M1192 7312 l4 -117 493 -615 c272 -338 662 -824 867 -1080 205 -256
618 -771 918 -1144 459 -572 543 -682 533 -695 -10 -14 -1661 -1981 -1952
-2326 -55 -66 -244 -291 -420 -500 -175 -209 -354 -422 -397 -473 l-78 -92 0
-107 0 -106 663 6 c364 4 1391 9 2282 12 891 4 1676 8 1745 10 69 2 287 4 485
4 l360 1 18 188 c34 349 99 757 227 1435 44 232 80 426 80 433 0 13 -74 40
-141 50 l-36 6 -93 -218 c-99 -236 -175 -389 -242 -487 -181 -269 -410 -430
-718 -505 -240 -59 -152 -56 -1899 -59 -1307 -3 -1602 -1 -1594 9 17 22 464
563 998 1208 782 945 883 1066 1228 1483 385 465 362 434 349 450 -5 6 -531
665 -1169 1463 l-1160 1451 896 9 c1638 16 1679 15 1966 -42 434 -85 737 -300
900 -638 71 -148 143 -413 167 -615 l12 -101 98 0 c54 0 98 2 98 3 0 10 -140
1701 -145 1755 l-7 62 -2670 0 -2670 0 4 -118z"/>
</g>
</svg>
