<?xml version="1.0" standalone="no"?>
<!DOCTYPE svg PUBLIC "-//W3C//DTD SVG 20010904//EN"
 "http://www.w3.org/TR/2001/REC-SVG-20010904/DTD/svg10.dtd">
<svg version="1.0" xmlns="http://www.w3.org/2000/svg"
 width="676.000000pt" height="963.000000pt" viewBox="0 0 676.000000 963.000000"
 preserveAspectRatio="xMidYMid meet">
<metadata>
Created by potrace 1.16, written by Peter Selinger 2001-2019
</metadata>
<g transform="translate(0.000000,963.000000) scale(0.100000,-0.100000)"
fill="#000000" stroke="none">
<path d="M803 8919 l-693 -660 0 -1747 0 -1747 582 -582 583 -583 543 0 c360
0 541 -3 537 -10 -3 -5 1 -10 9 -10 9 0 16 -4 16 -9 0 -31 160 -9 187 26 17
22 43 9 43 -21 0 -31 -56 -63 -125 -73 -25 -3 -45 -9 -45 -13 0 -5 -19 -11
-42 -15 -129 -19 -127 -18 -263 -156 l-127 -129 -924 0 -924 0 0 -948 0 -947
598 -598 597 -597 1935 0 1935 0 567 567 568 568 0 1810 0 1810 -528 537 -527
538 -584 0 -584 0 -139 137 c-123 123 -138 141 -138 171 0 19 -7 61 -16 94
-22 87 -17 112 24 116 46 5 122 -56 122 -98 0 -26 3 -28 57 -35 32 -4 76 -16
98 -27 33 -18 52 -20 124 -15 81 5 87 4 151 -29 91 -46 131 -51 205 -23 52 19
120 59 101 59 -4 0 -2 9 4 20 11 20 21 20 820 20 l810 0 0 973 0 972 -658 658
-657 657 -1775 0 -1775 -1 -692 -660z m2540 629 c10 -7 28 -40 42 -73 l24 -60
778 -3 778 -2 613 -613 612 -612 -2 -850 -3 -850 -798 -3 -799 -2 56 -62 c64
-71 69 -95 26 -132 -61 -51 -139 -47 -260 14 l-79 40 -43 -16 c-84 -30 -147
-11 -311 97 -114 75 -190 98 -204 63 -3 -8 6 -55 21 -102 14 -48 26 -101 26
-118 0 -17 11 -45 25 -64 42 -56 266 -290 278 -290 31 0 174 -81 192 -109 l20
-31 456 0 457 0 394 -412 c216 -227 428 -450 471 -494 l77 -81 0 -1735 0
-1735 -534 -527 -534 -526 -1834 0 -1835 0 -215 207 c-118 115 -375 363 -571
552 l-357 344 0 829 0 828 825 0 826 0 17 31 c68 123 254 339 312 361 14 5 65
19 115 29 144 32 210 68 235 129 8 20 9 34 1 48 -18 33 -45 35 -100 7 -64 -32
-128 -33 -166 -3 -26 20 -27 25 -21 75 l6 53 -497 0 -498 0 -542 543 -543 542
0 1681 0 1680 163 156 c89 85 373 358 631 606 l469 452 829 0 828 0 0 38 c0
53 49 112 94 112 18 0 40 -6 49 -12z M3267 9492 c-10 -11 -17 -35 -17 -59 0
-54 -17 -98 -84 -217 -66 -119 -76 -168 -51 -242 17 -51 17 -54 -1 -86 -28
-48 -91 -75 -219 -94 -108 -16 -125 -23 -125 -55 0 -31 26 -49 98 -64 86 -18
117 -36 131 -77 27 -77 6 -117 -77 -148 -114 -43 -156 -86 -125 -130 25 -36
11 -89 -47 -175 -28 -42 -58 -93 -67 -113 -14 -33 -14 -37 4 -49 23 -18 56 -9
111 28 84 57 101 62 146 49 60 -17 111 -54 129 -93 9 -19 23 -77 31 -130 9
-57 25 -120 41 -152 31 -67 36 -152 10 -191 -19 -29 -44 -42 -54 -27 -10 15
-51 23 -76 13 -14 -5 -33 -31 -50 -67 -42 -88 -48 -93 -125 -93 -54 0 -70 -4
-85 -19 -17 -20 -17 -20 -53 0 -20 10 -54 19 -76 19 -42 0 -66 -21 -166 -139
-38 -44 -54 -55 -99 -67 -92 -23 -157 -91 -168 -174 -8 -58 17 -63 64 -15 77
79 173 95 358 60 50 -10 125 -18 168 -19 68 -2 82 -5 111 -28 42 -33 76 -102
76 -152 0 -57 -26 -101 -98 -164 -66 -58 -93 -85 -170 -172 -51 -57 -134 -100
-305 -159 -198 -68 -278 -124 -332 -235 -22 -46 -30 -77 -33 -140 -4 -73 -2
-84 19 -110 l22 -28 18 33 c9 19 26 42 38 53 21 19 40 19 173 0 61 -8 89 9
123 76 40 78 133 125 228 114 231 -26 295 -23 349 16 36 26 38 26 38 -15 0
-22 -18 -69 -51 -132 -51 -95 -52 -99 -50 -178 2 -115 -9 -140 -77 -174 -32
-16 -97 -43 -147 -61 -157 -57 -215 -93 -266 -163 -39 -54 -37 -64 8 -30 l37
28 175 0 c97 0 183 2 191 5 12 4 16 -7 18 -59 6 -118 -64 -212 -195 -261 -30
-11 -122 -34 -205 -50 -83 -16 -158 -36 -167 -42 -9 -7 -49 -42 -89 -76 -85
-74 -140 -101 -198 -102 -45 0 -61 -21 -42 -54 14 -24 134 -22 225 5 85 25 95
22 159 -56 30 -37 38 -56 42 -99 4 -45 1 -56 -22 -83 -27 -32 -66 -45 -176
-59 -75 -9 -125 -30 -155 -66 -32 -37 -31 -53 2 -101 35 -50 69 -67 138 -67
63 0 106 18 200 85 102 72 141 88 205 83 37 -3 67 -12 87 -26 l31 -22 61 19
c33 10 95 42 137 70 42 28 80 51 84 51 13 0 33 -89 26 -121 -9 -48 -40 -84
-129 -151 -45 -33 -95 -73 -111 -87 -32 -29 -76 -114 -76 -147 0 -19 -18 -28
-117 -65 -90 -33 -125 -51 -154 -80 -38 -38 -58 -92 -45 -124 9 -23 70 -18
126 10 67 34 86 32 131 -14 43 -43 47 -65 23 -117 -38 -79 -112 -118 -307
-160 -78 -16 -78 -16 -159 -100 -184 -189 -258 -336 -258 -507 0 -90 33 -199
61 -205 10 -2 24 25 43 80 60 170 119 262 205 317 63 40 97 40 147 -2 80 -68
112 -73 144 -22 37 60 66 69 207 61 l123 -7 48 48 c26 26 76 95 112 152 73
118 86 130 127 116 34 -12 56 -54 83 -159 43 -170 48 -400 13 -646 -8 -58 -18
-168 -23 -245 -16 -243 -50 -375 -151 -580 -81 -166 -171 -287 -329 -446 -180
-181 -301 -270 -573 -423 -26 -15 -45 -32 -41 -38 8 -13 116 -4 304 27 189 32
259 34 340 11 75 -21 202 -18 350 9 129 24 271 22 348 -5 56 -20 71 -21 120
-12 117 23 183 24 392 7 221 -18 368 -16 453 5 62 16 53 27 -76 91 -302 150
-554 405 -711 717 -82 164 -136 345 -155 522 -16 149 -35 904 -29 1163 6 255
10 271 68 321 43 36 72 41 114 21 50 -24 112 -97 121 -142 10 -53 60 -147 91
-172 36 -29 81 -26 129 6 60 40 115 38 190 -9 33 -21 89 -52 123 -69 59 -29
69 -31 131 -25 60 5 70 3 86 -14 22 -25 75 -40 137 -40 45 0 50 -3 78 -42 17
-22 34 -57 40 -77 27 -99 96 -153 202 -159 117 -7 127 25 38 124 -71 78 -138
184 -176 276 -27 66 -29 68 -83 88 -31 11 -74 27 -97 35 -52 20 -119 77 -132
113 -17 48 6 89 83 151 79 65 101 96 92 133 -6 24 -12 25 -89 31 -46 4 -162 7
-259 7 -145 0 -179 -3 -189 -15 -10 -12 -16 -13 -26 -4 -8 6 -11 16 -8 21 4 5
-13 29 -36 53 -41 41 -43 47 -44 107 -1 56 -9 79 -64 194 -69 144 -79 203 -49
277 14 32 20 37 50 37 24 0 41 -8 62 -30 61 -64 135 -62 216 6 52 43 81 41
143 -9 72 -58 167 -85 201 -57 12 10 14 24 10 59 -6 40 -1 57 36 131 48 97 55
155 25 189 -23 25 -77 28 -129 6 -52 -22 -96 -19 -157 11 -29 14 -130 46 -224
70 -94 24 -200 58 -236 76 -149 73 -241 233 -179 312 21 27 26 28 83 24 67 -6
122 -30 201 -87 74 -54 112 -51 208 17 91 63 119 70 171 43 22 -12 41 -20 42
-18 1 1 -2 11 -6 23 -5 12 -32 33 -61 49 -30 15 -94 57 -144 93 -129 92 -162
106 -270 107 -80 1 -96 5 -138 29 -159 94 -266 266 -211 344 35 50 118 16 243
-101 103 -96 159 -121 273 -122 56 0 70 4 92 24 35 33 20 53 -75 101 -109 55
-208 139 -320 270 -89 102 -99 119 -99 153 0 22 -12 77 -26 124 -24 74 -25 89
-15 124 13 45 38 55 103 45 51 -8 81 -24 198 -102 120 -79 174 -95 250 -70
l52 17 97 -46 c107 -50 163 -57 200 -27 l22 17 -30 40 c-16 22 -71 74 -123
115 -51 41 -123 98 -160 128 -79 63 -132 131 -160 205 -36 95 -71 119 -206
141 -132 21 -241 85 -282 167 -26 50 -25 74 2 93 30 22 56 20 99 -7 123 -75
147 -87 174 -86 18 0 43 11 65 29 53 46 105 42 205 -17 95 -55 164 -68 203
-36 58 46 -24 142 -200 234 -90 47 -138 79 -179 120 -61 61 -50 57 -280 108
-151 34 -233 101 -246 200 -5 34 -1 47 21 76 38 49 82 59 209 46 138 -14 193
-1 227 54 29 47 26 94 -8 135 l-29 33 -61 -13 c-149 -31 -342 41 -342 128 0
63 71 109 155 100 23 -3 79 -24 124 -47 90 -46 109 -44 132 12 16 37 -3 63
-97 135 -111 85 -114 113 -20 152 l55 22 -19 38 c-31 61 -74 86 -228 135 -126
41 -148 51 -187 89 -72 68 -61 123 42 215 52 47 56 53 47 78 -6 18 -29 37 -71
60 -73 40 -93 69 -123 178 -12 44 -26 88 -31 98 -12 22 -42 22 -62 -1z M1022
8693 l-581 -558 0 -1620 -1 -1620 493 -493 492 -492 575 1 c661 0 652 -1 680
76 27 73 75 129 175 204 98 73 135 116 135 156 0 21 -3 20 -62 -18 -34 -22
-94 -49 -132 -61 l-70 -21 -47 26 c-82 47 -121 38 -259 -58 -99 -69 -139 -85
-217 -85 -84 0 -125 20 -174 85 -44 59 -49 93 -20 141 41 67 97 94 241 114 41
6 85 17 97 26 33 21 30 71 -5 120 -48 66 -52 68 -121 44 -42 -14 -86 -20 -145
-20 -75 0 -88 3 -112 23 -22 20 -27 32 -27 70 0 62 14 77 76 77 68 0 114 24
217 115 l85 74 95 16 c251 43 345 81 398 159 19 30 32 61 32 81 l0 32 -150 7
c-164 7 -193 1 -226 -49 -22 -33 -51 -41 -75 -19 -26 23 -24 50 6 111 49 98
131 154 335 229 l105 39 -287 3 -288 2 0 105 c0 102 -1 105 -24 111 -46 11
-70 1 -91 -40 -28 -54 -48 -65 -82 -46 -62 36 -88 112 -72 215 19 123 103 243
215 306 l54 31 0 275 c0 261 -1 274 -18 269 -11 -4 -33 3 -53 17 -61 41 -50
128 26 222 l45 55 0 195 0 195 364 0 c218 0 375 4 391 10 16 6 41 7 65 1 l40
-9 0 48 c0 29 -9 68 -25 101 -13 30 -31 97 -39 150 -21 140 -37 164 -132 193
-15 4 -40 -7 -89 -39 -84 -55 -123 -64 -166 -39 -18 11 -37 26 -42 36 -17 26
6 83 73 188 33 51 60 101 60 111 0 10 -7 30 -16 46 -16 27 -16 31 1 66 21 46
53 69 142 105 68 28 68 28 67 66 -1 20 -6 42 -11 47 -5 5 -43 16 -84 25 -117
23 -154 65 -130 145 15 48 27 55 131 69 120 15 187 36 205 63 13 20 12 28 -1
67 -22 62 -13 136 25 212 17 34 31 63 31 65 0 1 -341 3 -759 3 l-758 0 -581
-557z M3575 9215 c19 -20 35 -42 35 -50 0 -7 3 -20 6 -29 4 -11 -17 -39 -70
-89 -83 -80 -94 -107 -53 -144 34 -32 79 -51 190 -84 153 -46 216 -90 253
-178 20 -48 7 -74 -50 -97 -25 -11 -46 -22 -46 -26 0 -4 30 -31 68 -61 96 -78
107 -92 107 -143 0 -37 -6 -49 -40 -84 -21 -22 -46 -40 -55 -40 -9 0 -58 20
-109 45 -95 46 -138 54 -181 32 -42 -21 -34 -58 21 -85 77 -38 146 -48 229
-32 86 16 108 8 154 -57 39 -57 39 -118 0 -175 -16 -22 -38 -47 -49 -54 -38
-25 -117 -34 -216 -23 -111 11 -155 5 -175 -27 -22 -33 -9 -79 35 -123 42 -42
108 -66 285 -102 76 -15 116 -29 136 -46 26 -21 37 -23 144 -23 l116 0 0 -79
0 -79 43 -25 c87 -51 157 -147 157 -215 0 -26 -7 -35 -45 -58 -37 -21 -55 -25
-100 -22 l-55 3 0 -172 0 -171 39 -31 39 -31 818 0 819 0 3 743 2 744 -562
561 -563 562 -683 0 -683 0 36 -35z M2421 7283 l0 -88 32 40 c17 22 53 61 79
88 l48 47 -80 0 -80 0 1 -87z M2714 7355 c13 -10 24 -11 37 -4 28 14 23 19
-18 19 -35 -1 -37 -2 -19 -15z M3720 7183 c0 -21 43 -74 82 -101 68 -46 83
-52 188 -72 54 -10 112 -26 129 -35 l31 -16 0 90 c0 82 -2 89 -21 94 -27 7
-59 -5 -83 -32 -24 -27 -78 -37 -125 -22 -21 6 -69 31 -106 56 -65 43 -95 54
-95 38z M2420 6655 c0 -168 2 -305 3 -305 2 0 30 9 61 20 87 30 162 76 203
127 47 57 86 95 153 153 87 73 110 133 76 198 -27 53 -51 65 -129 68 -39 1
-125 12 -190 23 -66 12 -132 21 -148 21 l-29 0 0 -305z m269 230 c26 -9 58
-12 84 -9 37 5 48 2 75 -21 49 -41 37 -108 -28 -155 -16 -12 -30 -27 -30 -33
0 -7 -22 -30 -49 -52 -26 -22 -63 -61 -82 -87 -19 -26 -44 -51 -56 -57 l-23
-11 0 220 0 220 34 0 c18 0 52 -7 75 -15z M2530 5978 c-19 -13 -44 -43 -57
-67 -13 -25 -30 -52 -38 -61 -8 -9 -15 -31 -15 -48 l0 -32 240 0 240 0 0 33
c0 17 18 68 40 112 22 44 40 80 40 81 0 1 -21 -2 -46 -7 -28 -5 -82 -5 -133 1
-150 17 -233 13 -271 -12z m154 -8 c14 -5 64 -10 110 -11 46 -1 90 -5 97 -10
8 -5 -53 -9 -148 -9 -156 0 -163 1 -163 20 0 17 7 20 39 20 22 0 51 -4 65 -10z
M3690 5871 c0 -17 9 -46 21 -65 l21 -36 76 0 76 0 -49 50 c-48 49 -98 80 -129
80 -11 0 -16 -9 -16 -29z M4115 5596 c58 -18 90 -36 190 -109 50 -35 113 -76
140 -90 62 -31 81 -52 89 -99 5 -30 3 -41 -14 -58 -26 -26 -32 -25 -80 6 -47
31 -61 28 -142 -32 -109 -80 -165 -82 -268 -9 -76 54 -135 78 -181 73 -32 -3
-34 -5 -33 -40 2 -81 90 -175 204 -219 30 -11 123 -38 205 -59 83 -21 177 -50
210 -65 63 -28 74 -28 170 -1 83 22 145 -10 166 -87 13 -50 6 -82 -42 -181
-34 -69 -39 -87 -33 -123 8 -53 -12 -88 -63 -109 -31 -13 -41 -13 -86 1 -62
19 -102 40 -152 79 -25 20 -41 27 -49 20 -54 -40 -115 -75 -144 -80 -46 -9
-105 10 -147 47 -19 17 -39 28 -45 24 -5 -3 -10 -32 -10 -64 0 -51 7 -73 54
-167 56 -111 75 -171 76 -234 0 -23 10 -45 27 -65 l26 -30 273 -5 c259 -5 275
-6 294 -26 11 -11 23 -36 26 -55 10 -57 -16 -101 -100 -170 -62 -50 -76 -67
-76 -90 0 -41 51 -77 167 -120 l98 -35 60 -120 c69 -138 87 -165 167 -252 70
-76 77 -115 29 -163 -27 -27 -35 -29 -103 -29 -60 0 -84 5 -126 26 -65 32
-118 93 -137 158 -23 78 -39 96 -84 96 -45 0 -126 23 -149 43 -11 9 -32 12
-59 9 l-43 -4 0 -549 0 -549 -420 0 c-349 0 -420 -2 -420 -14 0 -26 50 -212
77 -281 139 -369 407 -664 770 -849 95 -49 143 -85 143 -109 0 -74 -208 -101
-565 -72 -206 16 -253 16 -387 -7 -61 -10 -72 -9 -127 12 -77 29 -185 29 -371
1 -164 -25 -256 -26 -335 -5 -76 21 -143 19 -324 -11 -79 -14 -183 -27 -231
-31 -81 -6 -89 -5 -109 15 -46 46 -21 83 96 146 409 217 749 574 892 937 30
76 71 222 71 252 0 14 -43 16 -415 16 l-415 0 0 390 0 390 -59 0 c-56 0 -62
-2 -84 -32 -35 -46 -52 -83 -92 -195 -38 -106 -60 -133 -100 -126 -33 7 -75
57 -75 91 -1 15 -7 38 -15 52 -9 17 -14 56 -15 118 l0 92 -720 0 -720 0 0
-721 0 -721 157 -153 c87 -83 322 -310 523 -503 l365 -352 1775 0 1775 1 481
472 482 472 1 1684 1 1684 -153 156 c-84 86 -275 283 -426 439 l-273 282 -552
-1 c-459 0 -544 -2 -511 -13z M3591 3594 c-17 -14 -35 -42 -41 -65 -12 -42 -7
-932 6 -1162 l7 -127 348 0 349 0 0 504 0 504 -57 37 c-83 51 -95 52 -164 16
-72 -38 -122 -40 -170 -8 -46 31 -92 104 -118 187 -17 52 -31 77 -61 104 -48
43 -59 44 -99 10z m85 -53 c-3 -4 4 -15 15 -24 10 -9 19 -26 19 -38 0 -33 32
-119 60 -164 17 -27 43 -49 80 -68 48 -25 64 -28 122 -25 52 3 71 8 81 22 9
12 20 17 31 13 14 -6 16 -46 16 -432 l0 -425 -260 0 -260 0 0 519 c0 616 5
662 71 639 16 -5 27 -13 25 -17z M3095 3178 c-60 -97 -129 -180 -177 -211 -22
-15 -39 -18 -80 -13 -83 8 -194 9 -207 2 -7 -4 -23 -25 -36 -45 -16 -26 -33
-40 -54 -44 l-31 -6 0 -311 0 -310 345 0 345 0 0 43 c0 23 10 114 21 202 30
223 30 484 1 610 -25 110 -45 168 -59 172 -6 2 -37 -38 -68 -89z m88 -86 c19
-98 24 -362 8 -467 -5 -33 -12 -99 -16 -147 l-7 -88 -254 0 -255 0 3 267 3
267 89 -3 c49 -1 100 -7 113 -12 14 -5 35 -6 49 -3 23 6 148 147 206 233 15
23 31 41 35 41 5 0 16 -40 26 -88z M225 8496 c-55 -52 -98 -96 -95 -99 3 -3
51 39 107 94 56 54 99 99 95 99 -4 0 -52 -43 -107 -94z"/>
</g>
</svg>
