<?xml version="1.0" standalone="no"?>
<!DOCTYPE svg PUBLIC "-//W3C//DTD SVG 20010904//EN"
 "http://www.w3.org/TR/2001/REC-SVG-20010904/DTD/svg10.dtd">
<svg version="1.0" xmlns="http://www.w3.org/2000/svg"
 width="1200.000000pt" height="630.000000pt" viewBox="0 0 1200.000000 630.000000"
 preserveAspectRatio="xMidYMid meet">
<metadata>
Created by potrace 1.16, written by Peter Selinger 2001-2019
</metadata>
<g transform="translate(0.000000,630.000000) scale(0.100000,-0.100000)"
fill="#000000" stroke="none">
<path d="M0 3150 l0 -3150 6000 0 6000 0 0 3150 0 3150 -6000 0 -6000 0 0
-3150z m4714 620 c74 -28 116 -76 116 -132 0 -68 -47 -100 -85 -58 -14 15 -16
29 -11 59 5 36 3 42 -19 57 -15 9 -47 19 -73 21 -90 8 -154 -64 -132 -147 14
-52 42 -83 155 -175 56 -46 107 -97 127 -128 31 -48 33 -57 33 -137 0 -81 -2
-88 -37 -142 -45 -69 -101 -107 -183 -125 -168 -35 -355 67 -355 193 0 55 23
84 65 84 24 0 38 -6 45 -19 14 -26 13 -67 -2 -92 -12 -18 -9 -24 23 -53 66
-61 175 -57 239 8 27 29 34 45 38 89 6 76 -19 120 -110 192 -163 129 -198 181
-198 288 0 54 5 70 30 109 73 110 210 154 334 108z m1283 -37 c-4 -27 -22
-138 -41 -248 -19 -110 -32 -202 -30 -205 3 -2 21 5 41 15 23 13 56 20 91 20
47 0 57 -4 78 -28 13 -15 24 -39 24 -52 0 -39 14 -37 61 12 75 78 132 91 181
43 16 -16 31 -30 33 -30 2 0 20 11 40 24 40 27 110 42 146 31 12 -4 32 -18 45
-32 l23 -25 44 26 c95 56 186 40 209 -35 8 -29 7 -58 -7 -136 -9 -54 -19 -119
-22 -145 -5 -43 -4 -48 15 -48 11 0 34 12 51 26 29 24 31 30 31 92 0 111 62
216 154 264 57 29 164 23 202 -12 81 -75 70 -251 -22 -359 -50 -57 -106 -85
-174 -85 -65 0 -112 22 -136 63 l-17 30 -41 -35 c-74 -64 -146 -65 -180 -2
-19 35 -19 38 -2 154 28 186 16 225 -60 188 -36 -18 -39 -23 -46 -74 -4 -30
-18 -113 -31 -185 l-23 -130 -64 0 c-52 0 -65 3 -64 15 1 8 14 86 29 173 15
87 24 169 21 182 -9 34 -40 40 -84 17 -36 -19 -37 -20 -49 -108 -7 -49 -21
-132 -30 -184 l-18 -95 -58 -3 c-44 -2 -59 1 -63 12 -3 8 7 86 22 173 34 195
34 206 10 211 -13 3 -37 -15 -76 -56 -51 -53 -58 -65 -64 -113 -12 -91 -44
-217 -71 -273 -14 -29 -25 -57 -25 -62 0 -18 430 -107 604 -125 259 -26 423 3
589 103 45 27 86 47 91 45 17 -6 -105 -120 -170 -160 -115 -69 -250 -107 -385
-107 -84 0 -259 25 -359 52 -82 21 -364 115 -393 130 -14 7 -30 2 -65 -20 -67
-43 -145 -62 -250 -62 -97 0 -162 17 -199 52 -50 47 -14 98 85 119 56 11 272
7 317 -6 36 -11 60 64 100 313 26 158 18 191 -44 177 -51 -11 -59 -31 -91
-215 -16 -95 -33 -177 -38 -182 -5 -5 -33 -8 -63 -6 -60 3 -59 0 -46 92 l7 49
-57 -61 c-56 -59 -110 -92 -152 -92 -42 0 -103 33 -130 70 l-27 38 -33 -35
c-60 -62 -138 -75 -179 -27 -22 25 -26 26 -46 14 -50 -32 -81 -42 -128 -43
-45 -1 -54 3 -79 31 -37 41 -37 68 -1 272 l27 155 69 3 c53 2 67 0 64 -10 -3
-7 -18 -91 -34 -186 l-28 -172 22 -23 22 -22 37 20 c20 11 40 27 43 35 4 8 20
89 34 179 15 91 29 168 32 173 3 4 32 8 65 8 71 0 69 16 30 -210 -16 -91 -26
-171 -24 -177 8 -21 30 -15 66 17 30 26 35 37 40 95 16 165 116 275 251 275
50 0 61 -4 87 -29 36 -37 37 -60 1 -94 -33 -32 -42 -34 -42 -9 0 32 -29 62
-60 62 -55 0 -110 -117 -110 -233 0 -113 58 -135 156 -61 66 51 97 101 110
178 6 39 33 200 60 359 l48 287 64 0 65 0 -6 -47z m1731 -433 c28 -17 33 -25
30 -53 -2 -27 -7 -32 -28 -32 -18 0 -26 6 -28 23 -5 33 -43 48 -82 32 -28 -12
-35 -25 -30 -60 1 -8 36 -50 77 -93 l76 -77 -5 -52 c-5 -44 -11 -57 -45 -89
-75 -70 -199 -74 -265 -9 -33 33 -37 74 -9 90 35 18 56 1 52 -43 -4 -37 105
-51 139 -17 37 37 26 66 -49 139 -86 82 -104 129 -74 187 26 51 73 74 148 74
43 0 70 -6 93 -20z M7197 3233 c-36 -41 -73 -189 -62 -253 13 -77 78 -91 116
-25 40 69 61 212 39 269 -8 21 -16 26 -43 26 -20 0 -41 -7 -50 -17z M5631
2727 c-13 -6 -29 -20 -35 -29 -24 -38 59 -73 144 -61 68 9 174 62 158 79 -24
24 -226 33 -267 11z"/>
</g>
</svg>
