<?xml version="1.0" standalone="no"?>
<!DOCTYPE svg PUBLIC "-//W3C//DTD SVG 20010904//EN"
 "http://www.w3.org/TR/2001/REC-SVG-20010904/DTD/svg10.dtd">
<svg version="1.0" xmlns="http://www.w3.org/2000/svg"
 width="600.000000pt" height="849.000000pt" viewBox="0 0 600.000000 849.000000"
 preserveAspectRatio="xMidYMid meet">
<metadata>
Created by potrace 1.16, written by Peter Selinger 2001-2019
</metadata>
<g transform="translate(0.000000,849.000000) scale(0.100000,-0.100000)"
fill="#000000" stroke="none">
<path d="M0 4245 l0 -4245 3000 0 3000 0 0 4245 0 4245 -3000 0 -3000 0 0
-4245z m2409 3211 c-69 -15 -80 -22 -72 -44 6 -15 4 -15 -15 2 -12 11 -22 23
-22 28 0 16 44 27 105 26 l60 0 -56 -12z m122 -13 c10 -11 15 -56 17 -152 2
-75 1 -133 -3 -130 -3 4 -13 56 -21 115 -17 120 -29 143 -64 124 -20 -11 -21
-10 -11 9 11 19 49 51 62 51 4 0 13 -7 20 -17z m-342 -16 c8 -10 7 -19 -4 -33
-14 -18 -14 -18 -15 0 0 19 -8 19 -110 0 -14 -2 4 7 40 20 79 30 75 29 89 13z
m101 -20 c0 -18 -2 -19 -10 -7 -10 16 -11 15 -77 -28 -40 -26 -24 -4 23 32 49
38 64 38 64 3z m-259 -48 c17 -14 19 -19 7 -15 -25 8 -48 -20 -43 -52 12 -68
25 -158 24 -172 0 -8 -16 37 -35 100 -19 63 -32 125 -29 138 7 29 44 29 76 1z
m401 -27 c-18 -15 -32 -33 -32 -40 0 -8 -5 -12 -12 -10 -26 9 -17 27 24 52 55
33 61 32 20 -2z m77 -71 c0 -25 -4 -68 -9 -96 l-7 -50 -2 45 c-2 83 -13 121
-34 129 -20 7 -20 8 3 24 34 23 50 6 49 -52z m-161 47 c14 -14 16 -32 3 -24
-19 12 -30 -23 -33 -99 l-3 -80 -13 94 c-10 71 -10 96 -1 107 14 17 31 18 47
2z m-277 -40 l33 -43 -35 33 c-20 18 -38 29 -42 26 -4 -4 -7 0 -7 9 0 28 16
19 51 -25z m96 -58 c1 -50 -1 -68 -7 -55 -5 11 -9 37 -9 58 -1 30 -6 40 -21
44 -16 4 -18 8 -9 20 7 7 19 12 28 11 13 -3 16 -19 18 -78z m-87 -177 c0 -36
-15 -42 -53 -22 l-21 12 23 9 c25 9 25 -2 6 148 -3 20 6 3 20 -40 14 -41 25
-90 25 -107z m136 109 l1 -57 -13 35 c-16 46 -17 80 -1 80 8 0 12 -19 13 -58z
m174 -136 c-7 -7 -15 -5 -27 7 -15 15 -16 17 -1 17 12 0 18 16 24 68 l9 67 3
-74 c2 -43 -2 -79 -8 -85z m150 82 c0 -2 -11 -25 -25 -52 -28 -55 -30 -54 -14
10 7 25 17 44 25 44 8 0 14 -1 14 -2z m-349 -84 c2 -7 0 -14 -6 -15 -6 -2 -11
16 -12 41 -1 39 -1 41 6 15 5 -16 10 -35 12 -41z m343 -54 c-5 -36 -3 -50 5
-50 7 0 9 -4 6 -10 -11 -18 -35 -10 -35 11 0 23 21 99 27 99 2 0 1 -22 -3 -50z
m-495 -74 c16 -90 26 -109 54 -100 20 6 21 6 5 -17 -17 -27 -45 -36 -61 -20
-6 6 -13 58 -16 115 -7 118 0 125 18 22z m293 67 c9 -10 19 -34 23 -53 7 -34
7 -35 -12 -17 -11 9 -27 17 -36 17 -8 0 -50 -47 -93 -105 -42 -58 -78 -105
-80 -105 -9 0 117 227 139 253 29 32 38 33 59 10z m277 -189 c-16 -19 -33 -18
-53 5 -16 18 -16 19 1 17 16 -1 18 8 16 89 l-1 90 24 -94 c19 -72 22 -96 13
-107z m-524 166 c3 -5 1 -10 -5 -10 -8 0 -10 -9 -6 -27 15 -63 15 -66 -4 -28
-11 22 -20 48 -20 58 0 18 25 24 35 7z m81 -148 c-54 -108 -85 -146 -112 -135
-7 3 -16 13 -19 24 -19 70 -20 66 2 46 11 -9 27 -15 36 -12 8 4 44 48 79 100
34 51 64 92 66 90 2 -2 -22 -53 -52 -113z m319 100 c39 -7 38 -7 -25 -12 -51
-4 -64 -8 -62 -20 3 -12 0 -12 -14 2 -27 27 -11 52 29 44 17 -4 50 -10 72 -14z
m-14 -45 c-13 -17 0 -29 73 -76 65 -40 53 -39 -40 3 -54 25 -74 40 -74 54 0
24 8 32 33 32 15 0 17 -3 8 -13z m99 -17 c0 -5 -7 -7 -15 -4 -8 4 -15 8 -15
10 0 2 7 4 15 4 8 0 15 -4 15 -10z m1860 -808 c0 -51 -21 -65 -52 -34 -20 19
-20 20 -2 19 17 -2 19 7 23 93 l4 95 13 -65 c7 -36 13 -84 14 -108z m-3565
-252 c27 -18 28 -20 9 -20 -44 0 -49 -22 -31 -138 10 -59 20 -118 22 -132 3
-14 -15 34 -40 105 -47 136 -53 173 -33 193 17 17 39 15 73 -8z m3753 -72 c7
-7 12 -25 12 -42 0 -27 -1 -28 -18 -13 -23 21 -39 11 -126 -72 l-69 -66 48 65
c58 79 115 140 130 140 6 0 16 -5 23 -12z m-1358 -482 c0 -9 -9 -12 -24 -9
-13 3 -39 -3 -57 -12 -46 -24 -24 -2 25 24 40 21 56 20 56 -3z m108 -18 c-17
-10 -48 -10 -48 0 0 5 14 9 30 9 20 0 26 -3 18 -9z m575 1 c-13 -5 -24 -10
-25 -11 -2 -1 -11 3 -21 8 -14 8 -9 10 25 11 35 0 39 -1 21 -8z m-723 -19 c-8
-5 -22 -9 -30 -9 -10 0 -8 3 5 9 27 12 43 12 25 0z m764 -19 c-2 -3 -12 3 -22
13 -16 17 -16 18 5 5 12 -7 20 -15 17 -18z m-45 -7 c-9 -11 -9 -14 0 -14 7 0
9 -5 5 -11 -3 -6 -2 -14 3 -18 6 -3 3 -13 -7 -24 -16 -17 -17 -16 -13 18 3 27
0 35 -8 29 -8 -5 -9 -3 -3 7 5 8 9 17 10 22 1 4 2 10 3 13 0 3 6 2 11 -1 8 -5
7 -11 -1 -21z m46 -23 c-8 -14 -25 -14 -25 0 0 5 5 7 10 4 6 -3 10 -1 10 6 0
7 3 10 6 6 3 -3 3 -10 -1 -16z m69 -9 c2 -4 -4 -8 -14 -8 -10 0 -16 4 -14 8 3
4 9 8 14 8 5 0 11 -4 14 -8z m-874 -18 c0 -2 -11 -4 -25 -4 -14 0 -25 4 -25 9
0 4 11 6 25 3 14 -2 25 -6 25 -8z m710 -18 c0 -2 -7 -7 -16 -10 -8 -3 -12 -2
-9 4 6 10 25 14 25 6z m-608 -13 c-6 -2 -10 -9 -6 -14 3 -5 -16 -8 -43 -7 -40
1 -42 2 -13 5 19 3 39 9 45 14 5 5 14 9 20 8 5 0 4 -3 -3 -6z m815 -25 c-3 -7
-5 -2 -5 12 0 14 2 19 5 13 2 -7 2 -19 0 -25z m-760 -12 c-5 -12 -21 -16 -69
-15 l-63 2 49 6 c29 5 54 14 60 24 13 20 31 6 23 -17z m-2356 -30 c15 -17 25
-34 22 -38 -2 -5 0 -8 5 -8 5 0 22 -17 37 -37 19 -25 7 -17 -34 25 -34 34 -67
62 -74 62 -7 0 -19 5 -27 11 -12 8 -10 10 10 5 24 -5 24 -5 5 11 -19 15 -19
15 5 8 14 -4 37 -22 51 -39z m2863 32 c-5 -8 -2 -9 11 -4 15 5 16 4 5 -9 -17
-20 -29 -19 -25 3 5 23 4 22 11 22 3 0 2 -5 -2 -12z m116 -12 c0 -2 -6 -9 -14
-15 -11 -9 -16 -9 -22 0 -4 7 -3 9 4 5 6 -3 13 -2 17 4 6 10 15 14 15 6z
m-3087 -56 c6 -8 0 -5 -12 6 -16 15 -21 27 -15 35 7 11 9 9 12 -6 2 -11 9 -27
15 -35z m1180 13 c-7 -2 -19 -2 -25 0 -7 3 -2 5 12 5 14 0 19 -2 13 -5z m605
-89 l-3 -69 -9 64 c-7 51 -13 65 -29 69 -19 5 -19 6 -1 19 32 23 45 -3 42 -83z
m1980 73 c12 -14 -10 -63 -51 -118 -16 -23 -17 -22 -1 16 24 59 29 95 13 95
-11 0 -11 2 1 10 20 13 26 12 38 -3z m-863 -8 c-4 -6 -9 -8 -12 -5 -3 3 -14
-5 -25 -17 l-19 -22 17 28 c9 15 23 27 31 27 8 0 11 -5 8 -11z m592 -126 c7
-39 -13 -51 -48 -32 l-23 12 22 8 c26 10 26 9 7 79 -8 30 -14 60 -14 65 1 18
51 -99 56 -132z m-494 112 c-3 -9 -8 -14 -10 -11 -3 3 -2 9 2 15 9 16 15 13 8
-4z m564 -73 c15 -28 16 -34 4 -41 -8 -5 -21 -6 -30 -3 -10 4 -11 7 -3 10 18
6 15 24 -14 78 l-26 49 26 -30 c14 -16 33 -44 43 -63z m-727 44 c0 -2 -8 -10
-17 -17 -16 -13 -17 -12 -4 4 13 16 21 21 21 13z m-1435 -26 c-3 -5 -12 -10
-18 -10 -7 0 -6 4 3 10 19 12 23 12 15 0z m1660 1 c-92 -83 -210 -171 -232
-171 -18 0 -31 36 -25 68 4 21 6 22 14 8 16 -29 56 -17 151 44 87 56 113 71
92 51z m-367 -73 c-14 -28 -17 -30 -17 -11 -1 32 -28 35 -101 13 -36 -11 -67
-20 -70 -19 -3 0 22 14 55 31 77 40 116 49 134 32 13 -12 13 -18 -1 -46z m347
-10 c-140 -150 -211 -217 -239 -224 -44 -11 -61 6 -64 65 -3 54 5 64 26 31 23
-37 55 -24 193 84 74 58 136 105 138 105 2 1 -22 -27 -54 -61z m-1909 13 c-4
-6 -14 -11 -22 -11 -12 0 -12 3 -2 20 7 11 16 16 21 11 5 -5 6 -14 3 -20z
m1648 -13 c-10 -12 -45 -49 -76 -83 -56 -58 -69 -87 -47 -101 16 -10 -8 -23
-32 -17 -34 9 -43 30 -25 58 14 21 182 163 195 165 2 0 -4 -10 -15 -22z
m-1697 6 c-3 -3 -12 -4 -19 -1 -8 3 -5 6 6 6 11 1 17 -2 13 -5z m2523 2 c0 -2
-8 -10 -17 -17 -16 -13 -17 -12 -4 4 13 16 21 21 21 13z m87 -164 c-64 -180
-77 -202 -117 -202 -32 0 -53 24 -64 72 l-6 27 29 -17 c28 -16 31 -16 51 3 11
10 51 76 88 146 37 70 68 126 70 125 1 -2 -22 -71 -51 -154z m-101 8 c-25 -70
-50 -96 -66 -70 -14 22 -12 28 8 26 11 -1 27 18 47 56 16 31 31 56 32 55 1 -2
-8 -32 -21 -67z m-1847 7 c0 -9 -2 -8 -6 1 -2 6 -10 9 -15 6 -7 -4 -8 -2 -4 5
9 13 26 5 25 -12z m754 -173 c127 -56 157 -78 157 -113 0 -36 -27 -60 -76 -68
l-39 -6 19 22 c37 41 15 66 -139 163 -77 48 -147 91 -155 97 -18 12 94 -33
233 -95z m107 66 c105 -16 199 -34 210 -40 55 -29 45 -87 -22 -121 -49 -25
-50 -24 -30 11 17 29 16 30 -8 54 -18 17 -75 39 -195 74 -93 28 -165 51 -158
51 7 1 98 -12 203 -29z m-770 -29 c15 -29 13 -32 -15 -25 -20 5 -35 -4 -87
-52 l-62 -59 63 78 c65 80 83 90 101 58z m67 4 c0 -8 -7 -15 -15 -15 -12 0
-12 3 -2 15 7 8 13 15 15 15 1 0 2 -7 2 -15z m1618 -145 c4 -7 16 -10 26 -7
25 7 24 -5 -2 -29 -15 -14 -24 -16 -37 -8 -14 9 -17 29 -19 110 l-1 99 13 -77
c7 -42 16 -82 20 -88z m-1799 119 c3 -6 -2 -18 -12 -27 -17 -16 -17 -16 -4 1
12 16 12 20 -1 28 -9 5 -10 9 -2 9 6 0 15 -5 19 -11z m713 -121 c18 11 21 10
21 -7 0 -11 -7 -27 -16 -35 -24 -24 -45 -6 -103 86 l-52 83 65 -70 c59 -64 66
-69 85 -57z m-595 56 c10 -26 7 -32 -13 -27 -15 4 -28 -7 -53 -42 -56 -80 -60
-84 -48 -53 12 34 49 109 62 126 14 17 45 15 52 -4z m72 -6 c15 -18 16 -20 2
-9 -10 7 -25 11 -33 7 -15 -5 -21 5 -8 17 11 11 19 8 39 -15z m132 -56 c3 -8
-1 -18 -9 -23 -21 -13 -29 -11 -22 7 4 11 -8 29 -38 55 l-44 39 54 -32 c29
-18 56 -39 59 -46z m990 15 c2 -20 -3 -48 -11 -63 l-14 -27 -11 32 c-19 54
-51 46 -297 -76 -49 -25 -83 -38 -75 -30 32 31 294 201 329 213 48 17 75 1 79
-49z m-1323 -54 c-35 -61 -50 -77 -64 -69 -17 11 -13 36 4 30 9 -4 25 10 46
40 42 59 48 59 14 -1z m433 29 c2 -7 -2 -10 -10 -7 -9 4 -20 -5 -28 -20 -19
-36 -23 -24 -4 14 16 31 34 37 42 13z m-248 4 c0 -8 -71 -46 -86 -46 -8 0 -14
7 -14 15 0 8 6 12 14 9 7 -3 29 2 47 10 42 18 39 17 39 12z m-30 -66 c-85 -52
-117 -53 -103 -2 5 21 6 21 18 5 12 -15 17 -15 71 10 84 37 89 33 14 -13z
m170 -11 c0 -11 -23 -44 -51 -72 l-51 -52 37 50 c24 33 35 57 32 72 -3 17 0
23 14 23 13 0 19 -7 19 -21z m-75 -9 c3 -5 0 -20 -7 -32 -11 -21 -12 -21 -16
-4 -3 16 -11 18 -65 13 l-62 -6 50 19 c57 21 91 25 100 10z m915 -14 c0 -2
-26 -19 -57 -36 -97 -54 -125 -79 -120 -106 5 -30 -15 -32 -44 -3 l-21 21 20
21 c16 15 136 73 220 106 1 1 2 -1 2 -3z m-744 -27 c-8 -12 -12 -28 -9 -35 3
-8 0 -14 -6 -14 -17 0 -13 31 6 52 22 24 28 23 9 -3z m-41 -13 c-8 -13 -13
-31 -9 -40 3 -9 1 -16 -5 -16 -23 0 -23 31 -1 56 30 30 35 31 15 0z m860 10
c-11 -8 -25 -12 -32 -9 -20 8 -8 18 23 21 26 2 27 1 9 -12z m12 -26 c1 -11 -2
-20 -6 -20 -4 0 -8 -6 -8 -12 0 -13 -62 -128 -69 -128 -6 0 30 75 39 78 4 2 4
8 1 13 -3 6 -1 15 4 22 5 7 12 24 16 40 7 32 21 36 23 7z m641 8 c7 -7 12 -19
12 -27 0 -19 -92 -282 -97 -277 -2 1 8 51 22 109 14 59 25 118 25 132 0 26
-32 50 -53 40 -6 -4 -1 3 12 14 26 23 61 27 79 9z m-3057 -175 c63 -135 84
-155 126 -128 24 16 25 16 18 -7 -22 -75 -84 -98 -116 -43 -14 24 -83 241
-104 330 -6 23 -2 16 76 -152z m1684 157 c-3 -5 -12 -10 -18 -10 -7 0 -6 4 3
10 19 12 23 12 15 0z m160 -50 c21 -33 124 -229 134 -255 2 -5 -27 31 -64 80
-116 154 -136 169 -170 123 -17 -22 -17 -22 -12 22 10 83 68 99 112 30z
m-2016 -25 c12 -22 21 -35 21 -28 0 6 7 13 15 17 13 5 14 2 5 -15 -16 -29 -31
-20 -64 42 -16 30 -22 47 -13 39 8 -8 25 -33 36 -55z m1468 39 c9 4 13 1 11
-6 -7 -21 -22 -19 -53 8 l-30 26 28 -17 c16 -9 35 -14 44 -11z m971 -91 c-17
-32 -38 -66 -46 -75 -16 -19 -52 -25 -52 -9 0 5 -3 18 -6 28 -6 14 -4 16 6 6
19 -17 40 -3 86 57 21 27 39 50 41 50 2 0 -11 -26 -29 -57z m-455 -27 c20 -16
23 -28 4 -20 -30 11 -40 -23 -35 -119 3 -50 2 -83 -2 -72 -13 35 -33 192 -27
209 8 19 36 20 60 2z m-269 -52 c15 -6 15 -8 -1 -19 -18 -13 -17 -24 14 -135
2 -8 -10 14 -26 49 -45 92 -40 125 13 105z m127 -39 c4 -16 7 -55 7 -85 l0
-55 -15 60 c-16 66 -30 88 -50 81 -16 -7 -17 6 -1 22 22 22 52 10 59 -23z
m205 20 c10 -8 15 -15 9 -14 -42 6 -44 -14 -15 -115 11 -38 18 -71 16 -73 -5
-5 -76 170 -76 188 0 32 33 39 66 14z m152 -56 c16 -31 36 -67 45 -79 12 -18
13 -28 5 -43 -9 -18 -12 -16 -29 22 -10 23 -15 49 -12 58 4 11 3 14 -5 9 -7
-4 -12 -5 -12 -2 0 3 -9 29 -21 58 -25 64 -12 53 29 -23z m-626 5 c-3 -17 -8
-22 -15 -15 -11 11 -3 41 11 41 5 0 7 -12 4 -26z m138 -145 c14 -49 -17 -72
-63 -48 l-21 12 22 8 c28 10 28 33 2 124 -11 38 -20 72 -19 75 1 8 70 -142 79
-171z m229 -33 c9 -10 21 -14 33 -10 17 5 18 3 9 -15 -17 -31 -45 -43 -66 -27
-13 9 -20 34 -26 97 -14 151 -9 175 15 68 11 -53 27 -104 35 -113z m-855 128
c9 -8 21 -25 28 -37 10 -20 10 -21 -5 -9 -22 19 -53 7 -66 -26 -6 -15 -22 -72
-35 -127 -14 -55 -25 -95 -25 -90 -2 35 30 267 39 284 13 25 42 27 64 5z m504
-9 c-3 -3 -9 2 -12 12 -6 14 -5 15 5 6 7 -7 10 -15 7 -18z m219 -85 c13 0 13
-3 3 -16 -19 -21 -37 0 -45 51 l-6 40 17 -37 c9 -21 23 -38 31 -38z m-423 -46
c3 -8 13 -14 22 -14 13 0 14 -3 4 -15 -16 -20 -36 -19 -44 1 -3 9 -5 43 -5 77
l1 62 8 -49 c5 -26 11 -54 14 -62z m33 99 c-16 -16 16 -30 61 -27 l47 3 -54
-14 c-30 -7 -59 -11 -63 -9 -16 10 -7 54 10 54 3 0 2 -3 -1 -7z m642 -151 c1
-25 -20 -38 -46 -28 -15 6 -14 8 2 20 18 13 18 16 2 75 -9 33 -17 64 -16 68 1
17 58 -113 58 -135z m-1762 112 c-8 -8 -48 -13 -43 -6 2 4 14 8 26 9 12 1 20
0 17 -3z m1980 -25 c-3 -11 -1 -17 3 -14 5 3 11 1 15 -5 3 -5 1 -10 -5 -10 -6
0 -10 -10 -8 -22 3 -24 20 -28 27 -7 2 7 -1 9 -8 5 -6 -4 -11 -2 -11 3 0 24
21 9 39 -27 13 -25 16 -43 10 -53 -15 -23 -11 -49 6 -43 11 5 13 10 5 19 -7 8
-7 16 -2 19 6 3 12 -4 16 -17 4 -15 0 -27 -14 -39 -11 -9 -20 -22 -20 -30 1
-8 4 -7 11 5 5 9 15 17 21 17 6 0 3 -9 -7 -20 -19 -21 -45 -27 -45 -10 0 6 -5
10 -11 10 -5 0 -7 -4 -4 -10 11 -18 -27 -11 -42 8 -8 9 -12 11 -8 4 5 -10 1
-10 -21 0 l-27 13 32 6 c45 9 53 20 56 74 2 26 1 44 -2 41 -4 -3 -14 12 -25
35 -13 31 -15 46 -7 60 12 24 33 14 26 -12z m-122 -99 c-4 -6 -15 -10 -26 -10
-16 0 -17 3 -8 19 9 13 9 26 2 47 -24 65 -23 66 7 11 17 -32 28 -62 25 -67z
m-1805 100 c8 -5 11 -10 5 -10 -5 0 -17 5 -25 10 -8 5 -10 10 -5 10 6 0 17 -5
25 -10z m2976 -4 c3 -8 0 -25 -7 -38 -12 -23 -129 -168 -135 -168 -2 0 19 37
46 83 28 45 50 86 50 91 0 5 -7 18 -17 28 -15 17 -14 18 21 18 22 0 39 -5 42
-14z m-3036 -6 c0 -5 -5 -10 -11 -10 -5 0 -7 5 -4 10 3 6 8 10 11 10 2 0 4 -4
4 -10z m805 0 c3 -6 -1 -7 -9 -4 -18 7 -21 14 -7 14 6 0 13 -4 16 -10z m28
-11 c-6 -6 -9 -19 -6 -28 5 -13 3 -14 -7 -4 -11 10 -11 15 0 28 7 8 15 15 18
15 3 0 1 -5 -5 -11z m450 -6 c-7 -2 -21 -2 -30 0 -10 3 -4 5 12 5 17 0 24 -2
18 -5z m-1283 -18 c0 -8 -4 -15 -8 -15 -5 0 -9 7 -9 15 0 8 4 15 9 15 4 0 8
-7 8 -15z m1515 -4 c42 -21 35 -28 -11 -11 -19 7 -30 7 -40 -1 -11 -9 -14 -7
-14 10 0 26 13 26 65 2z m1873 -18 c20 -16 51 -56 67 -88 29 -58 30 -64 30
-205 0 -109 -5 -166 -20 -230 l-19 -85 -9 65 c-4 36 -20 90 -34 120 -14 30
-25 60 -24 65 2 6 -1 7 -4 3 -4 -4 -22 4 -40 17 -17 14 -52 28 -78 31 -38 5
-56 2 -109 -23 -35 -17 -88 -51 -119 -76 -31 -25 -60 -43 -64 -39 -5 4 -5 2
-2 -4 8 -14 -76 -97 -88 -87 -4 5 -5 3 -1 -4 3 -6 -3 -18 -14 -26 -11 -8 -63
-56 -115 -106 -57 -55 -100 -89 -107 -85 -6 4 -8 3 -5 -3 9 -14 -160 -176
-174 -167 -7 4 -9 3 -6 -3 6 -10 -23 -40 -218 -223 -55 -51 -147 -139 -205
-194 -57 -56 -99 -94 -93 -86 59 82 157 194 166 192 7 -2 9 0 5 3 -11 11 11
47 24 39 6 -4 8 -3 5 3 -4 6 6 24 21 42 15 17 35 42 45 56 10 14 22 23 26 20
5 -2 15 3 22 13 13 15 12 16 -3 3 -32 -24 -19 0 34 66 36 44 57 62 67 58 12
-5 13 -3 4 6 -9 9 -4 22 24 55 20 24 41 40 46 37 6 -4 7 -1 3 6 -9 14 22 53
35 46 4 -3 11 0 15 6 4 8 3 9 -4 5 -23 -14 -12 7 31 58 44 53 45 54 78 99 11
15 25 24 31 21 6 -4 8 -2 5 3 -9 14 112 165 125 156 7 -3 8 -1 4 5 -8 13 198
274 265 337 112 104 182 137 277 131 51 -3 71 -9 100 -33z m-3428 1 c0 -8 -19
-13 -24 -6 -3 5 1 9 9 9 8 0 15 -2 15 -3z m1245 -1 c-11 -3 -25 -11 -32 -19
-7 -10 -13 -12 -18 -5 -11 19 5 31 38 30 21 -1 25 -3 12 -6z m165 -17 c0 -9
-108 -66 -124 -66 -10 0 -16 8 -16 21 0 17 3 19 14 10 10 -8 26 -5 67 13 62
28 59 27 59 22z m-265 -27 c42 -16 45 -18 15 -13 -19 3 -43 8 -53 10 -10 3
-20 -1 -24 -11 -5 -16 -7 -16 -15 -1 -10 18 -3 36 15 35 7 0 35 -9 62 -20z
m-125 -4 c6 -8 9 -23 5 -35 -6 -20 -205 -188 -205 -174 0 4 34 42 75 85 76 78
90 109 58 128 -15 8 -11 10 18 11 20 0 42 -7 49 -15z m-148 -57 c-8 -8 -9 -4
-5 13 4 13 8 18 11 10 2 -7 -1 -18 -6 -23z m-802 -62 c0 -6 -7 -1 -15 10 -8
10 -15 23 -15 28 0 6 7 1 15 -10 8 -10 15 -23 15 -28z m104 -285 c9 -7 25 -11
36 -8 13 3 20 0 20 -9 0 -15 -35 -54 -48 -54 -20 0 -43 42 -76 135 -51 148
-51 148 3 44 27 -52 56 -101 65 -108z m1638 160 c-2 -21 0 -22 15 -10 14 12
14 10 -2 -16 -28 -46 -47 -65 -62 -65 -7 0 -13 7 -13 16 0 8 5 12 11 9 5 -4
19 1 30 11 19 17 27 40 10 29 -5 -3 -11 3 -13 12 -2 14 -20 21 -78 29 l-75 12
90 -2 c89 -1 90 -1 87 -25z m1811 -393 c12 -24 39 -30 72 -18 15 6 29 9 31 7
2 -2 -14 -20 -35 -41 -52 -50 -103 -55 -134 -13 l-21 28 22 157 c49 340 46
334 52 102 3 -113 9 -213 13 -222z m-2058 401 c4 -5 4 -22 0 -37 l-7 -27 -11
24 c-11 24 -24 25 -124 6 -29 -5 40 21 92 35 42 11 43 11 50 -1z m88 -22 c-28
-6 -43 -15 -43 -26 -1 -14 -2 -14 -11 2 -16 27 -2 37 49 36 l47 -1 -42 -11z
m-1295 -202 c95 -141 120 -186 117 -208 -2 -15 1 -25 5 -22 5 3 7 12 3 20 -4
11 -1 13 11 9 9 -3 16 -10 16 -14 0 -14 54 -28 76 -19 12 4 29 18 38 31 16 22
16 22 16 -17 0 -45 -29 -111 -48 -107 -7 1 -11 -4 -10 -10 2 -8 -10 -14 -29
-16 -25 -3 -39 4 -68 33 -21 22 -34 43 -31 52 3 8 2 12 -3 9 -8 -6 -48 72 -44
86 2 5 -1 8 -5 8 -13 0 -33 50 -26 62 4 6 3 8 -3 5 -12 -8 -76 121 -67 135 4
6 3 9 -2 6 -5 -3 -26 31 -47 76 -21 44 -34 77 -29 71 5 -5 63 -91 130 -190z
m1327 150 c-94 -78 -135 -91 -135 -45 0 17 3 19 19 8 17 -10 28 -6 78 25 68
43 80 46 38 12z m-177 3 c17 -17 15 -45 -4 -52 -9 -3 -52 -5 -97 -5 l-82 2 70
11 c80 14 99 22 91 42 -7 17 6 18 22 2z m2182 -119 c26 -119 38 -138 74 -121
l26 12 -14 -29 c-25 -47 -76 -56 -93 -18 -6 13 -14 75 -18 138 -4 63 -9 123
-11 134 l-4 20 9 -20 c6 -11 19 -63 31 -116z m-2360 99 c-57 -11 -84 -24 -74
-39 3 -5 -2 -6 -10 -3 -19 7 -21 40 -3 47 6 3 41 5 77 5 l65 0 -55 -10z m2030
-18 c39 -21 43 -65 29 -343 -14 -284 -14 -284 -44 8 -20 201 -22 212 -48 235
-25 24 -48 25 -89 4 l-31 -16 21 30 c55 76 115 107 162 82z m-2167 -18 c-9
-38 20 -45 150 -39 l122 5 -115 -24 c-63 -14 -133 -23 -155 -22 -34 3 -40 7
-43 28 -2 15 6 34 18 48 25 27 30 28 23 4z m-58 -2 c4 -6 1 -18 -6 -26 -12
-14 -14 -14 -19 3 -5 13 -21 19 -61 24 l-54 6 67 1 c37 1 70 -3 73 -8z m354
-69 c9 -6 11 -16 6 -31 -7 -23 -8 -23 -19 -3 -9 18 -19 20 -71 18 l-60 -3 60
13 c33 7 62 13 65 14 3 0 11 -3 19 -8z m1667 -329 c13 -19 23 -23 49 -20 l32
4 -19 -27 c-24 -31 -61 -51 -83 -43 -30 12 -37 48 -41 218 l-4 171 26 -140
c14 -77 32 -151 40 -163z m-2840 186 c52 -104 49 -107 -11 -15 -30 46 -46 62
-63 61 -12 0 -22 3 -22 7 0 21 14 39 31 39 14 0 31 -25 65 -92z m1261 58 c-3
-6 -10 -10 -16 -8 -6 1 -11 -2 -11 -6 0 -5 -33 -9 -72 -10 l-73 0 60 9 c32 5
66 15 73 23 16 16 45 10 39 -8z m-100 -152 c-3 -3 -12 -4 -19 -1 -8 3 -5 6 6
6 11 1 17 -2 13 -5z m282 -23 c37 -20 24 -66 -27 -95 -9 -6 -11 -1 -7 16 9 37
-15 50 -134 75 l-106 22 126 -3 c69 -2 136 -9 148 -15z m-200 -46 c52 -9 101
-21 108 -27 20 -16 16 -45 -9 -62 -29 -20 -44 -21 -28 -1 10 13 10 19 -5 35
-10 11 -23 20 -29 20 -19 1 -162 48 -146 49 8 1 57 -6 109 -14z m-1161 -54
c11 -7 10 -9 -3 -14 -9 -4 -13 -3 -10 3 3 6 -3 10 -14 10 -11 0 -19 -6 -17
-12 1 -7 1 -10 -1 -5 -3 4 -10 4 -16 0 -7 -4 -6 1 2 10 15 18 38 22 59 8z
m291 -51 c-28 -27 -29 -31 -16 -55 7 -14 84 -75 171 -135 87 -61 155 -110 152
-110 -18 0 -373 186 -393 206 -31 31 -31 79 0 95 19 11 70 25 104 28 6 0 -2
-12 -18 -29z m-318 -43 c-10 -9 -11 -8 -5 6 3 10 9 15 12 12 3 -3 0 -11 -7
-18z m44 -98 c9 -17 15 -33 13 -35 -3 -2 -12 12 -21 31 -21 43 -13 47 8 4z
m125 -225 c0 -2 -9 0 -20 6 -11 6 -20 13 -20 16 0 2 9 0 20 -6 11 -6 20 -13
20 -16z m-23 -10 c-3 -3 -12 -4 -19 -1 -8 3 -5 6 6 6 11 1 17 -2 13 -5z m36
-24 c3 -11 0 -23 -5 -27 -7 -3 -8 -1 -4 5 4 7 3 12 -2 12 -5 0 -9 7 -9 15 0
22 14 18 20 -5z m27 -84 c0 -12 -5 -7 -19 24 -11 24 -11 24 3 6 9 -11 16 -24
16 -30z m377 -518 c20 -23 49 -23 63 0 9 14 10 11 5 -13 -8 -36 -32 -65 -55
-65 -9 0 -24 8 -32 18 -13 14 -108 263 -108 281 0 3 25 -41 55 -98 31 -58 63
-113 72 -123z m-69 -53 c29 -21 46 -83 118 -445 3 -14 -25 56 -61 155 -36 99
-73 187 -82 197 -20 22 -51 23 -75 1 -24 -22 -23 -3 2 47 30 58 59 72 98 45z
m-62 -262 c-17 -4 -16 -6 5 -17 13 -7 23 -18 22 -24 -2 -7 2 -12 7 -12 14 0
13 23 -2 38 -7 7 -9 12 -5 12 10 0 37 -44 42 -68 3 -15 0 -19 -12 -15 -11 4
-11 8 -3 13 8 5 9 10 2 14 -6 3 -13 2 -17 -4 -3 -5 -11 -10 -16 -10 -6 0 -8 4
-5 9 3 5 -1 12 -10 15 -19 7 -17 9 -34 -24 l-13 -25 22 19 c28 25 27 12 -3
-27 -14 -18 -34 -53 -45 -77 -16 -34 -19 -38 -14 -15 3 17 10 34 14 40 19 19
8 27 -13 9 -20 -18 -21 -18 -15 -1 4 10 7 23 7 28 0 6 5 7 11 3 7 -4 9 0 5 14
-11 35 41 113 73 111 12 -1 11 -3 -3 -6z m-90 -198 c-3 -8 -9 -22 -13 -32 -4
-11 -3 -14 5 -9 17 10 15 3 -10 -49 -20 -42 -38 -58 -38 -35 0 6 5 10 11 10 5
0 8 4 5 9 -8 12 25 121 36 121 6 0 7 -7 4 -15z m-58 -176 c-6 -16 -12 -28 -14
-26 -5 5 13 57 20 57 3 0 0 -14 -6 -31z M3549 3670 c-1 -5 -2 -22 -4 -37 -1
-16 -5 -41 -9 -58 -6 -22 -5 -26 3 -15 6 8 11 24 11 35 0 17 2 17 10 5 8 -12
10 -11 10 7 0 12 -4 25 -10 28 -5 3 -10 11 -10 18 0 8 3 8 12 -1 19 -19 29
-14 16 8 -14 22 -27 26 -29 10z M1899 3091 c12 -8 12 -12 2 -24 -9 -12 -9 -17
1 -23 7 -4 10 -4 6 1 -4 4 -3 14 3 21 12 15 4 34 -14 34 -8 0 -7 -4 2 -9z
M1939 2973 c-13 -16 -12 -17 4 -4 9 7 17 15 17 17 0 8 -8 3 -21 -13z M1990
2910 c0 -5 5 -10 11 -10 5 0 7 5 4 10 -3 6 -8 10 -11 10 -2 0 -4 -4 -4 -10z
M4643 2855 c0 -8 4 -12 9 -9 5 3 6 10 3 15 -9 13 -12 11 -12 -6z M4650 2830
c-11 -7 -11 -10 -2 -10 8 0 10 -5 6 -12 -4 -7 -3 -9 1 -5 7 6 17 37 12 37 -1
0 -9 -5 -17 -10z M2292 1458 c-6 -6 -8 -17 -5 -26 4 -10 2 -13 -5 -8 -6 3 -14
-3 -18 -16 -4 -13 -2 -24 4 -26 6 -2 9 -11 6 -20 -5 -15 -4 -15 6 1 6 9 8 21
5 27 -9 14 26 62 41 56 8 -3 14 -2 14 3 0 13 -37 20 -48 9z"/>
</g>
</svg>
