<?xml version="1.0" standalone="no"?>
<!DOCTYPE svg PUBLIC "-//W3C//DTD SVG 20010904//EN"
 "http://www.w3.org/TR/2001/REC-SVG-20010904/DTD/svg10.dtd">
<svg version="1.0" xmlns="http://www.w3.org/2000/svg"
 width="200.000000pt" height="200.000000pt" viewBox="0 0 200.000000 200.000000"
 preserveAspectRatio="xMidYMid meet">
<metadata>
Created by potrace 1.16, written by Peter Selinger 2001-2019
</metadata>
<g transform="translate(0.000000,200.000000) scale(0.100000,-0.100000)"
fill="#000000" stroke="none">
<path d="M707 1646 c-49 -18 -67 -34 -84 -75 -20 -48 -8 -85 44 -130 40 -36
133 -81 165 -81 7 0 -4 -17 -24 -37 -53 -56 -78 -113 -78 -177 0 -66 10 -93
49 -138 l30 -35 -59 -60 c-50 -52 -62 -72 -81 -133 -50 -166 6 -307 144 -358
49 -19 79 -22 210 -22 177 -1 229 -9 263 -40 31 -30 33 -90 2 -132 -25 -36
-109 -78 -155 -78 -18 0 -59 9 -90 19 -84 28 -116 33 -146 22 -36 -14 -37 -58
-1 -92 24 -22 33 -24 132 -23 93 0 116 4 173 28 130 53 185 129 183 252 -1 81
-27 131 -85 164 -41 23 -56 25 -234 31 -206 7 -242 15 -293 63 -81 76 -58 207
52 291 l34 26 73 -21 c84 -23 303 -30 354 -10 66 25 86 78 44 116 -19 17 -37
19 -173 19 -83 -1 -177 -5 -208 -9 -69 -10 -97 4 -128 64 -36 71 -17 153 52
227 25 26 35 30 57 23 48 -13 199 -22 266 -15 109 12 157 71 101 124 -51 48
-231 36 -342 -23 -59 -31 -63 -32 -107 -19 -52 15 -117 80 -117 117 0 13 12
35 26 49 27 27 54 35 134 39 37 3 45 6 45 23 0 18 -7 20 -95 22 -60 2 -109 -2
-133 -11z"/>
</g>
</svg>
