<?xml version="1.0" standalone="no"?>
<!DOCTYPE svg PUBLIC "-//W3C//DTD SVG 20010904//EN"
 "http://www.w3.org/TR/2001/REC-SVG-20010904/DTD/svg10.dtd">
<svg version="1.0" xmlns="http://www.w3.org/2000/svg"
 width="220.000000pt" height="122.000000pt" viewBox="0 0 220.000000 122.000000"
 preserveAspectRatio="xMidYMid meet">
<metadata>
Created by potrace 1.16, written by Peter Selinger 2001-2019
</metadata>
<g transform="translate(0.000000,122.000000) scale(0.100000,-0.100000)"
fill="#000000" stroke="none">
<path d="M151 1216 c2 -3 60 -62 128 -133 69 -70 156 -160 195 -200 69 -72 70
-72 51 -93 -10 -11 -24 -19 -31 -16 -7 3 -115 72 -241 154 -125 82 -234 152
-240 156 -10 5 -13 -11 -13 -72 l0 -78 77 -34 c43 -18 101 -43 128 -55 28 -12
101 -44 163 -70 102 -42 113 -50 108 -69 -3 -11 -6 -25 -6 -30 0 -10 -50 -3
-240 34 -80 16 -164 32 -188 35 l-42 7 0 -61 0 -61 108 0 c60 0 163 -3 230 -6
l120 -7 4 -29 c4 -23 0 -29 -16 -33 -12 -3 -79 -17 -151 -31 -72 -15 -166 -34
-210 -43 l-80 -17 -3 -67 c-2 -37 -1 -67 0 -67 2 0 109 43 238 94 l235 95 17
-22 c10 -12 17 -25 15 -29 -2 -6 -132 -96 -455 -315 l-52 -36 0 -58 0 -59 48
0 47 1 220 214 c121 118 222 214 225 214 3 0 15 -7 27 -17 l22 -17 -96 -145
c-53 -80 -111 -169 -130 -197 l-34 -53 68 0 68 0 34 83 c19 45 49 114 66 152
18 39 38 87 46 108 12 34 16 37 39 32 14 -4 27 -9 29 -11 5 -4 -3 -53 -34
-219 -9 -44 -18 -95 -22 -112 l-6 -33 52 0 51 0 0 139 c0 76 3 159 6 185 6 43
9 46 35 46 16 0 29 -3 29 -7 0 -5 16 -84 35 -178 19 -94 35 -173 35 -177 0 -5
26 -8 59 -8 l58 0 -74 183 c-41 100 -77 188 -80 194 -6 16 44 40 56 27 12 -13
222 -322 250 -366 l23 -38 91 0 92 0 -166 167 c-274 277 -270 272 -252 300 9
13 20 20 27 16 6 -4 70 -46 141 -93 184 -121 334 -219 407 -264 35 -21 93 -59
130 -83 l68 -43 209 2 209 3 -142 67 c-77 37 -170 81 -206 97 -204 92 -468
208 -628 276 -139 59 -182 81 -178 92 3 8 6 19 6 24 0 5 10 9 23 9 20 0 223
-37 382 -70 50 -10 215 -39 495 -86 80 -13 189 -30 243 -37 l97 -13 0 106 0
107 -97 7 c-145 10 -677 25 -920 26 l-213 0 0 29 c0 35 -15 30 215 76 165 33
348 73 515 111 36 8 85 19 110 25 25 5 122 29 215 52 l170 43 3 112 c2 78 -1
112 -9 112 -30 0 -576 -203 -977 -363 -244 -97 -253 -100 -267 -81 -8 10 -15
22 -15 25 0 3 96 70 213 149 116 79 268 184 336 232 l125 88 -126 0 -127 0
-220 -215 c-205 -202 -221 -215 -241 -203 -11 7 -19 20 -17 28 2 8 56 94 119
190 63 96 118 181 122 188 5 9 -8 12 -57 12 l-63 0 -30 -67 c-17 -38 -53 -121
-80 -186 -47 -112 -50 -117 -74 -111 -14 3 -27 7 -29 10 -2 2 9 70 24 151 15
82 30 160 33 176 4 27 3 27 -47 27 l-51 0 -2 -172 -3 -173 -28 -3 c-16 -2 -29
2 -32 10 -3 7 -20 85 -38 173 l-33 160 -56 3 -56 3 73 -181 74 -181 -25 -9
c-14 -6 -28 -10 -32 -10 -4 1 -65 86 -136 190 l-128 190 -86 0 c-47 0 -83 -2
-81 -4z"/>
</g>
</svg>
