<?xml version="1.0" standalone="no"?>
<!DOCTYPE svg PUBLIC "-//W3C//DTD SVG 20010904//EN"
 "http://www.w3.org/TR/2001/REC-SVG-20010904/DTD/svg10.dtd">
<svg version="1.0" xmlns="http://www.w3.org/2000/svg"
 width="1600.000000pt" height="1600.000000pt" viewBox="0 0 1600.000000 1600.000000"
 preserveAspectRatio="xMidYMid meet">
<metadata>
Created by potrace 1.16, written by Peter Selinger 2001-2019
</metadata>
<g transform="translate(0.000000,1600.000000) scale(0.100000,-0.100000)"
fill="#000000" stroke="none">
<path d="M2919 10422 c-309 -312 -504 -539 -786 -913 -519 -689 -834 -1244
-1037 -1828 -225 -647 -166 -1273 160 -1707 73 -97 214 -230 317 -298 228
-152 538 -256 853 -287 174 -17 591 -6 768 20 627 93 1287 301 1984 625 78 36
144 66 147 66 2 0 32 13 67 29 35 16 162 73 283 126 121 53 398 176 615 272
217 96 431 191 475 210 44 20 103 46 130 58 78 35 615 273 1100 488 242 107
640 283 885 392 245 108 481 213 525 232 44 19 139 61 210 93 72 32 310 138
530 235 220 97 555 246 745 330 190 84 485 215 655 290 408 180 388 171 485
215 47 21 162 72 255 113 94 41 330 146 525 232 195 87 573 254 840 372 267
118 661 293 875 388 626 278 735 325 745 325 5 0 12 5 16 12 5 7 1 9 -12 6
-10 -3 -316 -88 -679 -187 -363 -100 -707 -195 -765 -211 -58 -16 -355 -97
-660 -180 -305 -83 -627 -171 -715 -196 -88 -24 -286 -78 -440 -119 -154 -42
-352 -96 -440 -120 -88 -25 -277 -76 -420 -115 -410 -112 -664 -181 -1710
-469 -539 -148 -1014 -279 -1055 -290 -41 -11 -208 -56 -370 -101 -162 -45
-356 -97 -430 -116 -74 -19 -155 -41 -180 -49 -25 -7 -106 -30 -180 -50 -74
-20 -207 -56 -295 -81 -264 -73 -1022 -279 -1135 -309 -58 -15 -141 -38 -185
-50 -44 -13 -123 -34 -175 -48 -52 -14 -169 -46 -260 -71 -163 -44 -202 -54
-415 -102 -321 -73 -636 -104 -868 -85 -487 39 -865 204 -1084 473 -206 252
-283 503 -270 878 15 428 161 903 470 1528 30 61 52 112 49 112 -4 0 -68 -62
-143 -138z"/>
</g>
</svg>
