<?xml version="1.0" standalone="no"?>
<!DOCTYPE svg PUBLIC "-//W3C//DTD SVG 20010904//EN"
 "http://www.w3.org/TR/2001/REC-SVG-20010904/DTD/svg10.dtd">
<svg version="1.0" xmlns="http://www.w3.org/2000/svg"
 width="820.000000pt" height="420.000000pt" viewBox="0 0 820.000000 420.000000"
 preserveAspectRatio="xMidYMid meet">
<metadata>
Created by potrace 1.16, written by Peter Selinger 2001-2019
</metadata>
<g transform="translate(0.000000,420.000000) scale(0.100000,-0.100000)"
fill="#000000" stroke="none">
<path d="M3189 3785 c-198 -17 -280 -31 -371 -61 -141 -46 -246 -134 -325
-269 -59 -102 -297 -567 -301 -587 -3 -15 4 -18 40 -18 l43 0 49 83 c153 256
315 394 527 446 76 19 113 21 318 21 l231 -1 0 -27 c0 -15 -5 -45 -10 -67 -11
-50 -45 -275 -70 -465 -79 -601 -162 -963 -303 -1325 -79 -201 -100 -248 -206
-455 -163 -319 -154 -297 -159 -383 -7 -118 24 -181 118 -243 39 -26 52 -29
129 -29 99 0 142 18 217 87 161 148 336 891 429 1818 8 85 20 198 25 250 5 52
17 196 26 320 9 124 21 290 28 370 l11 145 508 3 507 2 0 -27 c0 -16 -11 -194
-25 -398 -98 -1462 -118 -1828 -106 -1945 13 -137 40 -241 88 -331 99 -192
252 -289 453 -289 375 0 748 329 916 809 18 52 31 98 28 103 -3 4 -23 8 -44 8
-42 0 -51 -10 -107 -111 -67 -122 -178 -266 -270 -349 -32 -29 -92 -69 -133
-89 -64 -30 -85 -35 -145 -35 -110 0 -180 42 -283 169 -30 36 -92 186 -116
277 -49 188 -55 352 -26 718 16 209 39 510 60 810 29 408 49 663 52 666 2 1
234 5 516 9 l512 8 0 198 0 199 -1342 -1 c-994 -1 -1381 -5 -1489 -14z"/>
</g>
</svg>
