<?xml version="1.0" standalone="no"?>
<!DOCTYPE svg PUBLIC "-//W3C//DTD SVG 20010904//EN"
 "http://www.w3.org/TR/2001/REC-SVG-20010904/DTD/svg10.dtd">
<svg version="1.0" xmlns="http://www.w3.org/2000/svg"
 width="1280.000000pt" height="251.000000pt" viewBox="0 0 1280.000000 251.000000"
 preserveAspectRatio="xMidYMid meet">
<metadata>
Created by potrace 1.16, written by Peter Selinger 2001-2019
</metadata>
<g transform="translate(0.000000,251.000000) scale(0.100000,-0.100000)"
fill="#000000" stroke="none">
<path d="M5350 1105 l0 -655 65 0 65 0 0 163 0 162 80 80 c48 48 83 75 88 70
5 -6 73 -115 152 -242 l142 -233 79 0 c44 0 79 2 79 4 0 3 -83 133 -184 289
l-184 285 162 161 161 161 -83 0 -84 0 -201 -196 -202 -196 -3 401 -2 401 -65
0 -65 0 0 -655z M9848 1746 c-68 -18 -123 -59 -155 -113 l-28 -48 -3 -567 -3
-568 116 0 115 0 0 370 0 370 85 0 85 0 0 90 0 90 -85 0 -85 0 0 70 c0 62 3
74 25 95 20 21 34 25 85 25 l60 0 0 100 0 100 -82 -1 c-46 0 -104 -6 -130 -13z
M10182 1193 c3 -560 3 -569 25 -608 28 -52 68 -89 123 -114 36 -17 66 -21 153
-21 l107 0 0 95 0 95 -49 0 c-65 0 -106 16 -120 46 -8 18 -11 179 -11 549 l0
525 -115 0 -116 0 3 -567z M3272 1128 l3 -503 28 -58 c43 -87 85 -111 204
-115 l93 -4 0 56 0 56 -61 0 c-56 0 -64 3 -95 34 l-34 34 0 291 0 291 63 0 63
0 59 60 59 60 -122 0 -122 0 0 150 0 150 -70 0 -71 0 3 -502z M6560 1385
c-105 -30 -192 -103 -236 -200 -50 -109 -56 -369 -13 -499 53 -157 185 -246
364 -247 125 0 200 25 280 94 86 74 125 194 125 387 0 133 -19 234 -54 295
-37 62 -118 130 -184 156 -75 28 -207 35 -282 14z m208 -222 c14 -10 34 -30
44 -44 25 -35 42 -159 33 -259 -12 -152 -57 -210 -163 -210 -67 0 -103 20
-134 74 -20 36 -23 57 -26 171 -5 181 17 247 92 281 41 19 120 12 154 -13z
M8257 1390 c-205 -52 -317 -240 -304 -510 15 -298 154 -441 431 -441 130 0
212 24 295 87 34 25 61 49 61 53 0 3 -31 37 -68 74 l-69 68 -31 -25 c-115 -97
-305 -79 -364 36 -10 20 -22 52 -25 72 l-6 36 297 0 296 0 0 90 c0 109 -13
176 -51 257 -37 78 -118 153 -197 183 -64 25 -203 35 -265 20z m191 -208 c49
-22 92 -96 92 -159 l0 -23 -177 2 -178 3 2 39 c3 47 42 117 76 135 58 31 121
32 185 3z M9265 1387 c-55 -19 -85 -35 -117 -65 l-28 -26 0 47 0 47 -115 0
-115 0 0 -470 0 -470 120 0 120 0 0 313 c0 353 2 361 76 405 49 29 121 26 166
-8 l30 -22 89 88 c61 60 85 91 79 99 -5 7 -33 24 -61 39 -61 34 -179 44 -244
23z M10922 1385 c-71 -20 -106 -39 -159 -88 -91 -84 -123 -181 -123 -377 0
-271 80 -409 268 -466 72 -22 201 -19 278 6 86 29 170 105 208 189 55 122 58
385 7 522 -31 81 -88 142 -175 184 -62 31 -84 37 -161 41 -62 3 -107 -1 -143
-11z m206 -222 c52 -37 67 -85 70 -224 4 -154 -6 -200 -58 -251 -35 -35 -42
-38 -96 -38 -114 0 -159 57 -170 217 -16 220 46 330 179 320 27 -3 60 -13 75
-24z M7082 1382 c2 -5 80 -216 173 -470 l170 -462 95 0 95 0 145 397 c80 219
157 430 172 470 l27 73 -124 0 -124 0 -93 -285 c-51 -157 -95 -285 -98 -285
-3 0 -48 128 -100 285 l-95 285 -123 0 c-68 0 -122 -4 -120 -8z M11440 1388
c0 -2 65 -212 144 -468 l143 -465 99 -3 99 -3 89 268 c49 147 93 279 99 293 8
22 23 -15 107 -265 l97 -290 99 -3 99 -2 139 457 c76 252 141 464 144 471 3 9
-25 12 -120 12 l-125 0 -74 -285 c-40 -157 -76 -285 -79 -285 -3 0 -48 128
-100 285 l-95 285 -85 0 -86 0 -95 -289 c-63 -195 -96 -284 -102 -273 -6 15
-147 548 -147 558 0 2 -56 4 -125 4 -69 0 -125 -1 -125 -2z M2655 1340 c-119
-38 -185 -124 -185 -242 0 -81 17 -124 69 -171 51 -46 109 -63 263 -77 152
-14 206 -36 227 -92 30 -82 -20 -166 -117 -194 -116 -34 -278 -7 -367 61 l-32
24 -42 -43 -42 -43 32 -27 c79 -67 180 -96 329 -97 179 0 294 51 345 156 44
88 33 216 -23 278 -9 11 -38 30 -64 43 -46 23 -88 31 -281 53 -132 15 -173 49
-171 138 1 51 25 88 75 118 28 17 52 20 139 20 98 0 110 -2 168 -31 l61 -30
41 41 c46 46 45 47 -27 84 -104 52 -286 66 -398 31z M3897 1350 c-56 -14 -108
-44 -145 -83 l-33 -34 42 -42 42 -41 42 38 c52 49 119 67 221 59 142 -11 196
-66 198 -205 l1 -77 -195 -5 c-189 -5 -197 -6 -253 -33 -121 -60 -168 -193
-116 -331 40 -108 134 -157 298 -157 108 0 155 11 220 56 l51 34 0 -40 0 -39
66 0 65 0 -3 348 -3 347 -26 56 c-29 61 -67 96 -145 131 -40 18 -70 22 -169
24 -66 2 -137 -1 -158 -6z m370 -580 c-7 -112 -25 -152 -85 -187 -37 -22 -61
-28 -131 -31 -102 -5 -160 9 -203 47 -27 24 -32 36 -36 88 -6 85 24 137 93
161 17 6 106 11 199 11 l169 1 -6 -90z M4793 1346 c-177 -58 -273 -214 -273
-446 0 -154 37 -265 114 -348 138 -147 413 -155 547 -16 l33 34 -41 42 -42 41
-35 -31 c-51 -45 -91 -63 -150 -69 -131 -13 -238 60 -277 189 -29 95 -24 266
10 344 45 102 129 157 241 156 77 0 110 -11 168 -59 l44 -36 41 42 42 42 -43
39 c-74 66 -123 84 -237 87 -64 2 -115 -2 -142 -11z"/>
</g>
</svg>
