<?xml version="1.0" standalone="no"?>
<!DOCTYPE svg PUBLIC "-//W3C//DTD SVG 20010904//EN"
 "http://www.w3.org/TR/2001/REC-SVG-20010904/DTD/svg10.dtd">
<svg version="1.0" xmlns="http://www.w3.org/2000/svg"
 width="225.000000pt" height="225.000000pt" viewBox="0 0 225.000000 225.000000"
 preserveAspectRatio="xMidYMid meet">
<metadata>
Created by potrace 1.16, written by Peter Selinger 2001-2019
</metadata>
<g transform="translate(0.000000,225.000000) scale(0.100000,-0.100000)"
fill="#000000" stroke="none">
<path d="M1325 1695 c-74 -30 -146 -103 -169 -171 -9 -26 -16 -78 -16 -116 l0
-69 -52 7 c-203 26 -389 117 -528 258 -30 31 -58 56 -61 56 -11 0 -39 -114
-39 -158 0 -63 36 -145 88 -203 l47 -52 -40 7 c-22 4 -53 15 -69 23 l-29 15 6
-50 c12 -106 90 -205 189 -240 56 -20 45 -32 -29 -32 -29 0 -53 -4 -53 -8 0
-17 58 -99 90 -125 45 -38 80 -55 141 -68 49 -11 52 -12 33 -26 -34 -26 -148
-81 -194 -94 -25 -6 -88 -15 -140 -19 l-95 -6 86 -42 c150 -73 320 -101 484
-82 314 37 557 211 691 495 54 115 74 196 81 318 l6 98 75 74 c42 41 73 77 70
80 -2 3 -22 -1 -44 -8 -21 -8 -57 -17 -79 -21 l-40 -8 40 35 c22 19 53 57 68
85 l27 50 -77 -34 c-43 -19 -88 -34 -99 -34 -12 0 -45 16 -74 35 -92 62 -191
72 -295 30z"/>
</g>
</svg>
