<?xml version="1.0" standalone="no"?>
<!DOCTYPE svg PUBLIC "-//W3C//DTD SVG 20010904//EN"
 "http://www.w3.org/TR/2001/REC-SVG-20010904/DTD/svg10.dtd">
<svg version="1.0" xmlns="http://www.w3.org/2000/svg"
 width="1200.000000pt" height="1200.000000pt" viewBox="0 0 1200.000000 1200.000000"
 preserveAspectRatio="xMidYMid meet">
<metadata>
Created by potrace 1.16, written by Peter Selinger 2001-2019
</metadata>
<g transform="translate(0.000000,1200.000000) scale(0.100000,-0.100000)"
fill="#000000" stroke="none">
<path d="M5246 10979 c-384 -130 -613 -302 -727 -544 -57 -123 -72 -210 -66
-379 5 -160 22 -230 89 -358 126 -243 444 -413 833 -446 l90 -7 -84 -90 c-273
-293 -587 -710 -798 -1060 -586 -973 -866 -2073 -822 -3232 21 -558 117 -991
299 -1354 283 -567 767 -884 1470 -965 177 -20 601 -15 950 11 606 46 965 -20
1155 -210 114 -114 172 -267 182 -481 12 -259 -57 -483 -214 -691 -93 -124
-197 -201 -335 -250 -61 -22 -95 -27 -205 -31 -157 -5 -277 12 -458 65 -66 20
-176 51 -245 70 -405 111 -637 -1 -657 -317 -16 -259 110 -432 372 -508 271
-79 718 -58 1021 49 579 203 965 702 1083 1399 74 438 43 896 -84 1231 -181
476 -478 721 -942 780 -119 15 -616 7 -988 -16 -651 -40 -1088 60 -1399 319
-64 54 -150 162 -209 262 -205 350 -290 889 -247 1559 84 1286 561 2373 1476
3361 88 95 96 102 141 108 115 16 450 89 578 125 527 149 882 335 1168 610
188 181 286 367 287 542 0 139 -74 213 -228 226 -236 19 -601 -135 -1042 -440
-343 -237 -595 -444 -872 -715 l-106 -105 -114 6 c-128 7 -202 24 -305 72
-226 104 -341 268 -358 512 -21 289 143 526 475 688 51 24 95 46 97 48 8 8
-85 202 -98 205 -8 1 -81 -21 -163 -49z"/>
</g>
</svg>
