<?xml version="1.0" standalone="no"?>
<!DOCTYPE svg PUBLIC "-//W3C//DTD SVG 20010904//EN"
 "http://www.w3.org/TR/2001/REC-SVG-20010904/DTD/svg10.dtd">
<svg version="1.0" xmlns="http://www.w3.org/2000/svg"
 width="580.000000pt" height="751.000000pt" viewBox="0 0 580.000000 751.000000"
 preserveAspectRatio="xMidYMid meet">
<metadata>
Created by potrace 1.16, written by Peter Selinger 2001-2019
</metadata>
<g transform="translate(0.000000,751.000000) scale(0.100000,-0.100000)"
fill="#000000" stroke="none">
<path d="M240 5926 l0 -334 188 -5 c202 -5 240 -12 296 -59 52 -43 74 -99 86
-219 17 -162 8 -3001 -9 -3055 -17 -54 -63 -109 -111 -134 -44 -22 -200 -40
-352 -40 l-98 0 0 -335 0 -335 1180 0 1180 0 0 335 0 335 -117 0 c-249 1 -360
25 -412 91 -52 67 -55 89 -59 449 l-3 335 352 300 c194 165 360 306 370 313
16 11 33 -11 177 -215 87 -126 288 -411 445 -635 156 -224 299 -432 317 -462
40 -71 38 -112 -6 -138 -33 -19 -204 -37 -356 -38 l-78 0 0 -335 0 -335 1220
0 1220 0 0 335 0 335 -52 0 c-78 0 -226 19 -281 35 -70 21 -106 46 -184 128
-77 82 -94 103 -942 1251 -593 801 -612 829 -594 846 40 39 1183 1026 1251
1081 98 79 195 135 267 154 36 9 103 15 172 15 l113 0 0 335 0 335 -1095 0
-1095 0 0 -335 0 -335 158 0 c86 0 175 -5 197 -10 75 -17 97 -82 49 -151 -14
-20 -134 -137 -267 -260 -375 -348 -942 -874 -1154 -1071 -105 -98 -194 -178
-198 -178 -3 0 -4 330 -3 733 3 561 7 741 17 770 16 49 73 112 125 140 37 19
61 21 244 25 l202 4 0 334 0 334 -1180 0 -1180 0 0 -334z"/>
</g>
</svg>
