<?xml version="1.0" standalone="no"?>
<!DOCTYPE svg PUBLIC "-//W3C//DTD SVG 20010904//EN"
 "http://www.w3.org/TR/2001/REC-SVG-20010904/DTD/svg10.dtd">
<svg version="1.0" xmlns="http://www.w3.org/2000/svg"
 width="390.000000pt" height="130.000000pt" viewBox="0 0 390.000000 130.000000"
 preserveAspectRatio="xMidYMid meet">
<metadata>
Created by potrace 1.16, written by Peter Selinger 2001-2019
</metadata>
<g transform="translate(0.000000,130.000000) scale(0.100000,-0.100000)"
fill="#000000" stroke="none">
<path d="M3611 1074 c-25 -18 -27 -56 -5 -78 31 -32 84 -11 84 33 0 45 -44 69
-79 45z m63 -20 c9 -24 7 -44 -5 -44 -5 0 -9 10 -7 23 2 16 -3 23 -19 25 -20
3 -23 -1 -24 -30 0 -31 -1 -31 -11 -11 -8 17 -8 26 2 38 16 20 56 19 64 -1z
m-24 -44 c9 -16 8 -20 -5 -20 -8 0 -15 9 -15 20 0 11 2 20 5 20 2 0 9 -9 15
-20z M233 1056 l-28 -24 -3 -376 c-3 -414 -2 -421 57 -446 42 -17 95 -5 121
27 18 23 20 40 20 159 0 74 3 134 8 134 4 0 140 1 303 3 l296 2 49 30 c31 20
58 47 74 75 23 41 25 55 25 171 0 122 -1 127 -30 174 -20 32 -45 56 -74 72
-44 23 -46 23 -417 23 l-373 0 -28 -24z m717 -246 l0 -70 -275 0 -275 0 0 70
0 70 275 0 275 0 0 -70z M1287 1069 c-45 -26 -47 -48 -47 -428 0 -238 4 -368
11 -384 13 -28 58 -57 89 -57 31 0 76 29 89 57 7 16 11 146 11 384 0 383 -2
403 -49 429 -25 13 -81 12 -104 -1z M1593 1060 c-68 -41 -68 -38 -71 -410 -2
-256 0 -344 10 -374 26 -80 123 -99 172 -33 20 27 21 42 23 290 1 144 3 264 3
267 0 3 132 -127 293 -287 160 -161 305 -297 320 -303 64 -23 130 1 167 62 19
31 20 51 20 381 0 237 -4 355 -11 370 -31 60 -106 76 -156 33 l-28 -24 -5
-272 -5 -271 -290 284 c-159 156 -300 289 -312 295 -33 18 -94 14 -130 -8z
M2734 1065 c-17 -8 -47 -31 -66 -53 -54 -60 -60 -105 -56 -402 3 -240 4 -257
25 -296 28 -53 73 -91 123 -104 26 -7 160 -10 372 -8 379 3 385 5 443 87 30
42 30 43 30 181 0 138 0 139 -30 181 -16 23 -50 53 -74 66 -42 22 -53 23 -262
23 l-219 0 -32 -29 c-44 -39 -46 -98 -5 -138 l27 -28 200 -3 200 -3 0 -70 0
-69 -295 2 -296 3 0 218 c0 119 1 226 1 237 0 20 7 20 329 20 324 0 328 0 361
23 62 41 58 137 -6 166 -38 17 -729 14 -770 -4z"/>
</g>
</svg>
