<?xml version="1.0" standalone="no"?>
<!DOCTYPE svg PUBLIC "-//W3C//DTD SVG 20010904//EN"
 "http://www.w3.org/TR/2001/REC-SVG-20010904/DTD/svg10.dtd">
<svg version="1.0" xmlns="http://www.w3.org/2000/svg"
 width="225.000000pt" height="225.000000pt" viewBox="0 0 225.000000 225.000000"
 preserveAspectRatio="xMidYMid meet">
<metadata>
Created by potrace 1.16, written by Peter Selinger 2001-2019
</metadata>
<g transform="translate(0.000000,225.000000) scale(0.100000,-0.100000)"
fill="#000000" stroke="none">
<path d="M1155 2141 c-3 -5 15 -29 39 -53 57 -56 59 -69 54 -376 -2 -190 -6
-245 -16 -251 -22 -14 -9 -42 28 -63 42 -23 53 -21 200 31 123 44 184 52 194
25 10 -27 7 -78 -10 -133 -11 -40 -21 -54 -42 -63 -45 -18 -195 -56 -273 -69
-67 -11 -82 -10 -158 10 -47 11 -95 21 -108 21 -37 0 -28 -29 26 -79 l48 -46
7 -135 c4 -74 9 -227 12 -340 6 -260 16 -309 85 -380 106 -111 334 -156 574
-114 99 17 141 32 230 83 77 43 105 69 105 96 0 23 -28 55 -48 55 -21 0 -70
79 -93 148 -12 37 -33 80 -45 95 -13 16 -24 40 -24 55 0 16 -4 22 -9 17 -5 -6
-14 -86 -21 -180 -7 -93 -16 -177 -21 -186 -12 -23 -112 -59 -200 -70 -61 -9
-99 -7 -190 6 -176 26 -229 65 -229 170 l0 50 103 2 c134 2 475 63 494 89 19
26 16 40 -13 63 -37 29 -100 27 -161 -4 -51 -26 -278 -65 -380 -65 -59 0 -60
2 -47 82 6 37 7 38 44 32 23 -4 112 8 241 31 255 47 313 64 317 91 4 30 -40
55 -108 61 -48 5 -66 1 -111 -20 -56 -27 -256 -67 -335 -67 -42 0 -44 1 -44
31 0 16 5 50 11 75 9 35 15 44 28 39 72 -30 157 -28 301 7 106 26 138 42 151
75 21 57 -66 86 -135 44 -39 -24 -202 -61 -267 -61 -56 0 -56 0 -62 82 l-4 57
42 -6 c27 -3 90 5 186 25 79 17 166 35 193 39 59 10 76 30 57 67 -12 22 -11
34 14 103 16 43 39 93 52 112 20 30 22 37 10 55 -21 32 -117 86 -153 86 -17 0
-43 -9 -57 -20 -24 -19 -266 -85 -276 -75 -2 3 4 57 13 121 16 99 21 114 35
108 40 -17 76 -13 224 25 87 23 170 41 184 41 37 0 91 29 99 52 18 57 -112 91
-193 50 -22 -12 -86 -35 -141 -51 -56 -17 -111 -35 -123 -41 -11 -7 -26 -9
-33 -7 -21 8 -6 114 26 190 27 65 28 70 13 87 -28 31 -98 58 -179 69 -95 13
-123 14 -131 2z M531 2101 c-12 -8 -12 -13 2 -34 9 -14 30 -34 46 -43 38 -22
48 -48 61 -153 8 -65 7 -87 -2 -92 -7 -5 -44 -13 -83 -19 -38 -7 -92 -16 -118
-21 -26 -5 -83 -9 -127 -9 -43 0 -81 -4 -84 -9 -16 -25 129 -101 192 -101 15
0 77 10 137 21 61 12 123 24 138 26 22 4 35 -1 59 -23 26 -26 29 -34 24 -69
-3 -23 -19 -78 -37 -124 -35 -92 -47 -102 -134 -105 l-50 -1 -6 55 c-7 68 -17
88 -65 130 -62 54 -163 88 -187 64 -11 -12 33 -78 66 -99 40 -25 68 -82 70
-142 l2 -47 -110 -27 c-60 -15 -138 -28 -172 -28 -34 -1 -64 -5 -67 -10 -7
-11 82 -68 136 -87 33 -12 43 -11 81 6 60 27 303 85 416 100 52 7 147 16 211
20 120 7 152 17 170 50 34 64 -71 95 -217 65 -39 -9 -40 -6 -10 54 13 25 32
70 42 99 l20 54 -23 38 c-22 38 -22 40 -3 49 10 6 45 14 77 17 68 8 104 33
104 75 0 34 -15 46 -77 60 -44 10 -61 9 -130 -10 -44 -11 -82 -21 -86 -21 -12
0 -8 51 10 132 19 91 12 117 -39 144 -38 20 -213 31 -237 15z M724 1175 c-46
-36 -226 -74 -323 -67 -54 3 -75 1 -82 -9 -11 -18 -5 -25 48 -51 l46 -23 -7
-191 c-8 -244 -22 -392 -41 -438 -21 -49 -19 -101 6 -171 34 -98 65 -117 109
-70 23 25 25 35 32 207 5 100 9 183 11 184 9 9 194 35 230 32 l42 -3 0 -95
c-1 -133 -6 -140 -101 -140 l-76 0 39 -47 c21 -27 65 -85 97 -130 62 -87 77
-99 106 -83 44 23 52 93 60 470 9 415 13 460 47 501 31 36 27 57 -16 86 -32
22 -152 63 -182 63 -8 0 -28 -11 -45 -25z m86 -102 c1 -16 2 -149 1 -165 -1
-13 -8 -16 -33 -11 -18 2 -70 -5 -115 -16 -123 -32 -119 -33 -127 51 -5 54 -3
75 7 85 8 8 49 20 93 28 43 8 93 19 109 24 38 12 65 13 65 4z m2 -259 c2 -9 1
-43 0 -76 l-4 -59 -28 6 c-18 4 -41 0 -62 -11 -33 -18 -178 -55 -188 -49 -3 2
-3 36 0 77 l5 73 50 8 c28 5 84 16 125 26 98 24 98 24 102 5z"/>
</g>
</svg>
