<?xml version="1.0" standalone="no"?>
<!DOCTYPE svg PUBLIC "-//W3C//DTD SVG 20010904//EN"
 "http://www.w3.org/TR/2001/REC-SVG-20010904/DTD/svg10.dtd">
<svg version="1.0" xmlns="http://www.w3.org/2000/svg"
 width="840.000000pt" height="672.000000pt" viewBox="0 0 840.000000 672.000000"
 preserveAspectRatio="xMidYMid meet">
<metadata>
Created by potrace 1.16, written by Peter Selinger 2001-2019
</metadata>
<g transform="translate(0.000000,672.000000) scale(0.100000,-0.100000)"
fill="#000000" stroke="none">
<path d="M1761 6309 c-377 -34 -583 -131 -862 -409 -221 -221 -363 -435 -499
-755 -39 -90 -178 -499 -194 -567 l-6 -28 114 0 115 0 65 98 c219 333 388 497
590 571 144 53 328 71 744 71 l272 0 0 -29 c0 -15 -29 -275 -65 -577 -35 -302
-103 -880 -150 -1284 -47 -404 -94 -769 -104 -810 -74 -297 -200 -473 -652
-905 -171 -164 -253 -264 -309 -378 -60 -122 -73 -188 -68 -332 4 -96 10 -133
30 -187 72 -191 220 -336 408 -398 90 -30 233 -37 330 -16 289 62 502 295 639
703 81 242 157 668 251 1423 70 564 101 870 246 2450 13 151 27 290 30 308 l5
32 604 0 605 0 0 -23 c0 -12 -13 -182 -30 -377 -151 -1813 -182 -2290 -196
-3040 -9 -460 10 -704 73 -919 55 -192 137 -339 250 -449 124 -119 324 -192
493 -179 331 26 577 280 596 615 13 217 -64 392 -319 730 -289 382 -398 608
-427 884 -10 90 -5 211 39 963 28 473 60 1022 71 1220 12 198 24 407 28 465
l7 105 713 3 c391 1 712 -1 712 -5 0 -5 -7 -48 -14 -98 -54 -334 -135 -1079
-176 -1610 -40 -520 -45 -637 -45 -1075 0 -372 3 -469 18 -590 76 -601 235
-1015 491 -1274 170 -173 355 -260 582 -273 458 -27 883 274 1172 827 116 221
167 372 207 605 19 110 55 467 55 541 0 11 -27 14 -139 14 l-139 0 -12 -87
c-32 -229 -107 -433 -205 -556 -165 -207 -457 -267 -703 -143 -269 136 -428
397 -472 776 -14 117 -14 814 0 1185 24 656 68 1299 113 1665 l12 95 733 3
732 2 0 515 0 515 -3132 -1 c-1723 -1 -3175 -6 -3227 -10z"/>
</g>
</svg>
