<?xml version="1.0" standalone="no"?>
<!DOCTYPE svg PUBLIC "-//W3C//DTD SVG 20010904//EN"
 "http://www.w3.org/TR/2001/REC-SVG-20010904/DTD/svg10.dtd">
<svg version="1.0" xmlns="http://www.w3.org/2000/svg"
 width="225.000000pt" height="225.000000pt" viewBox="0 0 225.000000 225.000000"
 preserveAspectRatio="xMidYMid meet">
<metadata>
Created by potrace 1.16, written by Peter Selinger 2001-2019
</metadata>
<g transform="translate(0.000000,225.000000) scale(0.100000,-0.100000)"
fill="#000000" stroke="none">
<path d="M638 2130 c-25 -16 -22 -27 12 -45 16 -8 37 -26 46 -40 15 -23 14
-27 -29 -92 -24 -38 -58 -85 -76 -106 -30 -34 -37 -37 -86 -37 -30 0 -56 -4
-60 -10 -3 -5 20 -26 52 -47 42 -28 61 -48 70 -73 8 -22 12 -108 13 -235 0
-186 -5 -261 -31 -424 -10 -62 -9 -66 25 -137 37 -79 54 -93 90 -76 16 7 38 6
77 -4 40 -11 63 -12 89 -5 54 16 285 53 385 62 50 4 142 13 205 20 63 7 183
13 265 13 l150 1 6 -120 c6 -133 -6 -227 -46 -360 -14 -44 -35 -93 -49 -110
-23 -29 -28 -30 -98 -29 -66 1 -155 21 -237 55 -13 5 -26 8 -28 5 -2 -2 45
-53 105 -113 60 -59 113 -119 117 -133 17 -55 69 -54 152 3 129 87 222 266
238 460 8 99 24 205 37 250 11 37 11 39 -38 88 -94 96 -80 93 -373 86 -141 -4
-299 -13 -351 -21 -52 -8 -133 -17 -180 -21 -47 -4 -137 -16 -200 -27 -200
-35 -190 -35 -190 2 0 17 5 63 12 102 l11 70 39 -6 c22 -4 74 0 116 8 223 42
600 70 957 71 223 0 254 2 278 18 29 19 32 32 18 70 -13 34 -80 58 -179 65
-74 4 -85 3 -105 -16 -23 -21 -79 -28 -452 -62 -241 -23 -383 -39 -514 -60
-74 -11 -141 -18 -148 -16 -9 4 -13 27 -13 80 0 85 -6 80 100 90 30 3 107 12
170 21 167 22 278 20 304 -4 12 -11 33 -22 47 -26 49 -12 71 36 154 328 19 65
43 129 55 144 28 36 27 93 -2 120 -59 54 -135 103 -163 105 -52 2 -68 -2 -82
-21 -10 -15 -31 -20 -95 -26 -46 -3 -152 -20 -235 -37 -84 -16 -157 -28 -163
-26 -5 1 11 29 38 62 73 91 71 84 37 112 -55 44 -209 78 -247 54z m680 -236
c16 -5 22 -14 22 -34 0 -42 -27 -183 -57 -293 -25 -95 -27 -99 -51 -94 -23 4
-189 -21 -377 -57 -44 -9 -93 -16 -108 -16 l-28 0 3 83 3 82 75 6 c63 5 333
48 406 64 11 2 26 17 33 31 18 40 -4 57 -82 62 -48 3 -73 0 -98 -14 -37 -19
-245 -64 -296 -64 -28 0 -33 4 -42 35 -5 19 -19 47 -30 61 -38 48 -24 64 52
64 23 0 65 9 92 19 119 45 411 84 483 65z M1394 788 c8 -18 28 -65 44 -104 17
-38 38 -100 48 -137 22 -89 44 -117 94 -117 47 0 56 11 65 81 6 45 3 63 -14
101 -37 78 -182 208 -233 208 -17 0 -17 -3 -4 -32z M358 713 c-3 -64 -11 -92
-41 -156 -20 -44 -51 -95 -68 -115 -28 -32 -31 -40 -25 -81 19 -142 83 -219
133 -161 60 70 109 342 84 462 -11 50 -54 128 -71 128 -4 0 -10 -35 -12 -77z
M1004 743 c3 -10 15 -56 26 -103 12 -47 28 -103 36 -124 9 -22 20 -65 25 -95
19 -106 79 -161 123 -112 15 17 45 131 46 174 0 35 -58 134 -109 185 -71 72
-160 116 -147 75z M658 593 c4 -161 22 -289 48 -328 29 -44 87 -46 113 -3 9
14 16 61 19 124 4 100 4 101 -35 185 -29 62 -52 95 -88 127 -26 23 -51 42 -54
42 -3 0 -5 -66 -3 -147z"/>
</g>
</svg>
