<?xml version="1.0" standalone="no"?>
<!DOCTYPE svg PUBLIC "-//W3C//DTD SVG 20010904//EN"
 "http://www.w3.org/TR/2001/REC-SVG-20010904/DTD/svg10.dtd">
<svg version="1.0" xmlns="http://www.w3.org/2000/svg"
 width="219.000000pt" height="231.000000pt" viewBox="0 0 219.000000 231.000000"
 preserveAspectRatio="xMidYMid meet">
<metadata>
Created by potrace 1.16, written by Peter Selinger 2001-2019
</metadata>
<g transform="translate(0.000000,231.000000) scale(0.100000,-0.100000)"
fill="#000000" stroke="none">
<path d="M681 2148 c-5 -13 -12 -66 -15 -118 -4 -52 -16 -156 -26 -230 -10
-74 -22 -159 -25 -187 l-7 -53 -71 -38 c-83 -44 -292 -178 -353 -225 -23 -18
-56 -40 -74 -50 -55 -30 -27 -42 112 -45 154 -4 221 14 309 83 l59 46 0 -31
c0 -55 -126 -278 -276 -488 -92 -128 -95 -153 -34 -231 24 -30 49 -51 60 -51
12 0 32 20 54 53 38 57 175 217 186 217 4 0 10 -62 14 -137 3 -76 9 -157 13
-181 l6 -43 -39 7 c-21 3 -47 11 -56 15 -31 16 -29 -9 2 -28 31 -18 90 -112
90 -144 0 -21 78 -94 126 -116 l36 -18 29 33 c34 38 36 70 15 177 -19 94 -36
320 -36 486 l0 135 58 55 c79 76 179 160 230 194 23 15 42 31 42 35 0 12 131
68 223 94 108 31 251 43 329 27 151 -32 262 -193 243 -355 -8 -73 -44 -170
-92 -249 -97 -160 -318 -331 -519 -402 l-62 -22 112 -13 c187 -23 207 -21 325
33 118 54 130 62 228 159 125 123 182 274 186 493 2 108 1 112 -35 188 -45 95
-134 191 -217 236 -94 50 -175 64 -331 58 -247 -9 -423 -78 -652 -254 l-58
-44 0 74 c0 69 3 78 40 135 21 34 47 76 56 94 18 34 16 37 -49 83 -16 11 -17
22 -6 157 l11 144 -52 115 c-66 147 -91 175 -109 127z"/>
</g>
</svg>
