<?xml version="1.0" standalone="no"?>
<!DOCTYPE svg PUBLIC "-//W3C//DTD SVG 20010904//EN"
 "http://www.w3.org/TR/2001/REC-SVG-20010904/DTD/svg10.dtd">
<svg version="1.0" xmlns="http://www.w3.org/2000/svg"
 width="960.000000pt" height="720.000000pt" viewBox="0 0 960.000000 720.000000"
 preserveAspectRatio="xMidYMid meet">
<metadata>
Created by potrace 1.16, written by Peter Selinger 2001-2019
</metadata>
<g transform="translate(0.000000,720.000000) scale(0.100000,-0.100000)"
fill="#000000" stroke="none">
<path d="M4120 6045 c0 -45 7 -65 45 -130 73 -124 75 -117 -56 -210 -354 -251
-672 -427 -1303 -721 l-170 -79 100 -47 c269 -127 457 -150 764 -93 47 9 92
18 101 21 12 3 24 -13 46 -63 59 -131 89 -282 95 -482 l3 -103 -145 -54 c-250
-93 -853 -284 -1090 -344 -145 -37 -195 -37 -350 1 -69 16 -147 31 -174 32
l-50 2 -20 -48 -20 -47 77 -113 c185 -272 378 -477 513 -543 65 -33 86 -38
143 -38 79 0 144 26 301 123 169 103 206 124 378 214 89 46 162 81 162 76 0
-4 -4 -10 -9 -14 -18 -10 -157 -189 -281 -360 -191 -264 -318 -413 -530 -626
-183 -184 -320 -306 -554 -494 l-100 -80 75 -23 c115 -37 194 -51 319 -58 337
-19 610 96 914 386 142 136 367 379 420 453 l41 59 3 -99 c8 -236 -31 -577
-99 -878 -49 -216 -59 -343 -35 -455 36 -171 281 -595 404 -701 64 -55 173
-77 243 -50 35 13 76 64 88 109 37 133 37 168 1 912 -5 102 -9 429 -10 727 l0
542 98 -98 c105 -106 199 -163 288 -177 100 -15 159 29 194 144 46 148 43 297
-10 402 -96 193 -225 309 -375 340 -28 6 -75 25 -105 43 l-55 33 4 95 c2 52 6
125 10 164 l6 69 71 27 c39 14 120 43 180 64 282 97 364 168 364 313 0 53 -18
90 -65 131 -51 44 -161 97 -233 112 -56 12 -72 11 -155 -8 -50 -11 -93 -20
-95 -18 -2 2 4 40 12 85 9 45 16 114 16 154 0 122 -55 192 -214 273 -77 39
-175 73 -215 74 -65 1 -62 15 5 28 158 28 416 117 628 215 177 82 318 175 369
243 77 103 -4 261 -202 393 -80 53 -262 141 -363 175 -69 23 -236 55 -355 68
l-43 5 0 -53z M6800 4181 c-30 -10 -80 -30 -111 -44 -79 -36 -169 -50 -784
-126 -471 -58 -441 -56 -521 -31 -138 43 -265 -7 -427 -167 -138 -137 -162
-211 -114 -353 14 -41 70 -169 125 -285 89 -187 108 -236 167 -440 111 -387
226 -582 428 -732 92 -67 211 -92 276 -58 54 28 122 131 136 208 8 42 12 43
115 52 164 13 202 15 400 25 561 28 673 47 699 120 17 51 -15 178 -54 210 -12
10 -8 23 21 73 19 34 118 229 219 432 122 247 196 385 223 415 53 61 80 116
94 197 13 80 8 106 -29 155 -83 107 -381 284 -571 339 -100 30 -224 34 -292
10z m-190 -633 c-35 -104 -226 -641 -260 -730 l-21 -57 -52 -5 c-43 -5 -222
-18 -386 -29 l-33 -2 -62 180 c-71 205 -118 325 -170 438 -20 43 -36 81 -36
85 0 4 33 13 73 19 39 7 177 44 305 83 128 38 279 79 336 90 109 22 329 40
334 28 2 -4 -11 -49 -28 -100z"/>
</g>
</svg>
